<svg width="108" height="17" viewBox="0 0 108 17" fill="none" xmlns="http://www.w3.org/2000/svg">
<g clip-path="url(#clip0_541_3175)">
<path d="M21.75 1.03058H2.25C1.14543 1.03058 0.25 1.92601 0.25 3.03058V14.5306C0.25 15.6351 1.14543 16.5306 2.25 16.5306H21.75C22.8546 16.5306 23.75 15.6351 23.75 14.5306V3.03058C23.75 1.92601 22.8546 1.03058 21.75 1.03058Z" fill="white" stroke="black" stroke-opacity="0.2" stroke-width="0.5"/>
<path d="M2.78773 6.69502C2.26459 6.40808 1.66754 6.17732 1 6.01717L1.028 5.89246H3.76498C4.13596 5.90546 4.43699 6.01708 4.53495 6.41129L5.12977 9.24717L5.31198 10.1013L6.97797 5.89246H8.77679L6.10288 12.0581H4.30397L2.78773 6.69502ZM10.1 12.0647H8.39883L9.46285 5.89246H11.1639L10.1 12.0647ZM16.2668 6.04335L16.0354 7.37616L15.8816 7.31062C15.5737 7.18582 15.1674 7.06111 14.6144 7.07429C13.9427 7.07429 13.6415 7.34335 13.6345 7.60604C13.6345 7.89499 13.9989 8.08542 14.5939 8.36783C15.574 8.80777 16.0286 9.34614 16.0218 10.0488C16.0081 11.3292 14.846 12.1566 13.0611 12.1566C12.2979 12.15 11.5628 11.9987 11.1638 11.8281L11.4019 10.4426L11.6259 10.5412C12.1789 10.7713 12.5428 10.8696 13.222 10.8696C13.7118 10.8696 14.2369 10.679 14.2436 10.2655C14.2436 9.99623 14.0199 9.79908 13.3617 9.49704C12.7178 9.20145 11.8568 8.70906 11.8708 7.82256C11.8781 6.621 13.0611 5.78058 14.741 5.78058C15.399 5.78058 15.9312 5.91847 16.2668 6.04335ZM18.5278 9.87806H19.9417C19.8718 9.56947 19.5496 8.09205 19.5496 8.09205L19.4307 7.56022C19.3467 7.79001 19.1999 8.16431 19.2069 8.15113C19.2069 8.15113 18.6678 9.52348 18.5278 9.87806ZM20.6276 5.89246L22 12.0646H20.4249C20.4249 12.0646 20.2708 11.3554 20.2219 11.1387H18.0378C17.9746 11.3028 17.6808 12.0646 17.6808 12.0646H15.8958L18.4226 6.40457C18.5977 6.00399 18.906 5.89246 19.3118 5.89246H20.6276Z" fill="#171E6C"/>
</g>
<g clip-path="url(#clip1_541_3175)">
<path d="M50 0.780579H30C28.8954 0.780579 28 1.67601 28 2.78058V14.7806C28 15.8851 28.8954 16.7806 30 16.7806H50C51.1046 16.7806 52 15.8851 52 14.7806V2.78058C52 1.67601 51.1046 0.780579 50 0.780579Z" fill="#252525"/>
<path d="M37 13.7806C39.7614 13.7806 42 11.542 42 8.78058C42 6.01915 39.7614 3.78058 37 3.78058C34.2386 3.78058 32 6.01915 32 8.78058C32 11.542 34.2386 13.7806 37 13.7806Z" fill="#EB001B"/>
<path d="M43 13.7806C45.7614 13.7806 48 11.542 48 8.78058C48 6.01915 45.7614 3.78058 43 3.78058C40.2386 3.78058 38 6.01915 38 8.78058C38 11.542 40.2386 13.7806 43 13.7806Z" fill="#F79E1B"/>
<path fill-rule="evenodd" clip-rule="evenodd" d="M40 4.78021C41.2144 5.69242 42 7.14476 42 8.78058C42 10.4164 41.2144 11.8687 40 12.7809C38.7856 11.8687 38 10.4164 38 8.78058C38 7.14476 38.7856 5.69242 40 4.78021V4.78021Z" fill="#FF5F00"/>
</g>
<g clip-path="url(#clip2_541_3175)">
<path d="M78 0.780579H58C56.8954 0.780579 56 1.67601 56 2.78058V14.7806C56 15.8851 56.8954 16.7806 58 16.7806H78C79.1046 16.7806 80 15.8851 80 14.7806V2.78058C80 1.67601 79.1046 0.780579 78 0.780579Z" fill="#016FD0"/>
<path fill-rule="evenodd" clip-rule="evenodd" d="M69.7637 14.1744V8.47305L79.9112 8.48216V10.0571L78.7383 11.3104L79.9112 12.5753V14.1836H78.0386L77.0434 13.0855L76.0553 14.1878L69.7637 14.1744Z" fill="#FFFFFE"/>
<path fill-rule="evenodd" clip-rule="evenodd" d="M70.4414 13.5494V9.10049H74.2137V10.1254H71.6628V10.8211H74.1529V11.8289H71.6628V12.5122H74.2137V13.5494H70.4414Z" fill="#016FD0"/>
<path fill-rule="evenodd" clip-rule="evenodd" d="M74.1954 13.5494L76.2827 11.3224L74.1953 9.10059H75.811L77.0865 10.5106L78.3656 9.10059H79.9117V9.13559L77.8689 11.3224L79.9117 13.4863V13.5494H78.35L77.0519 12.1252L75.7671 13.5494H74.1954Z" fill="#016FD0"/>
<path fill-rule="evenodd" clip-rule="evenodd" d="M70.2369 3.41254H72.6829L73.5421 5.36339V3.41254H76.5619L77.0827 4.87411L77.6052 3.41254H79.9111V9.11393H67.7246L70.2369 3.41254Z" fill="#FFFFFE"/>
<path fill-rule="evenodd" clip-rule="evenodd" d="M70.7006 4.03192L68.7266 8.47709H70.0805L70.4529 7.58693H72.4708L72.843 8.47709H74.2306L72.2648 4.03192H70.7006ZM70.8702 6.58936L71.4622 5.17429L72.0538 6.58936H70.8702Z" fill="#016FD0"/>
<path fill-rule="evenodd" clip-rule="evenodd" d="M74.2129 8.4763V4.03122L76.116 4.03776L77.0953 6.77049L78.0809 4.03122H79.9125V8.4763L78.7339 8.48673V5.43339L77.6213 8.4763H76.5455L75.4099 5.42295V8.4763H74.2129Z" fill="#016FD0"/>
</g>
<g clip-path="url(#clip3_541_3175)">
<path d="M105.997 16.5305L105.999 16.5305C106.954 16.5387 107.738 15.7578 107.75 14.7847L107.75 2.78688C107.746 2.31627 107.559 1.86675 107.23 1.53738C106.901 1.20885 106.459 1.02673 105.997 1.03065L86.0006 1.03064C85.5411 1.02673 85.0986 1.20885 84.7703 1.53738C84.4411 1.86675 84.2538 2.31627 84.25 2.78484L84.25 14.7743C84.2538 15.2449 84.4411 15.6944 84.7703 16.0238C85.0986 16.3523 85.5411 16.5344 86.0028 16.5305H105.997ZM105.996 17.0305C105.996 17.0305 105.995 17.0305 105.995 17.0305L105.997 17.0305H105.996Z" fill="white" stroke="black" stroke-opacity="0.2" stroke-width="0.5"/>
<path d="M96.6133 16.7805H105.998C106.525 16.7849 107.032 16.5799 107.407 16.2105C107.783 15.8411 107.996 15.3376 108.001 14.8109V12.4522C104.457 14.4865 100.614 15.9474 96.6133 16.7805Z" fill="#F27712"/>
<path d="M107.173 10.0771H106.321L105.361 8.81087H105.27V10.0771H104.574V6.93225H105.601C106.403 6.93225 106.867 7.26328 106.867 7.85914C106.867 8.34742 106.577 8.6619 106.056 8.76121L107.173 10.0771ZM106.147 7.88397C106.147 7.57776 105.915 7.42052 105.485 7.42052H105.27V8.37225H105.468C105.915 8.37225 106.147 8.20673 106.147 7.88397ZM102.141 6.93225H104.111V7.4619H102.836V8.16535H104.061V8.70328H102.836V9.55569H104.111V10.0853H102.141V6.93225ZM99.9067 10.1598L98.4005 6.92397H99.1619L100.114 9.04259L101.074 6.92397H101.818L100.296 10.1598H99.9233H99.9067ZM93.6088 10.1516C92.5495 10.1516 91.7219 9.43156 91.7219 8.49638C91.7219 7.58604 92.5661 6.84949 93.6254 6.84949C93.9233 6.84949 94.1716 6.90742 94.4778 7.03983V7.76811C94.2459 7.54029 93.9339 7.41251 93.6088 7.41225C92.9467 7.41225 92.4419 7.89225 92.4419 8.49638C92.4419 9.13363 92.9385 9.5888 93.6419 9.5888C93.9564 9.5888 94.1964 9.48949 94.4778 9.24121V9.96949C94.1633 10.1019 93.8985 10.1516 93.6088 10.1516ZM91.5067 9.11707C91.5067 9.72949 91.0019 10.1516 90.2736 10.1516C89.744 10.1516 89.3633 9.96949 89.0405 9.55569L89.4957 9.16673C89.653 9.44811 89.9178 9.5888 90.2488 9.5888C90.5633 9.5888 90.7867 9.39845 90.7867 9.15018C90.7867 9.00949 90.7205 8.9019 90.5798 8.81914C90.4256 8.74429 90.265 8.68335 90.0998 8.63707C89.4461 8.43018 89.2226 8.20673 89.2226 7.76811C89.2226 7.255 89.7026 6.86604 90.3316 6.86604C90.7288 6.86604 91.0847 6.99018 91.3826 7.2219L91.0185 7.63569C90.8741 7.47747 90.6699 7.38735 90.4557 7.38742C90.1578 7.38742 89.9426 7.53638 89.9426 7.735C89.9426 7.90052 90.0667 7.99156 90.4805 8.13225C91.275 8.38052 91.5067 8.61225 91.5067 9.12535V9.11707ZM88.0888 6.93225H88.784V10.0853H88.0888V6.93225ZM85.8543 10.0853H84.8281V6.93225H85.8543C86.9798 6.93225 87.7578 7.57776 87.7578 8.50466C87.7578 8.97638 87.5261 9.42328 87.1205 9.72121C86.773 9.96949 86.384 10.0853 85.8461 10.0853H85.8543ZM86.6654 7.71845C86.4336 7.53638 86.1688 7.47018 85.7136 7.47018H85.5233V9.55569H85.7136C86.1605 9.55569 86.4419 9.47294 86.6654 9.30742C86.9054 9.1088 87.0461 8.81087 87.0461 8.50466C87.0461 8.19845 86.9054 7.9088 86.6654 7.71845Z" fill="black"/>
<path d="M96.413 6.84949C95.5026 6.84949 94.7578 7.57776 94.7578 8.47983C94.7578 9.43983 95.4695 10.1598 96.413 10.1598C97.3399 10.1598 98.0682 9.43156 98.0682 8.50466C98.0682 7.57776 97.3482 6.84949 96.413 6.84949Z" fill="#F27712"/>
</g>
<defs>
<clipPath id="clip0_541_3175">
<rect width="24" height="16" fill="white" transform="translate(0 0.780579)"/>
</clipPath>
<clipPath id="clip1_541_3175">
<rect width="24" height="16" fill="white" transform="translate(28 0.780579)"/>
</clipPath>
<clipPath id="clip2_541_3175">
<rect width="24" height="16" fill="white" transform="translate(56 0.780579)"/>
</clipPath>
<clipPath id="clip3_541_3175">
<rect width="24" height="16" fill="white" transform="translate(84 0.780579)"/>
</clipPath>
</defs>
</svg>
