<svg width="24" height="24" viewBox="0 0 24 24" fill="none" xmlns="http://www.w3.org/2000/svg">
<path d="M21 12.0019C20.7348 12.0019 20.4804 12.1072 20.2929 12.2948C20.1054 12.4823 20 12.7367 20 13.0019V19.0019C20 19.2671 19.8946 19.5215 19.7071 19.709C19.5196 19.8965 19.2652 20.0019 19 20.0019H5C4.73478 20.0019 4.48043 19.8965 4.29289 19.709C4.10536 19.5215 4 19.2671 4 19.0019V5.00189C4 4.73668 4.10536 4.48232 4.29289 4.29479C4.48043 4.10725 4.73478 4.00189 5 4.00189H11C11.2652 4.00189 11.5196 3.89654 11.7071 3.709C11.8946 3.52146 12 3.26711 12 3.00189C12 2.73668 11.8946 2.48232 11.7071 2.29479C11.5196 2.10725 11.2652 2.00189 11 2.00189H5C4.20435 2.00189 3.44129 2.31796 2.87868 2.88057C2.31607 3.44318 2 4.20624 2 5.00189V19.0019C2 19.7975 2.31607 20.5606 2.87868 21.1232C3.44129 21.6858 4.20435 22.0019 5 22.0019H19C19.7956 22.0019 20.5587 21.6858 21.1213 21.1232C21.6839 20.5606 22 19.7975 22 19.0019V13.0019C22 12.7367 21.8946 12.4823 21.7071 12.2948C21.5196 12.1072 21.2652 12.0019 21 12.0019ZM6 12.7619V17.0019C6 17.2671 6.10536 17.5215 6.29289 17.709C6.48043 17.8965 6.73478 18.0019 7 18.0019H11.24C11.3716 18.0027 11.5021 17.9774 11.6239 17.9277C11.7457 17.8779 11.8566 17.8046 11.95 17.7119L18.87 10.7819L21.71 8.00189C21.8037 7.90893 21.8781 7.79833 21.9289 7.67647C21.9797 7.55461 22.0058 7.4239 22.0058 7.29189C22.0058 7.15988 21.9797 7.02917 21.9289 6.90732C21.8781 6.78546 21.8037 6.67486 21.71 6.58189L17.47 2.29189C17.377 2.19816 17.2664 2.12377 17.1446 2.073C17.0227 2.02223 16.892 1.99609 16.76 1.99609C16.628 1.99609 16.4973 2.02223 16.3754 2.073C16.2536 2.12377 16.143 2.19816 16.05 2.29189L13.23 5.12189L6.29 12.0519C6.19732 12.1453 6.12399 12.2561 6.07423 12.378C6.02446 12.4998 5.99924 12.6303 6 12.7619ZM16.76 4.41189L19.59 7.24189L18.17 8.66189L15.34 5.83189L16.76 4.41189ZM8 13.1719L13.93 7.24189L16.76 10.0719L10.83 16.0019H8V13.1719Z" fill="#FDFDFD"/>
</svg>
