<svg width="132" height="132" viewBox="0 0 132 132" fill="none" xmlns="http://www.w3.org/2000/svg">
<path d="M108.633 113.98L16.4459 103.156C14.4444 102.921 12.9988 101.092 13.2347 99.0903L19.2387 47.9555C19.4734 45.954 21.3032 44.5085 23.3046 44.7443L115.492 55.5684C117.493 55.8031 118.939 57.6329 118.703 59.6343L112.699 110.769C112.464 112.771 110.634 114.216 108.633 113.98Z" fill="#AAC0B7"/>
<path d="M17.7728 61.6963C26.4802 65.3582 35.0838 69.2652 43.5586 73.4373C47.6658 75.4599 51.7423 77.5425 55.7878 79.6874C57.7121 80.7078 59.6295 81.7419 61.5388 82.7898C63.0819 83.6365 64.6068 84.6216 66.4424 84.4174C69.0825 84.1223 71.7826 83.1542 74.3636 82.5317C77.3735 81.8051 80.3842 81.0823 83.3953 80.3645C89.8159 78.8328 96.239 77.3176 102.672 75.8396C107.462 74.739 112.257 73.5685 117.096 72.7023C117.935 72.5519 117.768 71.2359 116.927 71.386C106.656 73.2255 96.491 75.8961 86.3454 78.3061C80.5861 79.6735 74.8286 81.0549 69.078 82.4582C67.4706 82.8504 65.9305 83.4153 64.3039 82.7572C62.2609 81.9304 60.3276 80.6219 58.3889 79.581C54.4481 77.4656 50.4758 75.4076 46.4753 73.4087C37.2217 68.7856 27.811 64.4793 18.2756 60.4697C17.4874 60.1386 16.9856 61.3666 17.7738 61.6977L17.7728 61.6963Z" fill="#477762"/>
<path d="M14.3704 102.237C22.3529 97.5427 30.6376 93.3459 38.9863 89.3449C45.067 86.4309 51.227 83.3759 57.6195 81.191C58.6277 80.8468 57.9828 79.3214 56.9784 79.6649C50.4404 81.8998 44.142 85.033 37.9261 88.0195C29.5852 92.0266 21.325 96.2429 13.3453 100.935C12.4311 101.473 13.4619 102.77 14.3692 102.237L14.3704 102.237Z" fill="#477762"/>
<path d="M74.8577 83.2105C86.4987 92.9806 97.559 103.432 107.982 114.493C108.706 115.261 110.016 114.247 109.284 113.469C98.7639 102.306 87.6022 91.7482 75.8528 81.8874C75.0364 81.2023 74.0436 82.527 74.8589 83.2107L74.8577 83.2105Z" fill="#477762"/>
<path d="M69.7979 78.9149C68.2303 77.1879 65.7484 76.7459 63.5766 77.3876C63.5766 77.3876 60.184 78.5217 60.0255 82.8207C59.9522 84.8091 61.2478 86.6239 62.8518 87.4508C64.4546 88.2774 66.3877 88.1809 68.0556 87.4287C68.9061 87.045 69.7146 86.4847 70.2942 85.6882C71.7198 83.7318 71.3654 80.6431 69.799 78.9163L69.7979 78.9149Z" fill="#B55759"/>
<path d="M110.482 34.1686C109.639 31.6939 107.685 29.5025 105.175 28.9448C102.758 28.4074 100.236 29.4307 98.2383 30.921C94.1399 33.9785 91.4101 40.6573 91.4101 40.6573C91.4101 40.6573 90.6524 33.7746 88.5322 28.936C87.8053 27.2758 86.4182 25.5727 84.825 24.7558C83.0232 23.8319 80.7994 24.3178 79.0445 25.3323C74.4253 28.0033 72.3459 33.6777 71.5684 39.0348C69.9925 49.8926 72.4335 61.3079 78.2967 70.5117C79.3802 72.211 80.7401 74.0047 82.5456 74.9563C86.4614 77.0193 88.8518 76.3635 91.6606 73.7303C95.0815 70.5231 99.349 65.8066 101.764 61.8165C105.512 55.6273 109.48 48.5029 110.715 41.9361C111.199 39.3633 111.323 36.6445 110.481 34.1698L110.482 34.1686Z" fill="#DFB0A2"/>
<path d="M56.4265 41.2055C58.4952 41.1736 60.5623 41.053 62.6206 40.8347C63.1331 40.7801 63.5328 40.1948 63.4243 39.6993C63.3042 39.1501 62.8371 38.838 62.2889 38.8956C61.3198 38.9979 60.3485 39.0807 59.376 39.1405C58.3717 39.2029 57.6208 39.2304 56.6043 39.2462C56.0907 39.2546 55.5623 39.5686 55.5358 40.137C55.5131 40.6225 55.8773 41.214 56.4265 41.2055Z" fill="#B55759"/>
<path d="M57.7762 27.6403C59.8723 28.4268 61.5562 29.3172 63.4114 30.6255C63.8326 30.922 64.499 30.8199 64.7794 30.3732C65.0651 29.9172 64.9774 29.3225 64.5271 29.0052C62.649 27.6802 60.5953 26.5971 58.4439 25.7898C57.9613 25.6088 57.3426 25.877 57.1851 26.3803C57.024 26.8936 57.2615 27.4468 57.7756 27.6392L57.7762 27.6403Z" fill="#B55759"/>
<path d="M66.7428 16.9729C67.819 19.5866 69.2885 22.0324 71.0776 24.2208C71.8786 25.2006 73.3753 23.9232 72.5721 22.9416C70.8885 20.8812 69.5365 18.5978 68.5228 16.1378C68.3199 15.6467 67.68 15.4473 67.2153 15.6654C66.7133 15.9008 66.5394 16.4806 66.7428 16.9729Z" fill="#B55759"/>
</svg>
