<svg width="132" height="132" viewBox="0 0 132 132" fill="none" xmlns="http://www.w3.org/2000/svg">
<path d="M127.932 115.539C129.393 115.091 130.053 113.397 129.28 112.078L117.609 92.1737L124.828 54.3921C125.162 52.6426 123.97 50.9371 121.967 50.3025C119.44 49.501 116.631 50.6931 115.947 52.8567L112.966 62.2781L112.358 30.1638C112.32 28.1135 110.378 26.4318 107.901 26.3042C105.238 26.1672 102.961 27.8647 102.852 30.0677L101.501 57.7824L101.486 27.1923C101.524 24.8287 99.0921 22.9485 96.2411 23.1359C93.895 23.2903 92.0197 24.8114 91.7891 26.7467L88.7856 57.8973L90.2511 33.5856C90.3883 31.3054 88.1929 29.3906 85.4294 29.3827C82.9862 29.3749 80.9203 30.8708 80.6058 32.8723L76.1501 61.3333L78.8182 41.4134C79.085 39.4214 77.1716 37.6893 74.7455 37.7286C72.7539 37.7601 71.0921 38.9931 70.8386 40.6245L65.165 77.0488C64.336 82.3665 65.6186 87.7646 68.8185 92.4288L90.1124 123.477C90.7597 124.42 91.9284 124.858 93.0362 124.571L127.932 115.539Z" fill="#DFB0A2"/>
<path d="M94.0358 91.3197C93.9977 91.3197 93.9596 91.3165 93.9215 91.3102C93.5956 91.2582 93.3822 90.9984 93.4451 90.7276C97.2662 74.3114 109.374 66.2552 111.049 65.2081L112.776 59.0085C112.85 58.7408 113.176 58.5754 113.498 58.6353C113.822 58.6967 114.024 58.9644 113.95 59.2321L112.171 65.6112C112.137 65.7309 112.051 65.8364 111.929 65.9072C111.796 65.9844 98.6174 73.7697 94.6267 90.9165C94.5714 91.1543 94.3198 91.3197 94.0358 91.3197Z" fill="#7B4A3A"/>
<path d="M101.167 60.4188C101.167 60.4188 101.158 60.4188 101.152 60.4188C100.82 60.4125 100.557 60.1841 100.565 59.9101C100.573 59.6109 101.423 29.9783 101.425 29.5468C101.425 29.2728 101.695 29.0508 102.027 29.0508C102.358 29.0508 102.627 29.2728 102.627 29.5468C102.627 29.9185 101.802 58.7086 101.768 59.9337C101.76 60.2046 101.491 60.4188 101.167 60.4188Z" fill="#7B4A3A"/>
<path d="M88.9038 61.2194C88.8904 61.2194 88.879 61.2194 88.8657 61.2194C88.5341 61.2021 88.2825 60.9659 88.3035 60.6919L90.5409 31.1159C90.5618 30.8419 90.8458 30.6341 91.1793 30.6514C91.5109 30.6687 91.7625 30.9049 91.7415 31.1789L89.5041 60.7548C89.485 61.0178 89.2201 61.2209 88.9038 61.2209V61.2194Z" fill="#7B4A3A"/>
<path d="M76.8227 61.7127C76.8036 61.7127 76.7845 61.7127 76.7655 61.7112C76.4339 61.686 76.1918 61.4434 76.2223 61.1694C77.038 53.9746 78.5836 40.2402 78.6065 39.763C78.6179 39.4922 78.8847 39.2701 79.2201 39.2796C79.5479 39.2843 79.811 39.5016 79.811 39.7725C79.811 40.1473 77.8213 57.7382 77.423 61.2608C77.3944 61.519 77.1314 61.7112 76.8246 61.7112L76.8227 61.7127Z" fill="#7B4A3A"/>
<path d="M106.443 63.8323H106.435L73.3583 63.4796C73.0267 63.4765 72.7599 63.2512 72.7637 62.9757C72.7675 62.7017 73.0229 62.4828 73.3736 62.4844L106.451 62.8371C106.782 62.8403 107.049 63.0654 107.045 63.341C107.041 63.6134 106.773 63.8323 106.443 63.8323Z" fill="#7B4A3A"/>
<path d="M28.9284 129.677C29.9122 130.462 31.3057 130.468 32.2972 129.694L66.9957 102.587C74.4645 97.2974 79.41 89.9814 80.9442 81.952L85.7868 56.6089C86.1204 54.8594 84.9293 53.154 82.9263 52.5194C80.3992 51.7179 77.59 52.9099 76.9058 55.0735L73.9251 64.495L73.3172 32.3806C73.2791 30.3304 71.3371 28.6486 68.8595 28.521C66.1971 28.384 63.9197 30.0815 63.8111 32.2845L62.4598 59.9992L62.4446 29.4092C62.4827 27.0455 60.0509 25.1653 57.1998 25.3527C54.8538 25.5071 52.9785 27.0282 52.7479 28.9635L49.7443 60.1141L51.2099 35.8024C51.3471 33.5223 49.1516 31.6075 46.3882 31.5996C43.9449 31.5917 41.8791 33.0877 41.5646 35.0891L37.1088 63.5501L39.777 43.6302C40.0438 41.6382 38.1304 39.9061 35.7043 39.9455C33.7127 39.977 32.0509 41.2099 31.7974 42.8413L24.8488 87.4588L3.73456 103.003C2.33999 104.029 2.24763 106.081 3.54428 107.228L28.6864 129.485L28.9284 129.677Z" fill="#B67F6E"/>
<path d="M72.0912 71.7294C72.055 71.7294 72.0169 71.7263 71.9807 71.7216C71.6548 71.6712 71.4394 71.4114 71.4985 71.1421L73.7303 61.2467C73.7912 60.9774 74.1038 60.7979 74.4316 60.8483C74.7575 60.8987 74.9728 61.1585 74.9138 61.4278L72.6821 71.3232C72.6287 71.5625 72.3752 71.7294 72.0912 71.7294Z" fill="#7B4A3A"/>
<path d="M62.2405 64.5449H62.2291C61.8975 64.5402 61.6326 64.3118 61.6383 64.0378C61.6459 63.7197 62.3835 32.1738 62.3835 31.7597C62.3835 31.4857 62.6541 31.2637 62.9857 31.2637C63.3173 31.2637 63.586 31.4857 63.586 31.7597C63.586 32.1297 62.8713 62.7529 62.8408 64.0567C62.8351 64.3276 62.5664 64.5449 62.2386 64.5449H62.2405Z" fill="#7B4A3A"/>
<path d="M49.8623 63.4401C49.8489 63.4401 49.8375 63.4401 49.8242 63.4401C49.4926 63.4228 49.241 63.1866 49.262 62.9126L51.4994 33.3366C51.5203 33.0626 51.8062 32.8548 52.1378 32.8721C52.4694 32.8894 52.721 33.1256 52.7 33.3996L50.4626 62.9756C50.4436 63.2386 50.1786 63.4417 49.8623 63.4417V63.4401Z" fill="#7B4A3A"/>
<path d="M37.7821 63.9298C37.763 63.9298 37.744 63.9298 37.7249 63.9282C37.3933 63.903 37.1513 63.6605 37.1818 63.3865C37.9975 56.1917 39.5431 42.4573 39.566 41.9801C39.5793 41.7093 39.8613 41.4904 40.1796 41.4983C40.5074 41.503 40.7704 41.7203 40.7704 41.9912C40.7704 42.3644 38.7807 59.9568 38.3824 63.4794C38.3538 63.7377 38.0908 63.9298 37.784 63.9298H37.7821Z" fill="#7B4A3A"/>
<path d="M121.266 7.66405C119.62 6.00117 117.325 2.07387 116.672 0C116.672 0 115.593 6.35389 114.678 10.0324C113.668 14.0919 110.119 17.4398 107.043 19.4207C111.345 19.5971 115.324 21.6411 118.057 24.3921C120.79 27.1431 123.458 33.9961 123.458 33.9961C123.458 33.9961 124.316 27.5698 124.745 24.3558C125.383 19.5766 127.123 14.3219 132 11.6968C126.978 11.0071 124.487 10.9205 121.265 7.66405H121.266Z" fill="#34547A"/>
<path d="M9.16884 42.9179C10.257 40.9668 12.2067 36.3971 12.2086 34.2539C12.2086 34.2539 14.8195 40.6472 16.8225 44.0202C19.0333 47.7412 22.7705 48.6765 26.3496 49.9552C22.2388 51.0181 18.7073 54.473 16.8968 57.7027C15.0863 60.9324 13.6665 67.6642 13.6665 67.6642C13.6665 67.6642 11.4844 60.101 10.0912 57.0791C8.02151 52.5849 5.5192 50.5772 0 49.0482C4.65206 47.338 7.03624 46.7381 9.16693 42.9179H9.16884Z" fill="#B55759"/>
</svg>
