<svg width="121" height="84" viewBox="0 0 121 84" fill="none" xmlns="http://www.w3.org/2000/svg">
<path d="M101.814 27.604C101.814 27.5333 101.82 27.464 101.82 27.3947C101.82 14.1812 92.2636 2.0835 77.8959 2.0835C66.4778 2.0835 59.8577 10.2896 57.5995 17.9695C55.3412 10.2896 48.7197 2.0835 37.303 2.0835C22.9338 2.0835 13.3789 14.1826 13.3789 27.3947C13.3789 27.4655 13.3833 27.5347 13.3848 27.604C13.3082 30.4785 13.3789 59.7313 57.5877 83.5729V83.5788C57.5877 83.5788 57.5921 83.5758 57.5936 83.5758C57.5965 83.5758 57.598 83.5773 57.5995 83.5788C57.6024 83.5788 57.6039 83.5758 57.6054 83.5758C57.6068 83.5758 57.6098 83.5773 57.6113 83.5788V83.5729C101.82 59.7299 101.891 30.4785 101.814 27.604Z" fill="#DFB0A2"/>
<path d="M41.6631 73.4564C46.2047 76.8762 51.4701 80.2769 57.5845 83.5744V83.5802C57.5845 83.5802 57.5889 83.5773 57.5904 83.5773C57.5919 83.5773 57.5948 83.5788 57.5963 83.5802C57.5978 83.5802 57.6007 83.5773 57.6022 83.5773C57.6037 83.5773 57.6066 83.5788 57.6096 83.5802V83.5744C101.818 59.7313 101.889 30.4799 101.812 27.6055C101.812 27.5347 101.818 27.4654 101.818 27.3962C101.818 25.7246 101.664 24.0692 101.367 22.4551C87.4329 56.055 59.772 68.7054 41.6631 73.4578V73.4564Z" fill="#B55759"/>
<path d="M15.8244 30.4045C15.8244 30.4045 15.5148 5.22746 41.6633 4.92822C41.6633 4.92822 23.8684 9.24872 15.8244 30.4045Z" fill="#B55759"/>
<path d="M101.145 41.1391C101.145 41.1391 101.168 41.1163 101.179 41.1049C102.944 41.6946 105.556 41.4183 107.285 40.7231C108.904 40.0675 110.169 38.8791 111.089 37.4148C111.18 37.2718 111.045 37.0861 110.887 37.0878C107.365 37.2364 103.994 37.681 101.521 40.2489C102.354 38.2624 103.088 36.2365 103.74 34.1618C103.833 33.8699 103.927 33.578 104.021 33.2862C105.755 33.529 108.039 32.9 109.557 32.0696C111.218 31.1655 112.401 29.6735 113.108 27.9387C113.181 27.7598 113.044 27.5809 112.85 27.6236C109.528 28.3608 106.416 29.3527 104.42 32.0665C105.036 30.1974 105.635 28.2856 105.973 26.3496C106.377 25.5809 108.836 25.667 109.639 25.5208C110.445 25.3678 111.196 25.1522 111.848 24.6356C113.317 23.49 113.662 21.6013 113.621 19.8431C113.617 19.7146 113.418 19.6581 113.363 19.7827C112.318 22.1728 109.624 22.2809 107.695 23.6005C107.006 24.0679 106.482 24.6485 106.115 25.3244C106.235 24.2769 106.257 23.2282 106.137 22.1788C107.752 21.5818 109.52 19.9032 110.445 18.4704C111.471 16.8832 111.81 15.0149 111.607 13.1524C111.589 12.9519 111.372 12.8821 111.226 13.0077C108.675 15.2134 106.432 17.533 105.931 20.8169C105.796 20.0021 105.67 19.2053 105.605 18.4055L105.609 18.392C105.609 18.392 105.6 18.3515 105.6 18.3289C105.526 17.3692 105.538 16.3996 105.753 15.4051C105.779 15.2786 105.809 15.161 105.839 15.0434C105.934 14.8192 106.042 14.6219 106.176 14.4626C106.906 13.5888 107.841 12.9158 108.639 12.109C110.81 9.92316 111.909 6.73427 111.59 3.67349C111.58 3.61046 111.485 3.6025 111.473 3.66578C111.244 5.00759 110.198 6.13949 109.089 6.98125C107.839 7.93501 106.418 8.72153 105.51 10.0098C104.353 11.6525 104.24 14.3572 104.682 16.6636C103.458 13.9485 100.999 12.23 98.3263 10.667C98.1811 10.5829 97.9909 10.709 97.9993 10.869C98.1219 12.6083 98.6922 14.2594 99.834 15.5999C101.022 17.0076 103.195 18.47 105.021 18.7794C105.023 18.7952 105.032 18.8131 105.035 18.8288C105.033 18.8356 105.044 18.8468 105.042 18.8536C105.256 20.7272 105.815 22.5543 105.698 24.4564C105.679 24.7948 105.639 25.1267 105.591 25.4632C104.546 22.2141 101.846 20.2906 98.892 18.5549C98.7468 18.4707 98.5565 18.5968 98.565 18.7568C98.6875 20.4962 99.2578 22.1473 100.4 23.4878C101.551 24.8462 103.609 26.249 105.383 26.6243C105.033 28.2493 104.471 29.8585 104.014 31.4193C103.925 31.7201 103.836 32.021 103.749 32.315C103.124 28.7592 100.525 26.501 97.6296 24.4174C97.4842 24.3107 97.3055 24.4705 97.3026 24.6194C97.2613 26.4259 97.7269 28.1931 98.8069 29.656C99.8572 31.0719 101.788 32.6362 103.498 33.1182C102.784 35.4348 102.004 37.7228 101.076 39.9561C101.029 36.4211 98.8967 33.7813 96.4546 31.2666C96.336 31.1461 96.1181 31.2184 96.0883 31.381C95.7415 33.0894 95.8529 34.8401 96.5917 36.433C97.3605 38.0955 99.0435 40.0592 100.698 40.853C100.021 42.4252 99.2685 43.9734 98.4167 45.482C98.3525 45.5887 98.2929 45.7043 98.2286 45.8109C98.7593 42.3419 97.1085 39.3925 95.1359 36.5119C95.0489 36.3866 94.8186 36.3575 94.7505 36.5229C94.0881 38.2346 93.9117 40.0652 94.4585 41.836C94.7718 42.8653 95.3183 43.7748 95.9476 44.6361C96.4672 45.3498 96.9412 46.2285 97.7194 46.6733C96.8048 48.2142 95.8268 49.7197 94.817 51.2075C95.7704 47.8443 94.5305 44.7349 92.9567 41.6155C92.8784 41.4631 92.6464 41.4858 92.5713 41.6265C91.6759 43.2709 91.2697 45.1174 91.6167 46.9738C91.9327 48.6705 92.9219 50.9055 94.1971 52.0642C94.1906 52.0846 94.184 52.105 94.1775 52.1253C94.1775 52.1253 94.1753 52.1321 94.1731 52.1389C92.6412 54.3426 91.0501 56.4974 89.4794 58.6586C89.426 58.7314 89.5286 58.8317 89.5819 58.759C91.2528 56.6823 92.9033 54.5991 94.4697 52.4514C94.4786 52.4468 94.4944 52.4443 94.5033 52.4397C94.5145 52.4283 94.5303 52.4259 94.5414 52.4145C96.0935 53.5274 98.7439 54.042 100.645 53.8366C102.327 53.6583 103.825 52.9115 105.105 51.8177C105.239 51.7035 105.145 51.4858 104.991 51.4514C101.52 50.5307 98.0953 49.9544 94.936 51.7924C95.9822 50.3313 96.9874 48.8345 97.9267 47.2866C97.9909 47.1799 98.0552 47.0733 98.1194 46.9666C99.6865 47.7997 102.227 47.9796 103.955 47.6588C105.747 47.3282 107.29 46.3488 108.493 45.0054C108.597 44.8893 108.559 44.6597 108.378 44.6391C104.854 44.188 101.448 44.067 98.5576 46.2087C99.5071 44.5593 100.352 42.8613 101.118 41.1304C101.118 41.1304 101.12 41.1235 101.129 41.1189L101.145 41.1391Z" fill="#AAC0B7"/>
<path d="M25.5748 43.6262C29.9332 52.3191 27.2835 60.0282 27.2835 60.0282C27.2835 60.0282 12.1507 60.0748 6.57838 47.2903C2.61838 38.2036 7.20689 27.169 7.20689 27.169C7.20689 27.169 10.4504 30.1396 15.141 33.6804C18.4776 36.1993 23.044 38.5784 25.5748 43.6262Z" fill="#AAC0B7"/>
<path d="M35.008 67.6127C34.8931 67.651 34.7605 67.6289 34.6623 67.5434C34.6059 67.4948 29.0135 62.5866 26.0488 59.4204C18.5767 51.4387 10.2982 38.3458 7.20293 29.6131C7.13813 29.429 7.23363 29.2259 7.41876 29.1607C7.61346 29.0995 7.80596 29.1914 7.87111 29.3765C10.9381 38.0312 19.1506 51.0149 26.5664 58.9373C29.5073 62.0783 35.0732 66.9635 35.1295 67.0121C35.2763 67.1405 35.2918 67.3646 35.1623 67.5117C35.1193 67.5603 35.0658 67.5947 35.0083 67.6138L35.008 67.6127Z" fill="#28748C"/>
<path d="M22.572 55.0528L10.3298 50.0886C10.1483 50.0154 10.0616 49.808 10.135 49.6275C10.2082 49.446 10.4146 49.3596 10.5961 49.4327L21.9243 54.0263L22.58 42.9639C22.5918 42.7686 22.7585 42.6197 22.955 42.6312C23.1503 42.643 23.2995 42.8107 23.2878 43.0061L22.5734 55.0535L22.572 55.0528Z" fill="#28748C"/>
<path d="M14.542 43.5693L5.5564 38.5931C5.38553 38.4987 5.32323 38.2831 5.41764 38.1122C5.51311 37.941 5.72766 37.879 5.89889 37.9745L13.9284 42.4215L14.5646 34.9582C14.5813 34.7636 14.7516 34.6183 14.9477 34.6357C15.1423 34.6525 15.2869 34.8242 15.2702 35.0189L14.5413 43.5707L14.542 43.5693Z" fill="#28748C"/>
</svg>
