<svg width="132" height="132" viewBox="0 0 132 132" fill="none" xmlns="http://www.w3.org/2000/svg">
<path d="M110.502 121.267L42.079 115.542C40.5934 115.418 39.7673 112.348 40.244 108.721L52.4063 16.04C52.8821 12.4124 54.487 9.54563 55.9723 9.67156L124.395 15.3974C125.881 15.5211 126.707 18.5908 126.23 22.2183L114.068 114.899C113.592 118.526 111.987 121.393 110.502 121.267Z" fill="#F1ECE6"/>
<path d="M55.2777 101.98C59.8792 101.911 64.369 100.382 68.055 97.6195C68.9751 96.9308 69.8328 96.1641 70.6295 95.3356C71.313 94.6253 72.1184 93.8495 72.4185 92.8832C72.6934 91.9981 72.4136 90.9751 71.3912 90.7866C70.3419 90.5935 69.1233 91.2505 68.3073 91.8458C66.4341 93.2163 64.983 95.5933 64.3629 97.8048C63.7589 99.9583 63.9647 102.483 65.5824 104.168C67.3156 105.975 69.9429 106.01 72.2403 105.528C74.6087 105.032 76.9252 104.162 79.0715 103.051C81.2264 101.937 83.2512 100.554 85.0543 98.9302C85.8568 98.209 86.9362 97.3087 86.8124 96.1028C86.715 95.1535 85.8947 94.587 84.9985 94.4982C82.9359 94.2953 80.8949 95.9669 79.65 97.4382C78.2225 99.1266 77.1465 101.588 77.9143 103.796C78.6199 105.822 80.7012 106.754 82.6914 107.012C84.9364 107.303 87.3138 106.915 89.4884 106.361C91.8274 105.766 94.0851 104.859 96.1696 103.636C97.2189 103.02 98.2283 102.341 99.1819 101.584C100.022 100.917 100.991 100.079 101.103 98.9345C101.216 97.7761 100.262 97.0284 99.241 96.7738C98.1582 96.5042 97.0105 96.6862 96.0132 97.1692C94.0716 98.1105 92.5943 100.115 92.4842 102.301C92.3689 104.606 93.9023 106.279 96.0872 106.775C98.4472 107.308 101.111 106.769 103.396 106.136C104.661 105.786 105.895 105.343 107.094 104.806C107.837 104.473 107.327 103.312 106.58 103.647C104.574 104.547 102.47 105.177 100.295 105.501C98.582 105.755 96.4035 106.011 94.9009 104.931C91.6248 102.576 95.6318 97.0119 99.037 98.0222C101.426 98.7315 97.5287 101.273 96.7347 101.801C95.103 102.889 93.3284 103.766 91.4852 104.434C89.6403 105.102 87.7131 105.538 85.7634 105.742C84.1078 105.915 82.2973 105.928 80.7721 105.165C79.0221 104.289 78.6101 102.425 79.2238 100.661C79.8374 98.8983 81.1708 97.3722 82.7634 96.4178C83.4057 96.0325 84.1586 95.6546 84.9325 95.7685C86.1244 95.9436 85.2136 97.0549 84.7204 97.5232C83.2896 98.8801 81.6949 100.085 80.0026 101.092C78.3173 102.096 76.5244 102.92 74.6679 103.548C72.8635 104.157 70.8452 104.743 68.9238 104.476C66.9547 104.203 65.6442 102.732 65.3578 100.799C65.0496 98.7133 66.0036 96.6361 67.1512 94.952C67.6765 94.182 68.2789 93.4595 69.0252 92.8951C69.3127 92.6785 71.0427 91.607 71.2695 92.1508C71.3649 92.3811 71.0738 92.8477 70.957 93.0253C70.7078 93.4061 70.3803 93.7491 70.0747 94.0848C69.4629 94.7611 68.7985 95.3879 68.0986 95.9704C65.2571 98.3311 61.7854 99.9123 58.1344 100.482C57.2368 100.622 56.3279 100.705 55.4187 100.718C54.6146 100.73 54.4642 101.989 55.2781 101.977L55.2777 101.98Z" fill="#B55759"/>
<rect x="60.0996" y="20.0044" width="60.1142" height="2.19273" rx="1.09637" transform="rotate(4.83633 60.0996 20.0044)" fill="#FDFDFD"/>
<rect x="59.0029" y="29.4502" width="60.1142" height="2.19273" rx="1.09637" transform="rotate(4.83633 59.0029 29.4502)" fill="#FDFDFD"/>
<rect x="56.8105" y="38.896" width="60.1142" height="2.19273" rx="1.09637" transform="rotate(4.83633 56.8105 38.896)" fill="#FDFDFD"/>
<rect x="55.7139" y="48.3418" width="60.1142" height="2.19273" rx="1.09637" transform="rotate(4.83633 55.7139 48.3418)" fill="#FDFDFD"/>
<rect x="54.6172" y="57.7876" width="60.1142" height="2.19273" rx="1.09637" transform="rotate(4.83633 54.6172 57.7876)" fill="#FDFDFD"/>
<rect x="53.5215" y="67.2334" width="60.1142" height="2.19273" rx="1.09637" transform="rotate(4.83633 53.5215 67.2334)" fill="#FDFDFD"/>
<rect x="52.4248" y="76.6792" width="60.1142" height="2.19273" rx="1.09637" transform="rotate(4.83633 52.4248 76.6792)" fill="#FDFDFD"/>
<path d="M55.7666 82.3852L61.9229 87.5146C63.2324 88.6053 63.4757 90.5232 62.482 91.9066C61.5883 93.1523 59.9441 93.6028 58.539 92.9886L49.6436 89.0964L55.768 82.3838L55.7666 82.3852Z" fill="#B67F6E"/>
<path d="M59.8873 66.9785L73.466 80.915L69.3768 85.6344C68.3671 86.799 66.6955 87.1264 65.3208 86.4296L55.688 81.5408L48.0049 79.6649L59.8873 66.9785Z" fill="#B67F6E"/>
<path d="M5.20249 106.408C5.2771 106.085 5.38816 105.771 5.53353 105.473L25.3713 64.7727C26.3853 61.8858 28.3886 59.4508 31.0235 57.8979L40.9895 52.0241C42.6177 51.0651 44.6051 50.9391 46.3419 51.6865L65.2238 59.8129C66.5405 60.3793 67.6747 61.2977 68.5018 62.4681L74.8319 71.4187C75.8387 72.8412 75.4433 74.817 73.9672 75.744C72.8677 76.4336 71.451 76.3481 70.4429 75.5311L59.8902 66.9803C59.8902 66.9803 47.1242 97.9706 43.4622 103.652C40.8611 107.687 34.8804 116.89 31.6336 121.883C30.3918 123.793 27.8974 124.428 25.8896 123.352L6.95526 113.203C5.21082 112.268 4.30891 110.28 4.75397 108.351L5.20249 106.408Z" fill="#DFB0A2"/>
<path d="M45.3159 76.5332C45.2855 76.5332 45.2537 76.5303 45.2218 76.523C44.9741 76.4709 44.8162 76.229 44.8684 75.9813L47.4714 63.5846C47.5235 63.3369 47.7654 63.179 48.0131 63.2311C48.2608 63.2833 48.4187 63.5252 48.3666 63.7729L45.7635 76.1696C45.7186 76.3854 45.5274 76.5332 45.3159 76.5332Z" fill="#654237"/>
<path d="M82.8834 76.7423L18.2002 48.5098L14.7391 56.4395L79.4223 84.672L82.8834 76.7423Z" fill="#AAC0B7"/>
<path d="M81.3756 80.1979L16.6924 51.9653L16.2474 52.9849L80.9306 81.2175L81.3756 80.1979Z" fill="#AAC0B7"/>
<path d="M87.5391 85.4115C89.2121 85.4854 90.5115 85.4434 90.6302 85.1522C90.7461 84.8654 89.9422 83.8529 88.8152 82.6245C88.33 83.5255 87.8911 84.4555 87.5391 85.4101V85.4115Z" fill="#654237"/>
<path d="M82.8878 76.7373L79.4258 84.6681C79.4258 84.6681 84.2204 85.2649 87.5391 85.4112C87.8911 84.4552 88.33 83.5252 88.8153 82.6257C86.5236 80.1284 82.8878 76.7388 82.8878 76.7388V76.7373Z" fill="#AAC0B7"/>
<path d="M64.5267 77.081L43.459 103.65L38.7715 80.5213L57.4448 69.0865C59.8117 67.6365 62.8913 68.2087 64.5803 70.4105C66.0941 72.3834 66.0723 75.1342 64.5267 77.0825V77.081Z" fill="#DFB0A2"/>
<path d="M33.5341 84.0192C33.3791 84.0192 33.2284 83.941 33.143 83.7991C33.0111 83.5832 33.0807 83.3022 33.2965 83.1704L55.4303 69.7351C55.6462 69.6047 55.9272 69.6728 56.059 69.8886C56.1909 70.1045 56.1213 70.3855 55.9055 70.5173L33.7716 83.9526C33.6978 83.9975 33.6152 84.0192 33.5341 84.0192Z" fill="#654237"/>
</svg>
