<svg width="18" height="18" viewBox="0 0 18 18" fill="none" xmlns="http://www.w3.org/2000/svg">
<g id="uil--arrow-right 1">
<path id="Vector" d="M4.56 8.71514C4.5957 8.62308 4.64922 8.53897 4.7175 8.46764L8.4675 4.71764C8.53743 4.64771 8.62045 4.59224 8.71181 4.55439C8.80318 4.51655 8.90111 4.49707 9 4.49707C9.19973 4.49707 9.39127 4.57641 9.5325 4.71764C9.60243 4.78757 9.6579 4.87059 9.69574 4.96195C9.73359 5.05332 9.75307 5.15124 9.75307 5.25014C9.75307 5.44987 9.67373 5.64141 9.5325 5.78264L7.0575 8.25014H12.75C12.9489 8.25014 13.1397 8.32916 13.2803 8.46981C13.421 8.61046 13.5 8.80123 13.5 9.00014C13.5 9.19905 13.421 9.38982 13.2803 9.53047C13.1397 9.67112 12.9489 9.75014 12.75 9.75014H7.0575L9.5325 12.2176C9.6028 12.2874 9.65859 12.3703 9.69667 12.4617C9.73474 12.5531 9.75435 12.6511 9.75435 12.7501C9.75435 12.8491 9.73474 12.9472 9.69667 13.0386C9.65859 13.13 9.6028 13.2129 9.5325 13.2826C9.46278 13.3529 9.37983 13.4087 9.28843 13.4468C9.19704 13.4849 9.09901 13.5045 9 13.5045C8.90099 13.5045 8.80296 13.4849 8.71157 13.4468C8.62017 13.4087 8.53722 13.3529 8.4675 13.2826L4.7175 9.53264C4.64922 9.46131 4.5957 9.3772 4.56 9.28514C4.48499 9.10254 4.48499 8.89774 4.56 8.71514Z" fill="white"/>
</g>
</svg>
