<svg width="64" height="64" viewBox="0 0 64 64" fill="none" xmlns="http://www.w3.org/2000/svg">
<rect width="64" height="64" fill="#FDFDFD"/>
<path d="M51.0635 37.4331C50.5864 31.7747 45.5604 18.7448 45.5604 18.7448C45.3603 17.6439 44.3002 16.9172 43.2009 17.1291C42.3087 17.301 41.6676 18.0402 41.582 18.9041L41.2391 17.6643C40.9849 16.4998 39.8471 15.7512 38.6771 15.978C37.4514 16.2157 36.6714 17.4265 36.9602 18.6404L37.0072 18.7982C36.5608 18.0982 35.7094 17.7263 34.8619 17.9225C33.7672 18.1767 33.0947 19.28 33.3702 20.3691L36.5443 32.9157L35.2888 29.3492C34.9105 28.2742 33.8967 27.5538 32.7573 27.5499L29.6915 27.5389C28.9617 27.5366 28.2406 27.7021 27.5862 28.0238L29.3423 31.7049L31.9208 32.0854L33.276 35.779L32.3085 39.1391L28.5882 37.8993L27.2064 32.1976C27.0455 31.5322 26.5378 31.0057 25.8787 30.8197C24.6373 30.4697 23.4171 31.4341 23.4704 32.7226L23.7208 38.7302C23.7969 40.5492 24.5062 42.2849 25.7264 43.6362L32.7055 51.8127L32.7293 60.84C32.7322 61.9276 33.6287 62.8002 34.716 62.7737L48.8775 62.4284C49.9623 62.4019 50.8143 61.4906 50.7678 60.4065L50.5378 55.0425C50.5378 55.0425 51.539 43.0908 51.0619 37.4324L51.0635 37.4331Z" fill="#DFB0A2"/>
<path d="M26.0776 16.4412C27.0506 23.1763 23.5877 27.7095 23.5877 27.7095C23.5877 27.7095 13.5295 24.3965 12.6546 14.6764C12.0331 7.76795 17.5181 1.45508 17.5181 1.45508C17.5181 1.45508 19.0153 4.14424 21.3474 7.53177C23.0063 9.94158 25.5126 12.5303 26.0776 16.4412Z" fill="#AAC0B7"/>
<path d="M27.04 34.4522C26.9552 34.4522 26.872 34.4083 26.8257 34.3298C26.7991 34.2851 24.1703 29.7903 22.9015 27.0329C19.7038 20.082 17.1002 9.55927 16.9746 3.07689C16.9723 2.94035 17.0806 2.82657 17.2179 2.82422C17.3607 2.82657 17.4682 2.93015 17.4706 3.06747C17.5946 9.49178 20.1786 19.9275 23.3519 26.8265C24.6105 29.562 27.2267 34.0355 27.2534 34.0803C27.3225 34.198 27.2832 34.3502 27.1647 34.4192C27.1255 34.442 27.0823 34.453 27.04 34.453V34.4522Z" fill="#0E5267"/>
<path d="M21.558 23.3646L14.5263 17.3633C14.422 17.2746 14.4102 17.1177 14.4989 17.0141C14.5875 16.9097 14.7437 16.898 14.848 16.9866L21.3548 22.5399L24.2346 15.3396C24.2856 15.2124 24.4292 15.1504 24.5571 15.2015C24.6842 15.2525 24.7462 15.3968 24.6952 15.524L21.5588 23.3654L21.558 23.3646Z" fill="#0E5267"/>
<path d="M18.7642 13.9642L13.8976 8.6746C13.805 8.57415 13.8112 8.41722 13.9117 8.32462C14.0129 8.23203 14.1691 8.2383 14.2617 8.33953L18.6105 13.0665L20.6821 8.25165C20.7362 8.1261 20.8814 8.06724 21.0077 8.12217C21.1332 8.17631 21.1913 8.32228 21.1372 8.44783L18.7635 13.965L18.7642 13.9642Z" fill="#0E5267"/>
<path d="M40.063 49.2947C39.9398 49.2947 39.833 49.2029 39.8174 49.0773C38.9134 41.8432 32.2937 39.3973 32.227 39.3738C32.0983 39.3275 32.0308 39.1862 32.0771 39.0568C32.1234 38.9281 32.2654 38.8614 32.3941 38.9069C32.464 38.932 39.3677 41.4823 40.3094 49.0161C40.3266 49.1519 40.2301 49.2759 40.0944 49.2923C40.0842 49.2939 40.0732 49.2939 40.063 49.2939V49.2947Z" fill="#654237"/>
<path d="M34.3432 35.9903C34.2247 35.9903 34.1196 35.9048 34.0992 35.7839C34.0764 35.649 34.1675 35.5211 34.3024 35.4983L48.1908 33.1638C48.325 33.1403 48.4536 33.2321 48.4764 33.3671C48.4992 33.5021 48.4081 33.6299 48.2732 33.6527L34.3848 35.9872C34.3707 35.9895 34.3574 35.9903 34.3432 35.9903Z" fill="#654237"/>
<path d="M41.3212 34.6977C41.2122 34.6977 41.1117 34.6248 41.0819 34.5141L37.0007 19.375C36.9654 19.2431 37.0431 19.1066 37.1757 19.0713C37.3075 19.0352 37.4441 19.1137 37.4794 19.2463L41.5606 34.3854C41.5959 34.5173 41.5182 34.6538 41.3856 34.6891C41.3644 34.6954 41.3424 34.6977 41.3212 34.6977Z" fill="#654237"/>
<path d="M45.8589 33.8332C45.7522 33.8332 45.6533 33.7633 45.6219 33.6558L41.5007 19.813C41.4615 19.682 41.536 19.5438 41.6678 19.5046C41.7989 19.4654 41.937 19.5399 41.9762 19.6717L46.0974 33.5146C46.1367 33.6456 46.0621 33.7837 45.9303 33.823C45.9068 33.83 45.8832 33.8332 45.8597 33.8332H45.8589Z" fill="#654237"/>
<path d="M37.1663 35.4476C37.0596 35.4476 36.9615 35.3777 36.9293 35.271L34.6765 27.7583C34.6372 27.6273 34.7118 27.4891 34.8428 27.4499C34.9739 27.4107 35.112 27.4852 35.1512 27.6163L37.4041 35.129C37.4433 35.26 37.3688 35.3981 37.2377 35.4373C37.2142 35.4444 37.1899 35.4476 37.1663 35.4476Z" fill="#654237"/>
<path d="M27.5888 28.0242L25.8397 28.8835C24.8801 29.3551 24.4987 30.525 24.9954 31.4714C25.4278 32.2953 26.3929 32.6845 27.2757 32.3911L29.345 31.7044L27.5888 28.0234V28.0242Z" fill="#DFB0A2"/>
</svg>
