<svg width="89" height="88" viewBox="0 0 89 88" fill="none" xmlns="http://www.w3.org/2000/svg">
<g clip-path="url(#clip0_888_1175)">
<path d="M15.0159 25.7438C6.4385 28.0421 1.40576 37.0595 3.77088 45.8863L10.7903 72.0831L41.845 63.762L34.8256 37.5652C32.4605 28.7384 23.5932 23.4455 15.0159 25.7438Z" fill="#84A5CB"/>
<path d="M29.4241 37.2831L8.77077 42.8171C8.32421 42.9368 7.86405 42.6229 7.72495 42.1038C7.58585 41.5846 7.82743 41.0827 8.27399 40.9631L28.9273 35.4291C29.3738 35.3094 29.834 35.6233 29.9731 36.1424C30.1122 36.6615 29.8706 37.1634 29.4241 37.2831Z" fill="#FDFDFD"/>
<path d="M30.9145 42.8456L10.2612 48.3796C9.81469 48.4993 9.35453 48.1854 9.21543 47.6663C9.07633 47.1471 9.31791 46.6452 9.76446 46.5256L30.4178 40.9916C30.8643 40.8719 31.3245 41.1858 31.4636 41.7049C31.6027 42.224 31.3611 42.7259 30.9145 42.8456Z" fill="#FDFDFD"/>
<path d="M32.4048 48.4071L11.7515 53.9411C11.3049 54.0608 10.8448 53.7469 10.7057 53.2278C10.5666 52.7087 10.8081 52.2068 11.2547 52.0871L31.908 46.5531C32.3545 46.4334 32.8147 46.7473 32.9538 47.2664C33.0929 47.7855 32.8513 48.2874 32.4048 48.4071Z" fill="#FDFDFD"/>
<path d="M72.5273 25.7435C63.95 23.4452 55.0828 28.7382 52.7176 37.565L45.6982 63.7618L76.7529 72.0828L83.7723 45.8861C86.1375 37.0593 81.1047 28.0418 72.5273 25.7435Z" fill="#84A5CB"/>
<path d="M79.2354 42.9416L58.5821 37.4075C58.1356 37.2879 57.894 36.786 58.0331 36.2668C58.1722 35.7477 58.6324 35.4339 59.0789 35.5535L79.7322 41.0875C80.1788 41.2072 80.4203 41.7091 80.2812 42.2282C80.1421 42.7473 79.682 43.0612 79.2354 42.9416Z" fill="#FDFDFD"/>
<path d="M77.7452 48.5041L57.0919 42.97C56.6453 42.8504 56.4038 42.3485 56.5429 41.8293C56.682 41.3102 57.1421 40.9964 57.5887 41.116L78.242 46.65C78.6885 46.7697 78.9301 47.2716 78.791 47.7907C78.6519 48.3098 78.1917 48.6237 77.7452 48.5041Z" fill="#FDFDFD"/>
<path d="M76.2547 54.0656L55.6014 48.5315C55.1549 48.4119 54.9133 47.91 55.0524 47.3909C55.1915 46.8717 55.6516 46.5579 56.0982 46.6775L76.7515 52.2116C77.1981 52.3312 77.4396 52.8331 77.3005 53.3522C77.1614 53.8714 76.7013 54.1852 76.2547 54.0656Z" fill="#FDFDFD"/>
<path d="M44.6666 8C32.3296 8 22.3333 18.2915 22.3333 30.9872V68.6667H66.9999V30.9872C66.9999 18.2915 57.0036 8 44.6666 8Z" fill="#F1ECE6"/>
<path d="M59.8528 28.6667H30.1467C29.5044 28.6667 28.9998 28.08 28.9998 27.3333C28.9998 26.5867 29.5044 26 30.1467 26H59.8528C60.4951 26 60.9998 26.5867 60.9998 27.3333C60.9998 28.08 60.4951 28.6667 59.8528 28.6667Z" fill="#FDFDFD"/>
<path d="M59.8528 36.6667H30.1467C29.5044 36.6667 28.9998 36.08 28.9998 35.3333C28.9998 34.5867 29.5044 34 30.1467 34H59.8528C60.4951 34 60.9998 34.5867 60.9998 35.3333C60.9998 36.08 60.4951 36.6667 59.8528 36.6667Z" fill="#FDFDFD"/>
<path d="M59.8528 44.6667H30.1467C29.5044 44.6667 28.9998 44.08 28.9998 43.3333C28.9998 42.5867 29.5044 42 30.1467 42H59.8528C60.4951 42 60.9998 42.5867 60.9998 43.3333C60.9998 44.08 60.4951 44.6667 59.8528 44.6667Z" fill="#FDFDFD"/>
<path d="M63.6829 49.8652C63.6829 49.8652 63.1319 59.8497 66.2427 62.8618" stroke="#0E5267" stroke-width="1.13494" stroke-miterlimit="10"/>
<path d="M77.0808 48.1084C77.0808 48.1084 73.8185 59.1466 67.3466 59.6999" stroke="#0E5267" stroke-width="1.13494" stroke-miterlimit="10"/>
<path d="M67.1125 34.46C67.1125 34.46 72.9324 54.3301 65.106 63.8302" stroke="#0E5267" stroke-width="1.41976" stroke-miterlimit="10"/>
<path d="M69.2293 34.8572C69.2293 34.8572 78.6398 31.9553 75.7379 28.7894C72.836 25.6235 68.2627 31.6913 67.4707 33.4498C67.4707 33.4498 68.35 24.7419 65.2713 25.0059C62.1926 25.2699 65.2713 32.5706 65.8866 33.0091C65.8866 33.0091 60.434 27.2925 57.8834 30.2816C55.3328 33.2731 63.0719 35.9109 65.4481 35.1189C65.4481 35.1189 57.7089 37.7568 60.7876 40.5714C63.8663 43.3861 67.473 35.911 67.473 35.911C67.473 35.911 71.7822 42.3323 75.0376 39.0769C78.2908 35.8237 69.2339 34.8549 69.2339 34.8549L69.2293 34.8572Z" fill="#DFB0A2"/>
<path d="M64.89 31.6016C64.0543 31.6016 63.8339 32.614 64.7132 32.7885C65.5925 32.9653 65.7257 31.6016 64.89 31.6016Z" fill="#B55759"/>
<path d="M67.2939 30.7958C66.3847 30.6787 65.7993 31.558 66.7957 31.9093C67.792 32.2605 68.203 30.9129 67.2939 30.7958Z" fill="#B55759"/>
<path d="M68.9079 31.4573C68.0286 31.5446 67.7944 32.7177 68.8206 32.8945C69.8469 33.0713 69.7872 31.3701 68.9079 31.4573Z" fill="#B55759"/>
<path d="M68.9216 32.1742C68.9216 32.1742 67.6612 33.1407 67.5143 35.0761L67.3375 35.0164C67.3375 35.0164 67.4982 32.8606 68.9216 32.1719V32.1742Z" fill="#B55759"/>
<path d="M67.1032 31.2664C67.1032 31.2664 67.5578 33.6701 67.3374 35.02H67.1606C67.1606 35.02 67.2479 32.4097 66.9104 31.209L67.1009 31.2687L67.1032 31.2664Z" fill="#B55759"/>
<path d="M67.3397 35.0174C67.3397 35.0174 66.3135 32.6872 65.1564 32.3359L65.0393 32.453C65.0393 32.453 66.3135 32.965 67.1653 35.0174H67.342H67.3397Z" fill="#B55759"/>
<path d="M79.3031 48.6362C79.3031 48.6362 85.472 44.7861 82.5035 43.2089C79.535 41.6317 77.9119 46.5952 77.7741 47.3827C77.7741 47.3827 78.6557 41.2598 76.1051 41.2598C73.5544 41.2598 74.5738 46.5011 76.0132 47.6146C76.0132 47.6146 70.1222 44.5083 70.0304 48.2643C69.9386 52.0202 76.3852 49.8415 76.663 49.2836C76.663 49.2836 74.0664 54.8027 77.2185 55.2665C80.373 55.7302 78.7016 50.0251 78.7016 50.0251C78.7016 50.0251 85.5661 53.2714 86.3995 50.8608C87.2351 48.4502 80.8804 47.9865 79.3031 48.6339V48.6362Z" fill="#DFB0A2"/>
<path d="M76.6581 46.1153C76.0359 45.8903 75.5997 46.5836 76.2081 46.9509C76.8142 47.3183 77.2802 46.3403 76.6581 46.1153Z" fill="#B55759"/>
<path d="M78.6623 46.1635C78.0172 45.8307 77.3445 46.3265 77.9919 46.8569C78.6394 47.3872 79.3074 46.4941 78.6623 46.1635Z" fill="#B55759"/>
<path d="M79.6841 47.0891C79.0068 46.917 78.5155 47.7251 79.2318 48.1337C79.9481 48.5401 80.3614 47.2613 79.6841 47.0891Z" fill="#B55759"/>
<path d="M79.5005 47.6279C79.5005 47.6279 78.3021 48.0067 77.6707 49.4072L77.5559 49.3153C77.5559 49.3153 78.2562 47.7565 79.5005 47.6279Z" fill="#B55759"/>
<path d="M78.3938 46.4626C78.3938 46.4626 78.0839 48.3727 77.5558 49.3163L77.425 49.2681C77.425 49.2681 78.1941 47.3511 78.2675 46.3662L78.3938 46.4603V46.4626Z" fill="#B55759"/>
<path d="M77.5583 49.3162C77.5583 49.3162 77.4229 47.3073 76.6584 46.7334L76.539 46.7885C76.539 46.7885 77.3494 47.514 77.4275 49.268L77.5583 49.3162Z" fill="#B55759"/>
<path d="M64.7387 49.7271C64.7387 49.7271 70.1131 45.9344 67.6291 44.8508C65.145 43.7672 64.0614 47.3785 63.7009 48.508C63.7009 48.508 64.8741 43.4503 62.211 43.6317C59.5455 43.8131 62.0755 48.2371 62.3464 48.6894C62.3464 48.6894 57.3783 45.3467 57.0179 48.3726C56.6574 51.3984 61.8505 50.1793 61.8505 50.1793C61.8505 50.1793 58.6892 53.1593 60.9483 54.6493C63.2051 56.1393 63.7032 50.3584 63.7032 50.3584C63.7032 50.3584 66.1414 54.6929 68.265 52.5257C70.3886 50.3584 64.7432 49.7248 64.7432 49.7248L64.7387 49.7271Z" fill="#DFB0A2"/>
<path d="M60.7992 47.6908C60.2803 47.8561 60.3446 48.5264 60.9254 48.4622C61.5063 48.3956 61.3157 47.5255 60.7992 47.6908Z" fill="#B55759"/>
<path d="M62.1307 46.7149C61.543 46.8228 61.3547 47.484 62.0435 47.5046C62.7322 47.5253 62.7184 46.607 62.1307 46.7149Z" fill="#B55759"/>
<path d="M63.2627 46.8019C62.7347 47.0314 62.8219 47.8051 63.4946 47.711C64.165 47.6169 63.7908 46.5746 63.2627 46.8019Z" fill="#B55759"/>
<path d="M63.4143 47.2451C63.4143 47.2451 62.8243 48.0946 63.1182 49.3251H62.9965C62.9965 49.3251 62.6682 47.9545 63.4143 47.2451Z" fill="#B55759"/>
<path d="M62.1056 47.043C62.1056 47.043 62.8655 48.4434 62.9963 49.3227L62.8861 49.3571C62.8861 49.3571 62.4224 47.7225 61.9747 47.043H62.1056Z" fill="#B55759"/>
<path d="M62.9963 49.3234C62.9963 49.3234 61.8966 48.0814 61.1092 48.0929L61.0587 48.1893C61.0587 48.1893 61.9517 48.2536 62.8861 49.3578L62.9963 49.3234Z" fill="#B55759"/>
<path d="M76.8469 58.9793C76.5783 60.7861 71.6285 60.3843 71.5619 59.381C71.4954 58.3778 77.1155 57.1725 76.8469 58.9793Z" fill="#0E5267"/>
<path d="M60.3883 58.176C59.183 59.2459 62.3283 61.4544 63.6667 60.9195C65.0052 60.3846 61.5936 57.1062 60.3883 58.176Z" fill="#0E5267"/>
<path d="M72.2966 41.3842C70.9581 40.4475 69.5531 44.5961 70.29 45.131C71.027 45.6659 73.635 42.3209 72.2966 41.3842Z" fill="#0E5267"/>
<path d="M65.6065 40.6468C64.1349 40.8465 66.6763 43.9918 67.7462 43.9918C68.816 43.9918 67.0781 40.4471 65.6065 40.6468Z" fill="#0E5267"/>
<path d="M65.8706 55.1725C64.6837 55.3998 65.2485 59.3004 66.5502 59.5828C67.8496 59.8652 67.0598 54.9475 65.8706 55.1725Z" fill="#0E5267"/>
<path d="M86 76.5866C86 85.1948 67.196 82.648 44 82.648C20.804 82.648 2 85.1948 2 76.5866C2 67.9784 20.804 61 44 61C67.196 61 86 67.9784 86 76.5866Z" fill="#AAC0B7"/>
<path d="M22.1433 55.4955C22.1433 55.4955 20.143 51.8246 18.3767 53.8203C16.6594 55.7623 22.3666 57.023 22.3666 57.023L22.1433 55.4955Z" fill="#0E5267"/>
<path d="M22.1802 56.4191C22.1802 56.4191 20.2774 53.9322 19.015 54.3122" stroke="#0E5267" stroke-width="0.324667" stroke-miterlimit="10"/>
<path d="M21.9482 62.627C21.9482 62.627 16.5393 61.453 18.1414 59.272C19.6901 57.1626 22.0842 61.2856 22.0842 61.2856L21.9482 62.627Z" fill="#0E5267"/>
<path d="M19.1504 60.1338C19.1504 60.1338 21.3613 60.779 22.0105 62.3369" stroke="#0E5267" stroke-width="0.324667" stroke-miterlimit="10"/>
<path d="M17.9053 39.1035C17.9053 39.1035 23.7207 51.5512 22.0881 63.3848" stroke="#0E5267" stroke-width="0.48824" stroke-miterlimit="10"/>
<path d="M22.3285 58.6997C22.3285 58.6997 25.5476 46.3259 29.3837 41.2289" stroke="#0E5267" stroke-width="0.48824" stroke-miterlimit="10"/>
<path d="M23.8438 53.6198C23.8438 53.6198 29.1286 51.6869 32.0314 46.8842" stroke="#0E5267" stroke-width="0.48824" stroke-miterlimit="10"/>
<path d="M12.6414 44.4619C12.6414 44.4619 17.3801 52.502 21.9433 53.0504" stroke="#0E5267" stroke-width="0.48824" stroke-miterlimit="10"/>
<path d="M22.8913 40.9809C22.9413 41.1365 22.4081 49.5289 21.5659 50.7536" stroke="#0E5267" stroke-width="0.48824" stroke-miterlimit="10"/>
<path d="M17.2905 38.4941C17.2905 38.4941 17.3841 39.6699 18.0807 39.6156C18.7773 39.5613 18.6394 38.8072 18.3585 38.2019L17.2925 38.4942L17.2905 38.4941Z" fill="#28748C"/>
<path d="M16.6499 35.2438C19.2595 34.3182 19.5757 38.19 17.8855 38.6704C16.1954 39.1508 14.6588 35.9492 16.6499 35.2438Z" fill="#B55759"/>
<path d="M16.9656 35.6349C17.7233 35.3904 17.9617 35.7317 17.5438 36.1219C17.1259 36.512 16.206 35.8773 16.9656 35.6349Z" fill="#DFB0A2"/>
<path d="M28.9366 40.8401C28.9366 40.8401 28.0941 41.6666 28.5816 42.1663C29.0692 42.666 29.5603 42.0758 29.8446 41.4706L28.9366 40.8401Z" fill="#28748C"/>
<path d="M31.0212 38.2633C33.4041 39.6732 30.6358 42.3985 29.184 41.4103C27.7322 40.422 29.2026 37.1894 31.0212 38.2633Z" fill="#B55759"/>
<path d="M30.9235 38.7571C31.5971 39.1831 31.4868 39.5837 30.9207 39.5132C30.3526 39.4427 30.2499 38.3311 30.9235 38.7571Z" fill="#DFB0A2"/>
<path d="M12.0415 44.3532C12.0415 44.3532 12.2318 45.5183 12.9212 45.4055C13.6106 45.2928 13.4101 44.5539 13.0786 43.9719L12.0395 44.3531L12.0415 44.3532Z" fill="#28748C"/>
<path d="M11.1322 41.1667C13.6564 40.0266 14.293 43.8588 12.649 44.4786C11.0051 45.0985 9.20717 42.0359 11.1322 41.1667Z" fill="#B55759"/>
<path d="M11.4805 41.5323C12.2169 41.2272 12.4798 41.5467 12.0976 41.9695C11.7134 42.3944 10.7441 41.8374 11.4805 41.5323Z" fill="#DFB0A2"/>
<path d="M31.6582 46.657C31.6582 46.657 30.9807 47.6226 31.552 48.025C32.1234 48.4274 32.4971 47.7571 32.6673 47.1099L31.6582 46.657Z" fill="#28748C"/>
<path d="M33.2348 43.7435C35.8354 44.692 33.6135 47.8796 32.0048 47.1727C30.3962 46.4657 31.2523 43.0191 33.2348 43.7435Z" fill="#B55759"/>
<path d="M33.2294 44.2461C33.9693 44.5424 33.9351 44.9561 33.3635 44.9901C32.7939 45.0262 32.4876 43.9499 33.2294 44.2461Z" fill="#DFB0A2"/>
<path d="M22.5622 40.0163C22.5622 40.0163 22.288 41.4583 22.919 41.4896C23.552 41.5208 23.6312 40.3555 23.6312 40.3555L22.5622 40.0163Z" fill="#28748C"/>
<path d="M23.538 37.5826C25.4185 37.5735 24.9634 40.4045 23.4413 40.6661C21.9172 40.9277 21.6576 37.5917 23.538 37.5826Z" fill="#B55759"/>
<path d="M23.6087 37.9901C23.9918 37.7844 24.2771 38.2229 24.0512 38.5415C23.8275 38.858 23.2257 38.1957 23.6087 37.9901Z" fill="#DFB0A2"/>
<path d="M15.5518 42.626C15.5518 42.626 17.2481 46.4634 20.5403 46.8728" stroke="#0E5267" stroke-width="0.48824" stroke-miterlimit="10"/>
<path d="M14.7525 42.0321C14.7525 42.0321 15.3081 43.5263 15.9141 43.1992C16.5201 42.8721 15.9371 41.7455 15.9371 41.7455L14.7525 42.0321Z" fill="#28748C"/>
<path d="M14.29 39.2205C16.0329 38.1536 17.2039 41.0403 15.9351 42.1421C14.6664 43.244 12.5471 40.2894 14.29 39.2205Z" fill="#B55759"/>
<path d="M14.5827 39.559C14.8238 39.1522 15.3351 39.4009 15.3049 39.8208C15.2747 40.2427 14.3415 39.9637 14.5827 39.559Z" fill="#DFB0A2"/>
</g>
<defs>
<clipPath id="clip0_888_1175">
<rect width="88" height="88" fill="white" transform="translate(0.333252)"/>
</clipPath>
</defs>
</svg>
