<svg width="89" height="88" viewBox="0 0 89 88" fill="none" xmlns="http://www.w3.org/2000/svg">
<path d="M25.2494 23.2548C26.2862 22.7709 27.3219 22.288 28.3587 21.8041C28.7777 21.609 29.0175 21.0663 28.8011 20.6361C28.5883 20.2142 28.0805 19.9848 27.6331 20.1938C26.5962 20.6777 25.5606 21.1605 24.5238 21.6444C24.1048 21.8396 23.8649 22.3822 24.0814 22.8124C24.2942 23.2344 24.8019 23.4638 25.2494 23.2548Z" fill="#B55759"/>
<path d="M23.6924 13.9728C25.096 14.1455 26.5088 14.2212 27.9228 14.2004C28.3826 14.193 28.8626 13.9323 28.8938 13.4159C28.9203 12.9856 28.604 12.4368 28.1092 12.445C26.6952 12.4658 25.2824 12.3901 23.8788 12.2174C23.4202 12.1608 22.9364 12.5314 22.9078 13.0019C22.8777 13.487 23.2015 13.9128 23.6924 13.9728Z" fill="#B55759"/>
<path d="M26.0035 5.45094C26.9678 6.29693 27.9796 7.08721 29.0337 7.81787C29.413 8.08088 29.9974 8.0338 30.2686 7.6306C30.5292 7.24204 30.4868 6.67732 30.0813 6.39577C29.0273 5.664 28.0155 4.87369 27.0511 4.02881C26.7022 3.7229 26.0673 3.84337 25.8162 4.21608C25.5303 4.64134 25.632 5.12463 26.0035 5.45094Z" fill="#B55759"/>
<path d="M51.6651 84.0001C52.9287 84.3696 54.2547 83.6547 54.6403 82.3959L63.1004 54.7814L64.3679 23.5016C64.4299 21.9792 63.311 20.6645 61.7985 20.4805C60.3135 20.3004 58.9329 21.2707 58.5973 22.7281L54.6118 40.0852L39.5663 43.2953C37.9386 43.6426 36.552 44.7005 35.7874 46.1786L34.1479 49.3463C33.5526 50.4957 33.3774 51.8164 33.652 53.0809L37.0254 68.6509L35.163 77.2641C34.858 78.6744 35.7301 80.0714 37.1311 80.4168L51.6651 84.0001Z" fill="#B67F6E"/>
<path d="M36.6994 60.4787C36.5538 60.4787 36.4239 60.3753 36.3943 60.2267C36.3619 60.0585 36.4721 59.8951 36.6404 59.8626L53.4996 56.5965C53.6688 56.564 53.8312 56.6742 53.8637 56.8425C53.8961 57.0108 53.7859 57.1741 53.6176 57.2066L36.7585 60.4728C36.7388 60.4767 36.7181 60.4787 36.6994 60.4787Z" fill="#654237"/>
<path d="M41.0236 59.4924C40.8809 59.4924 40.752 59.393 40.7205 59.2473L39.1371 51.9573C39.1253 51.9052 39.1282 51.85 39.144 51.7989L41.742 43.448C41.7931 43.2837 41.9673 43.1931 42.1307 43.2433C42.295 43.2945 42.3865 43.4687 42.3354 43.632L39.761 51.9042L41.3276 59.1145C41.364 59.2818 41.2578 59.4481 41.0905 59.4845C41.0679 59.4894 41.0462 59.4914 41.0246 59.4914L41.0236 59.4924Z" fill="#654237"/>
<path d="M47.7916 58.2356C47.6538 58.2356 47.5278 58.1431 47.4914 58.0034L45.7378 51.3078C45.726 51.2615 45.724 51.2123 45.7338 51.1651L47.6026 42.3104C47.638 42.1421 47.8024 42.0348 47.9706 42.0702C48.1389 42.1057 48.2462 42.271 48.2107 42.4383L46.3568 51.2212L48.0917 57.8459C48.135 58.0123 48.0356 58.1815 47.8703 58.2248C47.8437 58.2317 47.8171 58.2347 47.7916 58.2347V58.2356Z" fill="#654237"/>
<path d="M61.2121 55.1512L58.9143 48.181L50.0123 43.8274C48.7606 43.1927 47.2314 43.6621 46.5504 44.8892C45.9068 46.0495 46.2365 47.5088 47.317 48.2794L53.1919 52.4696L53.0846 59.18C53.0846 59.18 50.0626 62.5849 48.4585 69.4901" fill="#B67F6E"/>
<path d="M48.4584 69.8025C48.4347 69.8025 48.4111 69.7995 48.3875 69.7946C48.2202 69.7562 48.1159 69.5889 48.1552 69.4216C49.6363 63.0458 52.2814 59.6567 52.7755 59.0652L52.8788 52.6294L47.1367 48.5337C45.9263 47.6706 45.5573 46.039 46.2786 44.7391C47.0442 43.3594 48.7457 42.8378 50.1529 43.5513L56.7442 46.7751C58.2843 47.5279 59.4761 48.8948 60.0134 50.5234L61.5072 55.0551C61.5613 55.2185 61.4727 55.3936 61.3094 55.4478C61.146 55.5019 60.9708 55.4133 60.9167 55.25L59.4229 50.7183C58.9378 49.2481 57.8621 48.0141 56.4716 47.3341L49.8764 44.1083C48.7644 43.5444 47.4251 43.9557 46.8228 45.0412C46.255 46.0646 46.5453 47.3488 47.4979 48.0278L53.3728 52.218C53.4565 52.2771 53.5047 52.3735 53.5027 52.4759L53.3955 59.1863C53.3945 59.2601 53.3669 59.3319 53.3177 59.387C53.2882 59.4205 50.3261 62.8254 48.7614 69.5614C48.7279 69.705 48.6 69.8015 48.4593 69.8015L48.4584 69.8025Z" fill="#654237"/>
<path d="M44.2404 39.3909C45.0301 39.3909 45.6703 39.0094 45.6703 38.5387C45.6703 38.0681 45.0301 37.6865 44.2404 37.6865C43.4507 37.6865 42.8105 38.0681 42.8105 38.5387C42.8105 39.0094 43.4507 39.3909 44.2404 39.3909Z" fill="#F1ECE6"/>
<path d="M56.1516 15.4871C56.1516 9.14278 50.7599 4 44.1095 4C37.4591 4 32.0674 9.14278 32.0674 15.4871C32.0674 18.0496 34.1457 22.2635 35.9869 24.8781C37.7514 27.3846 39.194 29.5387 40.0561 32.4437L40.063 32.4654H48.158L48.1648 32.4437C49.0269 29.5397 50.3348 27.2822 52.0992 24.7768C53.9404 22.1621 56.1536 18.0506 56.1536 15.4881L56.1516 15.4871Z" fill="#F1ECE6"/>
<path d="M45.8302 38.7041H42.3476C41.399 38.7041 40.6048 37.9847 40.5113 37.041L40.0547 32.4424H48.1221L47.6656 37.041C47.5721 37.9847 46.7779 38.7041 45.8293 38.7041H45.8302Z" fill="#28748C"/>
<path d="M42.3955 32.9381C40.9853 30.0548 40.2207 26.8644 40.1725 23.6543C40.1499 22.131 40.2168 20.521 40.7935 19.0912C41.0552 18.4417 41.4528 17.6111 42.2066 17.4556C42.924 17.3071 43.6128 17.7204 44.0094 18.297C44.8459 19.5153 44.8085 21.3044 44.1206 22.5787C44.0439 22.7214 43.9258 22.9055 43.7555 22.7687C43.6375 22.6742 43.5804 22.503 43.5449 22.3623C43.4554 22.005 43.415 21.6311 43.4062 21.263C43.3894 20.5289 43.5154 19.7968 43.7732 19.1099C44.0222 18.4486 44.405 17.7341 44.9787 17.3002C45.2543 17.0915 45.5977 16.9548 45.9471 17.0168C46.2728 17.0738 46.5532 17.2884 46.7501 17.5462C47.2224 18.1632 47.1949 19.0006 47.1742 19.7367C47.1506 20.5673 47.1073 21.3969 47.0423 22.2255C46.7825 25.5871 46.1852 28.9221 45.2651 32.1656C45.15 32.571 45.0299 32.9755 44.9049 33.378C44.8459 33.5699 45.145 33.6516 45.2041 33.4607C46.3102 29.8934 47.0246 26.207 47.3326 22.4843C47.4104 21.5455 47.4625 20.6037 47.4871 19.661C47.5078 18.8767 47.498 18.0185 47.001 17.3651C46.5769 16.8071 45.886 16.5267 45.2149 16.8052C44.5142 17.0965 44.0429 17.806 43.7181 18.4614C43.3688 19.165 43.1621 19.9345 43.107 20.7179C43.0785 21.1184 43.0932 21.5209 43.1474 21.9184C43.1926 22.2501 43.2399 22.6181 43.4505 22.8907C43.6384 23.1338 43.9612 23.2194 44.2023 22.9921C44.466 22.7431 44.6028 22.2963 44.7101 21.9598C44.96 21.1735 45.0033 20.3223 44.8361 19.5134C44.6865 18.7871 44.3548 18.049 43.7664 17.5757C43.2202 17.1368 42.4378 16.9616 41.7844 17.2657C41.0759 17.5954 40.6892 18.4702 40.4323 19.1611C40.141 19.9434 40.0023 20.7749 39.9285 21.6045C39.6204 25.097 40.2365 28.6958 41.5935 31.9206C41.7598 32.3162 41.937 32.7059 42.1259 33.0906C42.2135 33.2707 42.4821 33.1133 42.3946 32.9342L42.3955 32.9381Z" fill="#28748C"/>
</svg>
