<svg width="88" height="88" viewBox="0 0 88 88" fill="none" xmlns="http://www.w3.org/2000/svg">
<path d="M27.2159 25.9668C25.1746 25.9668 23.1825 27.6023 22.7767 29.5944C22.7767 29.5944 22.334 31.7586 22.334 34.6115C22.334 42.8381 30.081 73.2607 30.081 73.2607C30.5852 75.2282 32.6634 76.8391 34.6924 76.8391H49.6823C51.7113 76.8391 53.7894 75.2282 54.2936 73.2607C54.2936 73.2607 61.8316 43.7358 61.8316 35.5707C61.8316 32.4473 61.2168 29.5821 61.2168 29.5821C60.7864 27.59 58.7697 25.9668 56.7407 25.9668H27.2404H27.2159Z" fill="#28748C"/>
<path d="M53.3329 19.4248H30.805L29.6982 25.9668H54.4396L53.3329 19.4248Z" fill="#AAC0B7"/>
<path d="M29.8216 16.6465H54.317C54.895 16.6465 55.3623 17.1138 55.3623 17.6917V18.3681C55.3623 18.946 54.895 19.4133 54.317 19.4133H29.8216C29.2437 19.4133 28.7764 18.946 28.7764 18.3681V17.6917C28.7764 17.1138 29.2437 16.6465 29.8216 16.6465Z" fill="#28748C"/>
<path d="M29.9324 15.9084C29.3545 15.9084 29.3299 15.7486 29.871 15.5518L41.0857 11.4815C41.6268 11.2848 42.5122 11.2848 43.0532 11.4815L54.268 15.5518C54.8091 15.7486 54.7845 15.9084 54.2065 15.9084H29.9201H29.9324Z" fill="#AAC0B7"/>
<path d="M66.1166 74.5742H51.5225V76.6591H66.1166V74.5742Z" fill="#B67F6E"/>
<path d="M63.3989 53.9209H60.8692H53.9961V74.9156H63.4128V72.5249H63.3989V53.9209Z" fill="#F1ECE6"/>
<path d="M62.1691 49.5292C62.1691 51.4472 60.6193 52.997 58.7012 52.997C56.7832 52.997 55.2334 51.4472 55.2334 49.5292C55.2334 44.1988 59.1391 40.0152 59.8618 40.5711C59.98 40.6615 60.0078 40.8769 59.9313 41.2314C58.6734 46.6937 62.176 47.6111 62.176 49.5292H62.1691Z" fill="#DFB0A2"/>
<path d="M63.4201 53.1086C64.4417 52.9765 64.5251 56.9725 63.2881 56.5764C62.7807 56.4166 62.1483 55.7494 61.5993 56.0691C61.1476 56.3332 61.0433 56.7502 60.9391 57.2366C60.7376 58.147 60.7584 59.3493 60.1052 60.0929C59.3616 60.9477 58.3052 60.5238 57.9091 59.5508C57.5616 58.6891 57.6589 57.6466 57.3184 56.7432C57.1446 56.2915 56.8458 55.9788 56.3802 55.8328C55.7269 55.6313 55.5671 55.8884 55.1501 56.361C54.5038 57.0976 53.5864 57.0212 53.2737 55.9232C53.1417 55.4714 53.093 52.9904 53.7741 53.1086C55.991 53.5047 61.9537 53.2962 63.4132 53.1086H63.4201Z" fill="#B67F6E"/>
<path d="M60.9467 48.5282C60.9467 49.939 59.807 51.0787 58.3962 51.0787C56.9854 51.0787 55.8457 49.939 55.8457 48.5282C55.8457 44.6087 58.7228 41.53 59.251 41.94C59.3344 42.0095 59.3622 42.1624 59.2996 42.4265C58.3754 46.4433 60.9467 47.1175 60.9467 48.5282Z" fill="#B55759"/>
</svg>
