<svg width="133" height="132" viewBox="0 0 133 132" fill="none" xmlns="http://www.w3.org/2000/svg">
<rect width="132" height="132" transform="translate(0.5)" fill="white"/>
<path d="M107.639 27.447C105.411 18.5799 97.6982 11.0472 88.6042 10.0931C79.5103 9.13901 68.5281 15.6242 66.9936 24.6381C65.4523 15.6242 54.4769 9.13901 45.383 10.0931C36.289 11.0472 28.5762 18.5799 26.3477 27.447C24.1193 36.3141 26.9549 46.0352 32.7528 53.1009C41.9535 64.3165 66.9936 77.7406 66.9936 77.7406C66.9936 77.7406 92.0336 64.3232 101.234 53.1009C107.032 46.0285 109.868 36.3141 107.639 27.447Z" fill="#B55759"/>
<path d="M98.5656 50.085C98.3788 50.3385 98.1786 50.592 97.9851 50.8389C94.4156 55.3358 89.7719 58.852 85.0481 62.1079" stroke="white" stroke-width="0.667201" stroke-linecap="round" stroke-linejoin="round"/>
<path d="M103.683 34.9863C103.856 38.269 103.129 41.5115 101.815 44.534" stroke="white" stroke-width="0.667201" stroke-linecap="round" stroke-linejoin="round"/>
<path d="M126.021 40.0171C122.905 39.9237 121.938 47.2029 121.938 47.2029C121.938 47.2029 121.911 39.103 118.475 39.0363C115.039 38.9763 114.899 53.6013 114.899 53.6013C114.899 53.6013 114.318 45.7217 111.436 45.7217C108.554 45.7217 108.567 57.9314 108.567 57.9314C108.567 57.9314 107.766 57.0707 106.886 57.1642C103.403 57.7246 104.203 76.4396 102.896 80.4962L91.4466 90.9112C86.5493 94.2538 83.9806 97.6833 82.6462 100.485C80.2509 105.816 79.6505 114.67 79.6505 114.67L79.1768 119.981C79.07 121.209 80.0374 122.27 81.2718 122.27H93.8618C94.8893 122.27 95.77 121.522 95.9368 120.508L96.2971 118.306H96.3305L101.008 112.248C101.008 112.248 120.216 88.9363 121.184 87.0814C122.151 85.2266 129.203 67.786 129.811 63.9763C130.424 60.1732 129.424 39.9637 126.014 40.0104L126.021 40.0171Z" fill="#F8DAD1"/>
<path d="M121.938 47.2029L121.664 64.2966L116.186 73.4172" stroke="#B67F6E" stroke-linecap="round" stroke-linejoin="round"/>
<path d="M114.892 53.6079L113.991 65.444L107.553 79.2551" stroke="#B67F6E" stroke-linecap="round" stroke-linejoin="round"/>
<path d="M104.871 79.9489L107.539 70.7883L108.56 57.938" stroke="#B67F6E" stroke-linecap="round" stroke-linejoin="round"/>
<path d="M102.442 83.4854C98.639 86.5545 94.8894 89.4234 91.7802 90.7645" stroke="#B67F6E" stroke-linecap="round" stroke-linejoin="round"/>
<path d="M113.898 86.7344C118.688 81.3634 123.439 75.6722 121.544 73.5238C118.468 70.388 111.403 76.206 104.217 82.0506" stroke="#B67F6E" stroke-linecap="round" stroke-linejoin="round"/>
<path d="M105.851 96.5822C106.672 94.6941 109.801 91.2913 113.091 87.6284" stroke="#B67F6E" stroke-linecap="round" stroke-linejoin="round"/>
<path d="M7.95971 40.0171C11.0755 39.9237 12.043 47.2029 12.043 47.2029C12.043 47.2029 12.0697 39.103 15.5057 39.0363C18.9418 38.9763 19.0819 53.6013 19.0819 53.6013C19.0819 53.6013 19.6624 45.7217 22.5447 45.7217C25.427 45.7217 25.4137 57.9314 25.4137 57.9314C25.4137 57.9314 26.2143 57.0707 27.095 57.1642C30.5778 57.7313 29.7772 76.4396 31.0849 80.4962L42.534 90.9112C47.4313 94.2538 50 97.6833 51.3344 100.485C53.7297 105.816 54.3302 114.67 54.3302 114.67L54.8039 119.981C54.9106 121.209 53.9432 122.27 52.7089 122.27H40.1188C39.0913 122.27 38.2106 121.522 38.0438 120.508L37.6835 118.306H37.6501L32.9731 112.248C32.9731 112.248 13.7644 88.9363 12.7969 87.0814C11.8295 85.2266 4.77716 67.786 4.17 63.9763C3.55618 60.1732 4.55698 39.9637 7.96638 40.0104L7.95971 40.0171Z" fill="#F8DAD1"/>
<path d="M12.1432 53.4346L12.3167 64.2966L16.8736 71.5224" stroke="#B67F6E" stroke-linecap="round" stroke-linejoin="round"/>
<path d="M12.0497 47.2029L12.1098 51.2528" stroke="#B67F6E" stroke-linecap="round" stroke-linejoin="round"/>
<path d="M19.0888 53.6079L19.9895 65.444L23.9193 74.2511" stroke="#B67F6E" stroke-linecap="round" stroke-linejoin="round"/>
<path d="M28.8499 79.0549L26.4413 70.7883L25.4205 57.938" stroke="#B67F6E" stroke-linecap="round" stroke-linejoin="round"/>
<path d="M29.2636 98.137L30.3311 99.5981" stroke="#B67F6E" stroke-linecap="round" stroke-linejoin="round"/>
<path d="M42.2073 90.7643C32.7263 86.6744 22.2113 68.2596 16.8737 71.5222C11.5294 74.7782 28.1293 96.5823 28.1293 96.5823L28.4029 96.9493" stroke="#B67F6E" stroke-linecap="round" stroke-linejoin="round"/>
<path d="M46.9243 81.2635C46.9443 86.4076 48.2987 92.0855 51.4612 96.1354C54.6304 100.192 61.6627 101.526 66.6534 102.787C66.8002 99.2713 65.1722 94.5942 63.284 91.6185C59.6078 85.8205 51.8816 86.0006 46.9243 81.2568V81.2635Z" fill="#0E5267"/>
<path d="M82.8597 76.9332C79.2902 78.2609 75.7406 79.8355 72.8717 82.3308C70.0027 84.8328 67.861 88.3957 67.8343 92.1987C73.3521 94.2537 79.7572 91.5382 84.0606 87.5216C88.3641 83.5051 90.9995 78.0541 93.4615 72.7031C90.0921 74.4779 86.4292 75.6054 82.8597 76.9332Z" fill="#0E5267"/>
<path d="M66.9937 77.7406C59.2074 77.5071 51.8215 74.0043 47.2645 67.6859C51.181 67.9528 55.1642 68.2263 58.8471 69.6008C62.5301 70.9752 65.6659 73.3104 66.9937 77C68.6417 73.3304 73.0052 71.9493 76.8015 70.6149C80.5979 69.2805 84.6745 68.2664 87.6702 65.5842C83.9005 72.6966 75.0401 77.6672 66.9937 77.7339V77.7406Z" fill="#0E5267"/>
<path d="M66.9937 77.2937C68.6483 84.8264 68.188 92.1389 66.8269 99.6116C65.4658 107.084 64.4316 114.67 66.2798 122.103" stroke="#0E5267" stroke-width="2" stroke-linecap="round" stroke-linejoin="round"/>
</svg>
