<svg width="89" height="88" viewBox="0 0 89 88" fill="none" xmlns="http://www.w3.org/2000/svg">
<g clip-path="url(#clip0_888_912)">
<path d="M27.6668 8.66699C15.3298 8.66699 5.3335 18.9585 5.3335 31.6542V69.3337H50.0002V31.6542C50.0002 18.9585 40.0039 8.66699 27.6668 8.66699Z" fill="#84A5CB"/>
<path d="M42.853 29.3337H13.147C12.5047 29.3337 12 28.747 12 28.0003C12 27.2537 12.5047 26.667 13.147 26.667H42.853C43.4953 26.667 44 27.2537 44 28.0003C44 28.747 43.4953 29.3337 42.853 29.3337Z" fill="#FDFDFD"/>
<path d="M42.853 37.3337H13.147C12.5047 37.3337 12 36.747 12 36.0003C12 35.2537 12.5047 34.667 13.147 34.667H42.853C43.4953 34.667 44 35.2537 44 36.0003C44 36.747 43.4953 37.3337 42.853 37.3337Z" fill="#FDFDFD"/>
<path d="M42.853 45.3337H13.147C12.5047 45.3337 12 44.747 12 44.0003C12 43.2537 12.5047 42.667 13.147 42.667H42.853C43.4953 42.667 44 43.2537 44 44.0003C44 44.747 43.4953 45.3337 42.853 45.3337Z" fill="#FDFDFD"/>
<path d="M53.8473 68.7363H1.33333C0.596954 68.7363 0 69.3333 0 70.0697V74.0002C0 74.7366 0.596952 75.3336 1.33333 75.3336H53.8473C54.5836 75.3336 55.1806 74.7366 55.1806 74.0002V70.0697C55.1806 69.3333 54.5836 68.7363 53.8473 68.7363Z" fill="#654237"/>
<path d="M51.6668 14.667C39.3298 14.667 29.3335 24.9585 29.3335 37.6542V75.3337H74.0002V37.6542C74.0002 24.9585 64.0039 14.667 51.6668 14.667Z" fill="#F1ECE6"/>
<path d="M66.853 35.3337H37.147C36.5047 35.3337 36 34.747 36 34.0003C36 33.2537 36.5047 32.667 37.147 32.667H66.853C67.4953 32.667 68 33.2537 68 34.0003C68 34.747 67.4953 35.3337 66.853 35.3337Z" fill="#FDFDFD"/>
<path d="M66.853 43.3337H37.147C36.5047 43.3337 36 42.747 36 42.0003C36 41.2537 36.5047 40.667 37.147 40.667H66.853C67.4953 40.667 68 41.2537 68 42.0003C68 42.747 67.4953 43.3337 66.853 43.3337Z" fill="#FDFDFD"/>
<path d="M66.853 51.3337H37.147C36.5047 51.3337 36 50.747 36 50.0003C36 49.2537 36.5047 48.667 37.147 48.667H66.853C67.4953 48.667 68 49.2537 68 50.0003C68 50.747 67.4953 51.3337 66.853 51.3337Z" fill="#FDFDFD"/>
<path d="M61.8637 76.2136C59.2313 73.2728 56.1376 72.6529 53.0411 70.6405C49.9446 68.628 51.957 67.5439 54.745 68.1638C56.7575 68.628 58.6143 69.5564 60.7824 69.5564C60.0097 67.3882 53.1996 59.1855 54.745 57.0202C56.4462 54.5436 62.9477 66.307 65.1159 67.5439C67.4369 64.7587 64.496 58.1015 64.9602 54.6964C65.2687 52.5283 66.3528 50.5186 67.7454 52.9953C68.6738 55.0078 68.5181 58.877 68.5181 61.0423C68.5181 61.9707 68.0539 66.6155 69.4465 66.924C70.9948 67.2326 72.3874 62.5906 72.8516 61.6622C73.6243 60.1139 74.7083 57.7929 76.4123 57.0202C78.8889 55.7833 79.6617 57.6401 78.8889 59.8054C76.8765 65.8428 70.8419 69.5564 70.3749 76.3665" fill="#28748C"/>
<path d="M70.2703 75.32C70.2703 72.7415 70.4769 69.9535 70.992 67.4768C71.5072 67.6834 72.0252 67.7853 72.5403 67.9919C71.9204 66.0304 71.8185 65.8238 72.8488 63.967C73.1573 63.5538 73.7772 62.0055 74.1905 61.7989C74.9122 61.4904 75.634 62.314 76.4605 62.5206C76.2539 61.6942 75.634 60.9724 76.0473 60.2506C76.2539 59.5288 77.904 58.7023 78.4192 58.0825C78.8324 58.5976 79.2457 59.0109 79.7608 59.3222C79.7608 58.3938 79.2457 57.774 79.7608 57.0522C80.1741 56.537 81.929 56.0191 82.6507 55.7105C84.199 54.9888 85.9539 53.9556 87.7059 53.749C87.4993 55.1926 86.8794 56.5342 86.6728 57.8759C86.0529 57.8759 85.3312 57.8758 84.6094 58.0825C84.9179 58.8042 85.7444 59.3222 86.4662 59.7326C86.1577 60.8677 85.6397 62.1046 84.9179 63.0358C83.9895 64.4793 84.0914 64.0689 82.4413 63.9642C82.6479 64.5841 83.5763 65.0992 83.6782 65.7191C83.6782 66.2342 82.6451 67.3692 82.3366 67.7825C81.2015 69.226 80.6864 68.5043 78.9315 67.7825C79.3447 68.609 80.0665 69.3308 79.758 70.0525C79.5514 70.6724 78.1078 71.2894 77.6946 71.9093C77.0747 71.4961 76.4577 71.0828 75.8378 70.7743C76.1463 71.3942 76.5596 72.0112 76.8709 72.6311C75.2207 73.1462 72.7441 74.386 71.8157 75.8295" fill="#28748C"/>
<path d="M71.3675 74.6206C72.862 70.8051 75.1065 67.417 77.7134 64.2752C80.1618 61.323 82.845 58.3369 85.8878 55.9989C86.0661 55.8631 85.8878 55.5546 85.7095 55.6933C82.5082 58.1558 79.7372 61.2834 77.1643 64.3885C74.6254 67.451 72.4827 70.8164 71.0278 74.5272C70.9457 74.7395 71.2854 74.83 71.3675 74.6206Z" fill="#0E5267"/>
<path d="M74.3239 64.1533C74.3465 65.4666 74.6098 66.7602 74.5815 68.0735C74.5815 68.1612 74.6635 68.2631 74.7569 68.249C75.9967 68.0905 77.3044 68.1528 78.4564 67.6065C78.663 67.5074 78.4818 67.2045 78.2781 67.3008C77.1883 67.8188 75.9288 67.7452 74.7569 67.8952L74.9324 68.0707C74.9607 66.7573 74.6947 65.461 74.6749 64.1505C74.672 63.9212 74.3182 63.9212 74.3211 64.1505L74.3239 64.1533Z" fill="#0E5267"/>
<path d="M77.8313 60.5418C77.9105 61.4985 78.2615 62.4127 78.2445 63.3779C78.2445 63.4657 78.3266 63.5647 78.42 63.5534C79.4078 63.4487 80.4042 63.3921 81.3552 63.0836C81.5703 63.0128 81.4797 62.6703 81.2618 62.7411C80.3419 63.0411 79.3767 63.0977 78.42 63.1996L78.5955 63.3751C78.6125 62.4042 78.2643 61.4957 78.1822 60.539C78.1624 60.3125 77.8086 60.3125 77.8284 60.539L77.8313 60.5418Z" fill="#0E5267"/>
<path d="M81.9655 57.1938C81.8692 57.8958 81.9032 58.5977 81.906 59.3053C81.906 59.4044 81.9853 59.478 82.0815 59.4808C82.8175 59.5119 83.5194 59.2912 84.2497 59.2232C84.4733 59.2006 84.4761 58.8468 84.2497 58.8694C83.5222 58.9402 82.8175 59.161 82.0815 59.127L82.257 59.3025C82.2542 58.6288 82.2117 57.9552 82.3023 57.2872C82.3334 57.0636 81.991 56.9674 81.9627 57.1938H81.9655Z" fill="#0E5267"/>
<path d="M71.9562 69.5653C72.0638 70.2304 72.1997 70.8871 72.4204 71.5268C72.4544 71.6259 72.5365 71.6655 72.6384 71.6513C73.3658 71.5438 74.0848 71.3938 74.8065 71.2381C75.0301 71.19 74.9339 70.8503 74.7131 70.8956C73.9942 71.0484 73.2752 71.1985 72.545 71.3088C72.6186 71.3513 72.6893 71.3909 72.7629 71.4334C72.5421 70.7965 72.4063 70.137 72.2987 69.4719C72.2619 69.2483 71.9223 69.3417 71.9562 69.5653Z" fill="#0E5267"/>
<path d="M66.089 74.7163C66.1909 70.281 66.8108 65.9447 65.9843 61.4046C65.0559 56.0409 61.4442 51.6027 56.389 49.7459C55.3559 49.3327 54.3256 49.0242 53.2925 49.126C55.3559 50.363 58.2401 51.8829 59.6837 54.0482C60.9206 56.1116 62.166 57.5863 62.9897 59.8564C64.5379 63.9832 64.4332 68.2147 64.5379 72.6501C64.5379 73.3718 64.6398 74.0936 64.6398 74.9201" fill="#AAC0B7"/>
<path d="M63.3054 74.7166C63.4073 71.003 61.8619 66.6696 60.2089 63.3664C58.972 60.9945 56.2887 59.7548 54.3272 57.9999C52.5723 56.4516 51.1288 54.3882 50.407 52.1182C50.6136 57.6914 52.2638 60.7851 56.8038 64.0882C60.2089 66.4601 61.2392 71.3116 61.7572 75.2318C61.7572 75.2318 61.8591 75.4384 61.8591 75.5403" fill="#AAC0B7"/>
<path d="M60.7534 75.8228C60.3401 73.2442 59.6183 69.8392 57.9682 67.8777C54.9764 64.0594 49.3013 64.1641 46.9265 59.624C47.8549 61.1723 47.9596 63.131 49.0947 64.5773C50.4363 66.2275 52.7063 66.5389 54.3565 67.6739C57.5549 69.9439 58.4833 72.6272 59.1032 76.2389" fill="#AAC0B7"/>
<path d="M66.847 75.9931C67.2064 74.5807 67.0026 72.8937 66.9205 71.5181C66.8158 69.6613 66.9206 67.6998 67.0224 65.843C67.1243 63.9862 67.2291 61.9228 68.2594 60.3745C69.2897 58.6197 69.5359 57.912 70.0142 55.3193H69.4991C69.2925 56.661 68.6726 57.796 67.9508 58.931C66.7139 61.0991 66.4026 62.6446 66.1959 65.226C66.094 67.1875 66.0941 69.1462 66.0941 71.1077C66.0941 72.2144 65.6129 74.5326 65.9016 76.0186C66.2158 76.0214 66.5328 76.0129 66.847 75.9959V75.9931Z" fill="#0E5267"/>
<path d="M69.0477 75.6961C69.0618 74.3997 69.2062 73.0779 69.4496 71.8042C69.7581 70.0238 70.0384 68.4642 71.1111 66.3697L70.6865 66.0781C68.9033 69.2483 68.1335 72.7326 68.0542 75.8291C68.0542 75.8432 68.0542 75.8631 68.0542 75.8772C68.3882 75.8291 68.7194 75.7668 69.0477 75.6961Z" fill="#0E5267"/>
<path d="M63.7406 75.8035C63.7718 75.8176 63.8057 75.8261 63.834 75.8403C64.2161 75.9025 64.6011 75.945 64.9889 75.9733C64.9322 72.1182 63.5736 68.5914 62.3282 65.0703H61.864C62.3282 67.2385 63.1802 69.3273 63.4887 71.5719C63.5793 72.3474 63.483 74.3627 63.7378 75.8063L63.7406 75.8035Z" fill="#0E5267"/>
<path d="M61.6741 64.6835C60.9382 64.607 60.1259 64.1428 59.4296 63.9107C58.3455 63.523 57.2247 63.2541 56.1802 62.8267C55.2914 62.4389 54.2838 62.1304 53.7035 61.2416C53.4318 60.817 53.3554 60.3132 53.7035 59.8858C54.0913 59.4216 54.7084 59.7698 54.9405 59.5377H55.0169C54.7084 58.4168 55.2094 57.3327 56.333 56.9846C57.5332 56.6364 58.1502 57.6044 58.654 58.5696C59.6221 60.35 60.123 62.4389 61.1703 64.1796C61.2864 64.3721 61.3628 64.6042 61.5185 64.7599" fill="#DFB0A2"/>
<path d="M61.8658 64.7992C61.362 64.3747 60.7053 64.1794 60.1619 63.8312C59.3099 63.251 58.5372 62.5547 57.8013 61.898C57.0654 61.2413 56.253 60.429 56.2927 59.3449C56.3323 57.9523 57.4928 58.108 58.4608 58.2241C58.4608 57.5674 58.4608 56.6758 59.1571 56.3276C59.9694 55.9399 60.394 56.7522 60.9375 57.1004C61.3252 56.288 62.8339 55.5917 63.3377 56.5965C63.8019 57.4485 63.3773 58.7647 63.1056 59.6138C62.6018 61.2017 62.2933 63.0585 61.6734 64.6039" fill="#DFB0A2"/>
<path d="M61.8515 64.6462C61.7949 62.4214 62.4657 60.2929 62.811 58.1163C62.8478 57.8927 62.5054 57.7965 62.4714 58.0229C62.1204 60.2335 61.4411 62.3903 61.4977 64.649C61.5034 64.8755 61.8572 64.8783 61.8515 64.649V64.6462Z" fill="#B55759"/>
<path d="M61.4044 64.6463C61.0166 62.866 61.7129 60.7007 62.1771 58.9967C62.4092 58.0287 62.5253 56.9078 63.414 56.3644C64.6906 55.552 64.5349 56.7125 64.8463 57.5645C65.0387 58.0683 64.9623 57.8362 65.5029 57.7966C66.0068 57.757 66.5474 57.7966 66.7795 58.3004C67.1276 59.1892 66.0832 60.1968 65.5426 60.7375C64.1868 62.0536 62.7177 63.0981 61.6733 64.6831" fill="#DFB0A2"/>
<path d="M61.9043 64.7618C61.8279 63.7174 62.06 62.4012 62.176 61.3568C62.2524 60.7001 62.5638 59.8085 63.144 59.4603C64.2649 58.7244 64.2281 59.8085 64.5763 60.4652C65.1565 60.1566 66.0481 59.4971 66.7444 60.001C67.6332 60.6208 66.5123 61.7021 66.0085 62.1691C64.7716 63.2135 63.1072 63.6409 61.9071 64.6458" fill="#DFB0A2"/>
<path d="M60.8521 62.5485C61.1578 63.007 61.1352 63.5788 61.0644 64.1024C61.0418 64.2836 61.3248 64.2808 61.3474 64.1024C61.4239 63.5307 61.4267 62.9051 61.0955 62.407C60.9965 62.2541 60.7502 62.3985 60.8521 62.5485Z" fill="#DFB0A2"/>
<path d="M59.3176 63.6829C59.5723 63.8584 59.8611 63.9603 60.1299 64.1075C60.2885 64.1952 60.4328 63.9518 60.2715 63.864C60.0026 63.714 59.7139 63.6121 59.4591 63.4395C59.3091 63.3348 59.1676 63.581 59.3176 63.6829Z" fill="#DFB0A2"/>
<path d="M62.5607 62.7499C61.7087 63.4066 58.8075 63.95 58.3829 62.6735C57.647 60.545 60.3954 59.5402 61.8644 60.7007C62.3682 61.0884 62.7928 61.9376 62.7928 62.5178" fill="#F1ECE6"/>
<path d="M58.6909 62.4778V62.5174C58.6909 62.7665 59.0787 62.7665 59.0787 62.5174V62.4778C59.0787 62.2287 58.6909 62.2287 58.6909 62.4778Z" fill="#F1ECE6"/>
<path d="M58.9207 61.3574C58.6716 61.3574 58.6716 61.7452 58.9207 61.7452C59.1698 61.7452 59.1698 61.3574 58.9207 61.3574Z" fill="#F1ECE6"/>
<path d="M61.0093 61.9375C60.7602 61.9375 60.7602 62.3253 61.0093 62.3253C61.2584 62.3253 61.2584 61.9375 61.0093 61.9375Z" fill="#F1ECE6"/>
<path d="M60.3934 62.6338C60.1443 62.6338 60.1443 63.0216 60.3934 63.0216C60.6424 63.0216 60.6424 62.6338 60.3934 62.6338Z" fill="#F1ECE6"/>
<path d="M61.7098 62.5547C61.4607 62.5547 61.4607 62.9425 61.7098 62.9425C61.9588 62.9425 61.9588 62.5547 61.7098 62.5547Z" fill="#F1ECE6"/>
<path d="M62.4832 62.0537C62.2341 62.0537 62.2341 62.4415 62.4832 62.4415C62.7323 62.4415 62.7323 62.0537 62.4832 62.0537Z" fill="#F1ECE6"/>
<path d="M60.1226 60.5049C59.8735 60.5049 59.8735 60.8927 60.1226 60.8927C60.3717 60.8927 60.3717 60.5049 60.1226 60.5049Z" fill="#F1ECE6"/>
<path d="M59.5809 61.2021C59.3318 61.2021 59.3318 61.5899 59.5809 61.5899C59.8299 61.5899 59.8299 61.2021 59.5809 61.2021Z" fill="#F1ECE6"/>
<path d="M59.5054 62.5176C59.2563 62.5176 59.2563 62.9054 59.5054 62.9054C59.7545 62.9054 59.7545 62.5176 59.5054 62.5176Z" fill="#F1ECE6"/>
<path d="M60.5914 62.0137C60.3423 62.0137 60.3423 62.4014 60.5914 62.4014C60.8404 62.4014 60.8404 62.0137 60.5914 62.0137Z" fill="#F1ECE6"/>
<path d="M61.0901 61.3945C60.8411 61.3945 60.8411 61.7823 61.0901 61.7823C61.3392 61.7823 61.3392 61.3945 61.0901 61.3945Z" fill="#F1ECE6"/>
<path d="M61.1304 62.5947C60.8813 62.5947 60.8813 62.9825 61.1304 62.9825C61.3795 62.9825 61.3795 62.5947 61.1304 62.5947Z" fill="#F1ECE6"/>
<path d="M62.0589 62.0137C61.8098 62.0137 61.8098 62.4014 62.0589 62.4014C62.308 62.4014 62.308 62.0137 62.0589 62.0137Z" fill="#F1ECE6"/>
<path d="M59.2332 60.5049C58.9841 60.5049 58.9841 60.8927 59.2332 60.8927C59.4823 60.8927 59.4823 60.5049 59.2332 60.5049Z" fill="#F1ECE6"/>
<path d="M58.5367 61.666C58.2876 61.666 58.2876 62.0538 58.5367 62.0538C58.7857 62.0538 58.7857 61.666 58.5367 61.666Z" fill="#F1ECE6"/>
<path d="M59.1175 62.9023C58.8684 62.9023 58.8684 63.2901 59.1175 63.2901C59.3666 63.2901 59.3666 62.9023 59.1175 62.9023Z" fill="#F1ECE6"/>
<path d="M58.81 63.9106C57.7655 63.987 56.605 63.871 55.7531 63.2143C55.1332 62.7501 54.5529 61.8585 54.4765 61.0858C54.3208 59.4979 55.5606 60.3499 56.2569 60.8141C56.9135 59.3422 57.3777 60.0413 57.6891 61.2018C58.5411 61.0462 59.6619 60.3895 59.6619 61.8217C59.6619 62.5576 59.1977 63.5624 58.5779 63.9502" fill="#DFB0A2"/>
<path d="M61.9415 64.7622C61.2848 64.8018 60.6254 64.6858 60.0451 64.4905C59.5045 64.3348 57.3363 63.4064 58.9242 63.0583C59.2328 62.9819 59.8923 63.2904 60.0847 63.0186C60.2772 62.7469 60.0451 62.1299 60.2404 61.7421C60.5886 61.1619 60.8207 61.4336 61.2848 61.7421C62.0208 62.2459 61.749 61.8582 62.4057 61.5864C63.9936 60.9298 62.4453 64.2952 61.9811 64.7198" fill="#B55759"/>
<path d="M60.4914 62.2375C60.7263 62.6281 60.9584 63.0215 61.1481 63.4376C61.2443 63.6442 61.55 63.4659 61.4537 63.2593C61.2613 62.8432 61.0292 62.4526 60.7971 62.0592C60.681 61.8639 60.3725 62.0422 60.4914 62.2375Z" fill="#B55759"/>
<path d="M62.0757 62.4014C62.0701 62.6476 62.0078 62.8854 61.9653 63.1288C61.9257 63.3524 62.2682 63.4458 62.3078 63.2222C62.3559 62.9476 62.4239 62.6816 62.4295 62.4014C62.4352 62.1721 62.0814 62.1749 62.0757 62.4014Z" fill="#B55759"/>
<path d="M59.6857 63.7916C59.8782 63.9105 60.0565 64.0492 60.266 64.1398C60.3537 64.1766 60.4556 64.1681 60.5094 64.0775C60.5547 64.0011 60.5349 63.8737 60.4471 63.8341C60.2377 63.7463 60.0593 63.6048 59.8669 63.4859C59.6716 63.3671 59.4933 63.6728 59.6886 63.7916H59.6857Z" fill="#B55759"/>
<path d="M60.5116 64.7845C60.9843 65.5459 61.8561 66.3215 62.5184 65.5289C62.7647 65.2317 62.9628 64.3882 62.8439 63.9948C62.6826 63.4231 62.4364 63.958 62.1788 64.2071C62.0741 64.0995 61.7655 63.6948 61.5759 63.7938C61.4372 63.8788 61.5618 64.4081 61.5419 64.5439C61.3608 64.5609 59.7644 63.9835 60.5116 64.7873" fill="#28748C"/>
<path d="M69.5314 54.8229C68.92 54.5455 68.3567 53.9115 67.8246 53.5124C67.0038 52.8671 66.1178 52.3123 65.3423 51.6443C64.6884 51.0556 63.9129 50.5008 63.6695 49.5667C63.5591 49.1224 63.6383 48.6667 64.0601 48.4034C64.5271 48.1147 64.9602 48.5931 65.2262 48.46C65.2602 48.4714 65.2942 48.4827 65.2942 48.4827C65.3508 47.4297 66.0952 46.6429 67.1594 46.6655C68.2916 46.7108 68.5464 47.7213 68.6992 48.6978C69.0191 50.5065 68.8492 52.4482 69.2483 54.2483C69.2936 54.4493 69.2936 54.6701 69.3814 54.8484" fill="#DFB0A2"/>
<path d="M69.6618 54.9793C69.3504 54.4699 68.8409 54.1132 68.4758 53.6575C67.9097 52.9131 67.4455 52.0923 67.0011 51.3139C66.5567 50.5355 66.0925 49.6043 66.4379 48.6844C66.8738 47.4984 67.8248 47.9654 68.6258 48.3419C68.8155 47.7758 69.0702 47.0116 69.7693 46.9125C70.5788 46.8134 70.7119 47.6343 71.077 48.09C71.6431 47.5012 73.1404 47.3371 73.2848 48.3476C73.4376 49.2137 72.696 50.2213 72.2177 50.878C71.3289 52.0979 70.5279 53.6066 69.5514 54.7586" fill="#DFB0A2"/>
<path d="M69.7101 54.8376C70.2932 52.9043 71.4961 51.274 72.416 49.5021C72.5208 49.3012 72.2151 49.12 72.1103 49.3238C71.1763 51.1268 69.9592 52.7826 69.3676 54.7442C69.3025 54.9621 69.6422 55.0555 69.7101 54.8376Z" fill="#B55759"/>
<path d="M69.3098 54.713C69.4881 53.0714 70.7109 51.407 71.5997 50.0767C72.078 49.3125 72.4998 48.3784 73.4225 48.169C74.7556 47.8378 74.2858 48.7917 74.3084 49.6125C74.3311 50.1022 74.3311 49.8786 74.8066 50.0031C75.251 50.1135 75.7038 50.3032 75.7605 50.8041C75.8029 51.6703 74.6169 52.2335 73.9942 52.5449C72.4516 53.2865 70.8864 53.762 69.5306 54.8262" fill="#DFB0A2"/>
<path d="M69.7109 54.9561C69.9459 54.0362 70.5233 52.9719 70.9224 52.1058C71.1771 51.5624 71.7008 50.8859 72.3008 50.7529C73.4783 50.4443 73.133 51.3642 73.2434 52.0294C73.8321 51.9303 74.786 51.619 75.2417 52.253C75.8276 53.0427 74.551 53.6512 73.9849 53.906C72.6178 54.4494 71.0667 54.3362 69.7449 54.857" fill="#DFB0A2"/>
<path d="M69.4345 52.7656C69.559 53.2298 69.3835 53.7053 69.1797 54.1214C69.1005 54.2855 69.3439 54.427 69.4231 54.2629C69.6609 53.776 69.8505 53.2326 69.7062 52.6891C69.6581 52.5136 69.3863 52.5872 69.4345 52.7656Z" fill="#DFB0A2"/>
<path d="M67.7723 53.2751C67.9478 53.51 68.1743 53.6883 68.3724 53.9034C68.4969 54.0393 68.6951 53.8383 68.5734 53.7025C68.395 53.5072 68.1799 53.343 68.0186 53.1307C67.911 52.9863 67.6648 53.1279 67.7752 53.2722L67.7723 53.2751Z" fill="#DFB0A2"/>
<path d="M70.8551 53.4159C69.9352 53.7358 67.2831 53.3678 67.2831 52.1479C67.2633 50.1071 69.9154 50.0307 70.8466 51.4516C71.1665 51.9299 71.2882 52.7847 71.1212 53.2829" fill="#F1ECE6"/>
<path d="M67.6049 52.0685L67.5936 52.1024C67.5228 52.3176 67.854 52.428 67.9276 52.2128L67.9389 52.1789C68.0097 51.9638 67.6785 51.8534 67.6049 52.0685Z" fill="#F1ECE6"/>
<path d="M68.1296 51.172C67.9144 51.1012 67.8041 51.4324 68.0192 51.506C68.2343 51.5767 68.3447 51.2456 68.1296 51.172Z" fill="#F1ECE6"/>
<path d="M69.757 52.2725C69.5419 52.2018 69.4315 52.5329 69.6466 52.6065C69.8617 52.6773 69.9721 52.3461 69.757 52.2725Z" fill="#F1ECE6"/>
<path d="M69.0253 52.6915C68.8102 52.6207 68.6998 52.9519 68.9149 53.0255C69.13 53.0962 69.2404 52.7651 69.0253 52.6915Z" fill="#F1ECE6"/>
<path d="M70.1789 53.0059C69.9638 52.9352 69.8534 53.2663 70.0685 53.3399C70.2836 53.4107 70.394 53.0795 70.1789 53.0059Z" fill="#F1ECE6"/>
<path d="M70.9889 52.796C70.7738 52.7252 70.6634 53.0564 70.8785 53.13C71.0937 53.2007 71.204 52.8696 70.9889 52.796Z" fill="#F1ECE6"/>
<path d="M69.4015 50.7833C69.1864 50.7125 69.076 51.0437 69.2911 51.1145C69.5063 51.1852 69.6166 50.8541 69.4015 50.7833Z" fill="#F1ECE6"/>
<path d="M68.7375 51.2276C68.5224 51.1569 68.412 51.488 68.6271 51.5616C68.8422 51.6324 68.9526 51.3012 68.7375 51.2276Z" fill="#F1ECE6"/>
<path d="M68.2909 52.338C68.0758 52.2672 67.9654 52.5984 68.1805 52.672C68.3957 52.7427 68.506 52.4116 68.2909 52.338Z" fill="#F1ECE6"/>
<path d="M69.3678 52.2159C69.1527 52.1451 69.0423 52.4763 69.2575 52.5499C69.4726 52.6207 69.583 52.2895 69.3678 52.2159Z" fill="#F1ECE6"/>
<path d="M69.9797 51.8282C69.7645 51.7574 69.6542 52.0886 69.8693 52.1622C70.0844 52.233 70.1948 51.9018 69.9797 51.8282Z" fill="#F1ECE6"/>
<path d="M69.6659 52.8692C69.4508 52.7985 69.3404 53.1296 69.5555 53.2032C69.7707 53.274 69.8811 52.9428 69.6659 52.8692Z" fill="#F1ECE6"/>
<path d="M70.6335 52.6378C70.4183 52.567 70.308 52.8982 70.5231 52.9718C70.7382 53.0425 70.8486 52.7114 70.6335 52.6378Z" fill="#F1ECE6"/>
<path d="M68.6386 50.5284C68.4235 50.4576 68.3131 50.7888 68.5282 50.8624C68.7433 50.9332 68.8537 50.602 68.6386 50.5284Z" fill="#F1ECE6"/>
<path d="M67.703 51.3272C67.4879 51.2565 67.3775 51.5876 67.5898 51.6612C67.8049 51.732 67.9153 51.4008 67.703 51.3272Z" fill="#F1ECE6"/>
<path d="M67.8495 52.5577C67.6344 52.4869 67.524 52.8181 67.7391 52.8917C67.9543 52.9625 68.0646 52.6313 67.8495 52.5577Z" fill="#F1ECE6"/>
<path d="M67.2923 53.3347C66.3724 53.0998 65.4072 52.6667 64.8637 51.8572C64.4646 51.2798 64.2212 50.3486 64.3769 49.6608C64.6996 48.2512 65.5204 49.3409 65.9846 49.941C66.9724 48.8654 67.1734 49.5985 67.1054 50.6854C67.881 50.7986 69.0358 50.5552 68.6254 51.7865C68.4131 52.4176 67.7253 53.1507 67.08 53.3064" fill="#DFB0A2"/>
<path d="M69.7411 54.9678C69.1636 54.8121 68.6315 54.5234 68.1871 54.1894C67.7654 53.9007 66.169 52.4798 67.6352 52.6355C67.9239 52.6582 68.3994 53.1139 68.6457 52.9355C68.8891 52.7601 68.8693 52.16 69.1467 51.8826C69.6137 51.4835 69.7354 51.7835 70.0439 52.1826C70.5308 52.828 70.4091 52.4176 71.0544 52.3723C72.6083 52.2619 70.3072 54.7131 69.7864 54.9452" fill="#B55759"/>
<path d="M69.2101 52.3955C69.295 52.7833 69.3799 53.1739 69.4252 53.5702C69.4507 53.7938 69.8045 53.7966 69.779 53.5702C69.7309 53.1428 69.646 52.721 69.5526 52.3021C69.5045 52.0785 69.162 52.1747 69.2129 52.3955H69.2101Z" fill="#B55759"/>
<path d="M70.5192 52.9804C70.4456 53.1899 70.3211 53.3767 70.2135 53.5692C70.1059 53.7701 70.4116 53.9484 70.5192 53.7475C70.6381 53.5239 70.7739 53.3144 70.8589 53.0738C70.9353 52.8587 70.5928 52.7653 70.5164 52.9804H70.5192Z" fill="#B55759"/>
<path d="M68.0784 53.5039C68.2086 53.6596 68.3246 53.8322 68.4775 53.9709C68.6473 54.1209 68.8992 53.8719 68.7266 53.7218C68.5737 53.586 68.4577 53.4133 68.3275 53.2548C68.1803 53.0793 67.9312 53.3312 68.0784 53.5039Z" fill="#B55759"/>
<path d="M68.5045 54.5767C68.6913 55.3692 69.2206 56.2863 70.0159 55.7938C70.3131 55.6098 70.7264 54.9418 70.7377 54.5654C70.7632 54.0276 70.398 54.4182 70.1037 54.5541C70.0442 54.4323 69.8942 53.9965 69.7046 54.0248C69.5602 54.0587 69.5178 54.5484 69.4583 54.6616C69.297 54.6248 68.0912 53.6681 68.5045 54.5767Z" fill="#28748C"/>
<path d="M70.9426 66.2312C70.5605 65.6792 70.402 64.847 70.1501 64.23C69.7764 63.2563 69.3009 62.3251 68.9754 61.3543C68.715 60.5136 68.3329 59.639 68.6046 58.7134C68.7377 58.2747 69.0377 57.9266 69.5358 57.9124C70.085 57.9039 70.2095 58.5351 70.5067 58.5578C70.5293 58.5832 70.552 58.6115 70.552 58.6115C71.1407 57.7341 72.1823 57.4425 73.0853 58.0086C74.0335 58.6285 73.7334 59.6248 73.3655 60.5419C72.7116 62.26 71.5709 63.8394 70.9907 65.5886C70.9256 65.7839 70.8124 65.9736 70.7982 66.1717" fill="#DFB0A2"/>
<path d="M70.9791 66.4351C70.9734 65.8378 70.7187 65.2717 70.6394 64.6915C70.5347 63.7631 70.5573 62.8177 70.5771 61.9233C70.5941 61.0289 70.6734 59.9901 71.4433 59.3759C72.4254 58.5805 73.0028 59.4693 73.4953 60.2024C73.9482 59.8146 74.5596 59.2881 75.2106 59.5598C75.9579 59.891 75.6493 60.6637 75.7286 61.2411C76.5155 61.0289 77.8882 61.6544 77.492 62.5941C77.1806 63.4178 76.023 63.9018 75.2785 64.2188C73.8888 64.8104 72.4283 65.6935 70.9989 66.1831" fill="#DFB0A2"/>
<path d="M71.094 66.3321C72.5828 64.9706 74.4566 64.1894 76.1549 63.1393C76.3473 63.0204 76.1719 62.7147 75.9766 62.8336C74.25 63.9035 72.3564 64.6989 70.8421 66.083C70.6722 66.2387 70.9242 66.4877 71.0912 66.3321H71.094Z" fill="#B55759"/>
<path d="M70.8098 66.0244C71.8061 64.7054 73.7082 63.9044 75.1546 63.2194C75.9584 62.8062 76.7991 62.2231 77.6963 62.5174C79.0097 62.9165 78.1209 63.494 77.7162 64.2101C77.4841 64.6403 77.5973 64.4507 77.9454 64.7988C78.2681 65.1215 78.5625 65.5177 78.353 65.9763C77.9454 66.7405 76.6377 66.616 75.9443 66.565C74.2375 66.4093 72.6524 66.0159 70.9428 66.2339" fill="#DFB0A2"/>
<path d="M71.0278 66.4368C71.7015 65.766 72.7431 65.1489 73.53 64.6111C74.0281 64.2771 74.8235 63.9629 75.4066 64.1554C76.5756 64.4922 75.8057 65.1065 75.5594 65.7348C76.1142 65.9499 77.0935 66.1735 77.1586 66.9519C77.2577 67.9284 75.8509 67.7982 75.2339 67.7275C73.7847 67.4925 72.5082 66.5981 71.1071 66.3688" fill="#DFB0A2"/>
<path d="M71.9165 64.41C71.792 64.8742 71.3872 65.194 71.0023 65.446C70.8494 65.545 70.9909 65.7913 71.1438 65.6894C71.5938 65.3978 72.0439 65.0214 72.191 64.4864C72.2392 64.3109 71.9646 64.2345 71.9193 64.41H71.9165Z" fill="#DFB0A2"/>
<path d="M70.2282 63.9971C70.2593 64.2886 70.3612 64.5604 70.4207 64.8462C70.4575 65.0246 70.7292 64.9481 70.6924 64.7698C70.6386 64.5094 70.5395 64.2603 70.5084 63.9971C70.4886 63.8188 70.2055 63.816 70.2254 63.9971H70.2282Z" fill="#DFB0A2"/>
<path d="M72.8069 65.7016C71.8502 65.5034 69.7641 63.8278 70.3896 62.7805C71.4199 61.0171 73.7353 62.3135 73.806 64.0118C73.8372 64.5863 73.5032 65.3817 73.1041 65.7242" fill="#F1ECE6"/>
<path d="M70.7079 62.8799L70.6824 62.9026C70.5097 63.0497 70.739 63.3158 70.9117 63.1686L70.9371 63.146C71.1098 62.9988 70.8805 62.7327 70.7079 62.8799Z" fill="#F1ECE6"/>
<path d="M71.8923 63.2927C71.7451 63.1201 71.4791 63.3494 71.6263 63.522C71.7734 63.6947 72.0395 63.4654 71.8923 63.2927Z" fill="#F1ECE6"/>
<path d="M71.6123 62.3755C71.4651 62.2057 71.199 62.4321 71.3462 62.6048C71.4934 62.7775 71.7595 62.5482 71.6123 62.3755Z" fill="#F1ECE6"/>
<path d="M72.5303 62.4695C72.3831 62.2968 72.117 62.5261 72.2642 62.6988C72.4114 62.8714 72.6774 62.6422 72.5303 62.4695Z" fill="#F1ECE6"/>
<path d="M72.6072 63.3718C72.46 63.1992 72.1939 63.4285 72.3411 63.6011C72.4883 63.7738 72.7543 63.5445 72.6072 63.3718Z" fill="#F1ECE6"/>
<path d="M73.2998 63.1511C73.1526 62.9785 72.8865 63.2078 73.0337 63.3804C73.1809 63.5531 73.447 63.3238 73.2998 63.1511Z" fill="#F1ECE6"/>
<path d="M73.1634 63.9121L73.138 63.9348C72.9653 64.082 73.1946 64.348 73.3672 64.2009L73.3927 64.1782C73.5654 64.031 73.3361 63.765 73.1634 63.9121Z" fill="#F1ECE6"/>
<path d="M72.4497 64.157C72.3025 63.9843 72.0364 64.2136 72.1836 64.3863C72.3308 64.5589 72.5969 64.3297 72.4497 64.157Z" fill="#F1ECE6"/>
<path d="M71.6045 64.1424C71.4573 63.9697 71.1912 64.199 71.3384 64.3716C71.4856 64.5443 71.7517 64.315 71.6045 64.1424Z" fill="#F1ECE6"/>
<path d="M72.438 64.9998C72.2908 64.8271 72.0247 65.0564 72.1719 65.229C72.3191 65.4017 72.5852 65.1724 72.438 64.9998Z" fill="#F1ECE6"/>
<path d="M73.2192 64.5125C73.072 64.3398 72.806 64.5691 72.9532 64.7417C73.1003 64.9144 73.3664 64.6851 73.2192 64.5125Z" fill="#F1ECE6"/>
<path d="M73.2427 65.2371C73.0955 65.0644 72.8294 65.2937 72.9766 65.4663C73.1238 65.639 73.3898 65.4097 73.2427 65.2371Z" fill="#F1ECE6"/>
<path d="M72.9106 62.698C72.7634 62.5254 72.4974 62.7546 72.6446 62.9273C72.7918 63.0999 73.0578 62.8707 72.9106 62.698Z" fill="#F1ECE6"/>
<path d="M72.1098 62.7351C71.9627 62.5625 71.6966 62.7917 71.8438 62.9644C71.991 63.1371 72.257 62.9078 72.1098 62.7351Z" fill="#F1ECE6"/>
<path d="M71.1567 63.4597C71.0095 63.2871 70.7435 63.5164 70.8907 63.689C71.0378 63.8617 71.3039 63.6324 71.1567 63.4597Z" fill="#F1ECE6"/>
<path d="M72.1489 63.9099C72.0017 63.7373 71.7357 63.9665 71.8828 64.1392C72.03 64.3119 72.2961 64.0826 72.1489 63.9099Z" fill="#F1ECE6"/>
<path d="M72.8689 63.8904C72.7217 63.7177 72.4556 63.947 72.6028 64.1197C72.75 64.2923 73.0161 64.0631 72.8689 63.8904Z" fill="#F1ECE6"/>
<path d="M72.0669 64.6258C71.9197 64.4531 71.6536 64.6824 71.8008 64.855C71.948 65.0277 72.2141 64.7984 72.0669 64.6258Z" fill="#F1ECE6"/>
<path d="M73.0122 64.9207C72.865 64.748 72.5989 64.9773 72.7461 65.1499C72.8933 65.3226 73.1594 65.0933 73.0122 64.9207Z" fill="#F1ECE6"/>
<path d="M73.8388 64.2605C73.6917 64.0879 73.4256 64.3171 73.5728 64.4898C73.72 64.6624 73.986 64.4332 73.8388 64.2605Z" fill="#F1ECE6"/>
<path d="M73.7998 63.4119C73.6526 63.2392 73.3865 63.4685 73.5337 63.6412C73.6809 63.811 73.947 63.5845 73.7998 63.4119Z" fill="#F1ECE6"/>
<path d="M72.3884 62.0867C72.2412 61.914 71.9752 62.1433 72.1223 62.316C72.2695 62.4858 72.5356 62.2593 72.3884 62.0867Z" fill="#F1ECE6"/>
<path d="M71.1736 62.2908C71.0264 62.1181 70.7603 62.3474 70.9075 62.5201C71.0547 62.6927 71.3208 62.4634 71.1736 62.2908Z" fill="#F1ECE6"/>
<path d="M70.6658 63.4226C70.5186 63.25 70.2525 63.4792 70.3997 63.6519C70.5469 63.8246 70.8129 63.5953 70.6658 63.4226Z" fill="#F1ECE6"/>
<path d="M69.7851 63.8047C69.1142 63.131 68.5085 62.2649 68.4576 61.2912C68.4123 60.5921 68.6812 59.6665 69.168 59.157C70.1672 58.1126 70.3144 59.4684 70.4049 60.2213C71.806 59.8052 71.5994 60.5355 70.9852 61.4356C71.5937 61.9309 72.7089 62.313 71.7239 63.1593C71.2173 63.5924 70.2521 63.8698 69.6181 63.6716" fill="#DFB0A2"/>
<path d="M71.0526 66.4629C70.6365 66.0326 70.328 65.5118 70.1185 64.9995C69.9063 64.5353 69.2637 62.4974 70.4412 63.3805C70.6761 63.5475 70.8516 64.1815 71.1545 64.156C71.4545 64.1306 71.7432 63.6041 72.1253 63.5079C72.7311 63.4031 72.6801 63.7258 72.7424 64.2268C72.8301 65.0307 72.9377 64.6146 73.5123 64.9089C74.902 65.6109 71.6725 66.5365 71.1035 66.4685" fill="#B55759"/>
<path d="M71.9137 63.9802C71.7864 64.3595 71.659 64.736 71.4948 65.0983C71.4014 65.3049 71.7071 65.4832 71.8005 65.2766C71.9788 64.886 72.1175 64.4812 72.2534 64.0736C72.327 63.8557 71.9845 63.7651 71.9109 63.9802H71.9137Z" fill="#B55759"/>
<path d="M72.7322 65.1579C72.5624 65.2994 72.3586 65.3956 72.1661 65.5088C71.9708 65.6249 72.1491 65.9306 72.3444 65.8145C72.5624 65.6843 72.7831 65.5711 72.9813 65.4098C73.1568 65.2654 72.9048 65.0163 72.7322 65.1607V65.1579Z" fill="#B55759"/>
<path d="M70.3731 64.3573C70.4043 64.5582 70.4156 64.7649 70.4779 64.963C70.5458 65.1809 70.8883 65.0875 70.8175 64.8696C70.7552 64.6743 70.7468 64.4677 70.7128 64.2639C70.676 64.0403 70.3363 64.1337 70.3703 64.3573H70.3731Z" fill="#B55759"/>
<path d="M70.1884 65.4927C69.9422 66.2682 69.9252 67.3268 70.8621 67.3127C71.2131 67.307 71.9093 66.9447 72.1103 66.6277C72.4075 66.1777 71.8952 66.3277 71.5725 66.2937C71.5838 66.1578 71.6801 65.7078 71.5018 65.6342C71.3602 65.5889 71.0715 65.988 70.964 66.0531C70.8451 65.9371 70.2988 64.4992 70.1884 65.4899" fill="#28748C"/>
<path d="M77.8473 74.7363H25.3333C24.597 74.7363 24 75.3333 24 76.0697V80.0002C24 80.7366 24.597 81.3336 25.3333 81.3336H77.8473C78.5836 81.3336 79.1806 80.7366 79.1806 80.0002V76.0697C79.1806 75.3333 78.5836 74.7363 77.8473 74.7363Z" fill="#B67F6E"/>
<path d="M84.2219 17.8263C84.6999 16.1373 84.1321 14.1403 82.702 13.1032C81.2719 12.0661 78.8121 12.083 77.6904 13.4328C78.2974 11.7858 77.0832 9.64772 75.47 8.92776C73.8568 8.20781 71.8434 8.71462 70.6197 9.97303C69.396 11.2314 68.9377 13.121 69.2299 14.8554C69.6932 17.6083 72.595 22.2583 72.595 22.2583C72.595 22.2583 78.0723 22.4474 80.6886 21.4711C82.3374 20.8558 83.744 19.5152 84.2219 17.8263Z" fill="#B55759"/>
</g>
<defs>
<clipPath id="clip0_888_912">
<rect width="88" height="88" fill="white" transform="translate(0.333252)"/>
</clipPath>
</defs>
</svg>
