<svg width="103" height="102" viewBox="0 0 103 102" fill="none" xmlns="http://www.w3.org/2000/svg">
<path d="M62.7241 75.0729C62.7241 75.0729 69.7518 67.2644 78.1165 72.6181C78.1165 72.6181 74.1 79.4212 62.7241 75.0729Z" fill="#5D738A"/>
<path d="M50.0107 55.7763C50.0107 55.7763 52.3533 38.1536 65.2909 38.2659C65.2909 38.2659 65.0663 53.2143 50.0107 55.7763Z" fill="#5D738A"/>
<path d="M41.0846 72.0618C41.0846 72.0618 35.287 66.0396 27.2539 72.2864C27.2539 72.2864 36.6241 77.4155 41.0846 72.0618Z" fill="#5D738A"/>
<path d="M53.5681 21.5465C53.5681 21.5465 42.2433 71.2044 59.473 87" stroke="#4A5D73" stroke-width="1.34224" stroke-miterlimit="10"/>
<path d="M67.2407 21.5414C65.8933 19.9644 60.4121 19.6735 58.4676 19.3213C60.6979 19.0457 66.5721 17.8617 68.2461 16.1979C72.2422 12.2325 71.7319 6.00098 70.2569 3.25525C68.782 0.514621 59.917 -1.32778 55.579 2.95413C51.9912 6.49602 51.9197 12.85 52.2821 14.1361C51.7309 12.4621 51.1695 5.26096 49.3016 2.52543C47.1326 -0.648997 38.3238 -0.480579 36.0833 1.11174C33.8428 2.70406 33.4345 7.78723 34.3634 12.2631C35.2922 16.7338 46.0659 18.367 46.4436 18.4588C46.8212 18.5507 37.7062 19.4387 35.1391 22.4141C32.572 25.3895 33.4039 29.7071 34.3277 33.6471C35.2514 37.5871 46.2343 35.5456 49.8324 32.1518C53.4304 28.7528 52.277 24.0983 52.277 24.0983C52.277 24.0983 54.543 30.2175 57.0692 34.6729C59.5955 39.1284 64.5766 36.0611 68.5472 35.0098C72.5178 33.9584 70.6652 25.5477 67.2305 21.5414H67.2407Z" fill="#DFB0A2"/>
<path d="M53.9559 13.9983C55.64 14.4627 53.9661 18.7191 52.5779 18.122C51.1897 17.5249 52.2717 13.5339 53.9559 13.9983Z" fill="#B55759"/>
<path d="M56.4009 16.5705C57.5696 17.5147 55.9671 19.5204 54.5687 19.255C53.1704 18.9896 55.2322 15.6263 56.4009 16.5705Z" fill="#B55759"/>
<path d="M50.0161 15.1874C51.4451 15.5957 51.5778 18.6834 50.4193 18.8059C49.2608 18.9284 48.5871 14.7842 50.0161 15.1874Z" fill="#B55759"/>
<path d="M52.5986 18.8569C53.5734 19.2244 53.3437 21.0259 52.2312 20.9596C51.1186 20.8932 51.6238 18.4895 52.5986 18.8569Z" fill="#B55759"/>
<path d="M72.4154 49.6775C72.4154 49.6775 67.419 78.625 54.4712 80.3143" stroke="#4A5D73" stroke-width="1.34224" stroke-miterlimit="10"/>
<path d="M69.4912 59.0323C69.4912 59.0323 66.0717 62.4313 63.8211 62.1455C61.5653 61.8597 59.3707 59.0834 59.8352 57.8432C60.2996 56.603 60.8304 53.005 63.1933 53.3469C65.5563 53.6838 68.6184 54.4953 68.6184 54.4953C68.6184 54.4953 65.7094 53.3623 65.6737 51.2188C65.6379 49.0752 67.3068 46.156 68.7001 46.0284C70.0883 45.9008 72.4461 45.7018 73.0586 47.192C73.671 48.6823 72.9412 53.5154 72.9412 53.5154C72.9412 53.5154 73.6046 51.3106 76.1666 50.6778C78.7286 50.0449 83.0105 53.301 82.9646 53.6787C82.9187 54.0563 81.4795 58.1494 78.8613 58.3485C76.2381 58.5475 74.6815 58.2005 74.6815 58.2005C74.6815 58.2005 77.6365 58.6904 77.7845 61.4208C77.9325 64.1512 75.3705 68.1014 73.4413 67.9687C71.5122 67.836 68.8736 66.9684 67.9805 64.682C67.0874 62.3905 69.5013 59.0323 69.5013 59.0323H69.4912Z" fill="#DFB0A2"/>
<path d="M71.2982 53.3367C72.1913 53.3623 72.4669 54.4595 72.2985 55.3016C72.1964 55.8069 71.9361 56.2152 71.5483 56.2356C70.5173 56.3019 69.8692 53.301 71.2982 53.3367Z" fill="#B55759"/>
<path d="M73.7681 54.4748C74.8246 54.7964 74.697 56.8123 73.4721 56.9552C72.2524 57.0981 72.7117 54.1533 73.7681 54.4748Z" fill="#B55759"/>
<path d="M69.6438 55.7763C70.6492 55.2608 71.6597 56.8786 70.9758 57.3737C70.292 57.8687 68.6384 56.2917 69.6438 55.7763Z" fill="#B55759"/>
<path d="M72.3385 56.4448C73.2368 56.3223 73.4256 58.2515 72.6039 58.5628C71.7822 58.8741 71.4403 56.5673 72.3385 56.4448Z" fill="#B55759"/>
<path d="M32.1636 51.4637C32.1636 51.4637 36.4761 77.0429 52.8382 76.8949" stroke="#4A5D73" stroke-width="1.34224" stroke-miterlimit="10"/>
<path d="M27.9633 53.3725C27.9633 53.3725 21.497 53.1734 20.1089 50.1317C18.7156 47.0848 18.4349 41.0473 19.966 40.2358C21.497 39.4295 26.4883 39.5264 28.8819 41.1647C31.2755 42.7978 31.6277 47.8198 31.6277 47.8198C31.6277 47.8198 31.5562 42.0221 33.4598 40.6696C35.3686 39.3172 41.3908 37.5564 42.4422 38.8732C43.4935 40.1899 45.5758 43.0581 44.2539 45.9212C42.927 48.7894 38.099 51.428 37.7571 51.4025C37.4151 51.3821 39.9873 50.3001 43.2689 52.219C46.5505 54.138 47.6784 59.4406 46.3413 60.8288C44.9991 62.217 41.1561 63.6715 38.9156 63.1816C36.6751 62.6916 33.4343 58.3893 33.4343 58.3893C33.4343 58.3893 34.6694 62.1047 32.8066 64.483C30.9438 66.8612 22.6709 68.2494 21.9002 66.1518C21.1296 64.0543 20.1395 60.1296 21.2215 57.4706C22.3034 54.8117 27.9684 53.3674 27.9684 53.3674L27.9633 53.3725Z" fill="#DFB0A2"/>
<path d="M33.3479 48.5343C34.8943 48.4016 35.1035 51.4841 33.3019 51.9588C31.5004 52.4334 31.8066 48.6721 33.3479 48.5343Z" fill="#B55759"/>
<path d="M29.9996 49.9224C30.9846 49.7285 31.546 52.0302 30.4334 52.219C29.3208 52.4028 29.0146 50.1164 29.9996 49.9224Z" fill="#B55759"/>
<path d="M35.2407 51.9486C36.3074 52.4742 35.1336 54.5973 33.9291 54.1941C32.7247 53.791 34.1741 51.4229 35.2407 51.9486Z" fill="#B55759"/>
<path d="M32.041 52.3875C32.8576 52.7651 32.3421 54.6739 31.3214 54.4799C30.1731 54.2605 31.2244 52.0098 32.041 52.3875Z" fill="#B55759"/>
<path d="M87.2 86H14.8C7.73076 86 2 91.7308 2 98.8C2 100.567 3.43269 102 5.2 102H96.8C98.5673 102 100 100.567 100 98.8C100 91.7308 94.2692 86 87.2 86Z" fill="#AAC0B7"/>
<path d="M78 22.9154L79.6273 21.0421L78.1622 19.0401L80.4493 20.0076L81.9033 18L81.6852 20.4717L84.045 21.2322L81.6292 21.7914L81.6348 24.2687L80.3543 22.1437L78 22.9154Z" fill="#AAC0B7"/>
<path d="M90 70.9154L91.6273 69.0421L90.1622 67.0401L92.4493 68.0076L93.9033 66L93.6852 68.4717L96.045 69.2322L93.6292 69.7914L93.6348 72.2687L92.3543 70.1437L90 70.9154Z" fill="#AAC0B7"/>
<path d="M83 42.9154L84.6273 41.0421L83.1622 39.0401L85.4493 40.0076L86.9033 38L86.6852 40.4717L89.045 41.2322L86.6292 41.7914L86.6348 44.2687L85.3543 42.1437L83 42.9154Z" fill="#AAC0B7"/>
<path d="M16 21.9154L17.6273 20.0421L16.1622 18.0401L18.4493 19.0076L19.9033 17L19.6852 19.4717L22.045 20.2322L19.6292 20.7914L19.6348 23.2687L18.3543 21.1437L16 21.9154Z" fill="#AAC0B7"/>
<path d="M0 16.9154L1.62729 15.0421L0.162175 13.0401L2.44933 14.0076L3.90327 12L3.68517 14.4717L6.04502 15.2322L3.62925 15.7914L3.63484 18.2687L2.35426 16.1437L0 16.9154Z" fill="#AAC0B7"/>
<path d="M2 71.9154L3.62729 70.0421L2.16217 68.0401L4.44933 69.0076L5.90327 67L5.68517 69.4717L8.04502 70.2322L5.62925 70.7914L5.63484 73.2687L4.35426 71.1437L2 71.9154Z" fill="#AAC0B7"/>
<path d="M80 4.41479C80 5.19768 80.6319 5.82958 81.4148 5.82958C82.1977 5.82958 82.8296 5.19768 82.8296 4.41479C82.8296 3.6319 82.1977 3 81.4148 3C80.6319 3 80 3.6319 80 4.41479Z" fill="#B55759"/>
<path d="M21 1.41479C21 2.19768 21.6319 2.82958 22.4148 2.82958C23.1977 2.82958 23.8296 2.19768 23.8296 1.41479C23.8296 0.631903 23.1977 0 22.4148 0C21.6319 0 21 0.631903 21 1.41479Z" fill="#5D738A"/>
<path d="M8.25925 33.7293C7.17579 33.3107 5.34377 32.0003 4.63075 31.1955C4.63075 31.1955 5.41044 34.2834 5.72947 36.1297C6.08132 38.1674 5.1334 40.3963 4.12745 41.9124C6.12378 41.1233 8.347 41.2428 10.1435 41.9334C11.9399 42.624 14.5277 45.1806 14.5277 45.1806C14.5277 45.1806 13.6327 42.1046 13.1851 40.5663C12.5198 38.2786 12.2616 35.5537 13.9597 33.3829C11.5322 34.0857 10.3793 34.5497 8.25838 33.7296L8.25925 33.7293Z" fill="#B55759"/>
<path d="M97.2033 23.5076C96.9772 22.6072 96.9885 20.8067 97.1854 19.9701C97.1854 19.9701 95.5283 21.9027 94.4696 22.9621C93.3011 24.1311 91.4086 24.5395 89.9549 24.5814C91.3904 25.5214 92.3372 27.0283 92.7143 28.5198C93.0913 30.0113 92.6147 32.8797 92.6147 32.8797C92.6147 32.8797 94.2108 30.8774 95.0091 29.8759C96.1963 28.387 97.8568 26.9623 100.057 27.0706C98.4793 25.8093 97.6448 25.2703 97.2027 23.5072L97.2033 23.5076Z" fill="#28748C"/>
</svg>
