<svg width="84" height="102" viewBox="0 0 84 102" fill="none" xmlns="http://www.w3.org/2000/svg">
<path d="M49.562 99.8269H80.756V64.1945L49.562 55.578V99.8269Z" fill="#F1ECE6"/>
<path d="M58.8986 99.8268H25.3716V21.4885L42.1351 6.70483L58.8986 21.9626V99.8268Z" fill="#F1ECE6"/>
<path opacity="0.45" d="M47.6797 39.8274H36.5908C36.3909 39.8274 36.2236 39.6601 36.2236 39.4603V29.589C36.2236 26.3404 38.882 23.6774 42.1353 23.6774C45.3885 23.6774 48.0469 26.3357 48.0469 29.589V39.4603C48.0469 39.6601 47.8796 39.8274 47.6797 39.8274Z" fill="#AAC0B7"/>
<path d="M67.4222 22.1158L42.7115 0.119147L42.6 0.239986L42.4977 0.114502L16.8481 21.0097L20.4825 25.4713L42.4419 7.58304L63.5927 26.4147L67.4222 22.1158Z" fill="#3A5A80"/>
<path d="M34.727 99.8269H3.52832V64.1945L34.727 55.578V99.8269Z" fill="#F1ECE6"/>
<path d="M25.3715 58.0225L0.470215 65.7838V61.0294L25.3715 53.2681V58.0225Z" fill="#3A5A80"/>
<path d="M50.64 96.5643H33.6348V71.914C33.6348 67.22 37.4411 63.4091 42.1397 63.4091C46.8337 63.4091 50.6446 67.2154 50.6446 71.914V96.5643H50.64Z" fill="#3A5A80"/>
<g style="mix-blend-mode:multiply" opacity="0.08">
<path d="M25.3716 58.0226L3.52832 64.8683V68.9117L25.5482 62.3076L25.3716 58.0226Z" fill="#B55759"/>
</g>
<path d="M58.9126 58.0225L83.8186 65.7838V61.0294L58.9126 53.2681V58.0225Z" fill="#3A5A80"/>
<g style="mix-blend-mode:multiply" opacity="0.08">
<path d="M58.9124 58.0226L80.7557 64.8683V68.9117L58.7358 62.3076L58.9124 58.0226Z" fill="#B55759"/>
</g>
<path d="M42.7808 62.9164H41.4888V97.0523H42.7808V62.9164Z" fill="#F1ECE6"/>
<path d="M42.7808 21.4418H41.4888V39.8273H42.7808V21.4418Z" fill="#F1ECE6"/>
<path d="M51.3276 31.2805V29.9885H32.9421V31.2805H51.3276Z" fill="#F1ECE6"/>
<path d="M51.3276 36.1467V34.8547H32.9421V36.1467H51.3276Z" fill="#F1ECE6"/>
<path d="M46.4805 81.1482H44.0127V81.8825H46.4805V81.1482Z" fill="#F1ECE6"/>
<path d="M39.3418 81.1482H36.874V81.8825H39.3418V81.1482Z" fill="#F1ECE6"/>
<path d="M54.2422 96.564H29.8335V101.885H54.2422V96.564Z" fill="#B55759"/>
</svg>
