<svg width="96" height="96" viewBox="0 0 96 96" fill="none" xmlns="http://www.w3.org/2000/svg">
<g id="4621604">
<rect width="96" height="96" fill="#FDFDFD"/>
<g id="Group 7491">
<rect id="Rectangle 136" x="29.0908" y="12.3652" width="37.8182" height="5.09091" rx="2.54545" fill="#F1ECE6"/>
<rect id="Rectangle 137" x="29.0908" y="29.0918" width="37.8182" height="5.09091" rx="2.54545" fill="#F1ECE6"/>
<rect id="Rectangle 138" x="29.0908" y="45.0918" width="37.8182" height="5.09091" rx="2.54545" fill="#F1ECE6"/>
<rect id="Rectangle 133" x="10.9092" y="8.72852" width="13.0909" height="13.0909" rx="2.90909" fill="#AAC0B7"/>
<path id="Vector 1" d="M13.0908 15.2749L15.6363 18.9112L25.4545 9.82031" stroke="#B55759" stroke-width="1.45455" stroke-linecap="round" stroke-linejoin="round"/>
<rect id="Rectangle 134" x="10.9092" y="24.7285" width="13.0909" height="13.0909" rx="2.90909" fill="#AAC0B7"/>
<path id="Vector 2" d="M13.0908 31.2749L15.6363 34.9112L25.4545 25.8203" stroke="#B55759" stroke-width="1.45455" stroke-linecap="round" stroke-linejoin="round"/>
<rect id="Rectangle 135" x="10.9092" y="40.7285" width="13.0909" height="13.0909" rx="2.90909" fill="#AAC0B7"/>
<g id="Group">
<g id="Group_2">
<path id="Vector" d="M72.1826 90.8032C72.1826 90.8031 72.1825 90.803 72.1824 90.8029L30.542 58.5586C29.3526 57.6375 29.1077 55.9391 29.9883 54.7199C30.7667 53.6423 32.1978 53.2632 33.4075 53.8148L44.4375 58.8434C45.5153 59.3348 46.7632 58.6545 46.9342 57.4824L48.1204 49.3509L42.7238 27.7294C42.3745 26.3387 43.1667 24.9161 44.5329 24.4805C45.8714 24.0535 47.3132 24.718 47.8595 26.0118L53.7704 39.4277L67.7884 44.9199C68.2952 45.1184 68.6831 45.5382 68.8411 46.059L74.4947 64.6945C74.5972 65.0324 74.798 65.3321 75.0714 65.5554L86.529 74.9124C87.3685 75.598 87.4044 76.8687 86.6049 77.6006L72.1832 90.8035C72.183 90.8037 72.1826 90.8036 72.1826 90.8032Z" fill="#B67F6E"/>
<path id="Vector_2" d="M57.2029 46.7952C57.2508 46.7952 57.2987 46.7857 57.3445 46.7644C57.5127 46.6866 57.5862 46.4864 57.5074 46.3182L54.3853 39.5969C54.3076 39.4287 54.1074 39.3552 53.9391 39.434C53.7709 39.5117 53.6974 39.7119 53.7762 39.8802L56.8983 46.6014C56.9547 46.7239 57.0761 46.7963 57.2029 46.7963V46.7952Z" fill="#654237"/>
<path id="Vector_3" d="M61.9718 47.6102C62.0208 47.6102 62.0719 47.5995 62.1187 47.5761C62.2859 47.4941 62.3551 47.2928 62.2731 47.1267L59.6621 41.7866C59.5812 41.6194 59.38 41.5502 59.2128 41.6321C59.0456 41.7141 58.9764 41.9154 59.0584 42.0815L61.6694 47.4217C61.7279 47.5409 61.8472 47.6102 61.9718 47.6102Z" fill="#654237"/>
<path id="Vector_4" d="M66.6595 49.2134C66.7074 49.2134 66.7553 49.2038 66.8011 49.1825C66.9693 49.1037 67.0428 48.9046 66.9651 48.7363L64.6512 43.7518C64.5724 43.5825 64.3733 43.5101 64.205 43.5878C64.0368 43.6666 63.9633 43.8657 64.041 44.034L66.3549 49.0185C66.4124 49.141 66.5338 49.2134 66.6605 49.2134H66.6595Z" fill="#654237"/>
</g>
</g>
</g>
</g>
</svg>
