<svg width="132" height="132" viewBox="0 0 132 132" fill="none" xmlns="http://www.w3.org/2000/svg">
<path d="M91.4976 52.164C83.2606 42.5456 73.7856 39.2216 66.1808 35.6149C58.575 32.008 46.2661 26.9104 43.4053 25.329C42.3866 24.7656 38.4571 25.5559 39.4138 29.7715C40.5217 34.6533 57.0278 42.1479 56.1097 43.531C54.6274 45.763 19.7504 39.1776 15.7379 39.3476C10.3906 39.5741 7.77051 44.5898 15.7749 46.0467C23.7793 47.5035 41.7416 50.8171 40.4723 52.196C39.203 53.5749 6.414 47.6197 5.1636 51.3538C2.68794 58.7471 40.4797 59.6323 39.0051 62.8266C38.0168 64.9677 9.97538 60.1561 9.34368 66.2877C8.71198 72.4193 41.3408 69.8066 38.8059 72.5444C36.2711 75.2822 17.8432 74.1535 19.0774 79.3643C19.7234 82.0901 49.5179 82.6294 55.8013 83.3391C67.9596 84.7115 72.2347 86.8208 78.7403 90.8997C81.9917 92.9385 89.0708 97.0303 95.3386 100.613C101.959 104.398 110.365 102.426 114.506 96.0225C117.242 91.7926 120.301 86.9503 122.888 82.5773C127.464 74.8423 123.55 68.7326 115.328 65.1045C105.287 60.674 93.4013 54.3871 91.4976 52.164Z" fill="#DFB0A2"/>
<path d="M85.6825 95.7214C84.5109 97.1441 83.1015 99.2992 84.2358 101.104C85.2712 102.753 87.1857 101.34 88.4243 100.463C92.0839 97.8691 95.0353 94.0616 97.8168 90.2715C100.931 86.0277 103.884 81.6227 106.701 77.1105C109.417 72.7616 112.626 68.1062 113.839 62.9035C114.083 61.8548 114.451 60.3942 114.087 59.3962C113.728 58.4122 112.781 58.5971 111.986 58.7699C110.038 59.1926 106.687 61.3935 106.687 61.3935L107.707 61.901C107.707 61.901 109.985 60.3553 111.555 59.8957C111.907 59.7926 112.38 59.6116 112.739 59.6539C113.432 59.7354 113.375 60.3647 113.308 61.0118C113.193 62.1262 112.908 63.2351 112.557 64.3001C111.206 68.4114 108.788 72.0944 106.577 75.6711C104.292 79.3678 101.918 82.9926 99.4381 86.518C97.1749 89.7349 94.8633 92.9794 92.2462 95.8129C90.788 97.3918 89.2165 98.8269 87.5012 99.966C86.6189 100.552 85.1488 101.552 84.7528 99.9757C84.4128 98.622 85.4999 97.3379 86.266 96.4072C86.6706 95.9151 86.0871 95.232 85.6824 95.7232L85.6825 95.7214Z" fill="#0E5267"/>
<path d="M60.2106 47.5516C61.7814 51.1505 63.0836 55.3223 65.481 58.4693C68.5545 62.5054 73.2287 63.8184 77.9624 64.8602C78.5393 64.9877 78.3512 65.888 77.7716 65.7604C73.2374 64.7624 68.7644 63.5492 65.542 59.975C62.5484 56.6536 61.0955 51.8707 59.3401 47.8488C59.1032 47.3056 59.9763 47.0122 60.2115 47.5517L60.2106 47.5516Z" fill="#B67F6E"/>
<path d="M65.4581 68.1315C62.2655 68.6183 59.1688 69.4196 56.1372 70.5272C55.5802 70.7312 55.2849 69.859 55.8401 69.6558C58.9503 68.5184 62.1299 67.7116 65.403 67.2126C65.9879 67.123 66.0393 68.0426 65.4581 68.1306L65.4581 68.1315Z" fill="#B67F6E"/>
<path d="M84.5999 71.578C85.6551 72.3306 86.7728 72.9635 87.9537 73.4971C88.493 73.741 88.077 74.562 87.5377 74.3181C86.2843 73.7513 85.1088 73.0656 83.9891 72.2664C83.5074 71.9229 84.1217 71.2374 84.5999 71.578Z" fill="#B67F6E"/>
<path d="M40.1284 70.7943C39.8148 72.0825 39.8342 73.3391 40.2079 74.6129C40.3746 75.1799 39.5041 75.479 39.3374 74.9102C38.9188 73.4824 38.8757 72.0511 39.2291 70.6036C39.3693 70.0302 40.2696 70.2173 40.1293 70.7944L40.1284 70.7943Z" fill="#B67F6E"/>
<path d="M40.7163 60.6175C40.3292 61.7696 40.2076 62.9185 40.3518 64.1259C40.4219 64.7143 39.5041 64.7667 39.4338 64.181C39.28 62.897 39.404 61.6527 39.8162 60.4258C40.0021 59.8714 40.9054 60.055 40.7163 60.6166L40.7163 60.6175Z" fill="#B67F6E"/>
<path d="M42.3588 50.569C41.8862 51.5733 41.6001 52.6225 41.5238 53.7308C41.4842 54.3132 40.5649 54.3756 40.6058 53.7859C40.6941 52.5067 40.9915 51.314 41.5378 50.153C41.7898 49.6169 42.6108 50.0329 42.3588 50.569Z" fill="#B67F6E"/>
<path d="M91.6228 52.8636C93.5882 55.8331 93.2219 59.2734 92.7105 62.6297C92.6211 63.215 91.721 63.0233 91.8103 62.4389C92.2836 59.3311 92.6887 56.1407 90.8582 53.3749C90.5306 52.8799 91.2961 52.3696 91.6237 52.8636L91.6228 52.8636Z" fill="#B67F6E"/>
<path d="M80.1582 82.725C76.1475 85.3621 71.5455 85.5536 66.8974 85.0505C66.3098 84.9867 66.5033 84.0867 67.0881 84.1504C71.4835 84.626 75.8475 84.4566 79.6469 81.9595C80.1427 81.6338 80.653 82.3993 80.1582 82.725Z" fill="#B67F6E"/>
<path d="M77.5753 15.4213C76.4239 14.681 74.6201 12.7332 73.988 11.635C73.988 11.635 74.155 15.3847 74.085 17.5919C74.0075 20.0277 72.3841 22.3758 70.8629 23.8872C73.3548 23.4501 75.893 24.1159 77.8029 25.3396C79.7128 26.5633 82.0933 30.1289 82.0933 30.1289C82.0933 30.1289 81.7903 26.3656 81.6387 24.4835C81.4138 21.6846 81.7626 18.4775 84.2382 16.3747C81.2691 16.6097 79.828 16.8717 77.5742 15.4215L77.5753 15.4213Z" fill="#B55759"/>
<path d="M46.2755 93.1675C45.0895 92.423 43.2843 90.4941 42.6795 89.4159C42.6795 89.4159 42.608 93.0488 42.3853 95.183C42.1393 97.5384 40.2404 99.7712 38.5071 101.197C41.2101 100.834 43.889 101.541 45.8565 102.771C47.824 104.002 50.1398 107.511 50.1398 107.511C50.1398 107.511 50.0664 103.861 50.0296 102.036C49.9754 99.3223 50.564 96.2272 53.361 94.2525C50.1594 94.4076 48.5956 94.626 46.2743 93.1677L46.2755 93.1675Z" fill="#28748C"/>
</svg>
