<svg width="132" height="132" viewBox="0 0 132 132" fill="none" xmlns="http://www.w3.org/2000/svg">
<path d="M94.888 81.7217L95.0372 74.7894C95.0803 72.7862 94.2265 70.8705 92.7083 69.5633L82.5659 60.8329C81.1066 59.5759 78.5365 59.6749 78.5365 59.6749L76.7144 46.8283C76.6895 46.6533 76.6333 46.4842 76.5484 46.3293L69.9024 34.2043C69.0844 32.7693 67.3639 32.0361 65.8012 32.5699C64.029 33.174 63.5957 35.038 64.1639 36.7944L67.9767 49.1738L66.6507 60.1126L60.0542 64.9398L58.2504 48.1177C57.9878 46.3857 56.7509 45.199 54.9544 45.3324C53.3199 45.4544 52.0299 46.7818 51.8376 48.409C51.2019 53.7672 50.5476 64.4462 50.1745 71.1216C49.9592 74.9659 50.4686 78.813 51.6754 82.4679L54.8109 91.9645L37.2144 113.02C36.5889 113.769 36.8547 114.908 37.7469 115.302L64.1619 126.979C64.8033 127.262 65.5557 127.052 65.9573 126.477L92.8503 87.9782C94.1346 86.14 94.8449 83.9631 94.8937 81.7203L94.888 81.7217Z" fill="#DFB0A2"/>
<path d="M70.4822 67.376C70.4262 67.376 70.3688 67.3645 70.3128 67.343L67.3826 66.1591C67.1502 66.0658 67.0382 65.8018 67.1315 65.5693C67.2248 65.3383 67.4902 65.2264 67.7213 65.3182L70.6515 66.5021C70.884 66.5953 70.9959 66.8594 70.9026 67.0918C70.8309 67.2683 70.6615 67.376 70.4822 67.376Z" fill="#654237"/>
<path d="M52.502 26.0265C55.7465 37.4718 58.912 48.9386 64.1769 59.6592C69.5379 70.5736 76.552 80.7475 85.2522 89.2712C90.0479 93.9692 95.3601 98.1565 101.1 101.645C102.35 102.404 103.489 100.445 102.244 99.689C92.1845 93.5732 83.536 85.2791 76.5721 75.8141C69.6096 66.3519 64.2415 55.7805 60.4431 44.6768C58.2749 38.3385 56.5142 31.8683 54.6875 25.4253C54.29 24.0248 52.1031 24.6203 52.5034 26.028L52.502 26.0265Z" fill="#AAC0B7"/>
<path d="M37.0637 16.4249C40.2091 21.519 43.5296 26.5026 47.0194 31.3672C47.2892 31.7431 47.757 31.9139 48.1818 31.6714C48.552 31.4604 48.7529 30.8807 48.486 30.509C44.9962 25.6445 41.6757 20.6609 38.5302 15.5668C37.9563 14.6383 36.4868 15.4907 37.0637 16.4249Z" fill="#AAC0B7"/>
<path d="M51.4419 7.37684C52.1479 13.9562 53.3963 20.4652 55.1986 26.8321C55.4957 27.8825 57.1359 27.4362 56.8374 26.3801C55.0767 20.1609 53.8311 13.8026 53.1409 7.37684C53.0921 6.92052 52.7851 6.52734 52.2914 6.52734C51.8695 6.52734 51.3931 6.91765 51.4419 7.37684Z" fill="#AAC0B7"/>
<path d="M36.8226 16.9202C37.959 16.9202 38.8803 15.9989 38.8803 14.8624C38.8803 13.726 37.959 12.8047 36.8226 12.8047C35.6861 12.8047 34.7648 13.726 34.7648 14.8624C34.7648 15.9989 35.6861 16.9202 36.8226 16.9202Z" fill="#B55759"/>
<path d="M53.6264 7.75135C54.3785 6.99931 54.3785 5.78002 53.6264 5.02797C52.8744 4.27593 51.6551 4.27592 50.9031 5.02797C50.151 5.78001 50.151 6.9993 50.9031 7.75134C51.6551 8.50338 52.8744 8.50339 53.6264 7.75135Z" fill="#B55759"/>
<path d="M66.2838 16.4489C66.2278 16.1432 66.169 15.8376 66.1059 15.5348C65.3568 11.8885 63.8344 7.10007 59.4204 6.7729C56.2663 6.539 54.8285 8.73449 54.1627 12.0679C53.4983 15.4013 55.1714 21.84 55.1714 21.84C54.7108 20.0664 53.8527 18.3 53.1682 16.6053C51.8724 13.3967 50.3327 9.21808 46.5373 8.19638C43.7032 7.43298 40.7357 8.66992 40.3052 11.613C39.7772 15.2277 40.5061 17.9785 41.7789 21.0608C43.2052 24.5162 45.7854 27.6674 45.7854 27.6674C45.7854 27.6674 42.6643 24.8276 39.7671 22.7154C37.5214 21.0781 33.8679 19.2069 31.4916 21.6492C29.7094 23.4816 29.6607 26.6558 30.4011 28.9503C33.3227 38.002 43.7836 44.3058 53.0807 42.1821C58.9354 40.8447 64.0065 36.6273 65.7801 30.8057C67.1936 26.1679 67.1448 21.1914 66.2795 16.4474L66.2838 16.4489Z" fill="#B55759"/>
<path d="M77.2452 60.8936L71.5513 66.0279C70.3933 67.0711 69.7074 68.539 69.65 70.0974L69.3371 78.4346C69.2969 79.4907 69.7877 80.4966 70.6444 81.1165L81.2516 88.7893C82.9033 89.9846 85.2365 89.3274 86.0243 87.4476L89.0564 80.201L92.6582 77.2809L77.2467 60.895L77.2452 60.8936Z" fill="#DFB0A2"/>
<path d="M83.0987 89.8436C82.3483 89.8436 81.6107 89.6083 80.985 89.1562L70.3778 81.4835C69.3963 80.7732 68.8381 79.6281 68.884 78.417L69.1968 70.0798C69.26 68.4095 70.0075 66.811 71.2488 65.6917L76.9428 60.556C77.1293 60.3881 77.4149 60.4039 77.5827 60.589C77.7506 60.7755 77.7363 61.0611 77.5497 61.229L71.8558 66.3647C70.7953 67.3204 70.1568 68.6879 70.1037 70.1143L69.7909 78.4514C69.7565 79.3583 70.1755 80.2178 70.9102 80.7488L81.5174 88.4215C82.1918 88.9094 83.0385 89.0601 83.8392 88.8348C84.6399 88.6095 85.2842 88.0398 85.6057 87.2721L88.6377 80.0256C88.6664 79.9567 88.7123 79.8964 88.7697 79.8491L92.3715 76.9289C92.5652 76.7711 92.8508 76.8012 93.0086 76.9949C93.1665 77.1901 93.1363 77.4742 92.9426 77.632L89.4298 80.4804L86.4408 87.6223C86.0117 88.6468 85.1536 89.4074 84.0831 89.7073C83.7574 89.7991 83.426 89.8436 83.0973 89.8436H83.0987Z" fill="#654237"/>
<path d="M68.0517 85.2204C67.8063 85.2204 67.6054 85.0252 67.5997 84.7784C67.3414 74.4323 61.382 67.1771 61.3217 67.1054C61.161 66.9131 61.1868 66.6276 61.3791 66.4668C61.5714 66.3061 61.8569 66.332 62.0176 66.5242C62.0793 66.5989 68.2396 74.0822 68.5065 84.7555C68.5123 85.0051 68.3157 85.2132 68.0646 85.219C68.0603 85.219 68.0574 85.219 68.0531 85.219L68.0517 85.2204Z" fill="#654237"/>
<path d="M74.1617 83.5739C74.1402 83.5739 74.1201 83.5739 74.0986 83.5696C73.8503 83.5352 73.6781 83.3056 73.7125 83.0573L75.2896 71.8359C75.3039 71.7311 75.3556 71.635 75.4331 71.5633C77.5066 69.6763 84.2954 63.5074 84.5925 63.3079C84.8005 63.1687 85.0818 63.2247 85.221 63.4342C85.3573 63.6394 85.3056 63.9149 85.1047 64.057C84.7675 64.3167 79.626 68.976 76.1649 72.1243L74.6108 83.1836C74.5793 83.4103 74.3855 83.5739 74.1631 83.5739H74.1617Z" fill="#654237"/>
<path d="M79.3635 87.912C79.3219 87.912 79.2803 87.9062 79.2387 87.8948C78.9976 87.8259 78.8584 87.5748 78.9273 87.3337L82.2908 75.5971C82.3138 75.5168 82.3583 75.445 82.4186 75.3891L90.3252 68.0693C90.5088 67.8985 90.7944 67.91 90.9652 68.0937C91.1345 68.2774 91.1244 68.5644 90.9408 68.7337L83.1274 75.9673L79.7983 87.5834C79.7409 87.7828 79.5601 87.912 79.3635 87.912Z" fill="#654237"/>
<path d="M102.929 30.522C102.352 28.4986 102.173 24.2315 102.494 22.1574C102.494 22.1574 99.2236 27.5228 97.1149 30.5359C94.7874 33.8609 90.8508 35.7312 87.7964 36.5245C90.9228 38.0639 93.0843 41.1788 94.0454 44.5292C95.0064 47.8795 94.3255 54.8966 94.3255 54.8966C94.3255 54.8966 97.4594 49.395 99.0266 46.6435C101.358 42.5523 104.692 38.3872 109.334 37.5931C105.872 35.3609 104.056 34.4834 102.927 30.5214L102.929 30.522Z" fill="#B55759"/>
<path d="M20.2449 64.4958C20.2133 62.4687 19.7183 57.9228 18.845 56.0983C18.845 56.0983 23.2887 60.6594 26.0726 62.855C29.1445 65.2768 32.1522 64.8135 35.1889 64.6957C32.7342 66.9854 31.6628 71.1155 31.7087 74.4742C31.7545 77.8328 33.5042 84.0402 33.5042 84.0402C33.5042 84.0402 28.8843 78.3389 26.6722 76.2366C23.3838 73.1093 20.8062 72.2438 16.3042 72.8023C18.875 69.7794 20.3054 68.4655 20.2435 64.4964L20.2449 64.4958Z" fill="#AAC0B7"/>
</svg>
