<svg width="133" height="132" viewBox="0 0 133 132" fill="none" xmlns="http://www.w3.org/2000/svg">
<rect width="132" height="132" transform="translate(0.5)" fill="white"/>
<path d="M116.055 40.2223C112.188 29.7985 101.943 22.0594 91.1627 22.1544C80.3884 22.2495 70.0003 30.6657 67.969 41.624C65.9377 30.6598 55.5555 22.2495 44.7753 22.1544C33.9952 22.0594 23.7555 29.7985 19.883 40.2223C16.0164 50.6461 18.3625 63.0715 25.181 71.7194C35.8008 85.1901 56.0366 88.736 67.9631 100.983H67.9749C79.9014 88.7419 100.137 85.1961 110.757 71.7194C117.576 63.0715 119.922 50.6402 116.055 40.2223Z" fill="#B55759"/>
<path d="M23.2269 47.0942C22.9834 50.2184 23.3873 53.3901 24.4623 56.3361" stroke="#DFB0A2" stroke-width="0.593948" stroke-linecap="round" stroke-linejoin="round"/>
<path d="M36.9887 28.3435C32.4034 30.2026 28.4418 33.6059 26.0007 37.912C25.1929 39.3375 24.5514 40.8521 24.0882 42.426" stroke="#DFB0A2" stroke-width="0.593948" stroke-linecap="round" stroke-linejoin="round"/>
<path d="M58.9648 31.616C54.0588 27.6722 47.4125 25.9913 41.2235 27.1079" stroke="#DFB0A2" stroke-width="0.593948" stroke-linecap="round" stroke-linejoin="round"/>
<path d="M79.3491 30.2798C76.0883 32.8397 73.5759 36.3678 72.2811 40.3116" stroke="#DFB0A2" stroke-width="0.593948" stroke-linecap="round" stroke-linejoin="round"/>
<path d="M98.4861 26.7516C93.2771 25.1479 87.4505 25.6706 82.6158 28.177" stroke="#DFB0A2" stroke-width="0.593948" stroke-linecap="round" stroke-linejoin="round"/>
<path d="M118.9 72.04C121.234 65.9818 118.36 63.0239 118.36 63.0239C119.856 56.4252 117.76 53.8831 117.76 53.8831C106.1 72.7231 89.458 86.663 87.0644 84.2754C84.6708 81.8818 100.22 67.431 96.7339 64.1465C91.5487 59.7631 77.8464 79.6426 75.0548 85.6236C74.0926 87.6846 72.3999 91.8363 72.0554 98.055C72.0079 99.1953 72.3642 109.453 79.5154 113.789C85.9062 117.424 96.336 116.717 102.091 110.629C102.091 110.629 110.121 102.646 114.57 95.8395C121.145 85.7721 118.556 81.0918 118.556 81.0918C120.949 76.0076 118.894 72.046 118.894 72.046L118.9 72.04Z" fill="#DFB0A2"/>
<path d="M118.365 63.0237C118.365 63.0237 114.98 74.3562 105.013 83.9782" stroke="#7B4A3A" stroke-linecap="round" stroke-linejoin="round"/>
<path d="M118.9 72.0398C118.9 72.0398 116.269 81.1925 107.098 89.8642" stroke="#7B4A3A" stroke-linecap="round" stroke-linejoin="round"/>
<path d="M118.627 81.2224C118.627 81.2224 116.37 89.407 108.797 96.9086" stroke="#7B4A3A" stroke-linecap="round" stroke-linejoin="round"/>
<path d="M17.0379 72.04C14.7037 65.9818 17.5784 63.0239 17.5784 63.0239C16.0817 56.4252 18.1783 53.8831 18.1783 53.8831C29.8375 72.7231 48.1311 85.4455 48.8736 84.2754C49.616 83.1053 34.2327 69.9731 37.7192 66.6886C42.9044 62.3052 58.0916 79.6426 60.8832 85.6236C61.8454 87.6846 63.5381 91.8363 63.8826 98.055C63.9301 99.1953 63.5738 109.453 56.4226 113.789C50.0318 117.424 39.602 116.717 33.8467 110.629C33.8467 110.629 25.8165 102.646 21.3678 95.8395C14.7928 85.7721 17.3824 81.0918 17.3824 81.0918C14.9888 76.0076 17.0439 72.046 17.0439 72.046L17.0379 72.04Z" fill="#DFB0A2"/>
<path d="M17.5725 63.0237C17.5725 63.0237 20.958 74.3562 30.9245 83.9782" stroke="#7B4A3A" stroke-linecap="round" stroke-linejoin="round"/>
<path d="M17.0379 72.0398C17.0379 72.0398 19.6691 81.1925 28.8397 89.8642" stroke="#7B4A3A" stroke-linecap="round" stroke-linejoin="round"/>
<path d="M17.3112 81.2283C17.3112 81.2283 19.5682 89.4129 27.141 96.9144" stroke="#7B4A3A" stroke-linecap="round" stroke-linejoin="round"/>
<path d="M29 11.2667C31.0254 11.9498 31.5837 12.5081 32.2667 14.5334C32.9498 12.5081 33.5081 11.9498 35.5334 11.2667C33.5081 10.5837 32.9498 10.0254 32.2667 8C31.5837 10.0254 31.0254 10.5837 29 11.2667Z" fill="#AAC0B7"/>
<path d="M108 115.762C109.717 116.338 110.186 116.807 110.762 118.524C111.338 116.807 111.807 116.338 113.524 115.762C111.807 115.186 111.338 114.717 110.762 113C110.186 114.717 109.717 115.186 108 115.762Z" fill="#AAC0B7"/>
<path d="M4.37503 85.0238C6.40039 85.7068 6.9587 86.2651 7.64174 88.2905C8.32478 86.2651 8.88309 85.7068 10.9085 85.0238C8.88309 84.3408 8.32478 83.7824 7.64174 81.7571C6.9587 83.7824 6.40039 84.3408 4.37503 85.0238Z" fill="#AAC0B7"/>
<path d="M103.03 15.7813C105.999 16.7851 106.807 17.5928 107.811 20.5626C108.815 17.5928 109.623 16.7851 112.592 15.7813C109.623 14.7775 108.815 13.9697 107.811 11C106.807 13.9697 105.999 14.7775 103.03 15.7813Z" fill="#AAC0B7"/>
<path d="M27 120.092C29.5421 120.948 30.237 121.643 31.0923 124.185C31.9476 121.643 32.6425 120.948 35.1846 120.092C32.6425 119.237 31.9476 118.542 31.0923 116C30.237 118.542 29.5421 119.237 27 120.092Z" fill="#AAC0B7"/>
<path d="M3.75726 91.1414C4.22648 94.1289 5.99051 96.8908 8.50291 98.5776C9.39383 99.1775 10.4035 99.6526 11.4726 99.718C12.5418 99.7833 13.6821 99.3854 14.3177 98.5182C14.9472 97.651 14.9235 96.3028 14.1157 95.59C13.4624 95.0139 12.4586 94.9664 11.6627 95.3168C10.8668 95.6672 10.261 96.3562 9.83336 97.1105C8.9068 98.732 8.69892 100.745 9.26911 102.521C9.8393 104.297 11.1876 105.812 12.8803 106.59" stroke="#28748C" stroke-width="2" stroke-linecap="round" stroke-linejoin="round"/>
<path d="M113.745 20.8298C115.295 20.7288 116.898 20.9842 118.229 21.7801C119.559 22.576 120.587 23.9599 120.723 25.5042C120.866 27.0484 120.005 28.6937 118.567 29.2757C117.908 29.543 117.071 29.549 116.56 29.056C115.966 28.4739 116.085 27.4107 116.655 26.8109C117.225 26.211 118.116 26.0031 118.948 26.0268C121.715 26.11 124.026 28.5036 124.721 31.1823C125.416 33.861 124.78 36.7238 123.717 39.2778" stroke="#28748C" stroke-width="2" stroke-linecap="round" stroke-linejoin="round"/>
<path d="M18.7961 30.042L14.3118 25.9141" stroke="#28748C" stroke-width="2" stroke-linecap="round" stroke-linejoin="round"/>
<path d="M16.5569 35.2808L10.9084 34.5146" stroke="#28748C" stroke-width="2" stroke-linecap="round" stroke-linejoin="round"/>
<path d="M121.893 93.4934L126.277 96.867" stroke="#28748C" stroke-width="2" stroke-linecap="round" stroke-linejoin="round"/>
<path d="M123.218 88.2902L128.843 87.8625" stroke="#28748C" stroke-width="2" stroke-linecap="round" stroke-linejoin="round"/>
</svg>
