<svg width="89" height="88" viewBox="0 0 89 88" fill="none" xmlns="http://www.w3.org/2000/svg">
<path d="M26.6038 39.5037C26.5633 38.2789 26.5122 37.0531 26.386 35.8341C26.2964 34.9706 26.1875 33.5078 25.9032 33.3883C25.7288 33.3151 24.8345 33.2784 24.6572 33.3507C24.5781 33.3835 24.5184 33.4413 24.4673 33.5116C24.3979 33.608 24.3536 33.7853 24.3363 33.901C24.2457 34.51 24.1744 35.121 24.1214 35.7348C24.0048 37.1032 23.9758 38.4832 24.0693 39.8536C24.079 39.9952 24.2659 39.9904 24.3093 39.8805C24.3401 40.2265 24.3835 40.5715 24.4538 40.9126C24.4693 40.9859 24.528 41.0476 24.609 41.037C24.9106 40.9974 25.2122 40.9579 25.5148 40.9175C25.7538 40.8857 26.0188 40.8779 26.2463 40.7893C26.7666 40.5859 26.6182 39.9461 26.6028 39.5028L26.6038 39.5037Z" fill="#0E5267"/>
<path d="M25.5776 35.7358C27.1504 32.5933 30.1108 30.2362 33.4942 29.3168C34.4569 29.0547 35.4456 28.914 36.443 28.8995C36.7206 28.8957 36.7215 28.463 36.443 28.4678C32.8081 28.5227 29.2685 30.2333 26.8998 32.9807C26.2329 33.7545 25.6615 34.6045 25.2047 35.518C25.0804 35.7657 25.4533 35.9854 25.5776 35.7358Z" fill="#0E5267"/>
<path d="M30.4349 39.0467C31.6444 37.3111 33.5862 36.1461 35.6715 35.83C37.7309 35.5177 39.8548 36.1432 41.4777 37.4345C42.3816 38.1534 43.1169 39.0602 43.6228 40.0981C43.7442 40.3477 44.1172 40.1289 43.9957 39.8803C43.0427 37.924 41.2753 36.4169 39.2178 35.724C37.1084 35.0147 34.7821 35.2778 32.8374 36.3407C31.733 36.944 30.7809 37.7959 30.062 38.8289C29.903 39.0573 30.2769 39.2741 30.4349 39.0467Z" fill="#0E5267"/>
<path d="M6.56203 34.6926C9.57447 34.8006 12.4886 36.1507 14.5682 38.3257C15.1551 38.9395 15.6687 39.617 16.1033 40.3465C16.246 40.5855 16.6189 40.3677 16.4763 40.1287C14.8766 37.4429 12.1995 35.4597 9.18418 34.6512C8.32844 34.4218 7.44668 34.2917 6.56203 34.2609C6.28353 34.2513 6.28449 34.683 6.56203 34.6926Z" fill="#0E5267"/>
<path d="M14.9109 28.8573C18.4331 29.6725 21.5168 32.0326 23.3064 35.1655C23.8162 36.0578 24.2132 37.0061 24.4917 37.9948C24.5669 38.2617 24.9841 38.148 24.908 37.8801C23.8981 34.2837 21.301 31.2028 17.9763 29.5164C17.0396 29.0413 16.049 28.678 15.0256 28.441C14.7548 28.3783 14.6391 28.7946 14.9109 28.8573Z" fill="#0E5267"/>
<path d="M14.3345 17.3292C16.9865 18.2332 19.2858 19.9976 20.8566 22.3172C22.5016 24.7457 23.366 27.5952 23.8787 30.4583C24.1996 32.2555 24.3885 34.0721 24.5773 35.8867C24.6062 36.1603 25.038 36.1632 25.0091 35.8867C24.3885 29.9177 23.5501 23.1922 18.5457 19.165C17.3219 18.1802 15.9371 17.4198 14.4491 16.9129C14.1851 16.8233 14.0724 17.2406 14.3345 17.3292Z" fill="#0E5267"/>
<path d="M26.1148 34.8009C25.7862 30.3902 26.1129 25.9371 27.0968 21.6237C27.3763 20.4008 27.7078 19.1904 28.0884 17.9955C28.1732 17.7295 27.756 17.6167 27.6721 17.8808C26.3182 22.1306 25.6022 26.5808 25.5588 31.0416C25.5463 32.2963 25.5887 33.5501 25.6821 34.8009C25.7024 35.0765 26.1351 35.0785 26.1139 34.8009H26.1148Z" fill="#0E5267"/>
<path d="M13.4427 44.3781L16.8791 65.1077H34.9316L38.368 44.3781C38.6523 42.6657 37.3311 41.1074 35.5946 41.1074H16.2161C14.4806 41.1074 13.1594 42.6657 13.4427 44.3781Z" fill="#DFB0A2"/>
<path d="M39.5128 38.9902H12.2948C12.0489 38.9902 11.8496 39.1896 11.8496 39.4355V45.6415C11.8496 45.8874 12.0489 46.0867 12.2948 46.0867H39.5128C39.7586 46.0867 39.958 45.8874 39.958 45.6415V39.4355C39.958 39.1896 39.7586 38.9902 39.5128 38.9902Z" fill="#DFB0A2"/>
<path d="M14.0171 46.5255H37.7803C38.0578 46.5255 38.0588 46.0938 37.7803 46.0938H14.0171C13.7396 46.0938 13.7386 46.5255 14.0171 46.5255Z" fill="#0E5267"/>
<path d="M17.6273 45.1117C17.7979 43.3713 18.0754 41.5654 19.0497 40.0717C19.89 38.7823 21.2555 37.8023 22.8465 37.888C23.6705 37.9324 24.4568 38.2677 25.008 38.8893C25.1931 39.0975 25.4976 38.791 25.3135 38.5838C24.24 37.3715 22.3975 37.173 20.9654 37.81C19.3513 38.5279 18.3182 40.1189 17.8007 41.7524C17.4558 42.8403 17.3083 43.9794 17.1965 45.1127C17.1695 45.3893 17.6013 45.3873 17.6283 45.1127L17.6273 45.1117Z" fill="#0E5267"/>
<path d="M44.0726 27.4733C44.0302 25.6703 43.5666 23.8759 42.7012 22.2926C42.1105 21.2133 41.1729 20.0367 39.8767 19.8353C38.5305 19.6271 37.295 20.5465 36.6388 21.6518C35.5392 23.5049 35.3012 25.785 35.4236 27.8983C35.5412 29.924 35.8341 32.2753 37.5668 33.5926C38.4543 34.2672 39.631 34.6469 40.7354 34.3597C42.8015 33.821 43.69 31.2538 43.9598 29.3853C44.0514 28.7531 44.0889 28.1122 44.0735 27.4733H44.0726Z" fill="#28748C"/>
<path d="M48.1289 38.7607C46.3462 36.4874 42.0896 37.2815 40.1758 38.9708C37.3426 41.4715 40.1334 44.3895 42.9964 44.695C45.6504 44.9783 49.587 43.1907 48.7177 39.9643C48.5886 39.4864 48.3872 39.0884 48.1299 38.7598L48.1289 38.7607Z" fill="#28748C"/>
<path d="M33.7583 14.7966C33.1358 14.0468 32.3051 13.46 31.3732 13.1188C30.0645 12.6389 28.6306 12.5888 27.2448 12.7459C24.9359 13.007 21.961 14.8631 22.6366 17.8109C23.368 20.9997 29.4806 22.2679 32.7089 20.9997C33.924 20.5227 34.9012 19.2198 34.9176 17.9805C34.933 16.7846 34.4888 15.6783 33.7573 14.7975L33.7583 14.7966Z" fill="#28748C"/>
<path d="M16.198 16.355C15.9436 15.717 15.4666 15.2034 14.7862 15.0318C14.1271 14.8661 13.3841 15.0444 12.8656 15.4819C11.7796 16.4003 11.4828 18.4471 12.0889 19.6951C12.3838 20.3022 12.9148 20.7965 13.5807 20.9536C14.2446 21.1107 14.9597 20.8649 15.4685 20.4323C16.597 19.4734 16.7203 17.6636 16.198 16.355Z" fill="#28748C"/>
<path d="M10.1266 33.7504C9.93965 32.7347 9.53973 31.8577 8.72447 31.3046C7.99111 30.8063 7.0843 30.6184 6.23241 30.7032C2.38447 31.0839 2.73621 37.0789 5.12997 38.7961C8.25323 41.0367 10.595 36.2916 10.1276 33.7504H10.1266Z" fill="#28748C"/>
<path d="M23.0504 47.3713C22.6919 45.9663 21.8824 44.6846 20.6566 43.8857C15.9413 40.8116 12.1368 46.69 13.4955 50.9619C13.907 52.2552 14.7156 53.4935 15.844 54.2693C17.0149 55.073 18.4488 55.2127 19.7623 54.673C21.0594 54.1392 22.0308 53.0406 22.6437 51.8023C23.3057 50.4656 23.4271 48.8496 23.0504 47.3713Z" fill="#28748C"/>
<path d="M34.1643 29.2934C32.7882 27.4691 30.5428 26.4457 28.4651 27.048C27.0919 27.446 25.7948 28.5282 25.2339 30.0373C24.8051 31.1918 24.73 32.5159 25.0537 33.7166C25.3679 34.8846 26.0781 35.8993 26.9743 36.5527C29.4375 38.348 34.6365 37.4065 35.3149 33.6713C35.6059 32.0716 35.0817 30.5095 34.1643 29.2934Z" fill="#28748C"/>
<path d="M36.0771 39.7762C35.1944 37.5906 33.0271 35.3568 30.508 36.7531C29.6725 37.2157 29.0683 38.0223 28.6828 38.8964C27.591 41.372 27.3626 44.7719 28.5845 47.2456C29.0808 48.2507 29.9019 49.1276 30.9503 49.5247C32.8208 50.233 34.6499 49.1315 35.6396 47.5463C37.0658 45.2604 37.0677 42.2278 36.078 39.7771L36.0771 39.7762Z" fill="#28748C"/>
<path d="M29.8954 37.4822C30.7598 36.6939 32.0251 36.4057 33.1545 36.6852C33.4244 36.7517 33.54 36.3354 33.2692 36.2689C31.9856 35.9518 30.57 36.2833 29.5899 37.1776C29.3837 37.3655 29.6901 37.6701 29.8954 37.4831V37.4822Z" fill="#0E5267"/>
<path d="M25.9701 22.8573C25.3842 21.5834 24.2558 20.4501 23.0406 19.763C22.3361 19.365 21.5151 19.1327 20.7143 19.2503C16.9444 19.8034 16.0164 25.5864 18.0719 28.1556C19.4981 29.9374 22.2667 30.6168 24.2423 29.3766C25.2445 28.7473 25.9759 27.7171 26.3036 26.5867C26.6611 25.3552 26.5021 24.0157 25.9692 22.8583L25.9701 22.8573Z" fill="#28748C"/>
<path d="M19.2765 31.1995C18.6858 26.6838 15.1925 21.6871 11.1952 24.5049C8.95946 26.0805 9.02692 29.2327 9.8788 31.5397C10.8145 34.0761 12.6821 37.1936 15.7591 37.1367C18.7494 37.0828 19.6755 34.2505 19.2756 31.1995H19.2765Z" fill="#28748C"/>
<path d="M16.8112 25.7574C17.4983 26.6767 18.065 27.6828 18.4851 28.7515C18.5853 29.0078 19.0036 28.8961 18.9014 28.6368C18.4678 27.5325 17.8944 26.4907 17.1842 25.5396C17.1138 25.4451 16.9982 25.3999 16.8883 25.4625C16.7958 25.5155 16.7409 25.6649 16.8112 25.7583V25.7574Z" fill="#0E5267"/>
<path d="M40.4369 26.9257C40.1112 26.467 39.6939 27.0308 39.7199 27.4056C39.7681 28.1053 40.6836 27.952 40.5785 27.2534C40.5631 27.1531 40.5111 27.0298 40.4369 26.9257Z" fill="#0E5267"/>
<path d="M18.4474 49.1317C18.3876 49.0921 18.3106 49.0603 18.2113 49.0411C17.8615 48.9717 17.6707 49.3764 17.6909 49.6655C17.7699 50.8104 19.0516 49.5364 18.4474 49.1326V49.1317Z" fill="#0E5267"/>
<path d="M29.8757 31.5242C29.8545 31.5011 29.8314 31.4789 29.8054 31.4597C29.5028 31.2313 29.1009 31.5175 29.1578 31.9405C29.1973 32.2325 29.4584 32.4021 29.7331 32.3067C30.0684 32.1901 30.0887 31.7623 29.8757 31.5242Z" fill="#0E5267"/>
<path d="M32.5593 42.699C32.5381 42.6759 32.515 42.6537 32.489 42.6345C32.1864 42.4061 31.7845 42.6923 31.8414 43.1153C31.8809 43.4073 32.142 43.5769 32.4167 43.4815C32.752 43.3649 32.7723 42.9371 32.5593 42.699Z" fill="#0E5267"/>
<path d="M21.5749 24.659C21.5537 24.6359 21.5306 24.6137 21.5046 24.5944C21.202 24.366 20.8001 24.6522 20.857 25.0753C20.8965 25.3673 21.1577 25.5369 21.4323 25.4415C21.7677 25.3249 21.7879 24.897 21.5749 24.659Z" fill="#0E5267"/>
<path d="M29.4538 16.3113C29.4326 16.2872 29.4095 16.266 29.3835 16.2468C29.0809 16.0184 28.679 16.3046 28.7359 16.7276C28.7754 17.0196 29.0366 17.1892 29.3112 17.0938C29.6466 16.9772 29.6668 16.5494 29.4538 16.3113Z" fill="#0E5267"/>
<path d="M14.0027 29.8914C13.9815 29.8683 13.9583 29.8461 13.9323 29.8269C13.6297 29.5985 13.2279 29.8847 13.2847 30.3077C13.3242 30.5997 13.5854 30.7693 13.86 30.6739C14.1954 30.5573 14.2156 30.1294 14.0027 29.8914Z" fill="#0E5267"/>
<path d="M6.37071 34.6992C6.35336 34.6799 6.33409 34.6616 6.31289 34.6462C6.06426 34.4592 5.73468 34.6934 5.7819 35.0413C5.8137 35.2803 6.0286 35.42 6.2541 35.342C6.52971 35.2456 6.54609 34.8948 6.37071 34.7001V34.6992Z" fill="#0E5267"/>
<path d="M14.3824 17.7138C14.3651 17.6946 14.3458 17.6762 14.3246 17.6608C14.076 17.4739 13.7464 17.7081 13.7936 18.0559C13.8254 18.2949 14.0403 18.4347 14.2658 18.3566C14.5414 18.2602 14.5578 17.9095 14.3824 17.7148V17.7138Z" fill="#0E5267"/>
<path d="M44.7535 40.9062C44.7362 40.8869 44.7169 40.8686 44.6957 40.8532C44.4471 40.6663 44.1175 40.9004 44.1647 41.2483C44.1965 41.4873 44.4114 41.627 44.6369 41.549C44.9125 41.4526 44.9289 41.1018 44.7535 40.9072V40.9062Z" fill="#0E5267"/>
<path d="M39.944 24.4844C38.3006 24.4844 36.6968 25.8011 36.3701 27.4049C36.3701 27.4049 36.0137 29.1473 36.0137 31.4441C36.0137 38.0673 42.2507 62.5602 42.2507 62.5602C42.6566 64.1442 44.3297 65.4411 45.9633 65.4411H58.0315C59.665 65.4411 61.3381 64.1442 61.744 62.5602C61.744 62.5602 67.8128 38.79 67.8128 32.2164C67.8128 29.7017 67.3178 27.395 67.3178 27.395C66.9713 25.7912 65.3477 24.4844 63.7141 24.4844H39.9638H39.944Z" fill="#AAC0B7"/>
<path d="M60.9714 19.2178H42.8344L41.9434 24.4846H61.8624L60.9714 19.2178Z" fill="#0E5267"/>
<path d="M42.0427 16.9795H61.7637C62.229 16.9795 62.6052 17.3557 62.6052 17.821V18.3655C62.6052 18.8308 62.229 19.207 61.7637 19.207H42.0427C41.5774 19.207 41.2012 18.8308 41.2012 18.3655V17.821C41.2012 17.3557 41.5774 16.9795 42.0427 16.9795Z" fill="#28748C"/>
<path d="M42.1307 16.386C41.6654 16.386 41.6456 16.2573 42.0812 16.0989L51.1101 12.8219C51.5457 12.6635 52.2585 12.6635 52.6941 12.8219L61.723 16.0989C62.1586 16.2573 62.1388 16.386 61.6735 16.386H42.1208H42.1307Z" fill="#AAC0B7"/>
<path d="M73.8872 65.1094H67.5626C67.3236 65.1094 67.1309 64.9157 67.1309 64.6776V26.8005C67.1309 26.5615 67.3313 26.4276 67.5626 26.3688C69.1218 25.9727 72.2846 25.9689 73.8872 26.3688C74.1184 26.4266 74.3189 26.5625 74.3189 26.8005V64.6776C74.3189 64.9166 74.1252 65.1094 73.8872 65.1094Z" fill="#B55759"/>
<path d="M72.9626 54.9669C72.9337 54.489 72.8884 54.1902 72.6784 54.0582C72.3247 53.8356 69.8644 53.9242 69.5618 53.9454C69.2593 53.9666 68.9451 54.0707 68.842 54.4523C68.735 54.8484 68.8497 60.9282 68.8661 61.2838C68.9017 62.0856 68.9663 62.2677 69.7806 62.3159C70.4908 62.3583 71.7349 62.2822 72.4201 62.3024C72.4962 62.3043 72.5724 62.2947 72.6466 62.2706C72.9607 62.1684 73.1506 61.8582 73.2113 61.5064C73.2922 61.041 72.9964 55.4892 72.9646 54.966L72.9626 54.9669Z" fill="#DFB0A2"/>
<path d="M72.6443 35.6379C73.2476 35.2727 73.3613 34.4863 73.0896 33.8763C72.7831 33.1902 72.0661 32.6611 71.3848 32.3894C70.7093 32.1195 69.9181 32.1581 69.3833 32.6939C68.9313 33.1458 68.7367 33.8368 68.7925 34.4642C68.8735 35.3613 69.3524 36.14 69.8959 36.8338C70.0675 37.0526 70.371 36.7452 70.2014 36.5283C69.5153 35.6524 68.833 34.3928 69.4604 33.301C70.1581 32.0868 71.7269 32.8307 72.4294 33.6421C72.8091 34.0806 73.0317 34.8988 72.4275 35.264C72.1904 35.4076 72.4073 35.7815 72.6453 35.6369L72.6443 35.6379Z" fill="#F1ECE6"/>
<path d="M71.2444 37.2763C70.591 36.7395 69.8538 36.2702 69.0578 35.9763C68.8631 35.904 68.7427 36.1401 68.814 36.2934C69.372 37.5028 70.088 38.6264 70.9389 39.6508C71.041 39.5486 71.1422 39.4474 71.2444 39.3453C70.8869 38.9367 70.4397 38.5695 69.9386 38.3508C69.5522 38.1822 69.0279 38.2862 69.0694 38.8056C69.0886 39.0427 69.2332 39.2701 69.3517 39.4687C69.5011 39.7182 69.6688 39.9553 69.8442 40.1866C70.1882 40.6405 70.5631 41.0693 70.9379 41.4981C71.0401 41.396 71.1413 41.2948 71.2434 41.1927C70.9389 40.9334 70.5563 40.7667 70.192 40.6077C69.821 40.4458 69.4442 40.2907 69.0568 40.1721C68.7909 40.0902 68.6762 40.5075 68.9422 40.5884C69.2939 40.6964 69.6379 40.8332 69.9742 40.9807C70.2971 41.1223 70.6662 41.2669 70.9379 41.4972C71.1499 41.6774 71.4275 41.4027 71.2434 41.1917C70.7124 40.5846 70.167 39.9765 69.7468 39.2856C69.6794 39.1738 69.4866 38.9348 69.502 38.7941C69.5281 38.558 69.9087 38.8134 70.007 38.8712C70.3616 39.0774 70.6691 39.3414 70.9389 39.6498C71.1239 39.8609 71.4198 39.5554 71.2444 39.3443C70.4175 38.3489 69.7295 37.2493 69.1869 36.0746C69.106 36.1806 69.0241 36.2866 68.9431 36.3917C69.6649 36.6576 70.3472 37.0942 70.9389 37.5799C71.1519 37.7552 71.4593 37.4507 71.2444 37.2744V37.2763Z" fill="#F1ECE6"/>
<path d="M69.4806 40.7691C69.4488 41.566 69.4681 42.4748 69.9037 43.1763C70.0771 43.4558 70.3547 43.7844 70.7064 43.8046C71.1266 43.8287 71.3155 43.4105 71.2653 43.0481C71.1584 42.2762 70.2429 41.4234 69.4353 41.6528C68.6191 41.885 68.7193 42.9046 68.9718 43.5203C69.2127 44.1092 69.549 44.6642 69.896 45.1962C70.0598 45.4477 70.2313 45.6953 70.4163 45.9334C70.5407 46.0933 70.6717 46.2764 70.8423 46.3911C70.9801 46.4836 71.1728 46.5048 71.2692 46.3381C71.3877 46.1319 71.2345 45.8717 71.1169 45.705C70.8982 45.3956 70.6149 45.1345 70.3171 44.9042C70.08 44.7211 69.7861 44.4917 69.4748 44.4667C69.0479 44.4329 68.781 44.8232 68.7916 45.2183C68.8022 45.6125 69.0605 46.024 69.2522 46.3545C69.736 47.1881 70.3325 47.9494 70.9049 48.7232C71.0032 48.6249 71.1015 48.5266 71.2008 48.4274C70.532 47.9282 69.7794 47.5466 69.1096 47.0474C68.9082 46.8971 68.6817 47.216 68.8475 47.3866C69.2407 47.7904 69.6637 48.2038 69.9567 48.6885C70.0203 48.7936 70.0781 48.9034 70.106 49.0248C70.16 49.26 69.9567 49.3033 69.7784 49.2378C69.5654 49.1588 69.3284 49.0248 69.153 48.8803C69.0508 48.9824 68.9496 49.0836 68.8475 49.1858C69.178 49.444 69.5943 49.709 69.8112 50.0801C69.8834 50.2034 70.0396 50.6149 69.8073 50.6149C69.4999 50.6139 68.8244 50.1051 68.7849 50.744C68.7675 51.0216 69.2002 51.0206 69.2166 50.744C69.2127 50.8057 69.1029 50.8211 69.1135 50.8443C69.1106 50.8385 69.1433 50.8529 69.1385 50.8491C69.1645 50.8722 69.2532 50.8847 69.2898 50.8982C69.4045 50.9396 69.5172 50.9888 69.6358 51.0187C69.8815 51.0794 70.1475 51.0543 70.2776 50.8086C70.4279 50.5243 70.3383 50.1253 70.1841 49.8623C69.9451 49.4537 69.5182 49.1646 69.153 48.8803C68.9381 48.7126 68.6307 49.0065 68.8475 49.1858C69.0942 49.3901 69.417 49.5876 69.7264 49.6772C70.135 49.7948 70.5705 49.5423 70.5513 49.0933C70.5349 48.703 70.265 48.3512 70.0328 48.0583C69.761 47.7142 69.4575 47.3962 69.152 47.0821C69.0643 47.1948 68.9776 47.3085 68.8899 47.4213C69.5587 47.9205 70.3113 48.3021 70.9811 48.8013C71.1516 48.9285 71.4022 48.676 71.2769 48.5054C70.9281 48.0332 70.5715 47.5658 70.2361 47.084C69.8854 46.581 69.5134 46.0519 69.2917 45.4766C69.2204 45.2916 69.1501 44.8415 69.4835 44.9051C69.6936 44.9456 69.9123 45.1326 70.0762 45.2607C70.2969 45.4342 70.5108 45.6298 70.6871 45.8495C70.7546 45.9343 70.797 46.0375 70.8625 46.1213C70.8664 46.1261 70.8751 46.1704 70.877 46.1724C70.85 46.155 71.089 46.075 71.1015 46.0471C71.1015 46.0481 71.0707 46.0249 71.0485 46.0047C70.9974 45.9575 70.9512 45.9064 70.9049 45.8544C70.7825 45.7146 70.6727 45.5643 70.5647 45.413C70.2814 45.015 70.0212 44.6006 69.7803 44.1756C69.5924 43.8432 69.392 43.4962 69.2898 43.1262C69.2108 42.8419 69.1337 42.4227 69.3611 42.1857C69.6444 41.8898 70.0945 42.1095 70.3441 42.3283C70.5426 42.5027 70.9676 42.9739 70.8346 43.2736C70.6968 43.5849 70.2959 43 70.214 42.8477C69.8825 42.2261 69.8854 41.4533 69.9133 40.7691C69.9239 40.4906 69.4922 40.4915 69.4816 40.7691H69.4806Z" fill="#F1ECE6"/>
<path d="M81.4405 67.3594L80.5963 50.2408C80.5732 49.7724 80.1867 49.4043 79.7174 49.4043C79.2481 49.4043 78.8617 49.7724 78.8385 50.2408L77.9944 67.3594H77.7188V74.0858C77.7188 75.1044 78.5446 75.9303 79.5632 75.9303H79.8697C80.8883 75.9303 81.7141 75.1044 81.7141 74.0858V67.3594H81.4385H81.4405Z" fill="#B67F6E"/>
<path d="M11.7276 67.3594L10.8834 50.2408C10.8603 49.7724 10.4738 49.4043 10.0045 49.4043C9.5352 49.4043 9.14877 49.7724 9.12565 50.2408L8.28147 67.3594H8.00586V74.0858C8.00586 75.1044 8.83173 75.9303 9.85033 75.9303H10.1568C11.1754 75.9303 12.0012 75.1044 12.0012 74.0858V67.3594H11.7256H11.7276Z" fill="#B67F6E"/>
<path d="M4.28103 64.9658H85.7441C85.8798 64.9658 85.99 65.3022 85.99 65.7162V67.7787C85.99 68.1927 85.8798 68.5291 85.7441 68.5291H4.28103C4.14537 68.5291 4.03516 68.1927 4.03516 67.7787V65.7162C4.03516 65.3022 4.14537 64.9658 4.28103 64.9658Z" fill="#654237"/>
</svg>
