<svg width="108" height="108" viewBox="0 0 108 108" fill="none" xmlns="http://www.w3.org/2000/svg">
<rect width="108" height="108" fill="white"/>
<path d="M70.2059 29.3309C66.0302 24.8081 60.1192 22.1088 53.9603 21.9436C47.7244 21.7783 41.5985 24.2132 37.186 28.6258C32.7624 33.0494 30.3164 39.2082 30.4927 45.4663C30.5974 49.1572 31.6055 52.7765 33.3518 56.0212C34.2718 57.7289 35.4011 59.321 36.4918 60.924C38.5411 63.9263 40.6455 66.8956 42.6452 69.9309C43.0088 70.4873 43.2677 71.0933 43.4385 71.7323C43.6919 72.6688 43.6478 73.5943 43.7414 74.5473C43.8847 76.0127 44.4246 77.4064 45.2013 78.6514C46.7768 81.1855 49.3825 82.8161 52.4013 82.8436C54.4341 82.8602 56.577 83.0309 58.4996 82.2542C61.3532 81.0973 63.3474 78.3319 63.5457 75.258C63.5953 74.4702 63.5622 73.699 63.722 72.9222C63.9203 71.9306 64.3059 70.9776 64.8623 70.1293C65.0992 69.7602 65.3581 69.4076 65.606 69.0495C66.7738 67.3583 67.9362 65.6671 69.1041 63.9704C69.9855 62.6923 70.8394 61.3813 71.7538 60.1252C72.6077 58.9464 73.4505 57.795 74.1391 56.5004C74.9985 54.8808 75.6596 53.1566 76.1113 51.3772C76.5741 49.5483 76.7944 47.6698 76.7999 45.7802C76.7779 39.6985 74.332 33.782 70.2169 29.3254L70.2059 29.3309Z" fill="#F1ECE6"/>
<path d="M61.4192 93.1397C56.8469 93.1232 52.2746 93.1067 47.7022 93.0846C47.0522 93.0846 46.4022 93.0846 45.7521 93.0791C45.6364 93.0791 45.5813 93.1893 45.5428 93.2774C45.5428 93.2774 45.5428 93.2884 45.5373 93.2939C45.4932 93.3986 45.5097 93.5363 45.5648 93.6686C45.5979 93.7677 45.6529 93.8724 45.7466 93.9605C46.7327 94.9466 47.7188 95.9327 48.7048 96.9187C49.1676 97.3815 49.6358 97.8497 50.0986 98.3125C50.4236 98.6375 50.6605 98.621 51.0847 98.621H56.2244C56.577 98.621 57.2325 98.7532 57.5575 98.5879C57.9266 98.4061 58.2792 97.8718 58.5601 97.5853C59.7115 96.434 60.8628 95.2826 62.0142 94.1313C62.3337 93.8118 61.7497 93.1397 61.4137 93.1397H61.4192Z" fill="#DFB0A2"/>
<path d="M64.3775 84.6616C64.091 84.1382 63.5567 83.8738 62.9782 83.8408C62.1134 83.7912 61.2264 83.8408 60.3616 83.8408H48.4074C47.3387 83.8408 46.2644 83.8132 45.1902 83.8408C44.3474 83.8628 43.4384 84.3035 43.2346 85.1904C43.0253 86.0718 43.1244 87.3334 43.9618 87.8291C44.7165 88.2754 46.0386 88.0605 46.8649 88.0605H52.4674C55.7837 88.0605 59.1 88.1046 62.4163 88.0605C62.4549 88.0605 62.4935 88.0605 62.532 88.0605C62.5541 88.0605 62.5816 88.0605 62.6146 88.0605C62.6312 88.0605 62.6477 88.0605 62.6642 88.0605C63.7715 87.9779 64.5538 87.2838 64.5648 86.1434C64.5648 85.6477 64.6199 85.1188 64.3775 84.6726V84.6616Z" fill="#B67F6E"/>
<path d="M64.4822 88.7325C64.2122 87.9613 63.4851 87.6142 62.7138 87.5977C61.6671 87.5812 60.6205 87.5977 59.5738 87.5977H48.0438C47.0577 87.5977 46.0551 87.5591 45.0691 87.5977C44.1711 87.6363 43.3007 88.2202 43.196 89.1677C43.0804 90.2309 43.9618 91.0077 44.9699 91.0297C47.7133 91.0903 50.4677 91.0297 53.2111 91.0297H62.7248C62.7248 91.0297 62.7744 91.0297 62.7965 91.0242C63.9148 90.9195 64.8788 89.8949 64.4767 88.7325H64.4822Z" fill="#DFB0A2"/>
<path d="M64.5262 91.7735C64.3334 90.9692 63.5952 90.5836 62.8239 90.5725C61.7773 90.556 60.7306 90.5725 59.6839 90.5725H48.1539C47.1623 90.5725 46.1708 90.545 45.1792 90.5725C44.3418 90.5946 43.4384 91.0353 43.229 91.9222C42.9811 92.9854 43.8515 93.7897 44.8541 93.8338C47.592 93.9384 50.3575 93.8338 53.0954 93.8338H62.5265C62.5265 93.8338 62.576 93.8338 62.6091 93.8338C63.6723 93.7732 64.8016 92.9854 64.5207 91.7789L64.5262 91.7735Z" fill="#B67F6E"/>
<path d="M47.6196 35.9084C47.6196 35.9084 47.267 40.2439 53.8555 42.3207C53.8555 42.3207 54.5827 37.0598 47.6196 35.9084Z" fill="#477762"/>
<path d="M47.2615 41.9076C47.2615 41.9076 46.9089 46.243 53.4975 48.3199C53.4975 48.3199 54.2247 43.0589 47.2615 41.9076Z" fill="#477762"/>
<path d="M47.3882 48.2648C47.3882 48.2648 47.0357 52.6002 53.6242 54.6771C53.6242 54.6771 54.3514 49.4161 47.3882 48.2648Z" fill="#477762"/>
<path d="M47.4598 54.3079C47.4598 54.3079 47.1072 58.6433 53.6958 60.7201C53.6958 60.7201 54.4229 55.4592 47.4598 54.3079Z" fill="#477762"/>
<path d="M53.6463 42.5025C56.3787 41.6817 59.447 39.8913 59.8216 36.7678C59.8437 36.575 59.8602 36.3767 59.8437 36.1894C59.8437 36.1453 59.739 36.1343 59.6894 36.1508C57.7944 36.4373 55.8222 37.1259 54.5993 38.6794C53.9052 39.5608 53.5196 40.6571 53.47 41.7754C53.459 42.0012 53.459 42.2381 53.492 42.464C53.4975 42.5136 53.6077 42.5136 53.6463 42.5025Z" fill="#38594B"/>
<path d="M59.9648 42.205C59.9648 42.1719 59.8822 42.1444 59.8326 42.1444C59.8326 42.1444 59.8326 42.1444 59.8271 42.1444C59.8271 42.1444 59.8271 42.1444 59.8216 42.1444C57.91 42.4309 55.9214 43.125 54.7039 44.706C54.0263 45.5874 53.6462 46.6782 53.6077 47.7854C53.6022 48.0058 53.5966 48.2372 53.6297 48.4575C53.6352 48.5071 53.7454 48.5291 53.784 48.5181C56.5163 47.6973 59.5957 45.8959 59.9538 42.7669C59.9758 42.5796 59.9924 42.3868 59.9759 42.1995L59.9648 42.205Z" fill="#38594B"/>
<path d="M59.75 48.5071C57.8549 48.7935 55.8828 49.4822 54.6598 51.0412C53.9657 51.9226 53.5801 53.0188 53.5305 54.1371C53.5195 54.363 53.5195 54.5999 53.5525 54.8257C53.558 54.8753 53.6682 54.8698 53.7068 54.8588C56.4392 54.038 59.5076 52.2421 59.8822 49.1241C59.9042 48.9313 59.9207 48.733 59.9042 48.5457C59.9042 48.5016 59.7995 48.4906 59.75 48.5126V48.5071Z" fill="#38594B"/>
<path d="M59.7445 54.5503C57.8494 54.8367 55.8828 55.5253 54.6543 57.0788C53.9602 57.9602 53.5746 59.0565 53.525 60.1748C53.514 60.4006 53.514 60.6375 53.547 60.8634C53.5526 60.9129 53.6627 60.9129 53.6958 60.9019C56.4281 60.0811 59.5021 58.2908 59.8712 55.1672C59.8932 54.9744 59.9097 54.7761 59.8932 54.5888C59.8932 54.5448 59.783 54.5337 59.739 54.5503H59.7445Z" fill="#38594B"/>
<path d="M53.861 37.6713C53.861 37.6713 53.861 37.6162 53.861 37.5942C53.861 37.4509 53.3817 37.4344 53.3817 37.5666C53.3817 37.9743 53.3817 38.3819 53.3817 38.7896C53.3817 39.8914 53.3817 40.9931 53.3817 42.1004C53.3817 43.742 53.3817 45.3781 53.3762 47.0198C53.3762 49.0195 53.3763 51.0192 53.3708 53.0189C53.3708 55.2004 53.3707 57.3819 53.3652 59.5634C53.3652 61.7779 53.3597 63.9869 53.3597 66.2015C53.3597 68.2618 53.3597 70.3276 53.3542 72.3879C53.3542 74.1232 53.3542 75.8585 53.3487 77.5937C53.3487 78.8498 53.3487 80.1003 53.3487 81.3563C53.3487 81.9347 53.2881 82.5572 53.3487 83.1301C53.3487 83.1577 53.3487 83.1852 53.3487 83.2072C53.3487 83.3505 53.828 83.367 53.828 83.2348C53.828 82.8272 53.828 82.4195 53.828 82.0118V78.701C53.8335 77.0594 53.8335 75.4233 53.839 73.7816V67.7825C53.85 65.601 53.85 63.4196 53.8555 61.2381C53.8555 59.029 53.8555 56.8145 53.861 54.5999C53.861 52.5396 53.861 50.4738 53.8665 48.4135C53.8665 46.6782 53.8665 44.9429 53.872 43.2077C53.872 41.9516 53.872 40.7011 53.872 39.4451C53.872 38.8667 53.9326 38.2442 53.872 37.6713H53.861Z" fill="#38594B"/>
<path d="M62.6918 79.4888C61.8325 79.2905 60.8133 79.4227 59.9429 79.4227H48.8316C47.818 79.4227 46.7989 79.3951 45.7853 79.4227C44.8763 79.4502 44.0169 79.8744 43.5376 80.6622C42.9096 81.7033 43.1851 83.0696 44.1657 83.7857C45.0305 84.4247 46.259 84.2595 47.2782 84.2595H62.0308C62.0308 84.2595 62.0804 84.2594 62.1024 84.2539C63.3364 84.1713 64.4657 83.2789 64.5703 81.9898C64.6695 80.8109 63.8432 79.7477 62.6974 79.4833L62.6918 79.4888Z" fill="#DFB0A2"/>
<path d="M37.0412 14.2832C38.0059 15.8836 38.9687 17.4822 39.9333 19.0826C40.3225 19.7294 41.2451 20.0254 41.9065 19.5997C42.555 19.1813 42.84 18.3172 42.4235 17.6266C41.4588 16.0261 40.496 14.4275 39.5314 12.8271C39.1423 12.1804 38.2196 11.8844 37.5583 12.3101C36.9097 12.7285 36.6247 13.5926 37.0412 14.2832Z" fill="#B55759"/>
<path d="M51.8469 10.1524C51.8086 12.4617 51.9291 14.7691 52.2068 17.062C52.2982 17.8074 52.8042 18.5418 53.6483 18.5035C54.3517 18.4724 55.1884 17.864 55.0898 17.062C54.8121 14.7691 54.6915 12.4617 54.7299 10.1524C54.7427 9.39788 54.0575 8.67621 53.2884 8.71092C52.4955 8.74563 51.8597 9.3449 51.8469 10.1524Z" fill="#B55759"/>
<path d="M66.0844 12.4361C64.8768 14.148 63.7678 15.9274 62.763 17.7654C62.4012 18.4267 62.5785 19.3676 63.28 19.7385C63.956 20.0947 64.8658 19.9285 65.2531 19.2214C66.2598 17.3835 67.3688 15.6041 68.5746 13.8922C69.0112 13.2729 68.7061 12.2625 68.0575 11.9191C67.3176 11.5281 66.5503 11.7766 66.0844 12.4361Z" fill="#B55759"/>
</svg>
