<svg width="78" height="83" viewBox="0 0 78 83" fill="none" xmlns="http://www.w3.org/2000/svg">
<rect x="18.1816" y="3.63672" width="37.8182" height="5.09091" rx="2.54545" fill="#F1ECE6"/>
<rect x="18.1816" y="20.3633" width="37.8182" height="5.09091" rx="2.54545" fill="#F1ECE6"/>
<rect x="18.1816" y="36.3633" width="37.8182" height="5.09091" rx="2.54545" fill="#F1ECE6"/>
<rect width="13.0909" height="13.0909" rx="2.90909" fill="#AAC0B7"/>
<path d="M2.18164 6.54634L4.7271 10.1827L14.5453 1.0918" stroke="#B55759" stroke-width="1.45455" stroke-linecap="round" stroke-linejoin="round"/>
<rect y="16" width="13.0909" height="13.0909" rx="2.90909" fill="#AAC0B7"/>
<path d="M2.18164 22.5463L4.7271 26.1827L14.5453 17.0918" stroke="#B55759" stroke-width="1.45455" stroke-linecap="round" stroke-linejoin="round"/>
<rect y="32" width="13.0909" height="13.0909" rx="2.90909" fill="#AAC0B7"/>
<path d="M61.2734 82.0747C61.2734 82.0746 61.2733 82.0745 61.2732 82.0744L19.6328 49.8301C18.4434 48.909 18.1985 47.2106 19.0791 45.9914C19.8575 44.9137 21.2886 44.5347 22.4983 45.0862L33.5284 50.1149C34.6062 50.6063 35.854 49.926 36.025 48.7539L37.2112 40.6224L31.8146 19.0009C31.4653 17.6102 32.2576 16.1875 33.6237 15.752C34.9623 15.325 36.404 15.9895 36.9503 17.2833L42.8612 30.6992L56.8792 36.1914C57.386 36.3899 57.7739 36.8097 57.9319 37.3305L63.5855 55.966C63.688 56.3039 63.8888 56.6035 64.1622 56.8269L75.6198 66.1839C76.4593 66.8695 76.4952 68.1402 75.6958 68.8721L61.274 82.075C61.2738 82.0752 61.2734 82.0751 61.2734 82.0747V82.0747Z" fill="#B67F6E"/>
<path d="M46.2927 38.0667C46.3406 38.0667 46.3885 38.0571 46.4343 38.0358C46.6026 37.9581 46.676 37.7579 46.5972 37.5897L43.4751 30.8684C43.3974 30.7002 43.1972 30.6267 43.029 30.7055C42.8607 30.7832 42.7872 30.9834 42.866 31.1517L45.9882 37.8729C46.0446 37.9954 46.166 38.0678 46.2927 38.0678V38.0667Z" fill="#654237"/>
<path d="M51.0626 38.8816C51.1116 38.8816 51.1627 38.871 51.2095 38.8476C51.3767 38.7656 51.4459 38.5643 51.3639 38.3982L48.753 33.058C48.672 32.8909 48.4708 32.8216 48.3036 32.9036C48.1364 32.9856 48.0672 33.1869 48.1492 33.353L50.7602 38.6932C50.8187 38.8124 50.938 38.8816 51.0626 38.8816Z" fill="#654237"/>
<path d="M55.7493 40.4849C55.7972 40.4849 55.8452 40.4753 55.8909 40.454C56.0592 40.3752 56.1327 40.176 56.0549 40.0078L53.741 35.0233C53.6622 34.854 53.4631 34.7816 53.2949 34.8593C53.1266 34.9381 53.0531 35.1372 53.1309 35.3055L55.4448 40.29C55.5023 40.4124 55.6237 40.4849 55.7504 40.4849H55.7493Z" fill="#654237"/>
</svg>
