<svg width="132" height="132" viewBox="0 0 132 132" fill="none" xmlns="http://www.w3.org/2000/svg">
<path d="M103.011 88.8343L100.395 76.932C99.2803 71.8644 95.6524 67.718 90.7778 65.9427L70.2169 58.452C68.757 57.92 67.121 58.3748 66.1443 59.583C64.6375 61.4489 65.3188 64.2361 67.5153 65.1976L73.7223 67.9127L34.084 56.8192C33.1544 56.5592 32.1576 56.7924 31.4394 57.4367C29.8688 58.848 30.347 61.4204 32.3204 62.1721L55.9487 71.1613L26.9776 60.2827C25.7476 59.8212 24.3665 60.0276 23.3262 60.8297C21.0189 62.6084 21.4938 66.2162 24.1836 67.3371L50.7518 78.4154L22.5241 66.7867C21.2253 66.2514 19.7385 66.4629 18.6394 67.3371C16.3758 69.1393 16.8188 72.6967 19.455 73.8898L45.1036 85.4933L19.757 74.7423C18.428 74.1784 16.8893 74.467 15.8539 75.4739C14.1255 77.1569 14.5182 80.0314 16.6342 81.1909L67.9986 109.313L82.5339 130.022C83.2848 131.092 84.7444 131.382 85.8471 130.68L114.765 112.277C115.896 111.557 116.236 110.061 115.527 108.923L103.012 88.8326L103.011 88.8343Z" fill="#B67F6E"/>
<path d="M58.4898 51.5617L78.4717 26.7152L70.8383 13.5527H46.1395L38.5078 26.7152L58.4898 51.5617Z" fill="#AAC0B7"/>
<path d="M78.4717 26.4492H38.5078V26.9795H78.4717V26.4492Z" fill="#B55759"/>
<path d="M58.4831 51.3944C58.374 51.4095 58.2683 51.3222 58.2314 51.2148L50.0158 26.9288C49.9973 26.8751 49.9973 26.8163 50.0158 26.761L54.2763 13.7109L54.7797 13.8754L50.546 26.8415L58.4865 50.3137L66.6803 26.8281L63.7672 13.8519L64.2841 13.7361L67.2139 26.7861C67.224 26.8348 67.2223 26.8851 67.2055 26.9304L58.7331 51.2148C58.6962 51.3222 58.5955 51.3927 58.4831 51.3927V51.3944Z" fill="#B55759"/>
<path d="M45.138 5.11821C46.024 6.58816 46.9083 8.05644 47.7943 9.52639C48.1518 10.1204 48.9992 10.3923 49.6066 10.0013C50.2023 9.61701 50.4641 8.8233 50.0815 8.189C49.1955 6.71905 48.3112 5.25078 47.4252 3.78083C47.0678 3.18681 46.2203 2.91495 45.6129 3.30593C45.0172 3.6902 44.7554 4.48391 45.138 5.11821Z" fill="#B55759"/>
<path d="M58.7364 1.32509C58.7011 3.44612 58.8119 5.56543 59.0669 7.67136C59.1508 8.35599 59.6156 9.03058 60.3909 8.99534C61.0369 8.96682 61.8055 8.40801 61.7149 7.67136C61.4598 5.56543 61.3491 3.44612 61.3843 1.32509C61.396 0.632066 60.7668 -0.030777 60.0603 0.00110553C59.332 0.032988 58.7481 0.583404 58.7364 1.32509Z" fill="#B55759"/>
<path d="M71.8131 3.42345C70.7039 4.99576 69.6854 6.63015 68.7625 8.31824C68.4302 8.92569 68.593 9.78988 69.2374 10.1305C69.8582 10.4577 70.6939 10.305 71.0496 9.65562C71.9742 7.96753 72.9928 6.33314 74.1003 4.76083C74.5013 4.19198 74.2211 3.26403 73.6254 2.94856C72.9458 2.58946 72.241 2.81768 71.8131 3.42345Z" fill="#B55759"/>
<path d="M86.2066 84.3999C86.0724 84.3999 85.9398 84.3496 85.8375 84.2489C80.2396 78.7903 78.7495 73.0246 78.4693 71.7023L68.0353 66.5608C67.7735 66.4316 67.6644 66.1145 67.7937 65.851C67.9229 65.5876 68.24 65.4802 68.5035 65.6094L79.174 70.8666C79.3267 70.9422 79.4341 71.0865 79.4627 71.2543C79.4727 71.318 80.602 77.661 86.5775 83.4888C86.7872 83.6935 86.7906 84.0291 86.5875 84.2388C86.4835 84.3445 86.3459 84.3982 86.2083 84.3982L86.2066 84.3999Z" fill="#654237"/>
<path d="M55.949 71.6908C55.8852 71.6908 55.8215 71.679 55.7577 71.6556L31.8928 62.4415C31.6193 62.3358 31.4834 62.0287 31.5891 61.7569C31.6948 61.4834 32.0019 61.3491 32.2737 61.4531L56.1386 70.6672C56.4121 70.7729 56.5481 71.08 56.4423 71.3518C56.3618 71.5616 56.1604 71.6908 55.9473 71.6908H55.949Z" fill="#654237"/>
<path d="M50.7502 78.9451C50.6797 78.9451 50.6076 78.93 50.5388 78.8998L24.0427 67.3365C23.7743 67.219 23.6518 66.9069 23.7692 66.6385C23.8867 66.37 24.1988 66.2475 24.4673 66.3649L50.9633 77.9282C51.2318 78.0457 51.3543 78.3578 51.2368 78.6263C51.1496 78.826 50.9549 78.9451 50.7502 78.9451Z" fill="#654237"/>
<path d="M45.3789 86.381C45.3068 86.381 45.2329 86.3659 45.1625 86.334L20.2505 75.1651C19.9837 75.046 19.8646 74.7322 19.9837 74.4654C20.1045 74.1986 20.4166 74.0794 20.6834 74.1985L45.5954 85.3675C45.8622 85.4866 45.9814 85.8005 45.8622 86.0673C45.7733 86.2636 45.5803 86.381 45.3789 86.381Z" fill="#654237"/>
<path d="M42.4071 90.3117C42.2981 90.3117 42.1857 90.2782 42.0917 90.2077C41.8568 90.0332 41.8081 89.701 41.9826 89.4661L58.788 66.8563C58.9626 66.6214 59.2948 66.5727 59.5297 66.7472C59.7646 66.9218 59.8133 67.254 59.6388 67.4889L42.8334 90.0986C42.7293 90.2379 42.5699 90.3117 42.4071 90.3117Z" fill="#654237"/>
<path d="M81.094 94.8334C80.9933 94.8334 80.891 94.8049 80.8004 94.7445C72.6351 89.301 61.0869 90.7239 60.9695 90.739C60.6792 90.7743 60.414 90.5712 60.3754 90.2826C60.3385 89.9923 60.5415 89.7272 60.8318 89.6886C61.3185 89.6248 72.8851 88.1952 81.3877 93.8635C81.631 94.0263 81.6964 94.3552 81.5353 94.5985C81.433 94.7512 81.2652 94.8351 81.094 94.8351V94.8334Z" fill="#654237"/>
</svg>
