<svg width="108" height="108" viewBox="0 0 108 108" fill="none" xmlns="http://www.w3.org/2000/svg">
<rect width="108" height="108" fill="white"/>
<path d="M23.986 57.1638L34.4348 34.658C34.7471 33.9852 35.5712 33.7279 36.2109 34.1034L48.4795 41.3043C49.1952 41.7243 50.1142 41.3478 50.3295 40.5465L56.3821 18.0156C56.6825 16.8975 58.2069 16.7458 58.7217 17.7829L83.5698 67.8439L27.9208 80.8778L23.986 57.1638Z" fill="#B67F6E"/>
<path d="M82.5323 65.2792C82.981 65.2792 83.2851 64.8225 83.1121 64.4085L76.3108 48.1359C76.1261 47.694 76.484 47.2161 76.96 47.269L78.249 47.4122C78.7608 47.4691 79.12 46.92 78.8628 46.4739L75.7859 41.1355C75.5522 40.7299 75.8979 40.236 76.359 40.3168C76.8108 40.3959 77.1562 39.921 76.9417 39.5155L74.9398 35.7317C74.7023 35.2828 74.0582 35.2864 73.8257 35.7378L71.8789 39.5177C71.6689 39.9255 72.0162 40.3975 72.4679 40.3183C72.932 40.237 73.2799 40.7345 73.0441 41.1424L69.963 46.4735C69.7052 46.9195 70.0642 47.4692 70.5763 47.4125L71.8064 47.2763C72.2977 47.2219 72.6565 47.7297 72.4413 48.1746L64.6016 64.3771C64.3997 64.7944 64.7037 65.2792 65.1673 65.2792H82.5323Z" fill="#477762"/>
<path d="M93.3175 75.1396C93.8154 75.1396 94.1156 74.5881 93.8452 74.17L85.5052 61.2717C85.2178 60.8271 85.5752 60.2481 86.1014 60.3058L89.8556 60.7175C90.3672 60.7736 90.7256 60.2247 90.4684 59.7789L84.2427 48.9857C83.976 48.5233 84.3707 47.9601 84.8963 48.0528L86.2847 48.2978C86.7999 48.3888 87.1941 47.8472 86.9492 47.3849L82.6807 39.3262C82.4431 38.8775 81.7991 38.8813 81.5667 39.3327L77.4161 47.3946C77.1781 47.8567 77.5721 48.3914 78.084 48.3011L79.4909 48.0528C80.0165 47.9601 80.4111 48.5233 80.1445 48.9857L73.9187 59.7789C73.6616 60.2247 74.02 60.7736 74.5316 60.7175L78.2858 60.3058C78.812 60.2481 79.1694 60.8271 78.882 61.2717L70.5419 74.17C70.2716 74.5881 70.5717 75.1396 71.0696 75.1396H93.3175Z" fill="#38594B"/>
<path d="M72.9183 66.2044C73.4162 66.2044 73.7163 65.6531 73.4462 65.235L69.2751 58.7791C68.9876 58.3342 69.3458 57.7551 69.8723 57.8136L70.9065 57.9285C71.4183 57.9853 71.7775 57.4362 71.5204 56.9901L68.4434 51.6517C68.2097 51.2462 68.5555 50.7522 69.0165 50.833C69.4684 50.9122 69.8138 50.4373 69.5992 50.0318L67.5973 46.2479C67.3599 45.7991 66.7157 45.8026 66.4832 46.254L64.5343 50.0382C64.3253 50.4439 64.6712 50.9136 65.1207 50.8344C65.5821 50.7531 65.9286 51.2475 65.6946 51.6535L62.6184 56.9906C62.3613 57.4366 62.7203 57.9856 63.232 57.929L64.279 57.813C64.8054 57.7547 65.1634 58.3338 64.876 58.7786L60.7046 65.235C60.4345 65.6531 60.7346 66.2044 61.2324 66.2044H72.9183Z" fill="#AAC0B7"/>
<path d="M32.7513 78.4186C33.249 78.4186 33.5492 77.8676 33.2793 77.4494L27.0342 67.7733C26.7469 67.3282 27.1054 66.7492 27.6319 66.808L30.0123 67.0737C30.5242 67.1309 30.8837 66.5817 30.6265 66.1355L26.0252 58.1494C25.7593 57.688 26.152 57.1257 26.6768 57.2165L27.211 57.3089C27.7252 57.3978 28.1174 56.8575 27.8736 56.3961L24.7827 50.5463C24.5455 50.0973 23.9011 50.1006 23.6685 50.5521L20.6523 56.4055C20.4148 56.8665 20.8065 57.4007 21.3176 57.3126L21.8801 57.2157C22.405 57.1253 22.7973 57.6879 22.531 58.1492L17.9205 66.1352C17.6629 66.5814 18.0222 67.131 18.5343 67.0739L20.9247 66.8077C21.4513 66.749 21.8097 67.3284 21.522 67.7734L15.2676 77.449C14.9973 77.8672 15.2974 78.4186 15.7953 78.4186H32.7513Z" fill="#AAC0B7"/>
<path d="M40.9012 69.2141C41.399 69.2141 41.6992 68.6628 41.429 68.2446L37.7258 62.5138C37.4385 62.069 37.7962 61.49 38.3226 61.5481L39.066 61.6301C39.5776 61.6866 39.9364 61.1376 39.6793 60.6916L36.9132 55.8943C36.7001 55.5246 37.0152 55.0742 37.4356 55.1479C37.8478 55.2201 38.1626 54.7865 37.9665 54.4169L36.1778 51.0466C35.94 50.5984 35.2966 50.6023 35.0642 51.0533L33.3301 54.4182C33.1382 54.7905 33.4552 55.2215 33.8677 55.1492C34.2912 55.0751 34.6087 55.5288 34.394 55.9012L31.6319 60.6916C31.3747 61.1376 31.7335 61.6866 32.2452 61.6301L32.9886 61.5481C33.5149 61.49 33.8727 62.069 33.5853 62.5138L29.8822 68.2446C29.612 68.6628 29.9121 69.2141 30.41 69.2141H40.9012Z" fill="#38594B"/>
<path d="M88.8044 72.7271C88.5936 72.7271 88.3828 72.7388 88.172 72.7506C87.4694 67.1412 82.0356 62.7731 75.4426 62.7731C72.7023 62.7731 70.161 63.5343 68.0765 64.8225C65.9101 59.8454 60.4295 56.2971 53.9887 56.2971C47.5478 56.2971 41.552 60.1616 39.6197 65.5017C37.8748 64.5531 35.8255 64.0027 33.6356 64.0027C28.8459 64.0027 24.7589 66.5908 23.0609 70.2562C21.7259 69.7761 20.2737 69.5184 18.7513 69.5184C12.451 69.5184 7.3452 73.9919 7.3452 79.5193C7.3452 85.0467 12.451 89.5085 18.7513 89.5085C20.707 89.5085 22.5573 89.0752 24.1617 88.314C26.211 90.9723 29.6891 92.7289 33.6239 92.7289C35.7084 92.7289 37.6523 92.2371 39.3269 91.3822C41.0016 92.2371 42.9455 92.7289 45.03 92.7289C47.1145 92.7289 49.0585 92.2371 50.7331 91.3822C52.4077 92.2371 54.3634 92.7289 56.4362 92.7289C58.509 92.7289 60.4647 92.2371 62.1393 91.3822C63.8139 92.2371 65.7579 92.7289 67.8424 92.7289C69.9269 92.7289 71.8708 92.2371 73.5454 91.3822C75.2201 92.2371 77.164 92.7289 79.2485 92.7289C80.9583 92.7289 82.5626 92.3893 84.0147 91.8038C85.4669 92.3893 87.0829 92.7289 88.781 92.7289C95.0813 92.7289 100.187 88.2554 100.187 82.7397C100.187 77.224 95.0813 72.7506 88.781 72.7506L88.8044 72.7271Z" fill="#F1ECE6"/>
</svg>
