<svg width="132" height="132" viewBox="0 0 132 132" fill="none" xmlns="http://www.w3.org/2000/svg">
<rect width="132" height="132" fill="white"/>
<path d="M83.7338 33.1219C83.7338 43.1282 75.6224 51.2396 65.616 51.2396C55.6096 51.2396 47.4941 43.1282 47.4941 33.1219C47.4941 23.1155 55.6055 15 65.616 15C75.6265 15 83.7338 23.1155 83.7338 33.1219Z" fill="#AAC0B7"/>
<path d="M80.9166 33.122C80.9166 41.5712 74.0658 48.422 65.6125 48.422C57.1592 48.422 50.3125 41.5712 50.3125 33.122C50.3125 24.6728 57.1633 17.822 65.6125 17.822C74.0617 17.822 80.9166 24.6728 80.9166 33.122Z" fill="white"/>
<path d="M102.658 39.9644H28.5682V112.04H102.658V39.9644Z" fill="#F1ECE6"/>
<path d="M98.231 39.9644H32.998V112.04H98.231V39.9644Z" fill="white"/>
<path d="M77.093 90.6019H54.1348V112.044H77.093V90.6019Z" fill="#EDEDED"/>
<path d="M76.1344 91.8624H55.0959V112.044H76.1344V91.8624Z" fill="#C6C6C6"/>
<path d="M75.6396 92.3114H55.5898V112.04H75.6396V92.3114Z" fill="#AAC0B7"/>
<g style="mix-blend-mode:soft-light">
<path d="M56.0508 110.03V92.7646H64.8584L56.0508 110.03Z" fill="white"/>
</g>
<g style="mix-blend-mode:soft-light">
<path d="M66.3164 110.03V92.7646H75.1281L66.3164 110.03Z" fill="white"/>
</g>
<path d="M93.1858 90.2395H83.7479V105.642H93.1858V90.2395Z" fill="#EDEDED"/>
<path d="M92.4987 91.1417H84.4532V104.827H92.4987V91.1417Z" fill="#C6C6C6"/>
<path d="M92.144 91.4589H84.9431V104.51H92.144V91.4589Z" fill="#AAC0B7"/>
<g style="mix-blend-mode:soft-light">
<path d="M85.4451 104.193V91.7927H91.7769L85.4451 104.193Z" fill="white"/>
</g>
<path d="M48.3381 90.2395H38.9002V105.642H48.3381V90.2395Z" fill="#EDEDED"/>
<path d="M47.651 91.1417H39.6055V104.827H47.651V91.1417Z" fill="#C6C6C6"/>
<path d="M47.2926 91.4589H40.0916V104.51H47.2926V91.4589Z" fill="#AAC0B7"/>
<g style="mix-blend-mode:soft-light">
<path d="M40.5974 104.193V91.7927H46.9251L40.5974 104.193Z" fill="white"/>
</g>
<path d="M92.9574 68.3027H83.5195V83.7057H92.9574V68.3027Z" fill="#EDEDED"/>
<path d="M92.2703 69.209H84.2249V82.8941H92.2703V69.209Z" fill="#C6C6C6"/>
<path d="M91.9119 69.5261H84.7109V82.5768H91.9119V69.5261Z" fill="#AAC0B7"/>
<g style="mix-blend-mode:soft-light">
<path d="M85.2168 82.2598V69.86H91.5444L85.2168 82.2598Z" fill="white"/>
</g>
<path d="M48.1078 68.303H38.6699V83.7059H48.1078V68.303Z" fill="#EDEDED"/>
<path d="M47.4207 69.2092H39.3752V82.8943H47.4207V69.2092Z" fill="#C6C6C6"/>
<path d="M47.0661 69.5264H39.8651V82.5771H47.0661V69.5264Z" fill="#AAC0B7"/>
<g style="mix-blend-mode:soft-light">
<path d="M40.3712 82.26V69.8602H46.6988L40.3712 82.26Z" fill="white"/>
</g>
<path d="M78.1099 68.3029H68.672V83.7058H78.1099V68.3029Z" fill="#EDEDED"/>
<path d="M77.4228 69.2091H69.3774V82.8942H77.4228V69.2091Z" fill="#C6C6C6"/>
<path d="M77.0644 69.5262H69.8634V82.577H77.0644V69.5262Z" fill="#AAC0B7"/>
<g style="mix-blend-mode:soft-light">
<path d="M70.3693 82.2599V69.8601H76.6969L70.3693 82.2599Z" fill="white"/>
</g>
<path d="M65.4887 68.303H56.0508V83.7059H65.4887V68.303Z" fill="#EDEDED"/>
<path d="M64.8016 69.2092H56.7561V82.8943H64.8016V69.2092Z" fill="#C6C6C6"/>
<path d="M64.4431 69.5264H57.2422V82.5771H64.4431V69.5264Z" fill="#AAC0B7"/>
<g style="mix-blend-mode:soft-light">
<path d="M57.748 82.26V69.8602H64.0756L57.748 82.26Z" fill="white"/>
</g>
<path d="M93.4592 45.6206H84.0213V61.0236H93.4592V45.6206Z" fill="#EDEDED"/>
<path d="M92.7721 46.5269H84.7266V60.212H92.7721V46.5269Z" fill="#C6C6C6"/>
<path d="M92.4137 46.844H85.2127V59.8947H92.4137V46.844Z" fill="#AAC0B7"/>
<g style="mix-blend-mode:soft-light">
<path d="M85.7185 59.5777V47.1779H92.0503L85.7185 59.5777Z" fill="white"/>
</g>
<path d="M48.6097 45.6206H39.1719V61.0236H48.6097V45.6206Z" fill="#EDEDED"/>
<path d="M47.9263 46.5269H39.8809V60.212H47.9263V46.5269Z" fill="#C6C6C6"/>
<path d="M47.568 46.844H40.3671V59.8947H47.568V46.844Z" fill="#AAC0B7"/>
<g style="mix-blend-mode:soft-light">
<path d="M40.8732 59.5777V47.1779H47.2008L40.8732 59.5777Z" fill="white"/>
</g>
<path d="M78.6137 45.6206H69.1758V61.0236H78.6137V45.6206Z" fill="#EDEDED"/>
<path d="M77.9266 46.5269H69.8811V60.212H77.9266V46.5269Z" fill="#C6C6C6"/>
<path d="M77.5682 46.844H70.3672V59.8947H77.5682V46.844Z" fill="#AAC0B7"/>
<g style="mix-blend-mode:soft-light">
<path d="M70.873 59.5777V47.1779H77.2006L70.873 59.5777Z" fill="white"/>
</g>
<path d="M65.9906 45.6206H56.5527V61.0236H65.9906V45.6206Z" fill="#EDEDED"/>
<path d="M65.3035 46.5269H57.2581V60.212H65.3035V46.5269Z" fill="#C6C6C6"/>
<path d="M64.9451 46.844H57.7441V59.8947H64.9451V46.844Z" fill="#AAC0B7"/>
<g style="mix-blend-mode:soft-light">
<path d="M58.25 59.5777V47.1779H64.5776L58.25 59.5777Z" fill="white"/>
</g>
<path d="M105.881 33.1218H25.3477V39.9685H105.881V33.1218Z" fill="#F1ECE6"/>
<path d="M105.881 33.1218H25.3477V36.5452H105.881V33.1218Z" fill="#F1ECE6"/>
<path d="M105.881 110.433H25.3477V113.857H105.881V110.433Z" fill="#F1ECE6"/>
<path d="M108.295 113.857H22.9297V117.28H108.295V113.857Z" fill="#AAC0B7"/>
<path d="M69.8653 23.013H67.6472V20.7949C67.6472 20.3223 67.264 19.9434 66.7914 19.9434H64.3476C63.875 19.9434 63.4919 20.3265 63.4919 20.7949V23.013H61.2737C60.8011 23.013 60.418 23.3962 60.418 23.8688V26.3126C60.418 26.7809 60.8011 27.1683 61.2737 27.1683H63.4919V29.3907C63.4919 29.8633 63.875 30.2422 64.3476 30.2422H66.7914C67.264 30.2422 67.6472 29.859 67.6472 29.3907V27.1683H69.8653C70.3379 27.1683 70.7168 26.7851 70.7168 26.3126V23.8688C70.7168 23.3962 70.3379 23.013 69.8653 23.013Z" fill="#477762"/>
<g style="mix-blend-mode:multiply">
<path d="M65.8197 92.3114H65.416V110.433H65.8197V92.3114Z" fill="#C6C6C6"/>
</g>
</svg>
