<svg width="133" height="132" viewBox="0 0 133 132" fill="none" xmlns="http://www.w3.org/2000/svg">
<g clip-path="url(#clip0_1000_22912)">
<rect width="132" height="132" transform="translate(0.5)" fill="white"/>
<path d="M23.4874 10L24.8817 12.635L28 13.0623L25.7436 15.1039L26.276 18L23.4874 16.6469L20.724 18L21.2564 15.1039L19 13.0623L22.1183 12.635L23.4874 10Z" fill="#AAC0B7"/>
<path d="M47.989 23L50.1496 27.2902L55 27.9801L51.4945 31.3001L52.3102 36L47.989 33.7794L43.6898 36L44.5055 31.3001L41 27.9801L45.8504 27.2902L47.989 23Z" fill="#AAC0B7"/>
<path d="M68.5 8L69.5876 10.3056L72 10.6795L70.2599 12.4659L70.6752 15L68.5 13.7952L66.3446 15L66.7599 12.4659L65 10.6795L67.4124 10.3056L68.5 8Z" fill="#AAC0B7"/>
<path d="M95.39 24.73L95.94 25.84L97.16 26.01L96.28 26.88L96.48 28.1L95.39 27.52L94.3 28.1L94.5 26.88L93.62 26.01L94.84 25.84L95.39 24.73Z" fill="#AAC0B7"/>
<path d="M89.77 8L90.32 9.09999L91.54 9.28L90.65 10.15L90.86 11.36L89.77 10.79L88.67 11.36L88.88 10.15L88 9.28L89.22 9.09999L89.77 8Z" fill="#AAC0B7"/>
<path d="M122.77 120L123.32 121.1L124.54 121.28L123.65 122.15L123.86 123.36L122.77 122.79L121.67 123.36L121.88 122.15L121 121.28L122.22 121.1L122.77 120Z" fill="#AAC0B7"/>
<path d="M23.4874 36L24.8817 38.9644L28 39.4184L25.7436 41.7419L26.276 45L23.4874 43.451L20.724 45L21.2564 41.7419L19 39.4184L22.1183 38.9644L23.4874 36Z" fill="#AAC0B7"/>
<path d="M46.21 57.78L46.76 58.88L47.98 59.06L47.1 59.93L47.31 61.14L46.21 60.57L45.12 61.14L45.33 59.93L44.44 59.06L45.67 58.88L46.21 57.78Z" fill="#AAC0B7"/>
<path d="M70.09 39.72L70.64 40.83L71.86 41.01L70.98 41.87L71.19 43.09L70.09 42.52L69 43.09L69.21 41.87L68.32 41.01L69.54 40.83L70.09 39.72Z" fill="#AAC0B7"/>
<path d="M95.39 56.09L95.94 57.2L97.16 57.3799L96.28 58.24L96.48 59.46L95.39 58.8799L94.3 59.46L94.5 58.24L93.62 57.3799L94.84 57.2L95.39 56.09Z" fill="#AAC0B7"/>
<path d="M123 45L123.932 46.6469L126 46.914L124.492 48.1899L124.847 50L123 49.1395L121.136 50L121.492 48.1899L120 46.914L122.068 46.6469L123 45Z" fill="#AAC0B7"/>
<path d="M23.9859 73L25.5352 75.9644L29 76.4451L26.4929 78.7418L27.0845 82L23.9859 80.4777L20.9155 82L21.5071 78.7418L19 76.4451L22.4648 75.9644L23.9859 73Z" fill="#AAC0B7"/>
<path d="M46.21 89.14L46.76 90.25L47.98 90.43L47.1 91.29L47.31 92.51L46.21 91.93L45.12 92.51L45.33 91.29L44.44 90.43L45.67 90.25L46.21 89.14Z" fill="#AAC0B7"/>
<path d="M70.09 71.09L70.64 72.2L71.86 72.3799L70.98 73.24L71.19 74.46L70.09 73.8799L69 74.46L69.21 73.24L68.32 72.3799L69.54 72.2L70.09 71.09Z" fill="#AAC0B7"/>
<path d="M97.5 87L98.5876 89.3125L101 89.6667L99.2599 91.4792L99.6553 94L97.5 92.8125L95.3446 94L95.7401 91.4792L94 89.6667L96.4124 89.3125L97.5 87Z" fill="#AAC0B7"/>
<path d="M118 67L118.932 68.9762L121 69.2967L119.492 70.8279L119.847 73L118 71.9851L116.136 73L116.492 70.8279L115 69.2967L117.068 68.9762L118 67Z" fill="#AAC0B7"/>
<path d="M12.5 91L13.8881 93.6381L17 94.0517L14.7424 96.1052L15.2763 99L12.5 97.631L9.72371 99L10.2576 96.1052L8 94.0517L11.1119 93.6381L12.5 91Z" fill="#AAC0B7"/>
<path d="M47 121L47.9322 122.647L50 122.914L48.5085 124.19L48.8644 126L47 125.154L45.1525 126L45.5085 124.19L44 122.914L46.0847 122.647L47 121Z" fill="#AAC0B7"/>
<path d="M63.0113 111L64.2282 113.635L67 114.062L64.9944 116.104L65.4676 119L63.0113 117.623L60.5324 119L61.0057 116.104L59 114.062L61.7719 113.635L63.0113 111Z" fill="#AAC0B7"/>
<path d="M97 116L97.9322 117.976L100 118.297L98.5085 119.828L98.8474 122L97 120.967L95.1525 122L95.4915 119.828L94 118.297L96.0678 117.976L97 116Z" fill="#AAC0B7"/>
<path d="M118 98L118.932 99.9762L121 100.297L119.492 101.828L119.847 104L118 102.967L116.136 104L116.492 101.828L115 100.297L117.068 99.9762L118 98Z" fill="#AAC0B7"/>
<path d="M54.4299 100.442C42.2296 116.038 23.4625 115.563 23.4625 115.563C23.4625 115.563 23.5489 96.5967 37.486 84.0854C41.8408 80.1712 48.6408 80.1194 53.3239 84.6383C57.9984 89.1573 58.0416 95.8277 54.4299 100.442Z" fill="#B55759"/>
<path d="M52.8573 97.8755C43.6898 109.601 29.58 109.238 29.58 109.238C29.58 109.238 29.6404 94.9809 40.1213 85.5801C43.396 82.6424 48.5112 82.5992 52.0278 85.9949C55.5445 89.3906 55.5704 94.4107 52.8573 97.8755Z" fill="#DFB0A2"/>
<path d="M51.3625 96.3635C44.407 105.263 33.7015 104.987 33.7015 104.987C33.7015 104.987 33.7447 94.1688 41.7025 87.0318C44.191 84.8025 48.0705 84.768 50.7404 87.3428C53.4103 89.9177 53.4276 93.7281 51.3712 96.3635H51.3625Z" fill="#F8DAD1"/>
<path d="M57.3849 98.273L38.8512 80.3873L41.7025 73.4144L64.9539 95.8623L57.3849 98.273Z" fill="#28748C"/>
<path d="M69.1791 99.9233L69.4038 114.932L71.0627 116.133C71.0627 116.133 86.4859 96.5622 86.0453 93.9614C85.6046 91.3606 84.6023 80.4823 84.6023 80.4823L69.1791 99.932V99.9233Z" fill="#0E5267"/>
<g style="mix-blend-mode:soft-light" opacity="0.3">
<path d="M71.538 96.6486L71.3306 109.22C71.3306 109.22 84.369 92.3284 84.2999 90.3238C84.2308 88.3192 84.5591 79.8516 84.5591 79.8516L71.5293 96.6486H71.538Z" fill="#AAC0B7"/>
</g>
<path d="M37.2527 69.0942L22.2529 69.3966L21 67.7722C21 67.7722 40.0176 51.6664 42.627 52.0207C45.2451 52.3749 56.1493 52.9884 56.1493 52.9884L37.2613 69.0942H37.2527Z" fill="#0E5267"/>
<g style="mix-blend-mode:soft-light" opacity="0.3">
<path d="M40.4324 66.6317L27.8778 67.2797C27.8778 67.2797 44.3033 53.6537 46.3079 53.6537C48.3125 53.6537 56.7628 53.0229 56.7628 53.0229L40.4324 66.6317Z" fill="#AAC0B7"/>
</g>
<path d="M105.486 53.4377C118.499 35.3619 117.721 17.7872 117.721 17.7872C117.721 17.7872 100.129 17.6316 82.52 31.2749C64.9108 44.9182 37.2527 69.1374 37.2527 69.1374L69.2396 100.018C69.2396 100.018 92.4651 71.5221 105.486 53.4463V53.4377Z" fill="#EDEDED"/>
<path d="M114.567 35.7939C118.058 25.4167 117.721 17.7872 117.721 17.7872C117.721 17.7872 110.083 17.7181 99.8354 21.5803L114.567 35.8025V35.7939Z" fill="#0E5267"/>
<g style="mix-blend-mode:multiply">
<path d="M52.5463 75.7214C52.5463 75.7214 53.0561 74.7969 54.0152 73.1897C54.4213 72.4985 74.2165 88.7166 74.2165 88.7166C74.2165 88.7166 56.1234 69.7336 56.4777 69.1719C62.189 60.0822 73.5599 43.553 86.7625 32.908C105.339 17.9341 117.73 17.7872 117.73 17.7872C117.73 17.7872 100.138 17.6316 82.5286 31.2749C64.9194 44.9182 37.2613 69.1374 37.2613 69.1374L69.2483 100.018C69.2483 100.018 70.648 98.2989 72.955 95.4389L52.5463 75.7387V75.7214Z" fill="#DADADA"/>
</g>
<path d="M100.751 55.1485C94.5907 59.4169 86.1317 57.8789 81.872 51.7096C77.6036 45.549 79.1416 37.09 85.3022 32.8302C91.4629 28.5619 99.9219 30.0999 104.182 36.2605C108.45 42.4211 106.912 50.8801 100.751 55.1399V55.1485Z" fill="#0E5267"/>
<path d="M98.9023 52.4699C94.2191 55.71 87.7993 54.5436 84.5505 49.8604C81.3103 45.1773 82.4768 38.7575 87.1599 35.5087C91.843 32.2685 98.2629 33.435 101.512 38.1181C104.752 42.8012 103.585 49.221 98.9023 52.4699Z" fill="#AAC0B7"/>
<g style="mix-blend-mode:multiply">
<path d="M85.9675 48.8755C82.8915 44.4343 83.7901 38.4206 87.8943 35.0508C87.6524 35.1977 87.4018 35.3446 87.1685 35.5087C82.4854 38.7489 81.3189 45.1774 84.5591 49.8605C87.7993 54.5436 94.2278 55.7101 98.9109 52.4699C99.1442 52.3057 99.3775 52.1329 99.5935 51.9515C94.9882 54.6041 89.0522 53.3253 85.9762 48.8841L85.9675 48.8755Z" fill="#CEDEE8"/>
</g>
<g style="mix-blend-mode:soft-light" opacity="0.5">
<path d="M99.991 44.9095C99.4812 47.4757 97.6494 49.273 95.904 48.9274C94.1587 48.5817 93.165 46.2142 93.6748 43.6567C94.1846 41.0905 96.0164 39.2933 97.7617 39.6389C99.5071 39.9845 100.509 42.352 99.991 44.9095Z" fill="#AAC0B7"/>
</g>
<path d="M44.5279 96.0869L41.9617 93.6071C41.9617 93.6071 63.7097 65.4738 67.5202 69.146C71.3306 72.8182 44.5279 96.0783 44.5279 96.0783V96.0869Z" fill="#0E5267"/>
<g style="mix-blend-mode:soft-light" opacity="0.3">
<path d="M45.3056 93.7195L44.1305 92.5789C44.1305 92.5789 64.3664 69.0423 66.1118 70.7359C67.8572 72.4208 45.3056 93.7195 45.3056 93.7195Z" fill="#AAC0B7"/>
</g>
</g>
<defs>
<clipPath id="clip0_1000_22912">
<rect width="132" height="132" fill="white" transform="translate(0.5)"/>
</clipPath>
</defs>
</svg>
