<svg width="89" height="88" viewBox="0 0 89 88" fill="none" xmlns="http://www.w3.org/2000/svg">
<path d="M73.3917 10H16.334V78.2947H73.3917V10Z" fill="#B67F6E"/>
<path d="M22.2483 16.18L16.334 10H73.3917L67.4752 16.18H22.2483Z" fill="#654237"/>
<path d="M22.2483 72.1143L16.334 78.2942H73.3917L67.4752 72.1143H22.2483Z" fill="#654237"/>
<path d="M67.4811 16.1816H22.252V72.1164H67.4811V16.1816Z" fill="#E3EBE8"/>
<path d="M67.4811 68.2986V72.1164H22.252V70.8327C23.0713 68.0575 24.0157 65.2577 24.632 64.4004C26.081 62.8844 27.7086 62.5249 30.256 62.1119C30.7182 62.0204 31.2004 61.9511 31.7296 61.8663C32.185 61.7792 32.6494 61.6877 33.0915 61.6073C33.4376 61.5336 33.7702 61.4466 34.1029 61.3863C34.1208 61.3617 34.1654 61.3617 34.19 61.3617C34.8508 61.1831 35.4849 60.9911 36.0766 60.7701C36.1011 60.7455 36.119 60.7455 36.1435 60.7455C36.3847 60.6584 36.6236 60.549 36.8468 60.4553C37.722 60.0601 38.5615 59.6046 39.3251 59.0063C39.5282 58.8277 39.7002 58.6312 39.881 58.4079H39.9926C40.3677 58.3901 40.0551 58.3901 40.5597 58.4079C41.3925 58.4325 42.2565 58.4995 43.1139 58.562C43.8484 58.6357 44.5807 58.6669 45.322 58.6915C46.0565 58.6669 46.7955 58.6357 47.5301 58.562C47.6774 58.5486 47.8203 58.5441 47.9677 58.5307H47.9811C48.6844 58.4749 49.3943 58.4258 50.0842 58.4079C50.591 58.3901 50.2763 58.3901 50.6513 58.4079H50.763C50.9416 58.629 51.1135 58.8277 51.3189 59.0063C52.0847 59.6046 52.9219 60.0601 53.7971 60.4553C53.9199 60.5111 54.0561 60.5669 54.1923 60.6227H54.199C54.2973 60.6718 54.3955 60.7098 54.5004 60.7455C54.525 60.7455 54.5428 60.7455 54.5629 60.7701C55.1613 60.9911 55.7954 61.1831 56.4562 61.3617C56.4808 61.3617 56.5232 61.3617 56.5433 61.3863C56.5746 61.393 56.6103 61.3997 56.6415 61.4041C56.9385 61.4667 57.2399 61.5403 57.5547 61.6073C57.999 61.6877 58.4612 61.7792 58.9166 61.8663C59.448 61.9534 59.928 62.0204 60.3902 62.1119C62.9376 62.5249 64.5652 62.8822 66.0142 64.4004C66.3357 64.7464 66.9207 66.3852 67.4811 68.2986Z" fill="#DFB0A2"/>
<path d="M56.6388 61.3921V61.4055C56.3173 65.777 54.6652 69.6083 52.2427 72.1178H38.5945C36.2078 69.7065 34.511 66.0807 34.0176 61.8989C35.3304 61.3943 36.3485 61.0483 36.7012 60.9366C37.5898 60.6709 39.1437 59.7466 39.914 58.4093C40.2154 57.898 40.4007 57.3309 40.3829 56.708C40.3695 56.2882 40.3583 55.8506 40.3338 55.3996C40.3159 55.1273 40.3025 54.8571 40.2779 54.5847V54.5669C40.2534 54.1717 40.2221 53.7966 40.1909 53.4438C40.1842 53.3947 40.1842 53.3635 40.1775 53.3143C40.1105 52.5619 40.0413 51.9703 39.9922 51.7426L41.4099 51.6934L50.2534 51.3965C50.2155 51.6242 50.1664 52.2293 50.1239 52.9995C50.0994 53.3635 50.0815 53.7698 50.0748 54.1828C50.0748 54.1828 50.0815 54.1895 50.0748 54.1895C50.0681 54.2208 50.0681 54.2565 50.0681 54.2878C50.0436 55.0268 50.0302 55.8037 50.0436 56.4892C50.0436 56.5941 50.057 56.7057 50.0681 56.804C50.0748 56.8665 50.086 56.9268 50.1061 56.9893C50.1195 57.0764 50.1374 57.1567 50.1619 57.2349C50.1798 57.3153 50.2043 57.3956 50.2423 57.476C50.2601 57.5385 50.2847 57.5988 50.316 57.6546C50.3718 57.7975 50.4388 57.927 50.5191 58.0565C50.5437 58.1056 50.575 58.148 50.6062 58.1994C50.6553 58.2664 50.7044 58.3423 50.7536 58.4093C50.7915 58.4584 50.8272 58.5075 50.8697 58.5566C50.9858 58.7107 51.1152 58.8536 51.2581 58.9875C52.1155 59.8315 53.2251 60.374 53.915 60.5548C53.9887 60.5682 54.0758 60.5928 54.1874 60.6218H54.1941C54.6741 60.758 55.556 61.0237 56.6366 61.3921H56.6388Z" fill="#DFB0A2"/>
<path d="M51.2604 58.9881C45.067 58.3629 42.2694 56.9273 40.3337 55.4002C40.3203 55.1278 40.3025 54.8532 40.2824 54.583C40.2534 54.1812 40.2243 53.7971 40.1953 53.4422L41.4166 51.6918L50.2579 51.3926C50.2199 51.6181 50.1708 52.2231 50.1284 52.9979C50.1061 53.393 50.0837 53.8351 50.0703 54.2861C50.0458 55.0273 50.0324 55.8021 50.048 56.4853C50.0703 57.4743 50.5839 58.3227 51.2581 58.9858L51.2604 58.9881Z" fill="#28748C"/>
<path d="M52.151 26.2257C51.9992 22.0618 40.8024 21.4121 36.5983 25.5001C32.3942 29.5881 35.031 30.5057 33.236 31.3854C31.4409 32.2651 28.8421 32.6469 30.2933 37.3466C31.7445 42.0463 27.6186 39.9454 28.3442 43.6137C29.0698 47.2819 31.8606 45.8686 32.5081 46.6702C33.1578 47.4717 31.5659 51.2047 38.0116 51.3565C44.4573 51.5083 53.0151 51.102 53.9595 50.4389C54.9016 49.7758 58.7485 47.8914 58.4426 44.7077C58.1368 41.5239 60.557 43.7655 60.5324 40.6063C60.5078 37.4471 57.5295 35.4578 58.1368 33.5756C58.6972 31.8431 59.2977 30.3204 57.8555 27.9449C56.4801 25.6787 52.6846 25.5492 52.1488 26.2257H52.151Z" fill="#28748C"/>
<path d="M44.9854 56.5518C50.2111 56.5518 54.4474 49.8345 54.4474 41.5484C54.4474 33.2622 50.2111 26.5449 44.9854 26.5449C39.7597 26.5449 35.5234 33.2622 35.5234 41.5484C35.5234 49.8345 39.7597 56.5518 44.9854 56.5518Z" fill="#DFB0A2"/>
<path d="M35.1831 47.0256C36.1116 47.0256 36.8643 45.6912 36.8643 44.045C36.8643 42.3989 36.1116 41.0645 35.1831 41.0645C34.2547 41.0645 33.502 42.3989 33.502 44.045C33.502 45.6912 34.2547 47.0256 35.1831 47.0256Z" fill="#DFB0A2"/>
<path d="M54.7046 47.0256C55.6331 47.0256 56.3858 45.6912 56.3858 44.045C56.3858 42.3989 55.6331 41.0645 54.7046 41.0645C53.7761 41.0645 53.0234 42.3989 53.0234 44.045C53.0234 45.6912 53.7761 47.0256 54.7046 47.0256Z" fill="#DFB0A2"/>
<path d="M50.4671 30.6959C51.9183 31.8033 51.5365 37.8404 52.8359 38.0703C54.1353 38.3003 54.2872 41.1648 53.9813 42.4642C55.4705 41.9686 56.464 41.4707 56.8078 40.9348C57.1516 40.399 54.401 27.1415 50.4648 30.6937L50.4671 30.6959Z" fill="#28748C"/>
<path d="M33.0071 40.4764C33.2773 41.1551 36.8272 43.3029 36.7513 42.8073C36.6754 42.3116 36.6396 39.4449 36.7513 39.177C36.8629 38.9091 39.196 37.7637 39.7296 35.7767C40.2655 33.7896 41.4867 35.4328 43.092 35.4708C44.6973 35.5087 47.0282 34.2093 47.8297 32.2982C48.6312 30.387 49.6605 30.2687 50.1606 30.579C50.6719 30.5232 51.6319 30.3379 51.0782 29.0899C49.013 24.437 40.1717 25.205 35.9073 31.3828C33.2036 35.3011 32.6968 39.7128 33.0026 40.4764H33.0071Z" fill="#28748C"/>
<path opacity="0.23" d="M23.1934 60.3174V17.6045H65.8549V27.2317L23.1934 60.3174Z" fill="#FDFDFD"/>
<path d="M81.7468 14.3595C81.5464 13.6402 81.5183 12.1924 81.6592 11.5158C81.6592 11.5158 80.3669 13.1038 79.5377 13.9774C78.6225 14.9415 77.1094 15.309 75.9415 15.3728C77.1151 16.0988 77.9075 17.2907 78.2415 18.482C78.5755 19.6733 78.2516 21.9893 78.2516 21.9893C78.2516 21.9893 79.4935 20.3465 80.1145 19.5248C81.0382 18.3032 82.3437 17.1234 84.115 17.1649C82.8203 16.1835 82.1383 15.7674 81.7463 14.3591L81.7468 14.3595Z" fill="#B55759"/>
<path d="M9.5772 60.2729C8.93032 59.8668 7.94565 58.8147 7.61576 58.2266C7.61576 58.2266 7.57677 60.2082 7.45531 61.3723C7.32108 62.6571 6.28531 63.8749 5.33989 64.6525C6.81428 64.4549 8.2755 64.84 9.34868 65.5114C10.4219 66.1827 11.685 68.0965 11.685 68.0965C11.685 68.0965 11.645 66.106 11.6249 65.1104C11.5953 63.6301 11.9164 61.9418 13.442 60.8647C11.6957 60.9493 10.8427 61.0684 9.57656 60.273L9.5772 60.2729Z" fill="#AAC0B7"/>
</svg>
