<svg width="133" height="132" viewBox="0 0 133 132" fill="none" xmlns="http://www.w3.org/2000/svg">
<rect width="132" height="132" transform="translate(0.5)" fill="white"/>
<path d="M57.6544 58.0022C56.5933 57.5764 55.7381 56.8304 55.0257 55.945C52.4253 52.7139 52.4526 47.7369 52.8654 43.8207C52.9232 43.2718 52.9362 42.576 53.396 42.2046L53.8001 42.2569C53.0147 45.4804 53.6912 52.2358 55.4462 55.0869C56.0584 56.0812 57.2807 56.9208 57.6533 58.0022H57.6544Z" fill="#28748C"/>
<path d="M70.9023 58.644C71.3947 58.0047 74.0844 57.8849 75.6194 56.4332C78.9649 53.2685 78.7209 46.524 79.1425 42.2801C79.2024 41.68 79.3462 41.5569 79.8124 41.2008C80.4835 45.2194 80.2242 53.0964 77.9049 56.4398C77.0029 57.7412 75.6957 58.6996 74.1117 58.95C73.0757 59.1134 71.8839 59.0273 70.9023 58.644Z" fill="#28748C"/>
<path d="M61.3582 40.8152C60.0586 39.5072 59.479 37.4468 59.3418 35.6488C58.8744 29.5675 62.6818 21.5239 66.5557 17L66.8106 17.0109C65.8596 19.299 64.5578 21.4193 63.5806 23.6943C61.8245 27.7837 59.7623 34.9888 61.6001 39.3003C61.7123 39.5628 61.8626 39.7991 61.9988 40.0485C62.1371 40.3012 62.0925 40.201 62.0903 40.5342C61.9814 40.5494 61.8724 40.5603 61.7646 40.581C61.4585 40.6377 61.5543 40.5963 61.3582 40.8152Z" fill="#28748C"/>
<path d="M85.6079 60.4722L87.2638 59.9875C86.6014 66.7255 85.0403 75.6959 79.4311 80.2274C77.651 81.666 75.5572 82.2563 73.288 81.9982C72.581 81.9176 71.9088 81.7434 71.2345 81.5179C72.1768 80.7306 74.1399 80.6924 75.3175 80.2426C79.5247 78.6352 82.3964 70.9466 83.6002 67.0043C84.2353 64.9264 84.6383 62.6219 85.5262 60.6475C85.5523 60.5887 85.5807 60.5299 85.6079 60.4722Z" fill="#28748C"/>
<path d="M62.7809 42.0817L62.7656 41.0341C64.3202 41.2105 65.5185 41.791 67.1352 41.4065C68.3378 41.1201 69.3368 40.3654 69.9698 39.3069C72.0973 35.7424 70.0428 27.9089 68.8738 24.1376C68.3335 22.3962 67.4522 20.4316 67.1951 18.6336C67.133 18.1979 67.1613 18.1511 67.4282 17.8462C70.9164 22.4888 74.9428 30.698 74.0746 36.569C73.7565 38.7199 72.629 40.5494 70.8587 41.8117C69.6626 42.6644 68.4239 43.1087 67.0142 43.4801C67.0186 46.6688 67.2125 49.9936 66.9859 53.166C66.9696 53.1018 66.9489 53.0386 66.9369 52.9732C66.5229 50.8235 67.4086 44.8849 66.768 43.5367C66.3846 43.4539 66.1471 43.3701 65.7658 43.5095C65.598 44.4232 65.6797 45.4273 65.6852 46.3584C65.7004 49.2629 66.0948 53.2782 65.6307 56.0269C65.6547 53.9229 65.6351 51.8178 65.5719 49.7148C65.7723 47.6467 65.6013 45.4044 65.6002 43.3178C64.6045 42.9987 63.6916 42.5958 62.7831 42.0817H62.7809Z" fill="#28748C"/>
<path d="M65.6274 56.0272C66.0915 53.2785 65.6971 49.2632 65.6819 46.3587C65.6775 45.4276 65.5958 44.4235 65.7625 43.5098C66.1438 43.3704 66.3813 43.4531 66.7647 43.537C67.4053 44.8852 66.5196 50.8238 66.9336 52.9736C66.9467 53.0389 66.9663 53.1021 66.9826 53.1663L67.0011 54.6725L67.4064 54.3153C67.7234 55.1495 68.0077 56.0044 68.4511 56.7808C68.7997 57.1849 69.1374 57.6227 69.5111 58.0017C68.6984 58.9807 67.852 59.9456 67.1155 60.9835C67.097 64.2833 67.0175 67.595 67.1101 70.8927C67.1537 70.9526 67.2016 71.0092 67.2419 71.0713C67.5665 71.5657 67.4783 73.5042 67.4739 74.1467C67.4543 73.893 67.4108 73.8026 67.5241 73.5684C67.8171 72.9608 67.938 72.0394 68.3651 71.5591L68.6538 71.5984C67.7801 73.4421 67.2604 75.5058 67.9337 77.5097C68.3019 78.6031 68.9512 79.5026 69.7137 80.3543L70.948 81.4629C69.8673 83.0791 68.6396 84.5591 67.3454 86.0086C67.1068 91.2687 67.2473 96.6039 67.3672 101.868C66.841 101.838 66.2832 101.87 65.8126 101.608C65.4727 99.6314 65.7788 97.4816 65.635 95.4669L65.6187 95.2644C65.5534 92.3141 65.5926 89.3552 65.5904 86.4039C64.0544 84.8182 62.4965 83.2478 61.0215 81.6045C61.442 81.1286 62.1751 80.8454 62.7329 80.5557C63.5837 81.5958 64.6001 82.5095 65.5642 83.4439C65.4716 76.07 65.5708 68.683 65.5882 61.308C64.8463 60.4531 64.1687 59.5329 63.4726 58.6388L63.4345 58.5494C63.6447 58.1487 63.8332 58.0017 64.1883 57.7414C64.5903 58.2042 65.1111 58.5723 65.5893 58.9546L65.6274 56.0272Z" fill="#7B4A3A"/>
<path d="M67.4079 54.3136C67.7249 55.1478 68.0092 56.0027 68.4526 56.7792L66.9395 58.611L67.0015 54.6708L67.4068 54.3136H67.4079Z" fill="#FEF7FE"/>
<path d="M67.1094 70.8914C67.153 70.9513 67.2009 71.0079 67.2412 71.0699C67.5658 71.5644 67.4776 73.5029 67.4732 74.1454C67.4536 73.8917 67.4101 73.8013 67.5233 73.5671C67.8164 72.9595 67.9373 72.0381 68.3644 71.5578L68.653 71.5971C67.7794 73.4408 67.2597 75.5045 67.933 77.5084C68.3012 78.6018 68.9504 79.5013 69.713 80.3529C68.9319 81.3614 68.1454 82.3187 67.1617 83.1355C67.0364 79.0592 67.1954 74.9709 67.1105 70.8914H67.1094Z" fill="#FEF7FE"/>
<path d="M67.4077 54.314C67.3761 52.2383 67.8511 50.3858 69.0854 48.7043C70.958 46.1527 76.5237 40.8327 79.6372 40.3448C79.8616 40.616 79.7995 40.8589 79.8137 41.2008C79.3485 41.557 79.2036 41.6811 79.1437 42.2801C78.7221 46.5241 78.9661 53.2685 75.6206 56.4333C74.0857 57.885 71.396 58.0048 70.9036 58.644C70.4351 58.4731 69.9667 58.2117 69.5135 58.0004C69.1399 57.6214 68.8021 57.1836 68.4535 56.7796C68.0101 56.0031 67.7258 55.1482 67.4088 54.314H67.4077Z" fill="#28748C"/>
<path d="M53.8003 42.2572C57.8735 43.4954 61.9979 45.1323 64.0689 49.1334C64.5123 49.9894 64.923 51.0327 64.9949 51.9998L65.167 52.5018C65.1245 53.947 65.2422 56.6315 64.1865 57.7412C63.8314 58.0026 63.6429 58.1485 63.4327 58.5493L63.4708 58.6386C63.4283 58.6527 63.3858 58.668 63.3434 58.681C61.5785 59.1864 59.2734 58.8422 57.6546 58.0015C57.282 56.9201 56.0586 56.0793 55.4475 55.0861C53.6924 52.235 53.0148 45.4808 53.8014 42.2561L53.8003 42.2572Z" fill="#28748C"/>
<path d="M64.9953 51.9997L65.1674 52.5018C65.1249 53.9469 65.2426 56.6314 64.1869 57.7412C63.8318 58.0025 63.6433 58.1485 63.4331 58.5492L63.0921 58.4708C62.8328 58.0439 62.9287 57.7009 63.0322 57.2293C63.274 56.1305 64.1325 52.5508 64.9942 51.9987L64.9953 51.9997Z" fill="#28748C"/>
<path d="M66.8103 17.012C67.0173 17.2799 67.2656 17.5499 67.4269 17.8462C67.16 18.1511 67.1317 18.1968 67.1937 18.6335C67.4508 20.4315 68.3333 22.3962 68.8725 24.1376C70.0414 27.9089 72.0971 35.7424 69.9684 39.3068C69.3355 40.3654 68.3365 41.1201 67.1338 41.4065C65.5172 41.792 64.3188 41.2105 62.7643 41.034L62.7795 42.0817C62.2185 41.7136 61.8122 41.3074 61.3579 40.8152C61.554 40.5973 61.4581 40.6376 61.7642 40.581C61.8721 40.5614 61.9821 40.5505 62.09 40.5342C62.0921 40.2009 62.1368 40.3011 61.9984 40.0485C61.8623 39.7991 61.7119 39.5639 61.5997 39.3003C59.7619 34.9899 61.8241 27.7837 63.5802 23.6943C64.5574 21.4193 65.8592 19.2989 66.8103 17.0109V17.012Z" fill="#28748C"/>
<path d="M84.5314 60.858L85.6066 60.4725C85.5794 60.5313 85.551 60.589 85.5249 60.6479C84.6381 62.6223 84.234 64.9267 83.5989 67.0046C82.3951 70.9469 79.5235 78.6367 75.3162 80.243C74.1386 80.6928 72.1755 80.7309 71.2332 81.5183L70.9467 81.4616L69.7124 80.353C68.9509 79.5014 68.3006 78.6018 67.9324 77.5084C67.2591 75.5035 67.7788 73.4408 68.6524 71.5971C68.9836 71.156 69.3388 70.7433 69.7015 70.3284C71.864 67.1233 80.6815 62.1159 84.5314 60.858Z" fill="#28748C"/>
<path d="M69.7026 70.3281C71.865 67.123 80.6826 62.1156 84.5325 60.8577L84.9225 61.0734C84.7046 61.4818 84.4802 61.6909 84.088 61.9381C82.8156 62.7385 81.4288 63.2427 80.1019 63.9256C78.3273 64.8382 76.593 66.0013 74.9317 67.1099C72.9207 68.4516 71.1232 69.912 69.4019 71.6066L69.2244 71.611C69.3442 71.1492 69.5762 70.768 69.7037 70.3281H69.7026Z" fill="#28748C"/>
<path d="M44.6211 60.3679L46.1626 60.4518C51.6204 60.5912 57.0794 62.0059 60.9598 66.0495C62.4402 67.5926 63.766 69.4712 64.5101 71.4881C64.5645 71.6134 64.6147 71.7408 64.6637 71.8693C64.7116 71.9978 64.7563 72.1274 64.7977 72.257C64.8391 72.3877 64.8783 72.5184 64.9131 72.6512C64.948 72.7841 64.9807 72.917 65.009 73.0509C65.0373 73.1849 65.0635 73.3188 65.0864 73.4539C65.1092 73.5889 65.1278 73.724 65.1441 73.8601C65.1593 73.9962 65.1724 74.1323 65.1811 74.2696C65.1899 74.4057 65.1964 74.5429 65.1997 74.6801C65.2018 74.8174 65.2018 74.9535 65.1975 75.0907C65.1931 75.2279 65.1866 75.3641 65.1757 75.5013C65.1648 75.6374 65.1517 75.7735 65.1343 75.9097C65.1169 76.0458 65.0962 76.1808 65.0733 76.3159C65.0493 76.4509 65.0232 76.5849 64.9927 76.7188C64.9622 76.8528 64.9284 76.9856 64.8925 77.1174C64.8554 77.2492 64.8162 77.3799 64.7737 77.5106C64.7301 77.6401 64.6844 77.7698 64.6354 77.8972C64.2061 79.0058 63.62 79.7823 62.7333 80.5555C62.1766 80.8452 61.4424 81.1283 61.0219 81.6042L60.9598 81.5738C60.9042 81.5792 60.8476 81.5857 60.792 81.5901C57.6306 81.846 55.0117 81.0674 52.5943 79.0145C47.4023 74.6072 45.1876 66.9033 44.6222 60.3679H44.6211Z" fill="#28748C"/>
<path d="M61.2094 68.112C62.143 69.1292 63.313 70.8509 64.5114 71.4869C64.5658 71.6122 64.6159 71.7396 64.665 71.8681C64.7129 71.9966 64.7576 72.1262 64.799 72.2558C64.8403 72.3865 64.8796 72.5172 64.9144 72.65C64.9493 72.7829 64.982 72.9158 65.0103 73.0497C65.0386 73.1837 65.0648 73.3176 65.0876 73.4527C65.1105 73.5877 65.129 73.7227 65.1454 73.8589C65.1606 73.995 65.1737 74.1311 65.1824 74.2684C65.1911 74.4045 65.1977 74.5417 65.2009 74.6789C65.2031 74.8162 65.2031 74.9523 65.1987 75.0895C65.1944 75.2267 65.1879 75.3629 65.177 75.5001C65.1661 75.6362 65.153 75.7723 65.1356 75.9085C65.1181 76.0446 65.0974 76.1796 65.0746 76.3147C65.0506 76.4497 65.0244 76.5837 64.9939 76.7176C64.9634 76.8516 64.9297 76.9844 64.8937 77.1162C64.8567 77.248 64.8175 77.3787 64.775 77.5094C64.7314 77.6389 64.6857 77.7685 64.6366 77.896C64.2074 79.0046 63.6213 79.7811 62.7346 80.5543C62.1779 80.844 61.4436 81.1272 61.0231 81.6031L60.961 81.5726C60.693 81.4953 60.4022 81.4865 60.1244 81.4571L60.0939 81.2186C61.7846 78.532 61.4523 73.9035 61.2508 70.8411C61.1996 70.0712 60.9512 68.8231 61.2116 68.112H61.2094Z" fill="#28748C"/>
<path d="M88.8414 108.434C88.8414 115.671 79.0998 113.53 67.0828 113.53C55.0659 113.53 45.3242 115.671 45.3242 108.434C45.3242 101.197 55.0659 95.3309 67.0828 95.3309C79.0998 95.3309 88.8414 101.197 88.8414 108.434Z" fill="#AAC0B7"/>
<path d="M86.9834 108.597C89.2362 108.279 91.0337 107.614 93.0807 109.109C95.217 110.671 96.6909 113.265 97.2846 115.81C95.7018 116.163 93.5764 115.917 91.927 115.913H81.7794L36.5 115.901C37.0251 113.421 37.8018 111.037 39.937 109.443C42.0058 107.899 44.1933 108.077 46.5877 108.472C55.8345 110.996 67.8461 111.367 77.3717 110.254C78.3805 110.136 80.1028 110.176 80.9471 109.735C80.9928 109.711 81.0331 109.678 81.0756 109.648L81.1682 109.761C81.8502 110.028 85.9267 108.976 86.9354 108.808L86.9856 108.596L86.9834 108.597Z" fill="#28748C"/>
<path d="M86.9839 108.597C89.2368 108.279 91.0343 107.614 93.0812 109.109C95.2175 110.671 96.6915 113.265 97.2852 115.81C95.7557 115.516 93.8961 115.689 92.3317 115.697C89.5516 115.71 86.7573 115.674 83.9805 115.834C85.3673 114.667 87.5635 113.813 88.6594 112.433C88.9492 112.068 89.1017 111.656 89.0385 111.184C88.886 110.059 87.7628 109.427 86.9349 108.81L86.985 108.597H86.9839Z" fill="#28748C"/>
<path d="M103.118 27.5392C102.818 26.4603 102.775 24.2887 102.987 23.2737C102.987 23.2737 101.048 25.6557 99.8045 26.9661C98.4316 28.4122 96.162 28.9635 94.4101 29.0592C96.1705 30.1481 97.359 31.936 97.8601 33.723C98.3611 35.51 97.8753 38.984 97.8753 38.984C97.8753 38.984 99.7381 36.5197 100.67 35.2872C102.055 33.4548 104.013 31.685 106.67 31.7474C104.728 30.2753 103.705 29.6511 103.117 27.5387L103.118 27.5392Z" fill="#B55759"/>
<path d="M29.8619 72.4104C28.8916 71.8012 27.4146 70.2231 26.9197 69.3409C26.9197 69.3409 26.8612 72.3132 26.6791 74.0594C26.4777 75.9866 24.9241 77.8134 23.5059 78.9797C25.7175 78.6833 27.9093 79.2611 29.5191 80.268C31.1289 81.275 33.0236 84.1457 33.0236 84.1457C33.0236 84.1457 32.9635 81.1599 32.9334 79.6667C32.8891 77.4461 33.3707 74.9137 35.6592 73.2981C33.0397 73.425 31.7602 73.6036 29.8609 72.4105L29.8619 72.4104Z" fill="#DFB0A2"/>
<path d="M46.4846 51.6796C46.4846 51.6796 34.3205 51.1391 31.5135 39.341C31.5135 39.341 42.3408 39.2211 46.4846 51.6796Z" fill="#AAC0B7"/>
<path d="M83 87.9962C83 87.9962 95.1645 88.5295 99 77.0246C99 77.0246 88.2254 75.9512 83 87.9962Z" fill="#AAC0B7"/>
</svg>
