<svg width="88" height="88" viewBox="0 0 88 88" fill="none" xmlns="http://www.w3.org/2000/svg">
<path d="M58.1949 13.3336H29.666V47.4809H58.1949V13.3336Z" fill="#B67F6E"/>
<path d="M32.6232 16.4236L29.666 13.3336H58.1949L55.2366 16.4236H32.6232Z" fill="#654237"/>
<path d="M32.6232 44.3914L29.666 47.4814H58.1949L55.2366 44.3914H32.6232Z" fill="#654237"/>
<path d="M55.2391 16.4239H32.6245V44.3913H55.2391V16.4239Z" fill="#E3EBE8"/>
<path d="M55.2391 42.4816V44.3905H32.6245V43.7487C33.0342 42.3611 33.5064 40.9612 33.8145 40.5325C34.539 39.7745 35.3528 39.5948 36.6265 39.3883C36.8576 39.3425 37.0988 39.3079 37.3633 39.2655C37.5911 39.2219 37.8232 39.1762 38.0443 39.136C38.2173 39.0991 38.3836 39.0556 38.55 39.0255C38.5589 39.0132 38.5812 39.0132 38.5935 39.0132C38.9239 38.9239 39.241 38.8279 39.5368 38.7174C39.5491 38.7051 39.558 38.7051 39.5703 38.7051C39.6909 38.6615 39.8103 38.6068 39.9219 38.56C40.3595 38.3624 40.7793 38.1346 41.1611 37.8355C41.2627 37.7462 41.3486 37.6479 41.439 37.5363H41.4949C41.6824 37.5274 41.5261 37.5274 41.7784 37.5363C42.1948 37.5486 42.6268 37.5821 43.0555 37.6133C43.4228 37.6502 43.7889 37.6658 44.1595 37.6781C44.5268 37.6658 44.8963 37.6502 45.2636 37.6133C45.3373 37.6066 45.4087 37.6044 45.4824 37.5977H45.4891C45.8407 37.5698 46.1957 37.5452 46.5407 37.5363C46.7941 37.5274 46.6367 37.5274 46.8242 37.5363H46.88C46.9693 37.6468 47.0553 37.7462 47.158 37.8355C47.5409 38.1346 47.9595 38.3624 48.3971 38.56C48.4585 38.5879 48.5266 38.6158 48.5947 38.6437H48.598C48.6472 38.6682 48.6963 38.6872 48.7488 38.7051C48.761 38.7051 48.77 38.7051 48.78 38.7174C49.0792 38.8279 49.3962 38.9239 49.7267 39.0132C49.7389 39.0132 49.7601 39.0132 49.7702 39.0255C49.7858 39.0288 49.8037 39.0322 49.8193 39.0344C49.9678 39.0657 50.1185 39.1025 50.2759 39.136C50.498 39.1762 50.7291 39.2219 50.9569 39.2655C51.2225 39.309 51.4625 39.3425 51.6936 39.3883C52.9674 39.5948 53.7812 39.7734 54.5056 40.5325C54.6664 40.7055 54.9589 41.5249 55.2391 42.4816Z" fill="#DFB0A2"/>
<path d="M49.8175 39.0287V39.0354C49.6567 41.2211 48.8306 43.1367 47.6194 44.3915H40.7953C39.602 43.1859 38.7535 41.373 38.5068 39.2821C39.1632 39.0298 39.6723 38.8567 39.8487 38.8009C40.293 38.6681 41.0699 38.2059 41.4551 37.5372C41.6058 37.2816 41.6984 36.9981 41.6895 36.6866C41.6828 36.4767 41.6772 36.2579 41.6649 36.0324C41.656 35.8962 41.6493 35.7612 41.637 35.625V35.616C41.6247 35.4185 41.6091 35.2309 41.5935 35.0545C41.5901 35.03 41.5901 35.0143 41.5868 34.9898C41.5533 34.6136 41.5187 34.3178 41.4941 34.2039L42.203 34.1793L46.6248 34.0309C46.6058 34.1447 46.5812 34.4473 46.56 34.8324C46.5477 35.0143 46.5388 35.2175 46.5355 35.424C46.5355 35.424 46.5388 35.4274 46.5355 35.4274C46.5321 35.443 46.5321 35.4609 46.5321 35.4765C46.5198 35.846 46.5131 36.2345 46.5198 36.5772C46.5198 36.6297 46.5265 36.6855 46.5321 36.7346C46.5355 36.7659 46.541 36.796 46.5511 36.8273C46.5578 36.8708 46.5667 36.911 46.579 36.9501C46.5879 36.9902 46.6002 37.0304 46.6192 37.0706C46.6281 37.1019 46.6404 37.132 46.656 37.1599C46.6839 37.2314 46.7174 37.2961 46.7576 37.3609C46.7699 37.3854 46.7855 37.4066 46.8012 37.4323C46.8257 37.4658 46.8503 37.5038 46.8748 37.5372C46.8938 37.5618 46.9117 37.5864 46.9329 37.6109C46.9909 37.688 47.0557 37.7594 47.1271 37.8264C47.5558 38.2483 48.1106 38.5196 48.4555 38.61C48.4924 38.6167 48.5359 38.629 48.5917 38.6435H48.5951C48.8351 38.7116 49.2761 38.8445 49.8164 39.0287H49.8175Z" fill="#DFB0A2"/>
<path d="M47.1277 37.8265C44.031 37.5139 42.6323 36.7961 41.6644 36.0325C41.6577 35.8963 41.6488 35.759 41.6388 35.6239C41.6242 35.423 41.6097 35.231 41.5952 35.0535L42.2058 34.1783L46.6265 34.0287C46.6075 34.1415 46.583 34.444 46.5618 34.8314C46.5506 35.0289 46.5394 35.25 46.5327 35.4755C46.5205 35.8461 46.5138 36.2335 46.5216 36.5751C46.5327 37.0696 46.7895 37.4938 47.1266 37.8253L47.1277 37.8265Z" fill="#28748C"/>
<path d="M47.5736 21.4455C47.4976 19.3635 41.8993 19.0387 39.7972 21.0827C37.6952 23.1267 39.0136 23.5855 38.116 24.0253C37.2185 24.4652 35.9191 24.656 36.6447 27.0059C37.3703 29.3558 35.3073 28.3053 35.6701 30.1395C36.033 31.9736 37.4284 31.2669 37.7521 31.6677C38.077 32.0685 37.281 33.935 40.5038 34.0109C43.7267 34.0868 48.0056 33.8836 48.4778 33.5521C48.9489 33.2205 50.8723 32.2783 50.7194 30.6865C50.5664 29.0946 51.7765 30.2154 51.7643 28.6358C51.752 27.0562 50.2628 26.0615 50.5664 25.1204C50.8466 24.2542 51.1469 23.4928 50.4258 22.3051C49.7381 21.172 47.8404 21.1072 47.5724 21.4455H47.5736Z" fill="#28748C"/>
<path d="M43.9908 36.6088C46.6036 36.6088 48.7218 33.2502 48.7218 29.1071C48.7218 24.964 46.6036 21.6054 43.9908 21.6054C41.3779 21.6054 39.2598 24.964 39.2598 29.1071C39.2598 33.2502 41.3779 36.6088 43.9908 36.6088Z" fill="#DFB0A2"/>
<path d="M39.0896 31.8445C39.5539 31.8445 39.9302 31.1772 39.9302 30.3542C39.9302 29.5311 39.5539 28.8639 39.0896 28.8639C38.6254 28.8639 38.249 29.5311 38.249 30.3542C38.249 31.1772 38.6254 31.8445 39.0896 31.8445Z" fill="#DFB0A2"/>
<path d="M48.8499 31.8445C49.3141 31.8445 49.6905 31.1772 49.6905 30.3542C49.6905 29.5311 49.3141 28.8639 48.8499 28.8639C48.3856 28.8639 48.0093 29.5311 48.0093 30.3542C48.0093 31.1772 48.3856 31.8445 48.8499 31.8445Z" fill="#DFB0A2"/>
<path d="M46.7321 23.6798C47.4577 24.2335 47.2668 27.252 47.9165 27.367C48.5662 27.482 48.6421 28.9142 48.4892 29.5639C49.2338 29.3161 49.7305 29.0672 49.9024 28.7993C50.0744 28.5313 48.699 21.9026 46.731 23.6787L46.7321 23.6798Z" fill="#28748C"/>
<path d="M38.0016 28.5711C38.1367 28.9105 39.9116 29.9844 39.8737 29.7366C39.8357 29.4887 39.8179 28.0554 39.8737 27.9214C39.9295 27.7875 41.0961 27.2148 41.3629 26.2212C41.6308 25.2277 42.2414 26.0493 43.0441 26.0683C43.8467 26.0873 45.0121 25.4376 45.4129 24.482C45.8137 23.5264 46.3283 23.4673 46.5784 23.6224C46.834 23.5945 47.314 23.5019 47.0372 22.8778C46.0046 20.5514 41.5839 20.9354 39.4517 24.0243C38.0998 25.9835 37.8464 28.1893 37.9994 28.5711H38.0016Z" fill="#28748C"/>
<path opacity="0.23" d="M33.0962 38.4926V17.1361H54.427V21.9497L33.0962 38.4926Z" fill="#FDFDFD"/>
<path d="M85.2096 62.7025H2.59863V78.274H85.2096V62.7025Z" fill="#B67F6E"/>
<path d="M86.0379 78.2744H1.76812C1.71173 78.2744 1.66602 78.3201 1.66602 78.3765V80.1546C1.66602 80.211 1.71173 80.2567 1.76812 80.2567H86.0379C86.0943 80.2567 86.14 80.211 86.14 80.1546V78.3765C86.14 78.3201 86.0943 78.2744 86.0379 78.2744Z" fill="#F1ECE6"/>
<path d="M86.0367 60.7356H1.76935C1.71228 60.7356 1.66602 60.7819 1.66602 60.839V62.6146C1.66602 62.6717 1.71228 62.718 1.76935 62.718H86.0367C86.0937 62.718 86.14 62.6717 86.14 62.6146V60.839C86.14 60.7819 86.0937 60.7356 86.0367 60.7356Z" fill="#F1ECE6"/>
<path d="M18.7362 60.4982H18.4939H1.90332V60.7363H18.4939H18.7362H85.9018V60.4982H18.7362Z" fill="#654237"/>
<path d="M84.7597 58.7781C83.0639 58.4675 81.9605 58.2978 79.5649 56.0374C75.9908 52.6651 75.3019 52.6521 69.0683 52.6521H18.7356C12.502 52.6521 11.8131 52.6651 8.239 56.0374C5.84335 58.2978 4.73994 58.4675 3.04422 58.7781C1.98447 58.9719 1.71569 59.9867 1.67202 60.3871C1.66526 60.4474 1.71323 60.4978 1.77412 60.4978H86.0291C86.09 60.4978 86.138 60.4474 86.1312 60.3871C86.0876 59.9873 85.8188 58.9725 84.759 58.7781H84.7597Z" fill="#B67F6E"/>
<path d="M77.4801 71.408H10.3219C9.81628 71.408 9.40234 70.994 9.40234 70.4885C9.40234 69.9829 9.81628 69.5689 10.3219 69.5689H77.4807C77.9863 69.5689 78.4002 69.9829 78.4002 70.4885C78.4002 70.994 77.9863 71.408 77.4807 71.408H77.4801Z" fill="#F1ECE6"/>
<path d="M82.0435 76.4515H5.76271C4.9699 76.4515 4.32471 75.8069 4.32471 75.0135V65.9629C4.32471 65.1701 4.96929 64.5255 5.76271 64.5255H82.0435C82.8363 64.5255 83.4809 65.1701 83.4809 65.9629V75.0135C83.4809 75.8063 82.8363 76.4515 82.0435 76.4515ZM5.76271 65.0354C5.25099 65.0354 4.83459 65.4518 4.83459 65.9635V75.0141C4.83459 75.5258 5.25099 75.9422 5.76271 75.9422H82.0435C82.5552 75.9422 82.9716 75.5258 82.9716 75.0141V65.9635C82.9716 65.4518 82.5552 65.0354 82.0435 65.0354H5.76271Z" fill="#654237"/>
<path d="M12.9317 53.8499C11.5903 55.0523 10.2488 56.2548 8.90678 57.4572C8.71673 57.6276 8.52606 57.7986 8.33601 57.9689C8.11582 58.1664 8.44118 58.4899 8.66014 58.2931C10.0016 57.0906 11.343 55.8882 12.6851 54.6858C12.8751 54.5154 13.0658 54.3444 13.2559 54.174C13.476 53.9766 13.1507 53.6531 12.9317 53.8499Z" fill="#654237"/>
<path d="M74.713 54.1652C76.0599 55.3726 77.4069 56.5799 78.7539 57.7867C78.9452 57.9576 79.1358 58.1292 79.3271 58.3002C79.5461 58.4964 79.8715 58.1735 79.6513 57.9761C78.3043 56.7687 76.9573 55.5614 75.6103 54.3546C75.4191 54.1836 75.2284 54.012 75.0371 53.8411C74.8181 53.6449 74.4928 53.9678 74.713 54.1652Z" fill="#654237"/>
<path d="M79.4779 58.0503H11.2372C10.3269 58.0503 9.35818 57.9556 8.45096 58.0503C8.41222 58.0546 8.37039 58.0503 8.33103 58.0503C8.0358 58.0503 8.03518 58.5091 8.33103 58.5091H76.5718C77.482 58.5091 78.4508 58.6039 79.358 58.5091C79.3967 58.5048 79.4385 58.5091 79.4779 58.5091C79.7731 58.5091 79.7738 58.0503 79.4779 58.0503Z" fill="#654237"/>
<path d="M74.8181 53.7472H15.5259C14.7337 53.7472 13.88 53.6568 13.0915 53.7472C13.0576 53.7509 13.0207 53.7472 12.9863 53.7472C12.6911 53.7472 12.6905 54.206 12.9863 54.206H72.2785C73.0707 54.206 73.9244 54.2965 74.7129 54.206C74.7468 54.2024 74.7837 54.206 74.8181 54.206C75.1133 54.206 75.114 53.7472 74.8181 53.7472Z" fill="#654237"/>
<path d="M13.1655 69.4052H15.381C15.1214 69.1456 14.7548 68.8707 14.2443 68.8707C13.7683 68.8707 13.4109 69.1186 13.1661 69.4052H13.1655Z" fill="#B67F6E"/>
<path d="M42.8174 69.4052H45.0328C44.7733 69.1456 44.4067 68.8707 43.8962 68.8707C43.4201 68.8707 43.0628 69.1186 42.818 69.4052H42.8174Z" fill="#B67F6E"/>
<path d="M72.4526 69.4052H74.6675C74.4079 69.1456 74.0413 68.8707 73.5308 68.8707C73.0548 68.8707 72.6974 69.1186 72.4526 69.4052Z" fill="#B67F6E"/>
<path d="M72.7454 15.6925C72.545 14.9732 72.5168 13.5254 72.6577 12.8488C72.6577 12.8488 71.3655 14.4368 70.5363 15.3104C69.621 16.2745 68.1079 16.642 66.94 16.7058C68.1136 17.4318 68.906 18.6237 69.24 19.815C69.5741 21.0063 69.2502 23.3223 69.2502 23.3223C69.2502 23.3223 70.492 21.6795 71.113 20.8578C72.0368 19.6362 73.3423 18.4564 75.1135 18.4979C73.8188 17.5165 73.1368 17.1004 72.7448 15.6922L72.7454 15.6925Z" fill="#B55759"/>
<path d="M12.9078 36.2734C12.2609 35.8673 11.2762 34.8152 10.9463 34.2271C10.9463 34.2271 10.9073 36.2087 10.7859 37.3728C10.6516 38.6575 9.61588 39.8754 8.67045 40.653C10.1448 40.4554 11.6061 40.8405 12.6792 41.5119C13.7524 42.1832 15.0156 44.097 15.0156 44.097C15.0156 44.097 14.9755 42.1065 14.9555 41.1109C14.9259 39.6305 15.247 37.9423 16.7726 36.8652C15.0263 36.9498 14.1733 37.0689 12.9071 36.2735L12.9078 36.2734Z" fill="#AAC0B7"/>
</svg>
