<svg width="88" height="88" viewBox="0 0 88 88" fill="none" xmlns="http://www.w3.org/2000/svg">
<path d="M37.186 45.2357C34.0469 41.7288 30.3577 40.9896 26.6651 38.5897C22.9726 36.1899 25.3724 34.8972 28.6971 35.6363C31.0969 36.1899 33.3111 37.297 35.8966 37.297C34.9751 34.7115 26.8542 24.9299 28.6971 22.3478C30.7256 19.3944 38.4787 33.4221 41.0642 34.8972C43.8319 31.5759 40.325 23.6371 40.8786 19.5766C41.2465 16.9912 42.5392 14.5947 44.1998 17.5481C45.3069 19.9479 45.1213 24.562 45.1213 27.1441C45.1213 28.2512 44.5678 33.7901 46.2284 34.158C48.0747 34.5259 49.7353 28.9904 50.2889 27.8833C51.2104 26.037 52.5031 23.2692 54.535 22.3478C57.4884 20.8728 58.4099 23.087 57.4884 25.6691C55.0886 32.8686 47.8924 37.297 47.3355 45.418" fill="#E3EBE8"/>
<path d="M47.2061 44.1685C47.2061 41.0936 47.4524 37.7689 48.0668 34.8155C48.6811 35.0619 49.2987 35.1834 49.913 35.4298C49.1739 33.0908 49.0523 32.8444 50.281 30.6302C50.6489 30.1374 51.388 28.2911 51.8808 28.0447C52.7415 27.6768 53.6023 28.659 54.5878 28.9054C54.3414 27.9198 53.6023 27.0591 54.0951 26.1984C54.3414 25.3377 56.3092 24.3521 56.9235 23.6129C57.4163 24.2272 57.9091 24.72 58.5234 25.0913C58.5234 23.9842 57.9091 23.245 58.5234 22.3843C59.0162 21.77 61.1089 21.1523 61.9696 20.7844C63.8159 19.9237 65.9086 18.6917 67.9979 18.4453C67.7515 20.1667 67.0123 21.7666 66.7659 23.3665C66.0267 23.3665 65.166 23.3665 64.3053 23.6129C64.6733 24.4736 65.6588 25.0913 66.5195 25.5807C66.1516 26.9342 65.534 28.4092 64.6733 29.5197C63.5662 31.2411 63.6877 30.7517 61.7199 30.6268C61.9663 31.366 63.0734 31.9803 63.1949 32.7195C63.1949 33.3338 61.9629 34.6873 61.595 35.1801C60.2415 36.9015 59.6272 36.0408 57.5345 35.1801C58.0273 36.1657 58.888 37.0264 58.5201 37.8871C58.2737 38.6263 56.5523 39.3621 56.0595 40.1013C55.3203 39.6085 54.5845 39.1157 53.8453 38.7478C54.2132 39.487 54.706 40.2228 55.0773 40.962C53.1095 41.5763 50.1561 43.0547 49.049 44.7761" fill="#28748C"/>
<path d="M48.5169 43.3351C50.299 38.7852 52.9756 34.745 56.0843 30.9984C59.0039 27.4779 62.2037 23.917 65.8322 21.129C66.0448 20.967 65.8322 20.5991 65.6195 20.7645C61.802 23.701 58.4976 27.4307 55.4295 31.1334C52.4018 34.7855 49.8467 38.7987 48.1118 43.2237C48.0139 43.4769 48.419 43.5849 48.5169 43.3351Z" fill="#0E5267"/>
<path d="M52.0405 30.853C52.0675 32.4191 52.3814 33.9616 52.3477 35.5278C52.3477 35.6324 52.4455 35.7539 52.5569 35.737C54.0353 35.548 55.5947 35.6223 56.9684 34.9708C57.2148 34.8527 56.9988 34.4915 56.7558 34.6063C55.4563 35.224 53.9543 35.1362 52.5569 35.3151L52.7662 35.5244C52.7999 33.9582 52.4827 32.4123 52.459 30.8496C52.4557 30.5762 52.0338 30.5762 52.0371 30.8496L52.0405 30.853Z" fill="#0E5267"/>
<path d="M56.2211 26.5457C56.3156 27.6866 56.7342 28.7768 56.7139 29.9278C56.7139 30.0324 56.8118 30.1506 56.9232 30.1371C58.1012 30.0122 59.2893 29.9447 60.4234 29.5768C60.6799 29.4924 60.5719 29.084 60.312 29.1683C59.215 29.5261 58.064 29.5936 56.9232 29.7151L57.1325 29.9244C57.1527 28.7667 56.7375 27.6832 56.6397 26.5424C56.616 26.2723 56.1941 26.2723 56.2178 26.5424L56.2211 26.5457Z" fill="#0E5267"/>
<path d="M61.1538 22.5537C61.039 23.3907 61.0795 24.2278 61.0829 25.0716C61.0829 25.1898 61.1774 25.2775 61.2922 25.2809C62.1697 25.318 63.0068 25.0548 63.8776 24.9738C64.1443 24.9467 64.1477 24.5248 63.8776 24.5518C63.0102 24.6362 62.1697 24.8995 61.2922 24.859L61.5014 25.0683C61.4981 24.2649 61.4474 23.4616 61.5554 22.665C61.5926 22.3984 61.1842 22.2836 61.1504 22.5537H61.1538Z" fill="#0E5267"/>
<path d="M49.2196 37.3062C49.3479 38.0994 49.5099 38.8824 49.7732 39.6452C49.8137 39.7634 49.9116 39.8106 50.0331 39.7938C50.9005 39.6655 51.7579 39.4866 52.6186 39.301C52.8852 39.2436 52.7705 38.8385 52.5072 38.8926C51.6499 39.0748 50.7925 39.2537 49.9217 39.3853C50.0095 39.436 50.0938 39.4832 50.1816 39.5339C49.9183 38.7744 49.7563 37.988 49.628 37.1948C49.5842 36.9281 49.1791 37.0395 49.2196 37.3062Z" fill="#0E5267"/>
<path d="M42.2265 43.4496C42.3481 38.1606 43.0872 32.9896 42.1017 27.5756C40.9946 21.1794 36.6877 15.8869 30.6594 13.6727C29.4274 13.1799 28.1988 12.812 26.9668 12.9335C29.4274 14.4085 32.8668 16.2211 34.5882 18.8032C36.0632 21.2638 37.5484 23.0223 38.5306 25.7293C40.3769 30.6505 40.252 35.6966 40.3769 40.9857C40.3769 41.8464 40.4984 42.7071 40.4984 43.6927" fill="#AAC0B7"/>
<path d="M38.9047 43.4494C39.0262 39.021 37.1833 33.8534 35.2121 29.9144C33.7371 27.0859 30.5373 25.6075 28.1982 23.5149C26.1055 21.6686 24.3841 19.208 23.5234 16.501C23.7698 23.1469 25.7376 26.8361 31.1516 30.7751C35.2121 33.6036 36.4407 39.3889 37.0584 44.0637C37.0584 44.0637 37.1799 44.3101 37.1799 44.4316" fill="#AAC0B7"/>
<path d="M35.8614 44.77C35.3686 41.6951 34.5079 37.6346 32.5401 35.2955C28.9724 30.7422 22.2049 30.8671 19.373 25.4531C20.4801 27.2994 20.605 29.6351 21.9585 31.3599C23.5584 33.3277 26.2654 33.699 28.2332 35.0525C32.0473 37.7595 33.1544 40.9593 33.8936 45.2662" fill="#AAC0B7"/>
<path d="M43.1251 44.9726C43.5537 43.2883 43.3107 41.2766 43.2128 39.6362C43.0879 37.422 43.2128 35.0829 43.3343 32.8687C43.4558 30.6545 43.5807 28.1939 44.8093 26.3476C46.0379 24.2549 46.3316 23.4111 46.902 20.3193H46.2877C46.0413 21.9192 45.3021 23.2727 44.4414 24.6262C42.9664 27.2117 42.5951 29.0546 42.3487 32.1329C42.2272 34.472 42.2272 36.8077 42.2272 39.1468C42.2272 40.4665 41.6534 43.2309 41.9977 45.0029C42.3724 45.0063 42.7504 44.9962 43.1251 44.9759V44.9726Z" fill="#0E5267"/>
<path d="M45.7472 44.6177C45.7641 43.0718 45.9362 41.4956 46.2265 39.9767C46.5944 37.8536 46.9286 35.9938 48.2078 33.4961L47.7015 33.1484C45.5751 36.9288 44.657 41.0838 44.5625 44.7764C44.5625 44.7932 44.5625 44.8169 44.5625 44.8337C44.9608 44.7764 45.3557 44.7021 45.7472 44.6177Z" fill="#0E5267"/>
<path d="M39.4195 44.7454C39.4566 44.7623 39.4971 44.7724 39.5308 44.7893C39.9865 44.8636 40.4456 44.9142 40.908 44.948C40.8405 40.3508 39.2203 36.1452 37.7352 31.9463H37.1816C37.7352 34.5318 38.7512 37.0227 39.1191 39.6994C39.2271 40.6242 39.1123 43.0274 39.4161 44.7488L39.4195 44.7454Z" fill="#0E5267"/>
<path d="M36.9569 31.485C36.0794 31.3939 35.1106 30.8403 34.2803 30.5636C32.9876 30.1011 31.651 29.7805 30.4055 29.2708C29.3456 28.8084 28.144 28.4405 27.4521 27.3806C27.128 26.8743 27.0369 26.2736 27.4521 25.7639C27.9145 25.2103 28.6503 25.6255 28.9271 25.3487H29.0182C28.6503 24.0121 29.2477 22.7194 30.5877 22.3042C32.0189 21.889 32.7547 23.0434 33.3555 24.1944C34.5098 26.3174 35.1073 28.8084 36.3561 30.8842C36.4945 31.1137 36.5856 31.3905 36.7713 31.5762" fill="#DFB0A2"/>
<path d="M37.1828 31.6234C36.582 31.1171 35.7989 30.8842 35.1509 30.4691C34.1349 29.7771 33.2134 28.9468 32.3359 28.1637C31.4583 27.3807 30.4896 26.412 30.5368 25.1192C30.5841 23.4586 31.9679 23.6442 33.1223 23.7826C33.1223 22.9995 33.1223 21.9363 33.9526 21.5211C34.9213 21.0587 35.4276 22.0274 36.0757 22.4426C36.5381 21.4739 38.3371 20.6436 38.9379 21.8418C39.4915 22.8578 38.9852 24.4273 38.6612 25.4399C38.0604 27.3334 37.6925 29.5476 36.9533 31.3905" fill="#DFB0A2"/>
<path d="M37.1642 31.4411C37.0967 28.7881 37.8966 26.2499 38.3084 23.6543C38.3523 23.3877 37.9439 23.2729 37.9034 23.5429C37.4848 26.179 36.6747 28.751 36.7423 31.4445C36.749 31.7145 37.1709 31.7179 37.1642 31.4445V31.4411Z" fill="#B55759"/>
<path d="M36.632 31.441C36.1696 29.318 36.9999 26.7358 37.5535 24.7039C37.8302 23.5496 37.9686 22.2129 39.0285 21.5649C40.5507 20.5962 40.3651 21.98 40.7364 22.996C40.9659 23.5968 40.8748 23.32 41.5194 23.2728C42.1202 23.2255 42.7649 23.2728 43.0417 23.8736C43.4569 24.9334 42.2114 26.135 41.5667 26.7797C39.9499 28.3492 38.1981 29.5947 36.9527 31.4849" fill="#DFB0A2"/>
<path d="M37.2329 31.5787C37.1418 30.3333 37.4185 28.7637 37.5569 27.5183C37.6481 26.7352 38.0193 25.672 38.7113 25.2568C40.0479 24.3792 40.004 25.672 40.4192 26.455C41.1111 26.0871 42.1743 25.3007 43.0047 25.9015C44.0645 26.6407 42.7279 27.93 42.1271 28.487C40.6521 29.7325 38.6674 30.2421 37.2363 31.4404" fill="#DFB0A2"/>
<path d="M35.9752 28.9389C36.3397 29.4857 36.3127 30.1675 36.2283 30.7919C36.2013 31.0079 36.5389 31.0046 36.5659 30.7919C36.657 30.1101 36.6604 29.3642 36.2655 28.7701C36.1473 28.5879 35.8537 28.76 35.9752 28.9389Z" fill="#DFB0A2"/>
<path d="M34.1485 30.2923C34.4523 30.5015 34.7966 30.623 35.1172 30.7986C35.3062 30.9032 35.4784 30.6129 35.286 30.5083C34.9653 30.3294 34.6211 30.2079 34.3173 30.002C34.1384 29.8771 33.9696 30.1707 34.1485 30.2923Z" fill="#DFB0A2"/>
<path d="M38.0162 29.1789C37.0002 29.962 33.5405 30.61 33.0343 29.0878C32.1567 26.5495 35.4341 25.3513 37.1859 26.7352C37.7867 27.1976 38.293 28.2102 38.293 28.9021" fill="#F1ECE6"/>
<path d="M33.4014 28.8546V28.9019C33.4014 29.1989 33.8638 29.1989 33.8638 28.9019V28.8546C33.8638 28.5576 33.4014 28.5576 33.4014 28.8546Z" fill="#DFB0A2"/>
<path d="M33.6778 27.5186C33.3808 27.5186 33.3808 27.981 33.6778 27.981C33.9749 27.981 33.9749 27.5186 33.6778 27.5186Z" fill="#DFB0A2"/>
<path d="M36.17 28.2109C35.873 28.2109 35.873 28.6734 36.17 28.6734C36.4671 28.6734 36.4671 28.2109 36.17 28.2109Z" fill="#DFB0A2"/>
<path d="M35.4308 29.04C35.1338 29.04 35.1338 29.5025 35.4308 29.5025C35.7278 29.5025 35.7278 29.04 35.4308 29.04Z" fill="#DFB0A2"/>
<path d="M37.0011 28.9463C36.7041 28.9463 36.7041 29.4087 37.0011 29.4087C37.2981 29.4087 37.2981 28.9463 37.0011 28.9463Z" fill="#DFB0A2"/>
<path d="M37.9249 28.3477C37.6279 28.3477 37.6279 28.8101 37.9249 28.8101C38.2219 28.8101 38.2219 28.3477 37.9249 28.3477Z" fill="#DFB0A2"/>
<path d="M35.6632 28.3018C35.3662 28.3018 35.3662 28.7642 35.6632 28.7642C35.9602 28.7642 35.9602 28.3018 35.6632 28.3018Z" fill="#DFB0A2"/>
<path d="M36.3087 28.9941C36.0117 28.9941 36.0117 29.4566 36.3087 29.4566C36.6057 29.4566 36.6057 28.9941 36.3087 28.9941Z" fill="#DFB0A2"/>
<path d="M37.4152 28.3018C37.1181 28.3018 37.1181 28.7642 37.4152 28.7642C37.7122 28.7642 37.7122 28.3018 37.4152 28.3018Z" fill="#DFB0A2"/>
<path d="M33.2169 27.8857C32.9199 27.8857 32.9199 28.3482 33.2169 28.3482C33.5139 28.3482 33.5139 27.8857 33.2169 27.8857Z" fill="#DFB0A2"/>
<path d="M33.9073 29.3613C33.6103 29.3613 33.6103 29.8237 33.9073 29.8237C34.2044 29.8237 34.2044 29.3613 33.9073 29.3613Z" fill="#DFB0A2"/>
<path d="M33.539 30.5636C32.2935 30.6547 30.9097 30.5163 29.8937 29.7333C29.1545 29.1797 28.4626 28.1165 28.3714 27.195C28.1858 25.3015 29.6642 26.3175 30.4945 26.871C31.2776 25.1159 31.8311 25.9496 32.2024 27.3334C33.2184 27.1478 34.555 26.3647 34.555 28.0726C34.555 28.9502 34.0014 30.1484 33.2622 30.6108" fill="#DFB0A2"/>
<path d="M37.2766 31.5791C36.4935 31.6263 35.7071 31.4879 35.0152 31.255C34.3705 31.0694 31.785 29.9623 33.6785 29.5471C34.0464 29.456 34.8329 29.8239 35.0624 29.4999C35.2919 29.1759 35.0151 28.44 35.248 27.9776C35.6632 27.2857 35.94 27.6097 36.4935 27.9776C37.3711 28.5784 37.0471 28.116 37.8302 27.792C39.7237 27.0089 37.8774 31.0221 37.3239 31.5284" fill="#B55759"/>
<path d="M35.569 31.6066C36.1327 32.5146 37.1723 33.4394 37.9621 32.4943C38.2558 32.1399 38.492 31.1341 38.3503 30.6649C38.1579 29.9831 37.8642 30.621 37.5571 30.9181C37.4322 30.7898 37.0643 30.3071 36.8381 30.4253C36.6728 30.5265 36.8213 31.1577 36.7976 31.3197C36.5816 31.34 34.6779 30.6514 35.569 31.61" fill="#28748C"/>
<path d="M46.3271 19.7282C45.598 19.3974 44.9263 18.6413 44.2918 18.1654C43.3129 17.3959 42.2565 16.7343 41.3316 15.9377C40.5519 15.2357 39.6271 14.5741 39.3368 13.4603C39.2052 12.9303 39.2997 12.3869 39.8026 12.073C40.3595 11.7287 40.876 12.2991 41.1932 12.1405C41.2337 12.154 41.2742 12.1675 41.2742 12.1675C41.3418 10.9119 42.2295 9.97357 43.4986 10.0006C44.8487 10.0546 45.1525 11.2596 45.3347 12.424C45.7161 14.5809 45.5136 16.8963 45.9895 19.043C46.0435 19.2827 46.0435 19.5459 46.1482 19.7586" fill="#DFB0A2"/>
<path d="M46.4879 19.9146C46.1166 19.307 45.509 18.8817 45.0736 18.3383C44.3985 17.4506 43.845 16.4718 43.3151 15.5436C42.7851 14.6153 42.2316 13.5049 42.6434 12.4079C43.1632 10.9936 44.2973 11.5506 45.2525 11.9995C45.4786 11.3244 45.7824 10.4131 46.6161 10.295C47.5815 10.1768 47.7401 11.1557 48.1755 11.6991C48.8506 10.997 50.6361 10.8012 50.8082 12.0062C50.9905 13.0391 50.1062 14.2407 49.5358 15.0238C48.4759 16.4785 47.5207 18.2775 46.3562 19.6513" fill="#DFB0A2"/>
<path d="M46.5462 19.7462C47.2415 17.4409 48.676 15.4967 49.773 13.3837C49.8978 13.1441 49.5333 12.9281 49.4084 13.1711C48.2946 15.3212 46.8432 17.2957 46.1378 19.6348C46.0601 19.8947 46.4652 20.0061 46.5462 19.7462Z" fill="#B55759"/>
<path d="M46.0625 19.597C46.2751 17.6393 47.7333 15.6546 48.7931 14.0682C49.3635 13.1569 49.8665 12.0431 50.9668 11.7933C52.5566 11.3984 51.9963 12.5359 52.0233 13.5147C52.0503 14.0986 52.0503 13.832 52.6173 13.9805C53.1473 14.1121 53.6873 14.3383 53.7548 14.9357C53.8054 15.9685 52.3912 16.6402 51.6486 17.0115C49.8091 17.8958 47.9425 18.4629 46.3258 19.732" fill="#DFB0A2"/>
<path d="M46.5352 19.8874C46.8153 18.7904 47.5039 17.5213 47.9798 16.4884C48.2836 15.8404 48.908 15.0337 49.6236 14.875C51.0277 14.5071 50.6159 15.6041 50.7475 16.3973C51.4496 16.2792 52.5871 15.9079 53.1305 16.6639C53.8292 17.6056 52.3069 18.3313 51.6319 18.6351C50.0016 19.2832 48.1519 19.1482 46.5757 19.7692" fill="#DFB0A2"/>
<path d="M46.2062 17.2752C46.3547 17.8287 46.1455 18.3958 45.9025 18.8919C45.808 19.0877 46.0982 19.2565 46.1927 19.0607C46.4763 18.4801 46.7024 17.8321 46.5303 17.184C46.4729 16.9748 46.1489 17.0625 46.2062 17.2752Z" fill="#DFB0A2"/>
<path d="M44.2242 17.8818C44.4334 18.162 44.7035 18.3746 44.9397 18.6312C45.0882 18.7932 45.3245 18.5535 45.1794 18.3915C44.9667 18.1586 44.7102 17.9629 44.5178 17.7097C44.3895 17.5376 44.0959 17.7063 44.2275 17.8785L44.2242 17.8818Z" fill="#DFB0A2"/>
<path d="M47.9053 18.0503C46.8083 18.4318 43.6456 17.993 43.6456 16.5382C43.622 14.1046 46.7847 14.0135 47.8951 15.7079C48.2766 16.2783 48.4217 17.2977 48.2225 17.8917" fill="#F1ECE6"/>
<path d="M44.0311 16.4434L44.0176 16.4839C43.9332 16.7404 44.3281 16.8721 44.4159 16.6156L44.4294 16.5751C44.5138 16.3185 44.1189 16.1869 44.0311 16.4434Z" fill="#DFB0A2"/>
<path d="M44.6532 15.3731C44.3967 15.2887 44.265 15.6836 44.5215 15.7714C44.7781 15.8557 44.9097 15.4608 44.6532 15.3731Z" fill="#DFB0A2"/>
<path d="M46.5965 16.6866C46.34 16.6022 46.2084 16.9971 46.4649 17.0848C46.7214 17.1692 46.8531 16.7743 46.5965 16.6866Z" fill="#DFB0A2"/>
<path d="M45.7206 17.1866C45.464 17.1022 45.3324 17.4971 45.5889 17.5848C45.8455 17.6692 45.9771 17.2743 45.7206 17.1866Z" fill="#DFB0A2"/>
<path d="M47.0975 17.5616C46.841 17.4772 46.7094 17.8721 46.9659 17.9598C47.2224 18.0442 47.354 17.6493 47.0975 17.5616Z" fill="#DFB0A2"/>
<path d="M48.0643 17.3106C47.8078 17.2262 47.6762 17.6211 47.9327 17.7089C48.1892 17.7932 48.3208 17.3983 48.0643 17.3106Z" fill="#DFB0A2"/>
<path d="M46.1336 16.6192C45.8771 16.5348 45.7455 16.9297 46.002 17.0175C46.2585 17.1018 46.3902 16.7069 46.1336 16.6192Z" fill="#DFB0A2"/>
<path d="M46.4921 17.3994C46.2355 17.3151 46.1039 17.71 46.3604 17.7977C46.6169 17.8821 46.7486 17.4872 46.4921 17.3994Z" fill="#DFB0A2"/>
<path d="M47.6424 17.1221C47.3859 17.0377 47.2543 17.4326 47.5108 17.5204C47.7673 17.6048 47.899 17.2099 47.6424 17.1221Z" fill="#DFB0A2"/>
<path d="M44.1491 15.5596C43.8926 15.4752 43.7609 15.8701 44.0141 15.9579C44.2706 16.0423 44.4023 15.6474 44.1491 15.5596Z" fill="#DFB0A2"/>
<path d="M44.3202 17.0274C44.0636 16.943 43.932 17.3379 44.1885 17.4257C44.4451 17.51 44.5767 17.1151 44.3202 17.0274Z" fill="#DFB0A2"/>
<path d="M43.6553 17.9531C42.5583 17.6729 41.4074 17.1565 40.7593 16.1912C40.2834 15.5026 39.9931 14.3921 40.1788 13.5719C40.5635 11.891 41.5424 13.1905 42.0959 13.9061C43.2739 12.6235 43.5135 13.4977 43.4325 14.7938C44.3574 14.9288 45.7345 14.6385 45.2451 16.1068C44.9919 16.8595 44.1717 17.7337 43.4022 17.9193" fill="#DFB0A2"/>
<path d="M46.579 19.8997C45.8904 19.7141 45.2558 19.3698 44.7259 18.9715C44.223 18.6272 42.3193 16.9328 44.0677 17.1184C44.412 17.1454 44.9791 17.6889 45.2727 17.4762C45.563 17.267 45.5394 16.5514 45.8701 16.2206C46.4271 15.7447 46.5722 16.1025 46.9401 16.5784C47.5207 17.348 47.3755 16.8586 48.1451 16.8045C49.9981 16.6729 47.254 19.5959 46.633 19.8727" fill="#B55759"/>
<path d="M45.1023 19.4342C45.325 20.3793 45.9562 21.4729 46.9047 20.8855C47.2591 20.6662 47.7519 19.8696 47.7654 19.4207C47.7958 18.7794 47.3603 19.2452 47.0093 19.4072C46.9384 19.262 46.7595 18.7422 46.5334 18.776C46.3613 18.8165 46.3106 19.4004 46.2397 19.5354C46.0474 19.4915 44.6095 18.3507 45.1023 19.4342Z" fill="#28748C"/>
<path d="M48.0166 33.3298C47.5609 32.6717 47.3719 31.6793 47.0715 30.9435C46.6259 29.7824 46.0589 28.6719 45.6707 27.5142C45.3602 26.5117 44.9045 25.4688 45.2286 24.365C45.3872 23.8419 45.745 23.4267 46.339 23.4098C46.9938 23.3997 47.1424 24.1524 47.4968 24.1794C47.5238 24.2098 47.5508 24.2435 47.5508 24.2435C48.2528 23.1972 49.4949 22.8495 50.5717 23.5246C51.7024 24.2638 51.3446 25.4519 50.9058 26.5455C50.1261 28.5943 48.7659 30.4777 48.0739 32.5637C47.9963 32.7966 47.8613 33.0227 47.8444 33.259" fill="#DFB0A2"/>
<path d="M48.056 33.5737C48.0493 32.8615 47.7455 32.1865 47.651 31.4945C47.5261 30.3874 47.5531 29.2601 47.5767 28.1935C47.597 27.1269 47.6915 25.8882 48.6096 25.1557C49.7808 24.2073 50.4693 25.2671 51.0567 26.1413C51.5967 25.6789 52.3258 25.0511 53.1021 25.3751C53.9932 25.77 53.6253 26.6915 53.7198 27.38C54.6581 27.1269 56.2951 27.8728 55.8226 28.9934C55.4513 29.9757 54.0708 30.5528 53.1831 30.9309C51.5258 31.6363 49.7842 32.6894 48.0796 33.2733" fill="#DFB0A2"/>
<path d="M48.1949 33.4521C49.9703 31.8286 52.2047 30.897 54.2299 29.6447C54.4594 29.503 54.2501 29.1384 54.0172 29.2802C51.9583 30.5561 49.7002 31.5045 47.8944 33.1551C47.6919 33.3407 47.9923 33.6377 48.1915 33.4521H48.1949Z" fill="#B55759"/>
<path d="M47.8564 33.084C49.0446 31.5111 51.3128 30.5559 53.0375 29.7391C53.9961 29.2463 54.9986 28.5509 56.0686 28.902C57.6347 29.3779 56.5749 30.0665 56.0922 30.9204C55.8154 31.4335 55.9504 31.2073 56.3656 31.6225C56.7504 32.0073 57.1014 32.4798 56.8516 33.0266C56.3656 33.9379 54.8062 33.7894 53.9792 33.7287C51.9439 33.543 50.0538 33.0739 48.0151 33.3338" fill="#DFB0A2"/>
<path d="M48.1133 33.5757C48.9166 32.7757 50.1587 32.0399 51.097 31.3986C51.6911 31.0003 52.6396 30.6257 53.3349 30.8552C54.7289 31.2569 53.8108 31.9893 53.5171 32.7386C54.1787 32.9951 55.3465 33.2618 55.4242 34.19C55.5423 35.3545 53.8648 35.1992 53.129 35.1148C51.4008 34.8347 49.8786 33.7681 48.2078 33.4947" fill="#DFB0A2"/>
<path d="M49.1706 31.1596C49.022 31.7132 48.5394 32.0946 48.0803 32.395C47.8981 32.5131 48.0668 32.8068 48.2491 32.6853C48.7858 32.3376 49.3224 31.8887 49.498 31.2508C49.5553 31.0415 49.2279 30.9504 49.1739 31.1596H49.1706Z" fill="#DFB0A2"/>
<path d="M47.1579 30.6666C47.195 31.0143 47.3165 31.3383 47.3874 31.6792C47.4313 31.8918 47.7553 31.8007 47.7114 31.5881C47.6473 31.2775 47.5292 30.9805 47.492 30.6666C47.4684 30.454 47.1309 30.4506 47.1545 30.6666H47.1579Z" fill="#DFB0A2"/>
<path d="M50.2306 32.6993C49.0897 32.4631 46.6021 30.4649 47.3481 29.216C48.5767 27.1132 51.3377 28.6591 51.4221 30.6843C51.4592 31.3695 51.0609 32.3179 50.585 32.7263" fill="#F1ECE6"/>
<path d="M47.7255 29.3345L47.6952 29.3615C47.4893 29.537 47.7627 29.8543 47.9686 29.6788L47.9989 29.6518C48.2048 29.4762 47.9314 29.159 47.7255 29.3345Z" fill="#DFB0A2"/>
<path d="M48.808 28.7338C48.6325 28.5313 48.3152 28.8013 48.4907 29.0072C48.6662 29.2131 48.9835 28.9397 48.808 28.7338Z" fill="#DFB0A2"/>
<path d="M49.8061 30.8563C49.6305 30.6504 49.3133 30.9238 49.4888 31.1297C49.6643 31.3356 49.9816 31.0622 49.8061 30.8563Z" fill="#DFB0A2"/>
<path d="M48.7982 30.8397C48.6227 30.6338 48.3055 30.9072 48.481 31.1131C48.6565 31.319 48.9738 31.0456 48.7982 30.8397Z" fill="#DFB0A2"/>
<path d="M49.7885 31.8622C49.613 31.6563 49.2957 31.9297 49.4712 32.1356C49.6467 32.3415 49.964 32.0681 49.7885 31.8622Z" fill="#DFB0A2"/>
<path d="M50.7465 32.1454C50.571 31.9395 50.2537 32.2129 50.4292 32.4188C50.6047 32.6247 50.922 32.3513 50.7465 32.1454Z" fill="#DFB0A2"/>
<path d="M49.4447 30.5633C49.2692 30.3574 48.9519 30.6308 49.1275 30.8367C49.303 31.0426 49.6202 30.7692 49.4447 30.5633Z" fill="#DFB0A2"/>
<path d="M49.3451 31.4168C49.1696 31.211 48.8523 31.4844 49.0278 31.6902C49.2034 31.8961 49.5206 31.6227 49.3451 31.4168Z" fill="#DFB0A2"/>
<path d="M50.4779 31.7674C50.3024 31.5615 49.9851 31.8349 50.1607 32.0408C50.3362 32.2467 50.6534 31.9733 50.4779 31.7674Z" fill="#DFB0A2"/>
<path d="M48.2826 28.6317C48.1071 28.4258 47.7898 28.6992 47.9653 28.9051C48.1409 29.111 48.4581 28.8376 48.2826 28.6317Z" fill="#DFB0A2"/>
<path d="M47.6762 29.9823C47.5007 29.7764 47.1834 30.0498 47.3589 30.2557C47.5344 30.4616 47.8517 30.1882 47.6762 29.9823Z" fill="#DFB0A2"/>
<path d="M46.6299 30.4386C45.83 29.6353 45.1077 28.6024 45.0469 27.4413C44.9929 26.6076 45.3135 25.5039 45.8941 24.8963C47.0856 23.6509 47.2611 25.2676 47.3691 26.1655C49.0399 25.6693 48.7935 26.5401 48.061 27.6135C48.7867 28.2041 50.1166 28.6598 48.942 29.669C48.3378 30.1854 47.1868 30.5162 46.4308 30.2799" fill="#DFB0A2"/>
<path d="M48.1386 33.6072C47.6424 33.0942 47.2745 32.4731 47.0248 31.8622C46.7716 31.3086 46.0054 28.8784 47.4095 29.9315C47.6897 30.1306 47.899 30.8867 48.2601 30.8563C48.6179 30.826 48.9622 30.1981 49.4178 30.0834C50.1402 29.9585 50.0794 30.3433 50.1537 30.9407C50.2583 31.8993 50.3866 31.4031 51.0717 31.7542C52.729 32.5912 48.8778 33.695 48.1994 33.614" fill="#B55759"/>
<path d="M47.1132 32.4495C46.8196 33.3744 46.7993 34.6367 47.9165 34.6199C48.3351 34.6131 49.1654 34.1811 49.405 33.803C49.7595 33.2664 49.1485 33.4453 48.7637 33.4048C48.7772 33.2427 48.892 32.7061 48.6794 32.6183C48.5106 32.5643 48.1663 33.0402 48.0381 33.1179C47.8963 32.9795 47.2448 31.2648 47.1132 32.4462" fill="#28748C"/>
<path d="M33.1242 45.789C31.6492 42.8356 30.1708 42.0964 34.7848 42.6534C38.4774 43.0213 42.5379 43.7605 46.2271 43.3926C47.7021 43.2069 50.2876 42.0998 51.5803 42.4711C54.5337 43.2103 52.3195 44.3174 51.3947 46.346C49.5484 50.4064 52.1339 54.4669 53.7945 58.1595C57.6694 66.2805 56.1944 76.43 45.6735 78.0907C36.999 79.3834 28.878 76.2444 28.6924 66.4628C28.6924 62.2166 30.1674 58.7097 31.828 54.8348C32.7495 52.435 35.335 48.0066 33.1208 45.7924" fill="#B55759"/>
<path d="M54.7808 60.6064C53.7176 65.8483 50.7811 70.7695 45.7789 72.8453C40.0645 75.2148 33.9181 73.0883 29.0576 69.5341C30.7351 76.8923 37.9853 79.2347 45.6742 78.0871C55.1555 76.5885 57.2887 68.1941 54.7808 60.6064Z" fill="#B55759"/>
<path d="M20.7189 51.5126L18.2222 50.8653L17.031 53.1553L16.8787 50.5824L14.333 50.1582L16.7373 49.2117L16.351 46.666L17.9883 48.6569L20.2947 47.5037L18.9076 49.674L20.7189 51.5126Z" fill="#DFB0A2"/>
<path d="M67.3859 11.5136L64.8892 10.8663L63.698 13.1563L63.5457 10.5834L61 10.1591L63.4042 9.21267L63.018 6.66699L64.6553 8.65784L66.9616 7.50467L65.5746 9.67501L67.3859 11.5136Z" fill="#DFB0A2"/>
<path d="M13 22.0432C13 22.8047 13.6147 23.4194 14.3762 23.4194C15.1377 23.4194 15.7524 22.8047 15.7524 22.0432C15.7524 21.2817 15.1377 20.667 14.3762 20.667C13.6147 20.667 13 21.2817 13 22.0432Z" fill="#B55759"/>
<path d="M65.667 48.0422C65.667 48.8037 66.2817 49.4184 67.0432 49.4184C67.8047 49.4184 68.4194 48.8037 68.4194 48.0422C68.4194 47.2807 67.8047 46.666 67.0432 46.666C66.2817 46.666 65.667 47.2807 65.667 48.0422Z" fill="#B55759"/>
</svg>
