<svg width="88" height="88" viewBox="0 0 88 88" fill="none" xmlns="http://www.w3.org/2000/svg">
<rect x="8.33398" y="8" width="72" height="72" fill="#B67F6E"/>
<rect x="13" y="12.667" width="62.6667" height="62.6667" fill="#654237"/>
<path d="M31.401 35.46C29.8221 35.46 28.2813 36.7418 27.9674 38.3032C27.9674 38.3032 27.625 39.9995 27.625 42.2356C27.625 48.6835 33.6171 72.5282 33.6171 72.5282C34.0071 74.0703 35.6145 75.3329 37.1839 75.3329H48.7782C50.3475 75.3329 51.9549 74.0703 52.3449 72.5282C52.3449 72.5282 58.1754 49.3871 58.1754 42.9873C58.1754 40.5393 57.6998 38.2936 57.6998 38.2936C57.3669 36.7322 55.807 35.46 54.2377 35.46H31.42H31.401Z" fill="#AAC0B7"/>
<path d="M51.603 30.333H34.1783L33.3223 35.4605H52.459L51.603 30.333Z" fill="#0E5267"/>
<path d="M33.4159 28.1543H52.3624C52.8095 28.1543 53.1709 28.5205 53.1709 28.9735V29.5036C53.1709 29.9566 52.8095 30.3229 52.3624 30.3229H33.4159C32.9689 30.3229 32.6074 29.9566 32.6074 29.5036V28.9735C32.6074 28.5205 32.9689 28.1543 33.4159 28.1543Z" fill="#28748C"/>
<path d="M33.5031 28.2514C33.0561 28.2514 33.0371 28.1261 33.4556 27.9719L42.1299 24.7817C42.5484 24.6275 43.2332 24.6275 43.6517 24.7817L52.326 27.9719C52.7445 28.1261 52.7255 28.2514 52.2785 28.2514H33.4936H33.5031Z" fill="#AAC0B7"/>
<path d="M61.4913 73.5586H50.2031V75.1927H61.4913V73.5586Z" fill="#F1ECE6"/>
<path d="M59.39 57.3711H57.4334H52.1172V73.8264H59.4007V71.9527H59.39V57.3711Z" fill="#F1ECE6"/>
<path d="M58.4368 53.9282C58.4368 55.4316 57.2381 56.6463 55.7545 56.6463C54.271 56.6463 53.0723 55.4316 53.0723 53.9282C53.0723 49.7504 56.0932 46.4713 56.6522 46.9071C56.7436 46.9779 56.7651 47.1468 56.706 47.4246C55.733 51.7059 58.4422 52.4249 58.4422 53.9282H58.4368Z" fill="#DFB0A2"/>
<path d="M59.4042 56.7337C60.1944 56.6302 60.2589 59.7622 59.3021 59.4517C58.9097 59.3264 58.4206 58.8035 57.9959 59.0541C57.6465 59.2611 57.5659 59.5879 57.4853 59.9692C57.3294 60.6827 57.3455 61.6251 56.8402 62.2079C56.2651 62.8779 55.448 62.5456 55.1416 61.783C54.8729 61.1076 54.9481 60.2905 54.6847 59.5824C54.5503 59.2284 54.3192 58.9833 53.9591 58.8689C53.4538 58.7109 53.3301 58.9125 53.0076 59.2829C52.5077 59.8602 51.7982 59.8003 51.5563 58.9397C51.4542 58.5856 51.4165 56.6411 51.9433 56.7337C53.658 57.0441 58.2701 56.8807 59.3989 56.7337H59.4042Z" fill="#B67F6E"/>
<path d="M57.4924 53.1437C57.4924 54.2494 56.6108 55.1427 55.5196 55.1427C54.4284 55.1427 53.5469 54.2494 53.5469 53.1437C53.5469 50.0716 55.7723 47.6586 56.1808 47.9799C56.2453 48.0344 56.2668 48.1542 56.2184 48.3612C55.5035 51.5096 57.4924 52.0379 57.4924 53.1437Z" fill="#B55759"/>
</svg>
