<svg width="88" height="88" viewBox="0 0 88 88" fill="none" xmlns="http://www.w3.org/2000/svg">
<path d="M44.7931 7.57538C49.4563 6.9246 52.9572 7.50055 56.7734 10.4019C59.9697 12.8315 61.8004 16.4206 62.3047 20.3687C62.3262 20.5385 62.3367 20.7044 62.342 20.8751C64.9064 21.0699 67.223 22.1027 68.9258 24.0708C69.9001 25.1965 70.4778 26.4468 70.976 27.8349C74.0218 27.0108 77.0157 26.9313 79.8247 28.5468C79.9549 28.6228 80.0833 28.7017 80.2094 28.7838C80.3358 28.8659 80.4601 28.951 80.5821 29.0392C80.7044 29.1274 80.8241 29.2185 80.942 29.3126C81.0596 29.4067 81.1749 29.5036 81.2879 29.6032C81.4009 29.7028 81.5113 29.8053 81.6193 29.9104C81.7273 30.0155 81.8324 30.1233 81.9352 30.2333C82.038 30.3437 82.1379 30.4561 82.2351 30.5714C82.3324 30.6864 82.4267 30.804 82.5182 30.9237C82.6096 31.0434 82.6981 31.1654 82.7837 31.2894C82.869 31.4135 82.9514 31.5396 83.0309 31.6674C83.1104 31.7955 83.1864 31.9254 83.2595 32.0573C83.3326 32.1892 83.4022 32.3225 83.4686 32.4579C83.535 32.593 83.5981 32.7299 83.6581 32.8682C83.7178 33.0065 83.7743 33.1463 83.8273 33.2872C83.8803 33.4281 83.9298 33.5705 83.9758 33.7138C84.0218 33.8574 84.0643 34.0018 84.1033 34.1474C84.1447 34.2997 84.1823 34.4528 84.216 34.6071C84.2498 34.7612 84.2795 34.9161 84.3057 35.0719C84.3316 35.2274 84.354 35.3837 84.3724 35.5404C84.3907 35.697 84.4053 35.8543 84.4158 36.0115C84.4263 36.169 84.433 36.3266 84.4359 36.4844C84.4385 36.6422 84.4373 36.7997 84.4324 36.9576C84.4274 37.1154 84.4184 37.2729 84.4059 37.4301C84.3931 37.5874 84.3762 37.7443 84.3558 37.9007C84.3351 38.057 84.311 38.2128 84.2827 38.368C84.2545 38.5232 84.2224 38.6776 84.1866 38.8313C84.1508 38.985 84.1109 39.1376 84.0675 39.2893C84.0241 39.441 83.977 39.5913 83.926 39.7407C83.8751 39.89 83.8206 40.038 83.7624 40.1847C83.7041 40.3315 83.6424 40.4765 83.5769 40.62C83.5114 40.7636 83.4427 40.9057 83.3702 41.0457C83.2979 41.1858 83.2219 41.3241 83.1427 41.4607C81.9568 43.505 80.1206 45.0099 77.8229 45.6138C74.8811 46.3874 69.6372 46.0919 66.4229 46.0849L51.7392 46.0587C52.542 45.5191 53.5026 45.1849 54.3272 44.6575C56.4071 43.3271 57.8019 41.283 58.3248 38.8671C58.8268 36.5461 58.4594 33.9351 57.1587 31.9283C55.4675 29.3193 52.8966 27.8806 49.9167 27.2522C49.9872 27.0073 50.0428 26.7587 50.083 26.5071C50.4411 24.3241 49.6913 21.8001 48.4145 20.0269C46.9612 18.0084 44.5534 16.5146 42.0918 16.1332C39.8244 15.782 36.4409 16.3166 34.5654 17.6968C34.384 17.8302 34.1993 17.9368 33.999 18.0398L33.8223 17.9825C34.0602 17.5856 34.1897 17.0772 34.3595 16.6428C34.7098 15.7456 35.0767 14.8427 35.5659 14.0111C37.6033 10.546 40.9844 8.54647 44.7942 7.57626L44.7931 7.57538Z" fill="#84A5CB"/>
<path d="M24.0041 15.0036C26.6105 14.3679 29.2538 14.736 31.5614 16.1237C31.9793 16.3797 32.3773 16.6633 32.7559 16.9743C33.1344 17.2855 33.4893 17.6216 33.8207 17.9823L33.9974 18.0397C34.1978 17.9366 34.3821 17.8301 34.5638 17.6967C36.4393 16.3168 39.8228 15.7819 42.0902 16.1331C44.5516 16.5145 46.9597 18.008 48.4129 20.0267C49.6898 21.8 50.4395 24.3243 50.0814 26.5069C50.0409 26.7588 49.9856 27.0072 49.9151 27.2521C52.8951 27.8804 55.4656 29.3195 57.1571 31.9281C58.4578 33.9347 58.8256 36.5457 58.3233 38.867C57.8006 41.2829 56.4056 43.327 54.3256 44.6574C53.501 45.1847 52.5407 45.5187 51.7376 46.0586C50.5147 46.2697 49.0928 46.1325 47.8472 46.1229L41.4968 46.1133L21.4909 46.1581L16.4163 46.1602C14.7667 46.1596 12.9888 46.2749 11.3768 45.885C8.98299 45.3056 6.64539 43.4199 5.39768 41.3254C5.31499 41.1889 5.23549 41.0505 5.15978 40.9102C5.08379 40.7698 5.01128 40.6278 4.94256 40.4836C4.87385 40.3395 4.80862 40.1939 4.74689 40.0469C4.68516 39.8995 4.62722 39.751 4.57306 39.6008C4.5189 39.4505 4.46852 39.2991 4.42164 39.1465C4.37476 38.9939 4.33196 38.8402 4.29295 38.6856C4.25393 38.5307 4.21869 38.3752 4.18724 38.2188C4.15609 38.0622 4.12842 37.9052 4.10513 37.7471C4.08154 37.5893 4.06203 37.4309 4.04631 37.2722C4.03059 37.1132 4.01894 36.9542 4.01137 36.7949C4.00351 36.6354 3.99972 36.4758 4.00002 36.3162C4.00002 36.1567 4.00438 35.9971 4.01253 35.8375C4.02069 35.6783 4.03292 35.519 4.04864 35.3603C4.06466 35.2016 4.08475 35.0432 4.10863 34.8854C4.1325 34.7276 4.16045 34.5706 4.19219 34.4142C4.22393 34.2579 4.25946 34.1024 4.29877 33.9475C4.90064 31.5953 6.44331 29.4665 8.54563 28.2438C11.1884 26.7067 13.5778 26.7591 16.4596 27.5258C16.3839 26.2574 16.2509 24.906 16.4541 23.6473C16.5517 23.0428 17.3017 21.1644 17.2202 20.7564L16.8137 20.6496C17.0484 20.6484 17.2522 20.6976 17.4412 20.5316C17.8649 20.1598 18.1144 19.4141 18.4222 18.94C18.8709 18.2488 19.5462 17.5837 20.1675 17.0439C21.3046 16.0556 22.5805 15.4552 24.0044 15.0033L24.0041 15.0036Z" fill="#D1E1EC"/>
<path d="M25.666 73.6592L26.9223 72.2646L25.7912 70.7743L27.5569 71.4945L28.6793 70L28.5109 71.84L30.3327 72.4062L28.4677 72.8225L28.4721 74.6667L27.4835 73.0847L25.666 73.6592Z" fill="#AAC0B7"/>
<path d="M67 56.182L68.2562 54.5882L67.1252 52.8849L68.8908 53.708L70.0133 52L69.8449 54.1029L71.6667 54.7499L69.8017 55.2257L69.806 57.3333L68.8174 55.5254L67 56.182Z" fill="#AAC0B7"/>
<path d="M29 59.6592L30.2562 58.2646L29.1252 56.7743L30.8908 57.4945L32.0133 56L31.8449 57.84L33.6667 58.4062L31.8017 58.8225L31.806 60.6667L30.8174 59.0847L29 59.6592Z" fill="#28748C"/>
<path d="M78.334 51.515L79.5902 49.9212L78.4592 48.2179L80.2248 49.041L81.3472 47.333L81.1789 49.4359L83.0007 50.0829L81.1357 50.5587L81.14 52.6663L80.1514 50.8584L78.334 51.515Z" fill="#28748C"/>
<path d="M53.666 78.9922L54.9223 77.5977L53.7912 76.1073L55.5569 76.8275L56.6793 75.333L56.5109 77.173L58.3327 77.7392L56.4677 78.1555L56.4721 79.9997L55.4835 78.4178L53.666 78.9922Z" fill="#AAC0B7"/>
<path d="M45 44.9922L46.2562 43.5977L45.1252 42.1073L46.8908 42.8275L48.0133 41.333L47.8449 43.173L49.6667 43.7392L47.8017 44.1555L47.806 45.9997L46.8174 44.4178L45 44.9922Z" fill="#AAC0B7"/>
<path d="M45.666 64.3262L46.9223 62.9316L45.7912 61.4413L47.5569 62.1615L48.6793 60.667L48.5109 62.507L50.3327 63.0732L48.4677 63.4895L48.4721 65.3337L47.4835 63.7517L45.666 64.3262Z" fill="#AAC0B7"/>
<path d="M4.33398 62.3262L5.59023 60.9316L4.45918 59.4413L6.22483 60.1615L7.34725 58.667L7.17888 60.507L9.00065 61.0732L7.13571 61.4895L7.14003 63.3337L6.15143 61.7517L4.33398 62.3262Z" fill="#28748C"/>
<path d="M13.666 51.515L14.9223 49.9212L13.7912 48.2179L15.5569 49.041L16.6793 47.333L16.5109 49.4359L18.3327 50.0829L16.4677 50.5587L16.4721 52.6663L15.4835 50.8584L13.666 51.515Z" fill="#AAC0B7"/>
<path d="M33.666 46.333C33.666 46.8864 34.1127 47.333 34.666 47.333C35.2194 47.333 35.666 46.8864 35.666 46.333C35.666 45.7796 35.2194 45.333 34.666 45.333C34.1127 45.333 33.666 45.7796 33.666 46.333Z" fill="#B55759"/>
<path d="M53 53.3333C53 54.0711 53.5955 54.6667 54.3333 54.6667C55.0711 54.6667 55.6667 54.0711 55.6667 53.3333C55.6667 52.5955 55.0711 52 54.3333 52C53.5955 52 53 52.5955 53 53.3333Z" fill="#B55759"/>
<path d="M67 65.667C67 66.2204 67.4466 66.667 68 66.667C68.5534 66.667 69 66.2204 69 65.667C69 65.1136 68.5534 64.667 68 64.667C67.4466 64.667 67 65.1136 67 65.667Z" fill="#B55759"/>
<path d="M15.666 73.3333C15.666 74.0711 16.2615 74.6667 16.9993 74.6667C17.7372 74.6667 18.3327 74.0711 18.3327 73.3333C18.3327 72.5955 17.7372 72 16.9993 72C16.2615 72 15.666 72.5955 15.666 73.3333Z" fill="#B55759"/>
</svg>
