<svg width="88" height="88" viewBox="0 0 88 88" fill="none" xmlns="http://www.w3.org/2000/svg">
<path d="M42.4612 57.904C43.3175 57.6038 44.8047 57.6136 45.6721 57.9213C45.6818 60.6196 45.8115 63.3131 46.0611 65.9997C44.8207 65.85 43.5997 65.8937 42.3565 65.965C42.3427 63.2757 42.4709 60.5912 42.4612 57.904Z" fill="#654237"/>
<path d="M17.4663 35.9783C17.4365 35.0281 17.4392 34.1776 17.8254 33.2821C18.2054 32.4004 18.9001 31.6581 19.8119 31.324C20.9095 30.922 21.919 31.1784 22.9313 31.6546C23.2946 32.1412 23.3667 32.9951 23.4825 33.5891C22.3579 34.066 21.4191 34.6115 20.9101 35.7933C20.8665 35.8958 20.8276 35.9998 20.7944 36.1066C20.7611 36.2126 20.7333 36.3207 20.7105 36.4296C20.6876 36.5384 20.6709 36.6486 20.6592 36.7595C20.6474 36.8704 20.6411 36.9813 20.6411 37.0929C20.6411 37.2045 20.6453 37.3154 20.6564 37.4263C20.6668 37.5372 20.6827 37.6474 20.7042 37.7569C20.7257 37.8664 20.7528 37.9738 20.7854 38.0806C20.8172 38.1873 20.8554 38.292 20.8977 38.3946C21.2346 39.2028 21.8912 39.8113 22.7032 40.1309C23.2128 40.3312 23.7959 40.3866 24.3394 40.4067C24.3096 41.8373 24.4691 43.139 25.5376 44.2127C26.2898 44.9689 27.2196 45.2288 28.2444 45.3564C28.2569 46.6518 28.4385 47.8481 29.3954 48.8151C29.4737 48.8934 29.5555 48.9682 29.6415 49.0382C29.7275 49.1083 29.8162 49.1741 29.9091 49.2358C30.0013 49.2968 30.097 49.3536 30.1948 49.4049C30.2932 49.4569 30.3938 49.5033 30.4964 49.5442C30.599 49.5858 30.7037 49.6219 30.8105 49.653C30.9172 49.6842 31.0247 49.7092 31.1336 49.7293C31.2424 49.7494 31.3527 49.7639 31.4629 49.773C31.5732 49.782 31.6841 49.7847 31.795 49.7827C33.0264 49.7646 33.8563 49.1443 34.7237 48.3576C35.6618 49.5401 36.8794 50.2963 38.3922 50.4841C39.8192 50.6609 41.176 50.2644 42.2972 49.3716C42.8102 48.9634 43.2277 48.4588 43.6256 47.9417C44.8411 49.2905 46.1092 50.3642 48.018 50.4592C49.0871 50.5125 50.1299 50.1576 50.9023 49.4056C51.1824 49.1332 51.4168 48.822 51.6463 48.5073C52.6038 49.3945 53.6723 50.0544 55.0291 49.9934C55.0825 49.9913 55.1366 49.9878 55.19 49.983C55.2434 49.9781 55.2968 49.9719 55.3502 49.9643C55.4035 49.9566 55.4562 49.9476 55.5089 49.9372C55.5616 49.9268 55.6143 49.9151 55.6663 49.9012C55.7183 49.888 55.7703 49.8735 55.8216 49.8575C55.8729 49.8416 55.9236 49.8243 55.9742 49.8055C56.0248 49.7868 56.0747 49.7667 56.1239 49.7452C56.1732 49.7238 56.2224 49.7016 56.2702 49.6773C56.3181 49.6531 56.3659 49.6281 56.4131 49.6018C56.4602 49.5754 56.506 49.5477 56.5517 49.5186C56.5975 49.4895 56.6419 49.4597 56.6855 49.4285C56.7292 49.3973 56.7722 49.3654 56.8145 49.3314C56.8568 49.2982 56.8977 49.2635 56.9379 49.2282C56.9781 49.1928 57.0177 49.1561 57.0558 49.118C57.0939 49.0805 57.1314 49.0417 57.1681 49.0015C57.2042 48.962 57.2395 48.9211 57.2735 48.8795C57.9128 48.1164 58.1527 47.2001 58.3593 46.2512C59.5123 46.3517 60.5524 46.333 61.4981 45.5532C62.3398 44.8594 62.7884 43.749 62.8695 42.6809C62.9395 41.7535 62.7142 40.9924 62.4147 40.1329C63.6676 39.6498 64.6882 39.0939 65.2782 37.8117C65.731 36.8281 65.7455 35.6512 65.369 34.6413C65.0563 33.804 64.6181 33.2994 63.9373 32.7581C63.7542 32.6125 63.4866 32.4954 63.4693 32.2576L63.5171 32.225C64.5523 31.5174 65.4904 30.9774 66.8001 31.1985C67.9608 31.3947 68.9842 32.1107 69.6234 33.0921C70.3085 34.1457 70.4464 35.2956 70.4125 36.5197C71.3034 36.8856 71.9378 37.3535 72.3379 38.265C72.7705 39.2499 72.7497 40.4365 72.3441 41.427C71.9746 42.3308 71.4046 42.8791 70.6288 43.4225L70.47 43.5355C70.8444 44.5904 70.8694 45.8824 70.375 46.9034C69.8793 47.9279 68.8746 48.6383 67.8076 48.9766C67.3832 49.111 66.9457 49.1921 66.5075 49.2656C66.4188 50.2381 66.0236 51.2001 65.2643 51.8419C64.544 52.4512 63.6294 52.6876 62.7253 52.8726C62.3571 54.1071 61.7754 55.0837 60.6078 55.7242C60.5447 55.7588 60.4816 55.7921 60.4165 55.824C60.352 55.8552 60.2868 55.8857 60.2209 55.9134C60.1551 55.9418 60.0885 55.9681 60.0213 55.9931C59.954 56.018 59.886 56.0409 59.8174 56.0624C59.7488 56.0839 59.6801 56.1033 59.6101 56.1213C59.5407 56.1393 59.4707 56.1553 59.4007 56.1698C59.3307 56.1844 59.26 56.1969 59.1885 56.208C59.1178 56.219 59.0464 56.2281 58.975 56.235C58.9036 56.2419 58.8315 56.2475 58.76 56.2509C58.6886 56.2544 58.6165 56.2565 58.5451 56.2565C58.4737 56.2565 58.4016 56.2544 58.3302 56.2509C58.2587 56.2475 58.1866 56.2419 58.1152 56.2343C58.0438 56.2274 57.9724 56.2177 57.9017 56.2073C57.831 56.1962 57.7602 56.1837 57.6895 56.1691C57.6195 56.1546 57.5495 56.1386 57.4801 56.1206C57.4108 56.1026 57.3414 56.0832 57.2728 56.0617C56.7715 55.9058 56.3153 55.6306 55.8792 55.3429C54.9924 56.287 53.9752 56.9836 52.6267 57.0002C51.6373 57.0127 50.8586 56.6169 50.0849 56.0402C48.954 57.1638 47.8155 57.938 46.1522 57.9387C45.9927 57.938 45.8332 57.9325 45.6745 57.9221C44.8071 57.6143 43.3206 57.6046 42.4636 57.9047C42.1086 57.9449 41.7342 57.9706 41.3764 57.9415C39.6902 57.8022 38.3576 56.8824 37.3009 55.6243C37.1969 55.747 37.0901 55.8676 36.982 55.9869C36.385 56.6398 35.6119 57.0328 34.7175 57.0501C33.5055 57.0737 32.6 56.47 31.7548 55.677C31.2708 56.016 30.7502 56.3064 30.1844 56.4811C29.1506 56.8013 28.0385 56.7562 27.0796 56.2294C25.9432 55.6049 25.4252 54.5867 25.1042 53.389L24.9635 53.3946C24.0344 53.4251 23.1434 53.2178 22.4605 52.5489C21.5453 51.6527 21.3948 50.3295 21.3754 49.1173C20.7424 49.1408 20.1017 49.1686 19.4853 48.9939C18.6436 48.7548 17.9121 48.2509 17.5169 47.4551C17.0087 46.4307 17.1709 45.3092 17.5023 44.2633C16.2058 43.4308 15.4119 42.3828 15.034 40.876C14.7449 39.7233 14.7026 38.387 15.3613 37.3493C15.8674 36.5529 16.5691 36.1696 17.4684 35.9804L17.4663 35.9783Z" fill="#0E5267"/>
<path d="M39.9817 12.6063C40.9267 11.4897 42.0236 10.7744 43.5247 10.6753C43.6058 10.6704 43.687 10.667 43.7681 10.6663C43.8492 10.6656 43.9303 10.6663 44.0114 10.6697C44.0926 10.6732 44.1737 10.678 44.2548 10.6857C44.3359 10.6933 44.4164 10.7023 44.4968 10.7134C44.5772 10.7245 44.6576 10.7383 44.7367 10.7536C44.8164 10.7688 44.8955 10.7869 44.9745 10.8063C45.0536 10.8257 45.1319 10.8472 45.2096 10.8707C45.2872 10.8943 45.3642 10.9199 45.4404 10.947C45.5167 10.9747 45.5923 11.0038 45.6672 11.035C45.7421 11.0662 45.8162 11.0995 45.889 11.1348C45.9625 11.1702 46.0346 11.2069 46.106 11.2457C46.1775 11.2845 46.2475 11.3254 46.3168 11.3677C46.3862 11.41 46.4541 11.4543 46.5214 11.5001C46.5886 11.5458 46.6545 11.5937 46.719 11.6429C46.7835 11.6921 46.8465 11.7427 46.909 11.7954C46.9707 11.848 47.0317 11.9021 47.0906 11.9576C47.8055 12.6167 48.2631 13.402 48.6742 14.2712C49.7877 14.1049 50.9422 14.073 51.89 14.7904C52.342 15.1328 52.6346 15.6117 52.7109 16.1752C52.7885 16.7478 52.6402 17.3196 52.4121 17.8422C53.2628 18.5374 54.0089 19.1959 54.1122 20.3645C54.169 21.005 54.0075 21.644 53.8473 22.2595C54.6752 21.739 55.5259 21.2496 56.5486 21.4624C57.2301 21.6038 57.7592 22.0613 58.1176 22.6442C58.3853 23.0788 58.5336 23.6007 58.6758 24.0887C59.3386 23.6596 59.9467 23.3214 60.7711 23.503C61.3798 23.6368 61.8478 24.07 62.1543 24.5981C62.3443 24.9253 62.433 25.3017 62.5128 25.6683C62.3373 26.4529 62.0912 27.1273 61.7272 27.8468C62.6597 28.6238 63.394 29.405 63.4724 30.6859C63.5029 31.1877 63.2352 31.8011 63.5146 32.226L63.4668 32.2586C63.4841 32.4963 63.7518 32.6135 63.9348 32.759C64.6157 33.3003 65.0539 33.8049 65.3666 34.6422C65.7431 35.6521 65.7285 36.8291 65.2758 37.8126C64.6857 39.0949 63.6658 39.6508 62.4122 40.1339C62.7118 40.9934 62.9371 41.7537 62.8671 42.6818C62.7859 43.7506 62.3373 44.8603 61.4956 45.5542C60.5506 46.3339 59.5106 46.3526 58.3568 46.2521C58.1502 47.201 57.9103 48.118 57.271 48.8805C57.2371 48.9221 57.2017 48.9623 57.1656 49.0025C57.1296 49.042 57.0922 49.0808 57.0533 49.1189C57.0152 49.1563 56.9757 49.1931 56.9355 49.2291C56.8953 49.2645 56.8537 49.2991 56.8121 49.3324C56.7698 49.3657 56.7268 49.3982 56.6831 49.4294C56.6394 49.4606 56.595 49.4904 56.5493 49.5195C56.5042 49.5486 56.4577 49.5757 56.4106 49.6027C56.3635 49.6291 56.3163 49.654 56.2678 49.6783C56.2192 49.7018 56.1707 49.7247 56.1215 49.7462C56.0723 49.7677 56.0223 49.7878 55.9717 49.8065C55.9211 49.8252 55.8705 49.8425 55.8192 49.8585C55.7679 49.8744 55.7159 49.889 55.6639 49.9021C55.6119 49.9153 55.5592 49.9271 55.5065 49.9382C55.4538 49.9486 55.4004 49.9576 55.3477 49.9652C55.2943 49.9728 55.2409 49.9791 55.1875 49.9839C55.1342 49.9888 55.0801 49.9922 55.0267 49.9943C53.6698 50.0553 52.6007 49.3955 51.6438 48.5083C51.4143 48.8229 51.18 49.1342 50.8999 49.4066C50.1275 50.1586 49.0847 50.5135 48.0155 50.4601C46.1067 50.3652 44.8386 49.2915 43.6232 47.9427C43.2252 48.4597 42.8078 48.9643 42.2947 49.3726C41.1736 50.2653 39.8167 50.6625 38.3898 50.4851C36.8769 50.2972 35.6594 49.5403 34.7213 48.3585C33.8539 49.1452 33.024 49.7656 31.7926 49.7836C31.6816 49.7857 31.5707 49.7829 31.4605 49.7739C31.3495 49.7649 31.24 49.7503 31.1311 49.7302C31.0223 49.7101 30.9141 49.6852 30.808 49.654C30.7012 49.6235 30.5965 49.5868 30.4939 49.5452C30.3913 49.5036 30.2908 49.4572 30.1923 49.4059C30.0939 49.3539 29.9989 49.2977 29.9067 49.2367C29.8144 49.1757 29.725 49.1099 29.639 49.0392C29.553 48.9692 29.4712 48.8943 29.3929 48.816C28.4361 47.8498 28.2537 46.6535 28.2419 45.3573C27.2172 45.2298 26.2881 44.9705 25.5351 44.2136C24.4666 43.1393 24.3072 41.8383 24.337 40.4077C23.7934 40.3876 23.2103 40.3321 22.7007 40.1318C21.8888 39.813 21.2322 39.2044 20.8952 38.3955C20.8522 38.2929 20.8148 38.1876 20.7829 38.0815C20.7503 37.9748 20.7233 37.8667 20.7018 37.7579C20.6803 37.6483 20.6643 37.5381 20.6539 37.4272C20.6435 37.3163 20.6387 37.2054 20.6387 37.0938C20.6387 36.9822 20.6456 36.8713 20.6567 36.7604C20.6685 36.6495 20.6858 36.5393 20.708 36.4305C20.7309 36.3217 20.7586 36.2136 20.7919 36.1075C20.8252 36.0015 20.864 35.8968 20.9077 35.7942C21.4159 34.6124 22.3554 34.0663 23.48 33.5901C23.3642 32.9961 23.2921 32.1421 22.9288 31.6556C22.9087 30.7933 22.9718 30.096 23.6229 29.4507C23.9709 29.1055 24.4479 28.9066 24.9409 28.9392C25.4505 28.9732 25.8839 29.1901 26.209 29.5803C26.268 29.651 26.3234 29.7252 26.3803 29.798L26.4843 29.9297C26.5051 29.9567 26.5245 29.9837 26.5446 30.0108C26.7561 28.9232 26.9759 27.9161 27.9722 27.266C28.3154 27.0421 28.7016 26.9263 29.0899 26.8064C28.6704 26.1667 28.4063 25.5865 28.5532 24.8054C28.7398 23.8156 29.5011 23.0427 30.2513 22.43C29.6758 20.9946 29.5406 19.4288 30.1493 17.9697C30.5175 17.0881 31.2219 16.2924 32.1268 15.9417C32.4332 15.8231 32.7744 15.7878 33.0995 15.7649C33.6494 14.2359 34.4003 12.9203 35.9284 12.1745C36.8762 11.7122 38.0036 11.5992 38.9958 11.995C39.3549 12.1385 39.6739 12.3734 39.9789 12.6063H39.9817Z" fill="#28748C"/>
<path d="M39.4588 24.8694C40.2021 24.8154 40.8427 24.866 41.5305 25.1751C42.8403 25.7629 43.4365 26.9849 43.8865 28.2595C44.3247 27.2746 44.7789 26.3687 45.6962 25.7358C46.6696 25.0642 47.9433 24.7904 49.104 25.0247C50.2619 25.259 51.2478 26.0228 51.8628 27.0188C52.6664 28.3191 52.7635 29.7809 52.4251 31.2386C53.1351 30.8782 53.8083 30.6785 54.6112 30.777C54.7139 30.7894 54.8151 30.8075 54.9163 30.8303C55.0168 30.8532 55.1167 30.8809 55.2144 30.9135C55.3122 30.9461 55.4086 30.9835 55.5029 31.0251C55.5972 31.0674 55.6894 31.1138 55.7788 31.1651C55.869 31.2164 55.9556 31.2719 56.0402 31.3315C56.1248 31.3911 56.2059 31.4548 56.2836 31.5228C56.3612 31.5907 56.4361 31.6621 56.5069 31.7369C56.5776 31.8118 56.6448 31.8901 56.7079 31.9719C57.142 32.532 57.3597 33.2147 57.2418 33.9217C56.8147 36.4745 54.8581 35.8437 54.1086 36.4086C54.1585 36.5084 54.2098 36.6082 54.2535 36.7108C54.5558 37.4137 54.5246 38.2108 54.2341 38.9122C53.9422 39.6157 53.3708 40.2437 52.6421 40.5002C52.05 40.7088 51.453 40.6554 50.9011 40.3601C49.8133 39.7772 49.4423 38.8152 49.1158 37.6999C48.7261 38.7382 48.3059 39.5672 47.5668 40.4003C47.2188 40.7046 46.8769 40.9971 46.4672 41.2182C45.4965 41.7429 44.3393 41.9017 43.2764 41.5849C41.5541 41.072 40.5779 39.6871 39.7895 38.1775C39.5663 38.7202 39.3548 39.3101 39.0338 39.8022C38.5588 40.53 37.835 41.1254 36.96 41.2716C36.3533 41.3735 35.7549 41.2446 35.2675 40.8627C34.2732 40.0843 34.0514 38.7563 33.9356 37.5786C33.5764 37.8989 33.2554 38.1858 32.7888 38.3418C32.1835 38.5442 31.5262 38.5442 30.9542 38.2378C30.8946 38.2066 30.837 38.1719 30.7809 38.1338C30.7247 38.0964 30.6706 38.0555 30.6193 38.0118C30.5673 37.9682 30.5181 37.9224 30.4716 37.8739C30.4252 37.8254 30.3808 37.7741 30.3392 37.7207C30.2976 37.6673 30.2595 37.6119 30.2241 37.5544C30.1887 37.4968 30.1561 37.4379 30.127 37.3769C30.0979 37.3159 30.0722 37.2535 30.0494 37.1898C30.0272 37.126 30.0078 37.0616 29.9925 36.9957C29.7887 36.1154 30.1541 35.4764 30.6158 34.7666C29.9946 34.4492 29.5092 34.0769 29.2451 33.4081C28.9913 32.7655 29.0884 32.0745 29.3907 31.4659C29.8989 30.4436 30.9008 29.6499 31.988 29.3242C33.3566 28.9145 34.6421 29.3235 35.8361 30.002C35.8277 28.7974 35.8735 27.6385 36.5717 26.5974C37.2616 25.5688 38.2912 25.1273 39.4567 24.8715L39.4588 24.8694Z" fill="#AAC0B7"/>
<path d="M58.8943 72.2892C58.8943 77.1137 52.3998 75.6863 44.3885 75.6863C36.3773 75.6863 29.8828 77.1137 29.8828 72.2892C29.8828 67.4647 36.3773 63.5537 44.3885 63.5537C52.3998 63.5537 58.8943 67.4647 58.8943 72.2892Z" fill="#AAC0B7"/>
<path d="M57.6536 72.3987C59.1555 72.1867 60.3539 71.7431 61.7185 72.74C63.1427 73.7811 64.1253 75.5105 64.5211 77.2072C63.4659 77.4424 62.049 77.2784 60.9494 77.2762H54.1843L23.998 77.2682C24.3481 75.6143 24.8659 74.025 26.2894 72.9629C27.6686 71.9333 29.1269 72.0517 30.7232 72.3152C36.8877 73.9982 44.8954 74.245 51.2458 73.503C51.9184 73.4246 53.0666 73.4515 53.6294 73.1574C53.6599 73.1415 53.6868 73.119 53.7151 73.0994L53.7769 73.1749C54.2315 73.3527 56.9492 72.6514 57.6217 72.5396L57.6551 72.398L57.6536 72.3987Z" fill="#28748C"/>
<path d="M57.6546 72.3987C59.1565 72.1867 60.3549 71.7431 61.7195 72.74C63.1437 73.7811 64.1263 75.5105 64.5222 77.2072C63.5025 77.0112 62.2628 77.1266 61.2199 77.1317C59.3664 77.1404 57.5036 77.1165 55.6523 77.2232C56.5769 76.4456 58.041 75.8757 58.7716 74.9558C58.9648 74.7126 59.0665 74.4381 59.0244 74.123C58.9227 73.3731 58.1739 72.952 57.622 72.5403L57.6554 72.3987H57.6546Z" fill="#28748C"/>
<path d="M72.7449 15.6925C72.5445 14.9732 72.5163 13.5254 72.6573 12.8488C72.6573 12.8488 71.365 14.4368 70.5358 15.3104C69.6205 16.2745 68.1075 16.642 66.9396 16.7058C68.1131 17.4318 68.9055 18.6237 69.2395 19.815C69.5736 21.0063 69.2497 23.3223 69.2497 23.3223C69.2497 23.3223 70.4915 21.6795 71.1126 20.8578C72.0363 19.6362 73.3418 18.4564 75.113 18.4979C73.8184 17.5165 73.1363 17.1004 72.7444 15.6922L72.7449 15.6925Z" fill="#B55759"/>
<path d="M15.9073 54.9399C15.2604 54.5338 14.2757 53.4817 13.9458 52.8936C13.9458 52.8936 13.9068 54.8752 13.7854 56.0393C13.6512 57.324 12.6154 58.5419 11.67 59.3195C13.1444 59.1219 14.6056 59.507 15.6788 60.1784C16.7519 60.8497 18.0151 62.7635 18.0151 62.7635C18.0151 62.7635 17.975 60.773 17.955 59.7774C17.9254 58.2971 18.2465 56.6088 19.7721 55.5317C18.0258 55.6163 17.1728 55.7354 15.9066 54.94L15.9073 54.9399Z" fill="#DFB0A2"/>
</svg>
