<svg width="67" height="86" viewBox="0 0 67 86" fill="none" xmlns="http://www.w3.org/2000/svg">
<path d="M57.2333 57.6197L55.5365 49.8999C54.8138 46.6131 52.4608 43.9237 49.2991 42.7722L35.9634 37.9138C35.0165 37.5688 33.9553 37.8637 33.3219 38.6474C32.3446 39.8576 32.7865 41.6654 34.2111 42.289L38.237 44.05L12.5276 36.8548C11.9247 36.6861 11.2782 36.8374 10.8124 37.2553C9.79367 38.1706 10.1039 39.8391 11.3838 40.3267L26.709 46.1571L7.91841 39.1012C7.12064 38.8019 6.22492 38.9358 5.55013 39.456C4.05363 40.6097 4.36164 42.9497 6.10628 43.6767L23.3383 50.8621L5.02989 43.3197C4.1875 42.9725 3.2232 43.1096 2.51032 43.6767C1.04212 44.8456 1.32946 47.1529 3.03928 47.9268L19.6749 55.4528L3.23518 48.4796C2.37319 48.114 1.37516 48.3011 0.703643 48.9542C-0.417372 50.0458 -0.162692 51.9102 1.20973 52.6622L34.5246 70.9021L44.8227 85.5743L66.1818 71.9818L57.2344 57.6186L57.2333 57.6197Z" fill="#DFB0A2"/>
<path d="M19.6965 3.31963C20.2712 4.27304 20.8447 5.22536 21.4194 6.17877C21.6512 6.56405 22.2008 6.74037 22.5948 6.48678C22.9812 6.23755 23.151 5.72274 22.9028 5.31134C22.3282 4.35794 21.7546 3.40562 21.18 2.45221C20.9481 2.06693 20.3985 1.8906 20.0045 2.14419C19.6182 2.39343 19.4484 2.90823 19.6965 3.31963Z" fill="#B55759"/>
<path d="M28.5159 0.859451C28.493 2.23514 28.5648 3.60973 28.7303 4.97563C28.7847 5.41968 29.0861 5.85721 29.589 5.83436C30.008 5.81586 30.5065 5.45342 30.4477 4.97563C30.2823 3.60973 30.2104 2.23514 30.2333 0.859451C30.2409 0.409957 29.8328 -0.0199619 29.3746 0.000717046C28.9022 0.021396 28.5235 0.378394 28.5159 0.859451Z" fill="#B55759"/>
<path d="M36.9976 2.21985C36.2782 3.23964 35.6176 4.2997 35.019 5.3946C34.8035 5.78858 34.909 6.3491 35.327 6.57003C35.7297 6.78227 36.2717 6.68322 36.5024 6.26202C37.1021 5.16712 37.7627 4.10707 38.4811 3.08727C38.7412 2.71831 38.5594 2.11644 38.173 1.91183C37.7323 1.67892 37.2751 1.82695 36.9976 2.21985Z" fill="#B55759"/>
<path d="M46.3334 54.7425C46.2463 54.7425 46.1603 54.7099 46.0939 54.6446C42.4631 51.1041 41.4967 47.3645 41.3149 46.5069L34.5475 43.1721C34.3777 43.0883 34.3069 42.8826 34.3907 42.7117C34.4746 42.5408 34.6803 42.4712 34.8511 42.555L41.772 45.9649C41.8711 46.0138 41.9407 46.1074 41.9592 46.2163C41.9658 46.2576 42.6982 50.3716 46.5739 54.1515C46.7099 54.2843 46.7121 54.502 46.5804 54.638C46.5129 54.7066 46.4237 54.7414 46.3345 54.7414L46.3334 54.7425Z" fill="#B67F6E"/>
<path d="M26.7098 46.4989C26.6684 46.4989 26.627 46.4912 26.5857 46.476L11.107 40.4998C10.9296 40.4312 10.8414 40.2321 10.91 40.0558C10.9785 39.8783 11.1777 39.7913 11.354 39.8588L26.8327 45.835C27.0102 45.9035 27.0983 46.1027 27.0297 46.279C26.9775 46.4151 26.8469 46.4989 26.7087 46.4989H26.7098Z" fill="#B67F6E"/>
<path d="M23.3373 51.204C23.2916 51.204 23.2448 51.1942 23.2002 51.1746L6.01493 43.6747C5.84079 43.5985 5.76134 43.3961 5.83753 43.222C5.91371 43.0478 6.11615 42.9684 6.29029 43.0446L23.4756 50.5445C23.6497 50.6207 23.7292 50.8231 23.653 50.9972C23.5964 51.1268 23.4701 51.204 23.3373 51.204Z" fill="#B67F6E"/>
<path d="M19.8528 56.0274C19.806 56.0274 19.7581 56.0176 19.7124 55.9969L3.55459 48.7528C3.38154 48.6755 3.30426 48.472 3.38153 48.2989C3.45989 48.1259 3.66233 48.0486 3.83538 48.1259L19.9932 55.37C20.1663 55.4473 20.2436 55.6508 20.1663 55.8239C20.1086 55.9512 19.9834 56.0274 19.8528 56.0274Z" fill="#B67F6E"/>
<path d="M17.9253 58.5764C17.8545 58.5764 17.7816 58.5546 17.7207 58.5089C17.5683 58.3957 17.5367 58.1802 17.6499 58.0279L28.5499 43.3633C28.6631 43.2109 28.8786 43.1793 29.0309 43.2925C29.1833 43.4057 29.2149 43.6212 29.1017 43.7735L18.2017 58.4382C18.1342 58.5285 18.0308 58.5764 17.9253 58.5764Z" fill="#B67F6E"/>
<path d="M43.019 61.5097C42.9537 61.5097 42.8873 61.4912 42.8285 61.452C37.5325 57.9214 30.0424 58.8443 29.9662 58.8541C29.7779 58.877 29.606 58.7453 29.5809 58.5581C29.557 58.3698 29.6887 58.1978 29.877 58.1728C30.1926 58.1314 37.6947 57.2042 43.2094 60.8806C43.3672 60.9862 43.4097 61.1995 43.3052 61.3573C43.2388 61.4564 43.13 61.5108 43.019 61.5108V61.5097Z" fill="#B67F6E"/>
<path d="M38.2658 15.3504C37.8826 14.2409 36.9946 13.2584 35.8535 13.0084C34.7545 12.7675 33.6083 13.2263 32.7001 13.8944C30.837 15.2652 29.596 18.2595 29.596 18.2595C29.596 18.2595 29.2516 15.1737 28.2878 13.0045C27.9573 12.2601 27.3268 11.4966 26.6025 11.1304C25.7834 10.7161 24.7725 10.934 23.9747 11.3888C21.8749 12.5863 20.9296 15.1303 20.5762 17.5321C19.8598 22.3999 20.9694 27.5178 23.6348 31.6441C24.1273 32.406 24.7456 33.2102 25.5663 33.6368C27.3464 34.5617 28.4331 34.2677 29.7099 33.0871C31.265 31.6492 33.205 29.5347 34.3029 27.7458C36.0067 24.971 37.8103 21.7769 38.3718 18.8328C38.5918 17.6794 38.6484 16.4604 38.2653 15.3509L38.2658 15.3504Z" fill="#B55759"/>
</svg>
