<svg width="132" height="132" viewBox="0 0 132 132" fill="none" xmlns="http://www.w3.org/2000/svg">
<rect width="132" height="132" fill="white"/>
<path d="M9.00001 95.7689C9.00002 94.9466 9.27447 94.1478 9.77987 93.4991L31.4792 65.6472C35.0441 61.0623 40.5242 58.3803 46.3296 58.3767L120.327 58.3328C123.398 58.331 125.911 60.7774 125.99 63.8481C126.057 66.3964 124.412 68.6739 121.973 69.4143L54.0398 90.0052L41.7852 110.923C40.7046 112.767 38.3648 113.436 36.4727 112.441L10.9749 99.0381C9.76046 98.3998 8.99998 97.1409 9.00001 95.7689Z" fill="#DFB0A2"/>
<path d="M72.084 77.3653L97.5412 68.0583C99.7519 67.2511 101.092 65.0034 100.754 62.6749C100.399 60.2321 98.3062 58.4206 95.8388 58.4189L46.5178 58.3872C40.6068 58.3837 35.037 61.1572 31.4757 65.8757L30.6649 66.9521L72.084 77.3653Z" fill="#DFB0A2"/>
<path d="M72.084 77.9211C71.8571 77.9211 71.6443 77.7822 71.5634 77.5553C71.4579 77.2669 71.6056 76.9486 71.894 76.8431L97.3512 67.536C99.3034 66.822 100.505 64.81 100.204 62.7541L100.192 62.6398C99.9717 60.5892 98.3167 59.0309 96.2573 58.9342C95.9513 58.9201 95.7139 58.6599 95.7279 58.3538C95.742 58.0478 96.0093 57.8157 96.3083 57.8245C98.9182 57.9476 101.016 59.9226 101.294 62.522L101.305 62.6152C101.678 65.1688 100.176 67.6872 97.7311 68.5807L72.2739 77.8877C72.2106 77.9106 72.1473 77.9211 72.084 77.9211Z" fill="#7B4A3A"/>
<path d="M90.1951 76.4438C89.9524 76.4438 89.7273 76.282 89.6604 76.0358C89.5795 75.7403 89.7519 75.4343 90.0473 75.3534L124.986 65.7052C125.279 65.6225 125.587 65.7967 125.668 66.0921C125.749 66.3876 125.577 66.6936 125.281 66.7745L90.3428 76.4227C90.2936 76.4368 90.2443 76.4438 90.1951 76.4438Z" fill="#7B4A3A"/>
<path d="M87.4552 24.8922C87.6552 24.0452 87.1306 23.1965 86.2836 22.9966C85.4366 22.7967 84.5878 23.3213 84.3879 24.1683C84.188 25.0153 84.7126 25.864 85.5596 26.0639C86.4066 26.2638 87.2553 25.7392 87.4552 24.8922Z" fill="#B55759"/>
<path d="M108.755 25.7333H63.1921V58.5611H108.755V25.7333Z" fill="#AAC0B7"/>
<path d="M86.5705 25.7333H85.3763V58.5611H86.5705V25.7333Z" fill="#B55759"/>
<path d="M96.3735 26.3786H85.9602L85.7035 23.7423L85.9567 23.5559C86.0253 23.5049 86.2381 23.3484 94.2349 18.5946C95.3974 17.9035 96.7762 17.812 98.0179 18.3431C99.2613 18.8743 100.148 19.9348 100.452 21.252C100.74 22.5025 100.448 23.7951 99.6482 24.7993C98.8497 25.8035 97.6556 26.3804 96.3717 26.3804L96.3735 26.3786ZM86.968 25.2671H96.3735C97.3162 25.2671 98.1938 24.8433 98.7812 24.1064C99.3686 23.3695 99.5831 22.418 99.3703 21.5C99.147 20.5327 98.4945 19.7536 97.5817 19.3632C96.669 18.9728 95.6559 19.0413 94.8012 19.5479C89.2983 22.819 87.4639 23.9235 86.8712 24.2875L86.9662 25.2671H86.968Z" fill="#B55759"/>
<path d="M85.8301 26.3787H75.4168C74.133 26.3787 72.9388 25.8036 72.1404 24.7976C71.342 23.7934 71.0482 22.5007 71.3367 21.2503C71.6409 19.933 72.5273 18.8726 73.7707 18.3414C75.0141 17.8103 76.3929 17.9017 77.5537 18.5929C85.5505 23.3467 85.7615 23.5032 85.8319 23.5542L86.0851 23.7406L85.8283 26.3769L85.8301 26.3787ZM75.4204 19.1117C75.0106 19.1117 74.6008 19.1944 74.2069 19.3632C73.2941 19.7536 72.6416 20.5328 72.4183 21.5C72.2055 22.4181 72.4218 23.3695 73.0074 24.1064C73.5948 24.8451 74.4724 25.2672 75.4151 25.2672H84.8206L84.9156 24.2876C84.3229 23.9235 82.4886 22.8191 76.9856 19.5479C76.4985 19.2595 75.9603 19.1117 75.4186 19.1117H75.4204Z" fill="#B55759"/>
<path d="M94.9155 35.4659L85.9444 25.6084L77.7154 34.9699L76.8818 34.2365L85.9303 23.9429L95.7368 34.7184L94.9155 35.4659Z" fill="#B55759"/>
<path d="M46.0575 32.9586C47.7683 32.8209 49.4768 32.6839 51.1876 32.5462C51.8787 32.4911 52.4998 31.8538 52.4207 31.1358C52.3423 30.4312 51.7485 29.8431 51.0102 29.9027C49.2994 30.0404 47.5909 30.1774 45.8801 30.3151C45.189 30.3702 44.5679 31.0075 44.647 31.7256C44.7254 32.4301 45.3192 33.0183 46.0575 32.9586Z" fill="#B55759"/>
<path d="M48.7246 19.0954C50.6074 20.0725 52.5538 20.9183 54.5526 21.6288C55.2028 21.859 56.0139 21.7437 56.328 21.034C56.5905 20.443 56.4329 19.506 55.7331 19.2586C53.7344 18.5481 51.788 17.7023 49.9051 16.7252C49.29 16.4057 48.4161 16.6734 48.1297 17.32C47.8336 17.9861 48.0659 18.7542 48.7246 19.0954Z" fill="#B55759"/>
<path d="M56.4324 8.3252C57.3453 10.019 58.3542 11.6594 59.4537 13.2381C59.8493 13.8064 60.6955 14.0459 61.2877 13.621C61.8574 13.2112 62.0932 12.3951 61.6705 11.7872C60.5717 10.2069 59.5629 8.5665 58.6492 6.87417C58.3188 6.26158 57.3633 6.09871 56.8153 6.49128C56.1909 6.93951 56.081 7.67212 56.4324 8.3252Z" fill="#B55759"/>
</svg>
