<svg width="64" height="64" viewBox="0 0 64 64" fill="none" xmlns="http://www.w3.org/2000/svg">
<rect width="64" height="64" fill="#FDFDFD"/>
<path d="M51.064 37.4331C50.5869 31.7747 45.5609 18.7448 45.5609 18.7448C45.3608 17.6439 44.3007 16.9172 43.2013 17.1291C42.3091 17.301 41.668 18.0402 41.5825 18.9041L41.2396 17.6643C40.9854 16.4998 39.8476 15.7512 38.6776 15.978C37.4519 16.2157 36.6719 17.4265 36.9607 18.6404L37.0077 18.7982C36.5612 18.0982 35.7098 17.7263 34.8624 17.9225C33.7677 18.1767 33.0952 19.28 33.3707 20.3691L36.5448 32.9157L35.2892 29.3492C34.911 28.2742 33.8972 27.5538 32.7578 27.5499L29.692 27.5389C28.9622 27.5366 28.2411 27.7021 27.5867 28.0238L29.3428 31.7049L31.9213 32.0854L33.2765 35.779L32.309 39.1391L28.5887 37.8993L27.2069 32.1976C27.046 31.5322 26.5383 31.0057 25.8792 30.8197C24.6378 30.4697 23.4176 31.4341 23.4709 32.7226L23.7212 38.7302C23.7974 40.5492 24.5067 42.2849 25.7269 43.6362L32.706 51.8127L32.7298 60.84C32.7327 61.9276 33.6292 62.8002 34.7165 62.7737L48.8779 62.4284C49.9627 62.4019 50.8148 61.4906 50.7683 60.4065L50.5383 55.0425C50.5383 55.0425 51.5395 43.0908 51.0624 37.4324L51.064 37.4331Z" fill="#DFB0A2"/>
<path d="M26.0783 16.4412C27.0513 23.1763 23.5885 27.7095 23.5885 27.7095C23.5885 27.7095 13.5302 24.3965 12.6553 14.6764C12.0338 7.76795 17.5188 1.45508 17.5188 1.45508C17.5188 1.45508 19.016 4.14424 21.3482 7.53177C23.007 9.94158 25.5133 12.5303 26.0783 16.4412Z" fill="#AAC0B7"/>
<path d="M27.0409 34.4522C26.9562 34.4522 26.873 34.4083 26.8267 34.3298C26.8 34.2851 24.1713 29.7903 22.9024 27.0329C19.7048 20.082 17.1012 9.55927 16.9756 3.07689C16.9733 2.94035 17.0816 2.82657 17.2189 2.82422C17.3617 2.82657 17.4692 2.93015 17.4716 3.06747C17.5955 9.49178 20.1795 19.9275 23.3529 26.8265C24.6115 29.562 27.2277 34.0355 27.2544 34.0803C27.3234 34.198 27.2842 34.3502 27.1657 34.4192C27.1265 34.442 27.0833 34.453 27.0409 34.453V34.4522Z" fill="#0E5267"/>
<path d="M21.5592 23.3646L14.5275 17.3633C14.4232 17.2746 14.4114 17.1177 14.5001 17.0141C14.5887 16.9097 14.7449 16.898 14.8493 16.9866L21.356 22.5399L24.2358 15.3396C24.2868 15.2124 24.4304 15.1504 24.5583 15.2015C24.6854 15.2525 24.7474 15.3968 24.6964 15.524L21.56 23.3654L21.5592 23.3646Z" fill="#0E5267"/>
<path d="M18.7652 13.9642L13.8985 8.6746C13.8059 8.57415 13.8122 8.41722 13.9127 8.32462C14.0139 8.23203 14.17 8.2383 14.2626 8.33953L18.6114 13.0665L20.683 8.25165C20.7372 8.1261 20.8823 8.06724 21.0087 8.12217C21.1342 8.17631 21.1923 8.32228 21.1381 8.44783L18.7644 13.965L18.7652 13.9642Z" fill="#0E5267"/>
<path d="M40.063 49.2947C39.9398 49.2947 39.833 49.2029 39.8174 49.0773C38.9134 41.8432 32.2937 39.3973 32.227 39.3738C32.0983 39.3275 32.0308 39.1862 32.0771 39.0568C32.1234 38.9281 32.2654 38.8614 32.3941 38.9069C32.464 38.932 39.3677 41.4823 40.3094 49.0161C40.3266 49.1519 40.2301 49.2759 40.0944 49.2923C40.0842 49.2939 40.0732 49.2939 40.063 49.2939V49.2947Z" fill="#654237"/>
<path d="M34.3442 35.9903C34.2257 35.9903 34.1206 35.9048 34.1002 35.7839C34.0774 35.649 34.1684 35.5211 34.3034 35.4983L48.1917 33.1638C48.3259 33.1403 48.4546 33.2321 48.4774 33.3671C48.5001 33.5021 48.4091 33.6299 48.2741 33.6527L34.3858 35.9872C34.3717 35.9895 34.3583 35.9903 34.3442 35.9903Z" fill="#654237"/>
<path d="M41.3222 34.6977C41.2131 34.6977 41.1127 34.6248 41.0829 34.5141L37.0017 19.375C36.9664 19.2431 37.044 19.1066 37.1767 19.0713C37.3085 19.0352 37.445 19.1137 37.4803 19.2463L41.5615 34.3854C41.5969 34.5173 41.5192 34.6538 41.3866 34.6891C41.3654 34.6954 41.3434 34.6977 41.3222 34.6977Z" fill="#654237"/>
<path d="M45.8599 33.8332C45.7532 33.8332 45.6543 33.7633 45.6229 33.6558L41.5017 19.813C41.4624 19.682 41.537 19.5438 41.6688 19.5046C41.7999 19.4654 41.938 19.5399 41.9772 19.6717L46.0984 33.5146C46.1377 33.6456 46.0631 33.7837 45.9313 33.823C45.9077 33.83 45.8842 33.8332 45.8607 33.8332H45.8599Z" fill="#654237"/>
<path d="M37.1675 35.4476C37.0608 35.4476 36.9627 35.3777 36.9306 35.271L34.6777 27.7583C34.6385 27.6273 34.713 27.4891 34.8441 27.4499C34.9751 27.4107 35.1132 27.4852 35.1524 27.6163L37.4053 35.129C37.4445 35.26 37.37 35.3981 37.2389 35.4373C37.2154 35.4444 37.1911 35.4476 37.1675 35.4476Z" fill="#654237"/>
<path d="M27.5898 28.0242L25.8407 28.8835C24.881 29.3551 24.4997 30.525 24.9964 31.4714C25.4288 32.2953 26.3939 32.6845 27.2767 32.3911L29.346 31.7044L27.5898 28.0234V28.0242Z" fill="#DFB0A2"/>
</svg>
