<svg width="64" height="64" viewBox="0 0 64 64" fill="none" xmlns="http://www.w3.org/2000/svg">
<rect width="64" height="64" fill="#FDFDFD"/>
<path d="M56.0121 55.2632C56.5925 55.048 56.8612 54.3796 56.5914 53.8226L51.9742 44.2927L54.7776 26.5358C54.9072 25.7136 54.4446 24.9121 53.6668 24.6138C52.6854 24.2371 51.5945 24.7974 51.3288 25.8143L50.1714 30.2422L49.9353 15.1489C49.9205 14.1853 49.1663 13.3949 48.2042 13.3349C47.1703 13.2706 46.2859 14.0684 46.2437 15.1037L45.719 28.1292L45.7131 13.7523C45.7279 12.6415 44.7835 11.7578 43.6764 11.8459C42.7653 11.9184 42.0371 12.6333 41.9475 13.5429L40.7812 28.1833L41.3503 16.7571C41.4036 15.6854 40.551 14.7855 39.4779 14.7818C38.5291 14.7781 37.7268 15.4812 37.6047 16.4218L35.8744 29.7981L36.9105 20.436C37.0141 19.4998 36.2711 18.6858 35.329 18.7043C34.5556 18.7191 33.9102 19.2985 33.8118 20.0653L31.6086 37.1842C31.2866 39.6834 31.7847 42.2204 33.0273 44.4126L41.2976 59.0065C41.5412 59.4364 42.0519 59.6379 42.5234 59.4902L55.9828 55.274L56.0121 55.2632Z" fill="#DFB0A2"/>
<path d="M42.8201 43.8904C42.8053 43.8904 42.7905 43.8889 42.7757 43.8859C42.6492 43.8615 42.5663 43.7394 42.5907 43.6121C44.0746 35.8967 48.7763 32.1105 49.4268 31.6183L50.0974 28.7046C50.1262 28.5788 50.2528 28.5011 50.3779 28.5292C50.5037 28.558 50.5821 28.6839 50.5532 28.8097L49.8628 31.8078C49.8494 31.864 49.8161 31.9136 49.7688 31.9469C49.717 31.9832 44.5993 35.6421 43.0495 43.7009C43.0281 43.8127 42.9304 43.8904 42.8201 43.8904Z" fill="#654237"/>
<path d="M45.5897 29.3675C45.5897 29.3675 45.5859 29.3675 45.5837 29.3675C45.455 29.3645 45.3528 29.2572 45.3558 29.1284C45.3587 28.9878 45.6888 15.0609 45.6896 14.8581C45.6896 14.7294 45.7947 14.625 45.9234 14.625C46.0522 14.625 46.1566 14.7294 46.1566 14.8581C46.1566 15.0328 45.8361 28.5638 45.8228 29.1395C45.8198 29.2668 45.7155 29.3675 45.5897 29.3675Z" fill="#654237"/>
<path d="M40.8271 29.7459C40.8219 29.7459 40.8175 29.7459 40.8123 29.7459C40.6835 29.7377 40.5858 29.6267 40.594 29.498L41.4628 15.5977C41.471 15.4689 41.5812 15.3712 41.7108 15.3794C41.8395 15.3875 41.9372 15.4985 41.9291 15.6273L41.0602 29.5276C41.0528 29.6512 40.95 29.7466 40.8271 29.7466V29.7459Z" fill="#654237"/>
<path d="M36.1355 29.977C36.1281 29.977 36.1207 29.977 36.1133 29.9762C35.9845 29.9644 35.8905 29.8504 35.9024 29.7216C36.2191 26.3402 36.8193 19.8852 36.8282 19.6609C36.8327 19.5336 36.9363 19.4293 37.0665 19.4337C37.1938 19.436 37.296 19.5381 37.296 19.6654C37.296 19.8415 36.5233 28.109 36.3686 29.7646C36.3575 29.8859 36.2554 29.9762 36.1363 29.9762L36.1355 29.977Z" fill="#654237"/>
<path d="M47.6379 30.9734H47.6349L34.79 30.8076C34.6612 30.8061 34.5576 30.7003 34.5591 30.5707C34.5606 30.442 34.6597 30.3391 34.7959 30.3398L47.6408 30.5056C47.7696 30.5071 47.8732 30.6129 47.8717 30.7424C47.8702 30.8705 47.7659 30.9734 47.6379 30.9734Z" fill="#654237"/>
<path d="M17.4677 61.8493C17.871 62.2384 18.509 62.2416 18.9163 61.8565L32.3197 49.1839C35.2201 46.6979 37.1406 43.2595 37.7363 39.4858L39.6169 27.5749C39.7464 26.7527 39.2839 25.9512 38.506 25.6529C37.5247 25.2762 36.4338 25.8364 36.1681 26.8533L35.0106 31.2812L34.7745 16.188C34.7597 15.2244 34.0056 14.434 33.0435 14.374C32.0096 14.3096 31.1252 15.1074 31.083 16.1428L30.5583 29.1683L30.5523 14.7914C30.5672 13.6806 29.6228 12.7969 28.5156 12.885C27.6046 12.9575 26.8764 13.6724 26.7868 14.582L25.6204 29.2223L26.1896 17.7962C26.2428 16.7245 25.3903 15.8246 24.3171 15.8209C23.3683 15.8172 22.5661 16.5203 22.444 17.4609L20.7137 30.8372L21.7498 21.4751C21.8534 20.5389 21.1104 19.7248 20.1682 19.7433C19.3949 19.7581 18.7495 20.3376 18.6511 21.1043L15.9527 42.0739L7.50228 49.603C7.06274 49.9946 7.03158 50.6712 7.43327 51.1015L17.443 61.8254L17.4677 61.8493Z" fill="#B67F6E"/>
<path d="M34.2987 34.6824C34.2846 34.6824 34.2698 34.6809 34.2557 34.6787C34.1292 34.655 34.0455 34.5329 34.0685 34.4064L34.9351 29.7557C34.9588 29.6291 35.0802 29.5448 35.2075 29.5684C35.334 29.5921 35.4177 29.7142 35.3947 29.8408L34.5281 34.4915C34.5074 34.604 34.4089 34.6824 34.2987 34.6824Z" fill="#654237"/>
<path d="M30.4732 31.3058H30.4687C30.34 31.3035 30.2371 31.1962 30.2393 31.0674C30.2423 30.9179 30.5287 16.0918 30.5287 15.8972C30.5287 15.7684 30.6338 15.6641 30.7625 15.6641C30.8913 15.6641 30.9957 15.7684 30.9957 15.8972C30.9957 16.0711 30.7181 30.4635 30.7063 31.0763C30.7041 31.2036 30.5997 31.3058 30.4724 31.3058H30.4732Z" fill="#654237"/>
<path d="M25.6662 30.785C25.661 30.785 25.6566 30.785 25.6514 30.785C25.5226 30.7768 25.425 30.6658 25.4331 30.537L26.3019 16.6368C26.3101 16.508 26.4211 16.4103 26.5499 16.4184C26.6787 16.4266 26.7763 16.5376 26.7682 16.6664L25.8993 30.5666C25.8919 30.6902 25.7891 30.7857 25.6662 30.7857V30.785Z" fill="#654237"/>
<path d="M20.9751 31.0172C20.9677 31.0172 20.9603 31.0172 20.9529 31.0165C20.8241 31.0046 20.7301 30.8907 20.742 30.7619C21.0587 27.3804 21.6589 20.9254 21.6678 20.7012C21.673 20.5739 21.7825 20.471 21.9061 20.4747C22.0334 20.4769 22.1355 20.5791 22.1355 20.7064C22.1355 20.8818 21.3629 29.15 21.2082 30.8055C21.1971 30.9269 21.095 31.0172 20.9758 31.0172H20.9751Z" fill="#654237"/>
<path d="M53.3948 4.5727C52.7554 3.79117 51.8643 1.94539 51.6105 0.970703C51.6105 0.970703 51.1916 3.95694 50.8364 5.68578C50.4441 7.59371 49.0661 9.16714 47.8716 10.0982C49.542 10.1811 51.0873 11.1417 52.1485 12.4346C53.2098 13.7275 54.2459 16.9484 54.2459 16.9484C54.2459 16.9484 54.579 13.9281 54.7455 12.4176C54.9934 10.1714 55.6691 7.70177 57.563 6.46805C55.6129 6.14389 54.6456 6.10319 53.3941 4.5727H53.3948Z" fill="#28748C"/>
<path d="M9.86378 21.1423C10.2864 20.2253 11.0435 18.0776 11.0442 17.0703C11.0442 17.0703 12.0581 20.0751 12.8359 21.6603C13.6944 23.4091 15.1457 23.8487 16.5356 24.4497C14.9393 24.9492 13.5679 26.573 12.8648 28.0909C12.1617 29.6088 11.6104 32.7727 11.6104 32.7727C11.6104 32.7727 10.763 29.2181 10.222 27.7978C9.41823 25.6856 8.44651 24.742 6.30322 24.0234C8.10977 23.2197 9.03562 22.9377 9.86303 21.1423H9.86378Z" fill="#B55759"/>
</svg>
