<svg width="96" height="96" viewBox="0 0 96 96" fill="none" xmlns="http://www.w3.org/2000/svg">
<rect width="96" height="96" fill="#FDFDFD"/>
<path d="M80.3637 88.1941L30.6017 84.0298C29.5212 83.9398 28.9204 81.7073 29.2671 79.0692L38.1124 11.6651C38.4585 9.02687 39.6257 6.94192 40.7059 7.03351L90.468 11.1977C91.5484 11.2877 92.1492 13.5202 91.8025 16.1584L82.9572 83.5624C82.6112 86.2007 81.4439 88.2857 80.3637 88.1941Z" fill="#F1ECE6"/>
<path d="M40.2009 74.1664C43.5474 74.1161 46.8128 73.0042 49.4935 70.9953C50.1626 70.4944 50.7864 69.9368 51.3659 69.3343C51.8629 68.8177 52.4487 68.2535 52.667 67.5507C52.8669 66.907 52.6634 66.163 51.9198 66.0259C51.1567 65.8855 50.2704 66.3633 49.677 66.7962C48.3146 67.7929 47.2593 69.5217 46.8083 71.1301C46.3691 72.6962 46.5187 74.5326 47.6952 75.7576C48.9558 77.0719 50.8665 77.0974 52.5373 76.7472C54.2598 76.3862 55.9446 75.7533 57.5055 74.9456C59.0727 74.135 60.5453 73.1295 61.8566 71.9485C62.4403 71.424 63.2253 70.7692 63.1353 69.8923C63.0644 69.2018 62.4678 68.7898 61.816 68.7253C60.3159 68.5777 58.8316 69.7934 57.9262 70.8634C56.888 72.0914 56.1055 73.8812 56.6638 75.4871C57.177 76.9611 58.6907 77.6388 60.1382 77.8263C61.7709 78.038 63.4999 77.7554 65.0814 77.3529C66.7825 76.9203 68.4245 76.2602 69.9405 75.3711C70.7036 74.923 71.4377 74.4294 72.1312 73.8784C72.7422 73.3933 73.447 72.7837 73.5282 71.9517C73.6105 71.1092 72.9171 70.5654 72.1742 70.3802C71.3867 70.1842 70.552 70.3165 69.8267 70.6678C68.4146 71.3523 67.3402 72.81 67.2602 74.3998C67.1763 76.0762 68.2915 77.2932 69.8805 77.6539C71.5969 78.0418 73.5344 77.6497 75.1963 77.1892C76.1163 76.9349 77.0134 76.6122 77.8852 76.222C78.4256 75.9793 78.0547 75.1355 77.5118 75.3792C76.0525 76.0338 74.5224 76.4914 72.9408 76.727C71.6949 76.9121 70.1106 77.0982 69.0177 76.3124C66.6352 74.6002 69.5493 70.5534 72.0258 71.2881C73.7632 71.804 70.9289 73.6525 70.3515 74.0367C69.1648 74.8275 67.8742 75.4657 66.5336 75.9515C65.1919 76.4372 63.7903 76.7541 62.3723 76.9023C61.1682 77.0286 59.8515 77.0378 58.7423 76.4828C57.4695 75.8461 57.1699 74.4899 57.6162 73.2076C58.0625 71.9253 59.0322 70.8155 60.1905 70.1214C60.6576 69.8411 61.2052 69.5663 61.768 69.6491C62.6348 69.7764 61.9725 70.5847 61.6138 70.9252C60.5732 71.9121 59.4134 72.7881 58.1827 73.5211C56.9569 74.2511 55.6531 74.8503 54.3028 75.3068C52.9905 75.7499 51.5228 76.1757 50.1253 75.982C48.6932 75.7833 47.7402 74.7136 47.5319 73.3077C47.3078 71.7908 48.0016 70.2801 48.8362 69.0553C49.2182 68.4953 49.6563 67.9698 50.1991 67.5594C50.4082 67.4018 51.6664 66.6225 51.8313 67.018C51.9007 67.1856 51.689 67.5249 51.6041 67.654C51.4228 67.931 51.1846 68.1804 50.9623 68.4246C50.5174 68.9165 50.0342 69.3723 49.5252 69.7959C47.4586 71.5128 44.9338 72.6628 42.2785 73.0769C41.6257 73.1791 40.9647 73.2391 40.3034 73.2487C39.7186 73.2574 39.6093 74.1732 40.2012 74.1641L40.2009 74.1664Z" fill="#B55759"/>
<rect x="43.707" y="14.5488" width="43.7194" height="1.59471" rx="0.797356" transform="rotate(4.83633 43.707 14.5488)" fill="#FDFDFD"/>
<rect x="42.9102" y="21.418" width="43.7194" height="1.59471" rx="0.797356" transform="rotate(4.83633 42.9102 21.418)" fill="#FDFDFD"/>
<rect x="41.3164" y="28.2871" width="43.7194" height="1.59471" rx="0.797356" transform="rotate(4.83633 41.3164 28.2871)" fill="#FDFDFD"/>
<rect x="40.5195" y="35.1562" width="43.7194" height="1.59471" rx="0.797356" transform="rotate(4.83633 40.5195 35.1562)" fill="#FDFDFD"/>
<rect x="39.7207" y="42.0273" width="43.7194" height="1.59471" rx="0.797356" transform="rotate(4.83633 39.7207 42.0273)" fill="#FDFDFD"/>
<rect x="38.9238" y="48.8965" width="43.7194" height="1.59471" rx="0.797356" transform="rotate(4.83633 38.9238 48.8965)" fill="#FDFDFD"/>
<rect x="38.127" y="55.7656" width="43.7194" height="1.59471" rx="0.797356" transform="rotate(4.83633 38.127 55.7656)" fill="#FDFDFD"/>
<path d="M40.5566 59.9151L45.034 63.6455C45.9863 64.4388 46.1633 65.8336 45.4406 66.8397C44.7906 67.7457 43.5949 68.0734 42.573 67.6267L36.1035 64.7959L40.5577 59.9141L40.5566 59.9151Z" fill="#B67F6E"/>
<path d="M43.5539 48.709L53.4293 58.8446L50.4553 62.2769C49.721 63.1239 48.5053 63.362 47.5055 62.8553L40.4998 59.2997L34.9121 57.9354L43.5539 48.709Z" fill="#B67F6E"/>
<path d="M3.78274 77.3849C3.837 77.1498 3.91777 76.9215 4.0235 76.7046L18.451 47.1048C19.1884 45.0052 20.6454 43.2343 22.5617 42.1049L29.8097 37.833C30.9938 37.1356 32.4392 37.044 33.7023 37.5876L47.4346 43.4976C48.3922 43.9095 49.2171 44.5775 49.8186 45.4287L54.4223 51.9382C55.1545 52.9727 54.8669 54.4097 53.7934 55.0839C52.9938 55.5854 51.9635 55.5232 51.2303 54.9291L43.5556 48.7103C43.5556 48.7103 34.2712 71.2487 31.608 75.3805C29.7163 78.3154 25.3666 85.0083 23.0054 88.6396C22.1022 90.0286 20.2881 90.4908 18.8279 89.708L5.05748 82.3266C3.7888 81.6466 3.13287 80.201 3.45654 78.7984L3.78274 77.3849Z" fill="#DFB0A2"/>
<path d="M32.9558 55.658C32.9337 55.658 32.9105 55.6559 32.8873 55.6506C32.7072 55.6127 32.5924 55.4368 32.6303 55.2566L34.5234 46.2408C34.5613 46.0607 34.7373 45.9459 34.9174 45.9838C35.0976 46.0217 35.2124 46.1977 35.1745 46.3778L33.2813 55.3936C33.2487 55.5505 33.1096 55.658 32.9558 55.658Z" fill="#654237"/>
<path d="M60.2787 55.8101L13.2363 35.2773L10.7191 41.0444L57.7615 61.5772L60.2787 55.8101Z" fill="#28748C"/>
<path d="M59.181 58.3238L12.1387 37.791L11.815 38.5325L58.8574 59.0653L59.181 58.3238Z" fill="#AAC0B7"/>
<path d="M63.6641 62.1148C64.8808 62.1685 65.8258 62.138 65.9122 61.9262C65.9965 61.7176 65.4118 60.9813 64.5922 60.0879C64.2393 60.7432 63.9201 61.4195 63.6641 62.1138V62.1148Z" fill="#654237"/>
<path d="M60.2815 55.8066L57.7637 61.5745C57.7637 61.5745 61.2507 62.0085 63.6642 62.1149C63.9202 61.4196 64.2395 60.7433 64.5924 60.0891C62.9258 58.2729 60.2815 55.8077 60.2815 55.8077V55.8066Z" fill="#AAC0B7"/>
<path d="M46.9284 56.0554L31.6064 75.3785L28.1973 58.5574L41.7778 50.2412C43.4992 49.1866 45.739 49.6028 46.9673 51.2041C48.0682 52.6389 48.0524 54.6395 46.9284 56.0564V56.0554Z" fill="#DFB0A2"/>
<path d="M24.3877 61.1026C24.275 61.1026 24.1654 61.0457 24.1033 60.9425C24.0074 60.7855 24.058 60.5811 24.2149 60.4853L40.3123 50.7141C40.4692 50.6193 40.6736 50.6688 40.7695 50.8258C40.8654 50.9828 40.8148 51.1871 40.6578 51.283L24.5605 61.0541C24.5068 61.0868 24.4467 61.1026 24.3877 61.1026Z" fill="#654237"/>
</svg>
