<svg width="108" height="108" viewBox="0 0 108 108" fill="none" xmlns="http://www.w3.org/2000/svg">
<rect width="108" height="108" fill="white"/>
<path d="M95.7 61.8L82.1059 63.7018L52.8 85.3749C51.2089 86.5509 49.091 86.7297 47.3259 85.8357L26.7304 75.3987C25.1717 74.6092 24.1529 73.0481 24.0557 71.3046L23.8061 66.8169L42.1915 39.2737L97.5837 34.6459L97.6462 60.3825C97.6476 60.9378 97.2677 61.4215 96.7278 61.5519L95.7 61.8Z" fill="#B67F6E"/>
<path d="M64.6217 51.0197C64.4669 51.0197 64.3217 50.9238 64.2653 50.7702C64.1945 50.5734 64.2965 50.3562 64.4933 50.2854L73.9547 46.8632C74.1515 46.7924 74.3687 46.8932 74.4395 47.09C74.5103 47.2868 74.4083 47.504 74.2115 47.5748L64.7501 50.9969C64.7081 51.0125 64.6637 51.0197 64.6217 51.0197Z" fill="#986352"/>
<path d="M10.8386 35.4001C10.8386 34.7166 11.4444 34.1919 12.1209 34.2894L48.3855 39.5198L82.4178 63.5567L84.057 63.2543C83.9058 64.0943 83.481 64.861 82.8487 65.4346L64.9061 81.6876C63.8814 82.6152 62.5267 83.0915 61.1468 83.0075L55.1255 82.6428L22.6558 66.065C22.302 65.8843 21.9088 65.7944 21.5116 65.8031L12.065 66.0112C11.3921 66.026 10.8386 65.4845 10.8386 64.8114V35.4001Z" fill="#DFB0A2"/>
<path d="M77.203 70.5798C77.1298 70.5798 77.0554 70.5582 76.9906 70.515L56.2727 56.4627C56.0999 56.3451 56.0543 56.1099 56.1719 55.9359C56.2894 55.7631 56.5247 55.7175 56.6975 55.8351L77.4154 69.8875C77.5882 70.0051 77.6338 70.2403 77.5162 70.4142C77.443 70.5222 77.3242 70.5798 77.203 70.5798Z" fill="#986352"/>
<path d="M71.2357 75.7827C71.1709 75.7827 71.1049 75.7659 71.0449 75.7311L53.9124 65.7537C53.7312 65.6482 53.67 65.4166 53.7756 65.2354C53.8812 65.0554 54.1127 64.993 54.2939 65.0986L71.4265 75.076C71.6077 75.1816 71.6689 75.4132 71.5633 75.5944C71.4925 75.7155 71.3665 75.7827 71.2357 75.7827Z" fill="#986352"/>
<path d="M66.1012 80.4001C66.0736 80.4001 66.0461 80.3977 66.0173 80.3905L60.092 79.055C60.0428 79.0442 59.996 79.0226 59.954 78.9926L48.9255 71.0622C48.7551 70.9398 48.7167 70.7035 48.8391 70.5331C48.9615 70.3627 49.1979 70.3243 49.3683 70.4467L60.3344 78.3314L66.1841 79.6501C66.3881 79.6957 66.5164 79.8985 66.4708 80.1025C66.4312 80.2789 66.2752 80.3977 66.1012 80.3977V80.4001Z" fill="#986352"/>
<path d="M51.3902 83.5835L51.5965 75.3208C51.6505 73.1729 50.3042 71.2398 48.2727 70.5438L29.9006 64.2526C27.7527 63.5171 25.3805 64.3462 24.159 66.2601L23.805 66.8145L51.3902 83.5835Z" fill="#B67F6E"/>
<path d="M44.0225 84.097C43.8569 84.097 43.7057 83.9878 43.6589 83.8211L41.9335 77.7374C41.9107 77.6558 41.9155 77.5694 41.9467 77.4914L44.9921 69.9751C45.07 69.7807 45.2921 69.6883 45.4853 69.7663C45.6797 69.8455 45.772 70.0663 45.694 70.2595L42.6978 77.6546L44.3873 83.6123C44.4437 83.8139 44.3273 84.0226 44.1257 84.0802C44.0909 84.0898 44.0561 84.0946 44.0225 84.0946V84.097Z" fill="#986352"/>
<path d="M36.613 80.4324C36.4354 80.4324 36.2771 80.3076 36.2411 80.1264L35.0316 73.9588C35.016 73.8808 35.0256 73.7992 35.0592 73.7272L37.9354 67.4816C38.023 67.292 38.2486 67.208 38.4382 67.2956C38.6278 67.3832 38.7117 67.6076 38.6241 67.7984L35.7995 73.9324L36.985 79.98C37.0258 80.1852 36.8915 80.3844 36.6863 80.4252C36.6623 80.43 36.637 80.4324 36.613 80.4324Z" fill="#986352"/>
<path d="M28.3047 75.8871C28.1067 75.8871 27.9399 75.7335 27.9267 75.5332L27.5271 69.4351C27.5223 69.3583 27.5403 69.2803 27.5811 69.2143L30.3349 64.6558C30.4429 64.477 30.6745 64.4182 30.8557 64.5274C31.0345 64.6354 31.0921 64.8682 30.9841 65.0482L28.2915 69.5047L28.6839 75.484C28.6971 75.6927 28.5386 75.8727 28.331 75.8871C28.3226 75.8871 28.3142 75.8871 28.3058 75.8871H28.3047Z" fill="#986352"/>
<path d="M43.6506 27.0633L36.5962 29.5327C35.0759 30.0643 33.7596 31.0554 32.8285 32.3693L26.6932 41.0208C25.4957 42.7091 25.7501 45.025 27.2848 46.4145C28.7427 47.7332 30.9326 47.8268 32.4985 46.6377L41.8411 39.8857L97.6474 41.7504L97.5891 31.0382C97.5855 30.378 97.0493 29.8447 96.3891 29.8447H70.1294L49.4162 26.5473C47.482 26.2389 45.5009 26.4165 43.6518 27.0645L43.6506 27.0633Z" fill="#B67F6E"/>
</svg>
