<svg width="88" height="88" viewBox="0 0 88 88" fill="none" xmlns="http://www.w3.org/2000/svg">
<g clip-path="url(#clip0_215_1405)">
<path d="M16.9416 41.8011C14.455 41.0916 13.247 38.2288 12.391 36.1374C13.8154 36.38 16.1847 37.4293 16.7361 38.8567C16.9919 39.5191 17.2747 41.2782 16.94 41.8037" fill="#B55759"/>
<path d="M18.8557 43.9448C17.7641 43.4277 16.8318 42.6004 16.274 41.4888C15.3579 39.7654 15.8425 38.1101 15.9476 36.3096C18.9556 37.9767 19.1619 40.8968 18.9259 43.9348" fill="#DFB0A2"/>
<path d="M18.6352 44.0933C16.0487 44.047 14.149 41.5854 12.7838 39.7839C14.2252 39.6533 16.7808 40.0607 17.6805 41.2979C18.0961 41.8741 18.8199 43.5002 18.6352 44.0933Z" fill="#DFB0A2"/>
<path d="M19.9413 46.1317C18.0786 44.336 18.363 41.2425 18.5898 38.9912C19.7356 39.8756 21.3282 41.9133 21.1461 43.4354C21.0602 44.1392 20.4819 45.8255 19.9413 46.1317Z" fill="#B55759"/>
<path d="M21.3018 46.6725C20.1391 46.9963 18.8914 46.98 17.7432 46.5027C15.9215 45.7982 15.2049 44.2298 14.1063 42.8024C17.4718 42.0928 19.539 44.1674 21.346 46.618" fill="#DFB0A2"/>
<path d="M22.683 48.743C20.2907 49.7296 17.5706 48.2294 15.6004 47.1206C16.8708 46.4262 19.3776 45.7838 20.6959 46.5614C21.307 46.9242 22.6185 48.1276 22.684 48.7471" fill="#B55759"/>
<path d="M21.6162 47.5803C19.8354 45.7037 20.2555 42.6264 20.5859 40.3857C21.689 41.322 23.1926 43.4292 22.9396 44.9395C22.82 45.6403 22.171 47.2972 21.6162 47.5803Z" fill="#DFB0A2"/>
<path d="M23.0848 50.814C22.2459 49.9448 21.6656 48.8407 21.5356 47.6057C21.2877 45.6691 22.3233 44.2897 23.0557 42.6416C25.2832 45.2628 24.4448 48.0678 23.1531 50.8242" fill="#DFB0A2"/>
<path d="M29.2902 65.3401C29.9347 56.2543 25.0219 52.6696 24.0985 51.5918C23.3621 50.6544 22.9986 50.8174 21.8244 50.8144C20.8138 50.788 20.0665 50.4904 19.1121 50.154C18.4055 49.9171 17.7204 49.5762 16.8934 49.4249C18.4535 48.8025 21.0882 48.4309 22.6869 49.0476C24.4319 49.7438 31.7338 56.2235 30.2 65.72" fill="#DFB0A2"/>
<path d="M22.4823 46.7466C22.6908 46.8752 22.8892 46.5535 22.6808 46.4249C22.4723 46.2963 22.2738 46.618 22.4823 46.7466Z" fill="#B55759"/>
<path d="M23.2274 46.9543C23.4359 47.0829 23.6344 46.7612 23.4259 46.6326C23.2174 46.504 23.019 46.8257 23.2274 46.9543Z" fill="#B55759"/>
<path d="M22.9696 46.2271C23.1781 46.3557 23.3766 46.034 23.1681 45.9054C22.9596 45.7768 22.7611 46.0985 22.9696 46.2271Z" fill="#B55759"/>
<path d="M24.5537 72.6338C22.429 73.7839 19.7438 73.8211 17.4304 73.3828C14.8064 72.8198 13.744 71.0084 13.1198 68.5729C14.1185 68.448 15.3057 69.0111 16.307 68.448C17.9324 67.5105 15.8687 66.7615 14.8701 66.8226C13.558 66.8837 13.2446 67.4467 12.7453 66.0736C12.4319 65.075 11.9963 64.1374 11.5581 63.1361C12.3071 63.1999 14.9949 64.0737 14.9949 62.6368C14.9949 61.1999 12.8091 61.9489 12.0574 62.0126C11.9937 60.8254 12.1823 59.5771 12.246 58.3899C12.3071 57.0168 12.3708 55.2665 13.1198 54.1404C14.1185 52.5149 15.6191 53.7659 16.9922 54.2652C18.1794 54.7034 19.3666 55.139 20.429 55.7021C20.1156 56.0766 19.0559 57.3886 19.3056 57.9517C19.7438 58.8892 20.6176 57.6383 20.9921 57.2638C21.5552 56.8255 21.0558 56.7645 21.8048 56.8255C22.0545 56.8255 22.7424 57.3249 22.992 57.4497C23.6799 57.8242 24.6175 58.1376 24.4927 58.8866C24.4289 59.2611 20.7451 63.3858 23.1806 62.573C23.9933 62.2596 24.0544 61.261 24.6175 60.8228C25.3054 60.2597 25.9295 60.8228 26.6785 61.3221C27.4912 61.9462 28.1154 62.3207 27.6161 63.1335C27.1778 63.8213 26.1792 64.0073 25.9295 64.82C25.555 66.0683 26.6785 65.569 27.3664 65.1334C27.9906 64.6952 28.5536 63.6965 29.1167 64.4455C29.8657 65.5079 28.7422 67.8823 28.1791 68.8199C27.4912 70.1319 26.304 71.6325 24.992 72.4426C24.8671 72.5037 24.6786 72.5674 24.5537 72.6312" fill="#28748C"/>
<path d="M14.7723 56.3712C15.2928 57.7576 16.1534 58.9395 16.9741 60.1586C17.9275 61.5689 18.6818 63.0908 19.5397 64.5569C20.3338 65.9114 21.2608 67.2474 22.2276 68.4797C23.0801 69.5687 24.5117 70.5036 25.1571 71.7147C25.258 71.9033 25.5449 71.7359 25.4439 71.5474C24.9818 70.6762 24.0283 70.0308 23.3563 69.327C22.0841 67.9937 21.0669 66.3284 20.0683 64.7826C19.2316 63.4918 18.5783 62.0895 17.7788 60.7748C16.8652 59.2742 15.7125 57.9435 15.0883 56.2809C15.014 56.0817 14.6926 56.1693 14.7669 56.3685L14.7723 56.3712Z" fill="#0E5267"/>
<path d="M13.9514 59.1121C15.0218 59.4812 16.124 59.7601 17.1996 60.1107C17.3006 60.1426 17.4148 60.0549 17.4095 59.9514C17.3564 58.8863 17.4095 57.8266 17.4732 56.7642C17.4865 56.5491 17.1545 56.5517 17.1412 56.7642C17.0801 57.8266 17.0244 58.8863 17.0775 59.9514C17.1465 59.8982 17.2182 59.8451 17.2873 59.792C16.209 59.4387 15.1094 59.1625 14.0391 58.7934C13.8372 58.7243 13.7496 59.043 13.9514 59.1147V59.1121Z" fill="#0E5267"/>
<path d="M16.1611 62.7828C17.1624 63.2343 18.2141 63.537 19.2606 63.8611C19.3668 63.8929 19.4678 63.8053 19.4704 63.7017C19.489 62.6526 19.7068 61.6221 19.7838 60.5783C19.7998 60.3658 19.4678 60.3658 19.4518 60.5783C19.3775 61.6247 19.157 62.6526 19.1384 63.7017C19.2075 63.6486 19.2792 63.5955 19.3482 63.5424C18.331 63.2263 17.3005 62.9368 16.3258 62.4959C16.1319 62.4083 15.9645 62.6951 16.1584 62.7828H16.1611Z" fill="#0E5267"/>
<path d="M16.8858 65.797C18.3705 66.137 19.8047 66.6576 21.2602 67.1091C21.3399 67.133 21.4514 67.0799 21.4647 66.9922C21.648 65.7864 21.7808 64.5753 21.964 63.3695C21.9959 63.1597 21.6772 63.0694 21.6453 63.2818C21.571 63.7785 21.5019 64.2752 21.4355 64.7718C21.3744 65.2419 21.3133 65.7147 21.2496 66.1848C21.1832 66.6655 21.1487 66.7266 20.6812 66.5779C19.4515 66.1875 18.2351 65.7652 16.9761 65.4757C16.769 65.4279 16.6787 65.7466 16.8885 65.7944L16.8858 65.797Z" fill="#0E5267"/>
<path d="M18.471 68.9662C19.1376 69.338 19.8733 69.439 20.617 69.5558C21.7723 69.7338 22.925 69.9967 24.0697 70.2331C24.176 70.2544 24.2795 70.1853 24.2795 70.0738C24.2875 68.929 24.3353 67.7843 24.3433 66.6369C24.3433 66.4218 24.0113 66.4218 24.0113 66.6369C24.006 67.3594 23.9874 68.0818 23.9688 68.8042C23.9661 68.9423 24.1016 69.9011 23.7271 69.8241C23.3048 69.7364 22.8799 69.6647 22.4576 69.5851C21.2491 69.3593 19.7219 69.2876 18.6409 68.682C18.455 68.5784 18.2877 68.8653 18.4736 68.9689L18.471 68.9662Z" fill="#0E5267"/>
<path d="M23.5516 64.512C23.2302 64.512 23.2302 65.0114 23.5516 65.0114C23.8729 65.0114 23.8729 64.512 23.5516 64.512Z" fill="#0E5267"/>
<path d="M24.1051 64.0234C24.0839 64.0021 24.0626 63.9809 24.0414 63.9596C23.813 63.7312 23.4597 64.0845 23.6882 64.3129C23.7094 64.3341 23.7306 64.3554 23.7519 64.374C23.9803 64.6024 24.3335 64.2491 24.1051 64.0207V64.0234Z" fill="#0E5267"/>
<path d="M25.8016 68.6976C25.4802 68.6976 25.4802 69.1969 25.8016 69.1969C26.1229 69.1969 26.1229 68.6976 25.8016 68.6976Z" fill="#0E5267"/>
<path d="M26.4905 69.1969C26.1692 69.1969 26.1692 69.6963 26.4905 69.6963C26.8119 69.6963 26.8119 69.1969 26.4905 69.1969Z" fill="#0E5267"/>
<path d="M26.7391 68.3232C26.4177 68.3232 26.4177 68.8226 26.7391 68.8226C27.0604 68.8226 27.0604 68.3232 26.7391 68.3232Z" fill="#0E5267"/>
<path d="M44.3328 10.6667C31.9958 10.6667 21.9995 20.9582 21.9995 33.6539V71.3333H66.6662V33.6539C66.6662 20.9582 56.6699 10.6667 44.3328 10.6667Z" fill="#F1ECE6"/>
<path d="M59.5196 31.3333H29.8135C29.1712 31.3333 28.6665 30.7467 28.6665 30C28.6665 29.2533 29.1712 28.6667 29.8135 28.6667H59.5196C60.1618 28.6667 60.6665 29.2533 60.6665 30C60.6665 30.7467 60.1618 31.3333 59.5196 31.3333Z" fill="#FDFDFD"/>
<path d="M59.5196 39.3333H29.8135C29.1712 39.3333 28.6665 38.7467 28.6665 38C28.6665 37.2533 29.1712 36.6667 29.8135 36.6667H59.5196C60.1618 36.6667 60.6665 37.2533 60.6665 38C60.6665 38.7467 60.1618 39.3333 59.5196 39.3333Z" fill="#FDFDFD"/>
<path d="M59.5196 47.3333H29.8135C29.1712 47.3333 28.6665 46.7467 28.6665 46C28.6665 45.2533 29.1712 44.6667 29.8135 44.6667H59.5196C60.1618 44.6667 60.6665 45.2533 60.6665 46C60.6665 46.7467 60.1618 47.3333 59.5196 47.3333Z" fill="#FDFDFD"/>
<path d="M54.5297 72.214C51.8974 69.2731 48.8036 68.6532 45.7071 66.6408C42.6106 64.6283 44.6231 63.5442 47.4111 64.1641C49.4235 64.6283 51.2803 65.5567 53.4485 65.5567C52.6757 63.3886 45.8656 55.1859 47.4111 53.0206C49.1122 50.5439 55.6138 62.3073 57.7819 63.5442C60.1029 60.7591 57.162 54.1018 57.6262 50.6967C57.9347 48.5286 59.0188 46.519 60.4114 48.9956C61.3398 51.0081 61.1841 54.8773 61.1841 57.0427C61.1841 57.9711 60.7199 62.6159 62.1125 62.9244C63.6608 63.2329 65.0534 58.5909 65.5176 57.6625C66.2903 56.1143 67.3744 53.7933 69.0783 53.0206C71.555 51.7836 72.3277 53.6404 71.555 55.8057C69.5425 61.8431 63.5079 65.5567 63.0409 72.3668" fill="#28748C"/>
<path d="M62.9365 71.3204C62.9365 68.7418 63.1431 65.9538 63.6583 63.4771C64.1734 63.6837 64.6914 63.7856 65.2066 63.9923C64.5867 62.0308 64.4848 61.8241 65.5151 59.9673C65.8236 59.5541 66.4435 58.0058 66.8567 57.7992C67.5785 57.4907 68.3003 58.3144 69.1268 58.521C68.9201 57.6945 68.3003 56.9727 68.7135 56.2509C68.9201 55.5292 70.5703 54.7027 71.0854 54.0828C71.4987 54.5979 71.9119 55.0112 72.4271 55.3225C72.4271 54.3942 71.9119 53.7743 72.4271 53.0525C72.8403 52.5374 74.5952 52.0194 75.317 51.7109C76.8653 50.9891 78.6201 49.956 80.3722 49.7494C80.1656 51.1929 79.5457 52.5345 79.3391 53.8762C78.7192 53.8762 77.9974 53.8762 77.2757 54.0828C77.5842 54.8046 78.4107 55.3225 79.1325 55.733C78.8239 56.868 78.306 58.1049 77.5842 59.0361C76.6558 60.4797 76.7577 60.0692 75.1075 59.9645C75.3142 60.5844 76.2426 61.0995 76.3445 61.7194C76.3445 62.2345 75.3113 63.3696 75.0028 63.7828C73.8678 65.2264 73.3526 64.5046 71.5977 63.7828C72.011 64.6093 72.7328 65.3311 72.4243 66.0528C72.2176 66.6727 70.7741 67.2898 70.3608 67.9096C69.741 67.4964 69.1239 67.0831 68.504 66.7746C68.8126 67.3945 69.2258 68.0115 69.5372 68.6314C67.887 69.1466 65.4104 70.3863 64.482 71.8298" fill="#28748C"/>
<path d="M64.0335 70.6212C65.528 66.8058 67.7726 63.4177 70.3794 60.2759C72.8278 57.3237 75.5111 54.3376 78.5538 51.9996C78.7321 51.8637 78.5538 51.5552 78.3755 51.6939C75.1742 54.1564 72.4032 57.2841 69.8303 60.3891C67.2914 63.4517 65.1487 66.8171 63.6938 70.5278C63.6118 70.7401 63.9514 70.8307 64.0335 70.6212Z" fill="#0E5267"/>
<path d="M66.9901 60.154C67.0128 61.4673 67.276 62.7608 67.2477 64.0742C67.2477 64.1619 67.3298 64.2638 67.4232 64.2496C68.663 64.0911 69.9706 64.1534 71.1226 63.6071C71.3293 63.5081 71.1481 63.2052 70.9443 63.3014C69.8546 63.8194 68.595 63.7458 67.4232 63.8958L67.5987 64.0713C67.627 62.758 67.3609 61.4616 67.3411 60.1511C67.3383 59.9219 66.9845 59.9219 66.9873 60.1511L66.9901 60.154Z" fill="#0E5267"/>
<path d="M70.4973 56.5424C70.5765 57.4991 70.9275 58.4134 70.9105 59.3786C70.9105 59.4663 70.9926 59.5654 71.086 59.5541C72.0739 59.4493 73.0702 59.3927 74.0212 59.0842C74.2363 59.0134 74.1458 58.671 73.9278 58.7417C73.0079 59.0418 72.0427 59.0984 71.086 59.2003L71.2615 59.3757C71.2785 58.4049 70.9303 57.4963 70.8483 56.5396C70.8284 56.3132 70.4746 56.3132 70.4945 56.5396L70.4973 56.5424Z" fill="#0E5267"/>
<path d="M74.6315 53.1945C74.5353 53.8964 74.5692 54.5984 74.5721 55.306C74.5721 55.405 74.6513 55.4786 74.7475 55.4815C75.4835 55.5126 76.1854 55.2918 76.9157 55.2239C77.1393 55.2013 77.1421 54.8474 76.9157 54.8701C76.1883 54.9409 75.4835 55.1616 74.7475 55.1277L74.923 55.3032C74.9202 54.6295 74.8778 53.9558 74.9683 53.2879C74.9995 53.0642 74.657 52.968 74.6287 53.1945H74.6315Z" fill="#0E5267"/>
<path d="M64.6225 65.5659C64.7301 66.2311 64.8659 66.8878 65.0867 67.5274C65.1207 67.6265 65.2027 67.6661 65.3046 67.652C66.0321 67.5444 66.751 67.3944 67.4728 67.2387C67.6964 67.1906 67.6002 66.851 67.3794 66.8962C66.6604 67.0491 65.9415 67.1991 65.2112 67.3095C65.2848 67.352 65.3556 67.3916 65.4292 67.434C65.2084 66.7972 65.0725 66.1377 64.965 65.4725C64.9282 65.2489 64.5885 65.3423 64.6225 65.5659Z" fill="#0E5267"/>
<path d="M58.755 70.717C58.8569 66.2816 59.4768 61.9453 58.6503 57.4053C57.7219 52.0415 54.1102 47.6034 49.055 45.7466C48.0219 45.3333 46.9916 45.0248 45.9585 45.1267C48.0219 46.3636 50.9062 47.8836 52.3497 50.0489C53.5866 52.1123 54.832 53.587 55.6557 55.857C57.2039 59.9838 57.0992 64.2154 57.2039 68.6507C57.2039 69.3725 57.3058 70.0943 57.3058 70.9208" fill="#AAC0B7"/>
<path d="M55.9717 70.7173C56.0736 67.0037 54.5282 62.6703 52.8752 59.3671C51.6382 56.9952 48.955 55.7554 46.9934 54.0005C45.2385 52.4523 43.795 50.3889 43.0732 48.1188C43.2799 53.692 44.93 56.7857 49.4701 60.0889C52.8752 62.4608 53.9054 67.3122 54.4234 71.2324C54.4234 71.2324 54.5253 71.439 54.5253 71.5409" fill="#AAC0B7"/>
<path d="M53.4196 71.8235C53.0064 69.2449 52.2846 65.8398 50.6344 63.8783C47.6426 60.06 41.9675 60.1647 39.5928 55.6247C40.5212 57.1729 40.6259 59.1316 41.7609 60.578C43.1026 62.2282 45.3726 62.5395 47.0228 63.6745C50.2212 65.9446 51.1496 68.6279 51.7695 72.2395" fill="#AAC0B7"/>
<path d="M59.5132 71.9934C59.8727 70.581 59.6689 68.894 59.5868 67.5184C59.4821 65.6616 59.5868 63.7001 59.6887 61.8433C59.7906 59.9866 59.8953 57.9231 60.9256 56.3749C61.9559 54.62 62.2022 53.9124 62.6805 51.3197H62.1654C61.9587 52.6613 61.3389 53.7963 60.6171 54.9313C59.3802 57.0995 59.0688 58.6449 58.8622 61.2263C58.7603 63.1878 58.7603 65.1465 58.7603 67.108C58.7603 68.2147 58.2791 70.5329 58.5678 72.0189C58.882 72.0217 59.199 72.0132 59.5132 71.9962V71.9934Z" fill="#0E5267"/>
<path d="M61.7137 71.6961C61.7279 70.3997 61.8722 69.0779 62.1156 67.8042C62.4242 66.0238 62.7044 64.4642 63.7771 62.3697L63.3526 62.0781C61.5694 65.2483 60.7995 68.7326 60.7202 71.8291C60.7202 71.8432 60.7202 71.8631 60.7202 71.8772C61.0542 71.8291 61.3854 71.7668 61.7137 71.6961Z" fill="#0E5267"/>
<path d="M56.4069 71.8035C56.438 71.8176 56.472 71.8261 56.5003 71.8403C56.8824 71.9025 57.2673 71.945 57.6551 71.9733C57.5985 68.1182 56.2399 64.5914 54.9945 61.0703H54.5303C54.9945 63.2385 55.8464 65.3273 56.155 67.5719C56.2455 68.3474 56.1493 70.3627 56.404 71.8063L56.4069 71.8035Z" fill="#0E5267"/>
<path d="M54.3402 60.6835C53.6042 60.607 52.7919 60.1428 52.0956 59.9107C51.0115 59.523 49.8907 59.2541 48.8462 58.8267C47.9575 58.4389 46.9498 58.1304 46.3696 57.2416C46.0978 56.817 46.0214 56.3132 46.3696 55.8858C46.7573 55.4216 47.3744 55.7698 47.6065 55.5377H47.6829C47.3744 54.4168 47.8754 53.3327 48.9991 52.9846C50.1992 52.6364 50.8162 53.6044 51.32 54.5696C52.2881 56.35 52.7891 58.4389 53.8363 60.1796C53.9524 60.3721 54.0288 60.6042 54.1845 60.7599" fill="#DFB0A2"/>
<path d="M54.5316 60.7996C54.0278 60.375 53.3711 60.1797 52.8277 59.8315C51.9757 59.2513 51.203 58.555 50.4671 57.8983C49.7311 57.2417 48.9188 56.4293 48.9584 55.3453C48.9981 53.9527 50.1585 54.1083 51.1266 54.2244C51.1266 53.5677 51.1266 52.6761 51.8229 52.328C52.6352 51.9402 53.0598 52.7525 53.6032 53.1007C53.991 52.2883 55.4996 51.592 56.0035 52.5969C56.4677 53.4488 56.0431 54.765 55.7714 55.6141C55.2675 57.202 54.959 59.0588 54.3391 60.6043" fill="#DFB0A2"/>
<path d="M54.5173 60.6465C54.4607 58.4218 55.1315 56.2933 55.4768 54.1166C55.5136 53.893 55.1711 53.7968 55.1372 54.0232C54.7862 56.2338 54.1069 58.3906 54.1635 60.6494C54.1691 60.8758 54.523 60.8786 54.5173 60.6494V60.6465Z" fill="#B55759"/>
<path d="M54.0702 60.6467C53.6824 58.8663 54.3787 56.701 54.8429 54.9971C55.075 54.029 55.191 52.9082 56.0798 52.3647C57.3564 51.5524 57.2007 52.7129 57.512 53.5648C57.7045 54.0687 57.6281 53.8366 58.1687 53.7969C58.6725 53.7573 59.2131 53.7969 59.4452 54.3008C59.7934 55.1895 58.7489 56.1972 58.2083 56.7378C56.8525 58.054 55.3835 59.0984 54.3391 60.6835" fill="#DFB0A2"/>
<path d="M54.5703 60.7625C54.4939 59.718 54.726 58.4019 54.842 57.3574C54.9185 56.7007 55.2298 55.8091 55.8101 55.461C56.9309 54.7251 56.8941 55.8091 57.2423 56.4658C57.8225 56.1573 58.7141 55.4978 59.4104 56.0016C60.2992 56.6215 59.1783 57.7027 58.6745 58.1698C57.4376 59.2142 55.7733 59.6416 54.5731 60.6464" fill="#DFB0A2"/>
<path d="M53.5184 58.5488C53.8241 59.0074 53.8014 59.5791 53.7307 60.1028C53.708 60.2839 53.9911 60.2811 54.0137 60.1028C54.0901 59.531 54.093 58.9055 53.7618 58.4073C53.6627 58.2545 53.4165 58.3988 53.5184 58.5488Z" fill="#DFB0A2"/>
<path d="M51.9839 59.6839C52.2386 59.8594 52.5273 59.9613 52.7962 60.1084C52.9547 60.1962 53.0991 59.9528 52.9377 59.865C52.6688 59.715 52.3801 59.6131 52.1254 59.4405C51.9754 59.3357 51.8338 59.582 51.9839 59.6839Z" fill="#DFB0A2"/>
<path d="M55.2265 58.7503C54.3745 59.4069 51.4733 59.9504 51.0487 58.6738C50.3128 56.5453 53.0611 55.5405 54.5302 56.701C55.034 57.0888 55.4586 57.9379 55.4586 58.5182" fill="#F1ECE6"/>
<path d="M51.3569 58.4785V58.5181C51.3569 58.7672 51.7447 58.7672 51.7447 58.5181V58.4785C51.7447 58.2294 51.3569 58.2294 51.3569 58.4785Z" fill="#F1ECE6"/>
<path d="M51.5867 57.3581C51.3376 57.3581 51.3376 57.7458 51.5867 57.7458C51.8358 57.7458 51.8358 57.3581 51.5867 57.3581Z" fill="#F1ECE6"/>
<path d="M53.6751 57.9375C53.426 57.9375 53.426 58.3253 53.6751 58.3253C53.9242 58.3253 53.9242 57.9375 53.6751 57.9375Z" fill="#F1ECE6"/>
<path d="M53.0594 58.6341C52.8103 58.6341 52.8103 59.0219 53.0594 59.0219C53.3085 59.0219 53.3085 58.6341 53.0594 58.6341Z" fill="#F1ECE6"/>
<path d="M54.3758 58.5553C54.1267 58.5553 54.1267 58.9431 54.3758 58.9431C54.6249 58.9431 54.6249 58.5553 54.3758 58.5553Z" fill="#F1ECE6"/>
<path d="M55.1492 58.054C54.9001 58.054 54.9001 58.4418 55.1492 58.4418C55.3983 58.4418 55.3983 58.054 55.1492 58.054Z" fill="#F1ECE6"/>
<path d="M52.7884 56.5052C52.5393 56.5052 52.5393 56.893 52.7884 56.893C53.0375 56.893 53.0375 56.5052 52.7884 56.5052Z" fill="#F1ECE6"/>
<path d="M52.2469 57.2025C51.9978 57.2025 51.9978 57.5902 52.2469 57.5902C52.496 57.5902 52.496 57.2025 52.2469 57.2025Z" fill="#F1ECE6"/>
<path d="M52.1712 58.5182C51.9221 58.5182 51.9221 58.906 52.1712 58.906C52.4203 58.906 52.4203 58.5182 52.1712 58.5182Z" fill="#F1ECE6"/>
<path d="M53.2571 58.0143C53.008 58.0143 53.008 58.4021 53.2571 58.4021C53.5062 58.4021 53.5062 58.0143 53.2571 58.0143Z" fill="#F1ECE6"/>
<path d="M53.7557 57.3945C53.5066 57.3945 53.5066 57.7823 53.7557 57.7823C54.0047 57.7823 54.0047 57.3945 53.7557 57.3945Z" fill="#F1ECE6"/>
<path d="M53.7962 58.5951C53.5471 58.5951 53.5471 58.9828 53.7962 58.9828C54.0453 58.9828 54.0453 58.5951 53.7962 58.5951Z" fill="#F1ECE6"/>
<path d="M54.7244 58.0143C54.4753 58.0143 54.4753 58.4021 54.7244 58.4021C54.9735 58.4021 54.9735 58.0143 54.7244 58.0143Z" fill="#F1ECE6"/>
<path d="M51.8992 56.5052C51.6501 56.5052 51.6501 56.893 51.8992 56.893C52.1483 56.893 52.1483 56.5052 51.8992 56.5052Z" fill="#F1ECE6"/>
<path d="M51.2024 57.666C50.9534 57.666 50.9534 58.0538 51.2024 58.0538C51.4515 58.0538 51.4515 57.666 51.2024 57.666Z" fill="#F1ECE6"/>
<path d="M51.783 58.903C51.5339 58.903 51.5339 59.2908 51.783 59.2908C52.0321 59.2908 52.0321 58.903 51.783 58.903Z" fill="#F1ECE6"/>
<path d="M51.4757 59.9106C50.4313 59.987 49.2708 59.871 48.4188 59.2143C47.799 58.7501 47.2187 57.8585 47.1423 57.0858C46.9866 55.4979 48.2264 56.3499 48.9227 56.8141C49.5793 55.3422 50.0435 56.0414 50.3549 57.2018C51.2068 57.0462 52.3277 56.3895 52.3277 57.8217C52.3277 58.5576 51.8635 59.5625 51.2436 59.9502" fill="#DFB0A2"/>
<path d="M54.6073 60.7629C53.9506 60.8025 53.2911 60.6865 52.7109 60.4911C52.1703 60.3355 50.0021 59.4071 51.59 59.0589C51.8985 58.9825 52.558 59.291 52.7505 59.0193C52.943 58.7476 52.7109 58.1305 52.9062 57.7428C53.2543 57.1625 53.4864 57.4342 53.9506 57.7428C54.6865 58.2466 54.4148 57.8588 55.0715 57.5871C56.6594 56.9304 55.1111 60.2958 54.6469 60.7204" fill="#B55759"/>
<path d="M53.1576 58.2378C53.3926 58.6284 53.6247 59.0218 53.8143 59.4379C53.9106 59.6446 54.2162 59.4662 54.12 59.2596C53.9275 58.8435 53.6954 58.4529 53.4633 58.0595C53.3473 57.8642 53.0388 58.0425 53.1576 58.2378Z" fill="#B55759"/>
<path d="M54.7415 58.4017C54.7358 58.6479 54.6736 58.8857 54.6311 59.1291C54.5915 59.3527 54.934 59.4461 54.9736 59.2225C55.0217 58.948 55.0896 58.6819 55.0953 58.4017C55.101 58.1724 54.7472 58.1753 54.7415 58.4017Z" fill="#B55759"/>
<path d="M52.3517 59.792C52.5442 59.9108 52.7225 60.0495 52.932 60.1401C53.0197 60.1769 53.1216 60.1684 53.1754 60.0778C53.2207 60.0014 53.2009 59.874 53.1131 59.8344C52.9037 59.7467 52.7254 59.6052 52.5329 59.4863C52.3376 59.3674 52.1593 59.6731 52.3546 59.792H52.3517Z" fill="#B55759"/>
<path d="M53.1774 60.7848C53.6501 61.5462 54.5219 62.3218 55.1842 61.5293C55.4305 61.2321 55.6286 60.3886 55.5097 59.9951C55.3484 59.4234 55.1021 59.9583 54.8446 60.2074C54.7398 60.0999 54.4313 59.6951 54.2417 59.7942C54.103 59.8791 54.2275 60.4084 54.2077 60.5443C54.0266 60.5612 52.4302 59.9838 53.1774 60.7877" fill="#28748C"/>
<path d="M62.1974 50.8233C61.586 50.5459 61.0227 49.9118 60.4906 49.5127C59.6698 48.8674 58.7838 48.3126 58.0083 47.6446C57.3545 47.0559 56.5789 46.5011 56.3355 45.5671C56.2251 45.1227 56.3044 44.667 56.7261 44.4038C57.1931 44.115 57.6262 44.5934 57.8923 44.4604C57.9262 44.4717 57.9602 44.483 57.9602 44.483C58.0168 43.4301 58.7612 42.6432 59.8255 42.6658C60.9576 42.7111 61.2124 43.7216 61.3652 44.6981C61.6851 46.5068 61.5152 48.4485 61.9143 50.2487C61.9596 50.4496 61.9596 50.6704 62.0474 50.8487" fill="#DFB0A2"/>
<path d="M62.3275 50.98C62.0162 50.4705 61.5067 50.1139 61.1416 49.6582C60.5755 48.9138 60.1113 48.0929 59.6669 47.3145C59.2225 46.5362 58.7583 45.6049 59.1036 44.685C59.5395 43.4991 60.4906 43.9661 61.2916 44.3426C61.4812 43.7765 61.736 43.0122 62.4351 42.9132C63.2446 42.8141 63.3776 43.6349 63.7428 44.0906C64.3089 43.5019 65.8062 43.3377 65.9505 44.3482C66.1034 45.2143 65.3618 46.222 64.8835 46.8787C63.9947 48.0986 63.1937 49.6072 62.2171 50.7592" fill="#DFB0A2"/>
<path d="M62.3756 50.8382C62.9587 48.905 64.1617 47.2746 65.0816 45.5028C65.1863 45.3018 64.8806 45.1207 64.7759 45.3245C63.8418 47.1275 62.6247 48.7833 62.0331 50.7448C61.968 50.9628 62.3077 51.0562 62.3756 50.8382Z" fill="#B55759"/>
<path d="M61.9756 50.7137C62.1539 49.072 63.3767 47.4077 64.2654 46.0774C64.7438 45.3131 65.1655 44.3791 66.0883 44.1696C67.4214 43.8385 66.9516 44.7923 66.9742 45.6132C66.9968 46.1028 66.9968 45.8792 67.4724 46.0038C67.9167 46.1142 68.3696 46.3038 68.4262 46.8048C68.4687 47.6709 67.2827 48.2342 66.66 48.5455C65.1174 49.2871 63.5522 49.7626 62.1964 50.8269" fill="#DFB0A2"/>
<path d="M62.3765 50.9568C62.6114 50.0369 63.1888 48.9726 63.5879 48.1065C63.8426 47.563 64.3663 46.8865 64.9663 46.7535C66.1438 46.445 65.7985 47.3649 65.9089 48.0301C66.4976 47.931 67.4515 47.6196 67.9072 48.2537C68.4931 49.0434 67.2166 49.6519 66.6505 49.9066C65.2834 50.4501 63.7323 50.3369 62.4104 50.8577" fill="#DFB0A2"/>
<path d="M62.1 48.7659C62.2245 49.2301 62.049 49.7056 61.8452 50.1217C61.766 50.2858 62.0094 50.4274 62.0887 50.2632C62.3264 49.7764 62.5161 49.2329 62.3717 48.6895C62.3236 48.514 62.0519 48.5876 62.1 48.7659Z" fill="#DFB0A2"/>
<path d="M60.4381 49.2757C60.6136 49.5106 60.84 49.689 61.0382 49.9041C61.1627 50.0399 61.3608 49.839 61.2391 49.7031C61.0608 49.5078 60.8457 49.3436 60.6843 49.1314C60.5768 48.987 60.3305 49.1285 60.4409 49.2729L60.4381 49.2757Z" fill="#DFB0A2"/>
<path d="M63.5214 49.4163C62.6015 49.7361 59.9493 49.3681 59.9493 48.1482C59.9295 46.1074 62.5817 46.031 63.5129 47.4519C63.8327 47.9303 63.9544 48.7851 63.7874 49.2832" fill="#F1ECE6"/>
<path d="M60.2712 48.0688L60.2599 48.1028C60.1891 48.3179 60.5203 48.4283 60.5938 48.2132L60.6052 48.1792C60.6759 47.9641 60.3448 47.8537 60.2712 48.0688Z" fill="#F1ECE6"/>
<path d="M60.7956 47.172C60.5805 47.1012 60.4701 47.4324 60.6852 47.506C60.9003 47.5767 61.0107 47.2456 60.7956 47.172Z" fill="#F1ECE6"/>
<path d="M62.4235 48.2729C62.2084 48.2021 62.098 48.5333 62.3131 48.6069C62.5282 48.6776 62.6386 48.3465 62.4235 48.2729Z" fill="#F1ECE6"/>
<path d="M61.6916 48.6915C61.4765 48.6207 61.3661 48.9519 61.5812 49.0255C61.7963 49.0962 61.9067 48.7651 61.6916 48.6915Z" fill="#F1ECE6"/>
<path d="M62.8454 49.0059C62.6303 48.9352 62.5199 49.2663 62.735 49.3399C62.9501 49.4107 63.0605 49.0795 62.8454 49.0059Z" fill="#F1ECE6"/>
<path d="M63.6549 48.7963C63.4398 48.7255 63.3294 49.0567 63.5446 49.1303C63.7597 49.2011 63.8701 48.8699 63.6549 48.7963Z" fill="#F1ECE6"/>
<path d="M62.068 46.7833C61.8529 46.7125 61.7425 47.0437 61.9576 47.1145C62.1728 47.1852 62.2832 46.8541 62.068 46.7833Z" fill="#F1ECE6"/>
<path d="M61.404 47.228C61.1889 47.1572 61.0785 47.4884 61.2936 47.5619C61.5087 47.6327 61.6191 47.3015 61.404 47.228Z" fill="#F1ECE6"/>
<path d="M60.9572 48.338C60.7421 48.2672 60.6317 48.5984 60.8468 48.672C61.0619 48.7427 61.1723 48.4116 60.9572 48.338Z" fill="#F1ECE6"/>
<path d="M62.0339 48.2162C61.8187 48.1455 61.7084 48.4766 61.9235 48.5502C62.1386 48.621 62.249 48.2898 62.0339 48.2162Z" fill="#F1ECE6"/>
<path d="M62.6462 47.8282C62.431 47.7575 62.3207 48.0886 62.5358 48.1622C62.7509 48.233 62.8613 47.9018 62.6462 47.8282Z" fill="#F1ECE6"/>
<path d="M62.3322 48.8699C62.1171 48.7991 62.0067 49.1303 62.2218 49.2039C62.4369 49.2746 62.5473 48.9435 62.3322 48.8699Z" fill="#F1ECE6"/>
<path d="M63.2995 48.6381C63.0844 48.5673 62.974 48.8985 63.1891 48.9721C63.4042 49.0429 63.5146 48.7117 63.2995 48.6381Z" fill="#F1ECE6"/>
<path d="M61.3049 46.5287C61.0897 46.458 60.9793 46.7891 61.1945 46.8627C61.4096 46.9335 61.52 46.6023 61.3049 46.5287Z" fill="#F1ECE6"/>
<path d="M60.3695 47.3276C60.1544 47.2568 60.044 47.588 60.2563 47.6616C60.4714 47.7323 60.5818 47.4012 60.3695 47.3276Z" fill="#F1ECE6"/>
<path d="M60.5158 48.558C60.3007 48.4873 60.1903 48.8184 60.4054 48.892C60.6205 48.9628 60.7309 48.6316 60.5158 48.558Z" fill="#F1ECE6"/>
<path d="M59.958 49.3354C59.0381 49.1004 58.0729 48.6674 57.5295 47.8579C57.1304 47.2805 56.887 46.3492 57.0426 45.6614C57.3653 44.2518 58.1862 45.3416 58.6504 45.9416C59.6382 44.8661 59.8391 45.5992 59.7712 46.6861C60.5468 46.7993 61.7016 46.5559 61.2912 47.7871C61.0789 48.4183 60.3911 49.1514 59.7457 49.3071" fill="#DFB0A2"/>
<path d="M62.4073 50.9678C61.8299 50.8122 61.2978 50.5234 60.8534 50.1894C60.4317 49.9007 58.8353 48.4798 60.3015 48.6355C60.5902 48.6582 61.0657 49.1139 61.3119 48.9356C61.5554 48.7601 61.5355 48.16 61.8129 47.8826C62.2799 47.4835 62.4017 47.7835 62.7102 48.1826C63.197 48.828 63.0753 48.4176 63.7207 48.3723C65.2746 48.2619 62.9734 50.7131 62.4526 50.9452" fill="#B55759"/>
<path d="M61.8763 48.3955C61.9613 48.7833 62.0462 49.1739 62.0915 49.5702C62.1169 49.7938 62.4707 49.7966 62.4453 49.5702C62.3972 49.1428 62.3122 48.721 62.2188 48.3021C62.1707 48.0785 61.8282 48.1747 61.8792 48.3955H61.8763Z" fill="#B55759"/>
<path d="M63.1852 48.9811C63.1116 49.1905 62.9871 49.3773 62.8795 49.5698C62.772 49.7708 63.0777 49.9491 63.1852 49.7481C63.3041 49.5245 63.44 49.3151 63.5249 49.0745C63.6013 48.8594 63.2588 48.7659 63.1824 48.9811H63.1852Z" fill="#B55759"/>
<path d="M60.7442 49.5042C60.8744 49.6599 60.9904 49.8326 61.1432 49.9713C61.3131 50.1213 61.565 49.8722 61.3923 49.7222C61.2395 49.5863 61.1234 49.4136 60.9932 49.2551C60.846 49.0797 60.597 49.3316 60.7442 49.5042Z" fill="#B55759"/>
<path d="M61.1707 50.577C61.3575 51.3696 61.8868 52.2866 62.6822 51.7941C62.9794 51.6101 63.3926 50.9422 63.404 50.5657C63.4294 50.0279 63.0643 50.4185 62.7699 50.5544C62.7105 50.4327 62.5605 49.9968 62.3708 50.0251C62.2265 50.059 62.184 50.5487 62.1246 50.6619C61.9633 50.6251 60.7575 49.6684 61.1707 50.577Z" fill="#28748C"/>
<path d="M63.6086 62.2315C63.2265 61.6795 63.068 60.8474 62.8161 60.2303C62.4424 59.2567 61.9669 58.3254 61.6414 57.3546C61.381 56.5139 60.9989 55.6393 61.2706 54.7138C61.4037 54.275 61.7037 53.9269 62.2019 53.9127C62.751 53.9042 62.8755 54.5354 63.1727 54.5581C63.1954 54.5836 63.218 54.6119 63.218 54.6119C63.8067 53.7344 64.8484 53.4429 65.7513 54.009C66.6995 54.6288 66.3994 55.6252 66.0315 56.5422C65.3776 58.2603 64.237 59.8397 63.6567 61.589C63.5916 61.7843 63.4784 61.9739 63.4642 62.172" fill="#DFB0A2"/>
<path d="M63.6453 62.4354C63.6397 61.8382 63.3849 61.2721 63.3057 60.6918C63.2009 59.7634 63.2236 58.818 63.2434 57.9236C63.2604 57.0292 63.3396 55.9904 64.1095 55.3762C65.0917 54.5808 65.6691 55.4696 66.1616 56.2027C66.6145 55.8149 67.2259 55.2884 67.8769 55.5602C68.6241 55.8913 68.3156 56.6641 68.3948 57.2415C69.1817 57.0292 70.5545 57.6547 70.1582 58.5944C69.8469 59.4181 68.6892 59.9021 67.9448 60.2191C66.555 60.8107 65.0945 61.6938 63.6651 62.1835" fill="#DFB0A2"/>
<path d="M63.76 62.3327C65.2488 60.9713 67.1226 60.1901 68.8209 59.14C69.0134 59.0211 68.8379 58.7154 68.6426 58.8343C66.916 59.9042 65.0224 60.6995 63.5081 62.0836C63.3383 62.2393 63.5902 62.4884 63.7572 62.3327H63.76Z" fill="#B55759"/>
<path d="M63.4756 62.0244C64.4719 60.7054 66.374 59.9044 67.8204 59.2194C68.6242 58.8062 69.4649 58.2231 70.3621 58.5174C71.6754 58.9165 70.7867 59.494 70.3819 60.2101C70.1498 60.6403 70.263 60.4507 70.6112 60.7988C70.9339 61.1215 71.2282 61.5177 71.0188 61.9763C70.6112 62.7405 69.3035 62.616 68.6101 62.565C66.9033 62.4093 65.3182 62.0159 63.6086 62.2339" fill="#DFB0A2"/>
<path d="M63.6938 62.4374C64.3675 61.7666 65.4091 61.1496 66.196 60.6118C66.6941 60.2778 67.4895 59.9636 68.0726 60.1561C69.2416 60.4929 68.4717 61.1071 68.2254 61.7355C68.7802 61.9506 69.7595 62.1742 69.8246 62.9526C69.9237 63.9291 68.517 63.7989 67.8999 63.7281C66.4507 63.4932 65.1742 62.5988 63.7731 62.3695" fill="#DFB0A2"/>
<path d="M64.583 60.411C64.4585 60.8752 64.0537 61.195 63.6688 61.4469C63.5159 61.546 63.6574 61.7923 63.8103 61.6904C64.2603 61.3988 64.7104 61.0224 64.8576 60.4874C64.9057 60.3119 64.6311 60.2355 64.5858 60.411H64.583Z" fill="#DFB0A2"/>
<path d="M62.8945 59.9978C62.9256 60.2893 63.0275 60.561 63.0869 60.8469C63.1237 61.0252 63.3954 60.9488 63.3587 60.7705C63.3049 60.5101 63.2058 60.261 63.1747 59.9978C63.1549 59.8194 62.8718 59.8166 62.8916 59.9978H62.8945Z" fill="#DFB0A2"/>
<path d="M65.4726 61.7022C64.5159 61.5041 62.4299 59.8284 63.0554 58.7812C64.0857 57.0178 66.401 58.3141 66.4718 60.0124C66.5029 60.587 66.1689 61.3824 65.7698 61.7248" fill="#F1ECE6"/>
<path d="M63.3734 58.8806L63.3479 58.9032C63.1753 59.0504 63.4045 59.3165 63.5772 59.1693L63.6027 59.1466C63.7753 58.9995 63.5461 58.7334 63.3734 58.8806Z" fill="#F1ECE6"/>
<path d="M64.5581 59.2934C64.4109 59.1207 64.1448 59.35 64.292 59.5227C64.4392 59.6953 64.7053 59.4661 64.5581 59.2934Z" fill="#F1ECE6"/>
<path d="M64.2783 58.3762C64.1311 58.2064 63.8651 58.4328 64.0122 58.6055C64.1594 58.7781 64.4255 58.5488 64.2783 58.3762Z" fill="#F1ECE6"/>
<path d="M65.1963 58.4698C65.0491 58.2972 64.783 58.5264 64.9302 58.6991C65.0774 58.8718 65.3435 58.6425 65.1963 58.4698Z" fill="#F1ECE6"/>
<path d="M65.2729 59.3728C65.1257 59.2002 64.8597 59.4294 65.0069 59.6021C65.1541 59.7748 65.4201 59.5455 65.2729 59.3728Z" fill="#F1ECE6"/>
<path d="M65.9658 59.1521C65.8186 58.9795 65.5526 59.2087 65.6997 59.3814C65.8469 59.554 66.113 59.3248 65.9658 59.1521Z" fill="#F1ECE6"/>
<path d="M65.8294 59.9131L65.804 59.9358C65.6313 60.083 65.8606 60.349 66.0332 60.2018L66.0587 60.1792C66.2314 60.032 66.0021 59.7659 65.8294 59.9131Z" fill="#F1ECE6"/>
<path d="M65.1152 60.1573C64.968 59.9847 64.702 60.2139 64.8492 60.3866C64.9963 60.5593 65.2624 60.33 65.1152 60.1573Z" fill="#F1ECE6"/>
<path d="M64.2705 60.143C64.1233 59.9703 63.8572 60.1996 64.0044 60.3723C64.1516 60.5449 64.4177 60.3157 64.2705 60.143Z" fill="#F1ECE6"/>
<path d="M65.1035 61.0004C64.9563 60.8278 64.6903 61.057 64.8374 61.2297C64.9846 61.4024 65.2507 61.1731 65.1035 61.0004Z" fill="#F1ECE6"/>
<path d="M65.8848 60.5134C65.7376 60.3408 65.4715 60.5701 65.6187 60.7427C65.7659 60.9154 66.0319 60.6861 65.8848 60.5134Z" fill="#F1ECE6"/>
<path d="M65.9082 61.2381C65.761 61.0654 65.4949 61.2947 65.6421 61.4673C65.7893 61.64 66.0554 61.4107 65.9082 61.2381Z" fill="#F1ECE6"/>
<path d="M65.5761 58.699C65.429 58.5263 65.1629 58.7556 65.3101 58.9283C65.4573 59.1009 65.7233 58.8717 65.5761 58.699Z" fill="#F1ECE6"/>
<path d="M64.7754 58.7361C64.6282 58.5634 64.3621 58.7927 64.5093 58.9654C64.6565 59.138 64.9226 58.9088 64.7754 58.7361Z" fill="#F1ECE6"/>
<path d="M63.8223 59.4607C63.6751 59.2881 63.409 59.5173 63.5562 59.69C63.7034 59.8626 63.9694 59.6334 63.8223 59.4607Z" fill="#F1ECE6"/>
<path d="M64.8144 59.9106C64.6673 59.7379 64.4012 59.9672 64.5484 60.1399C64.6956 60.3125 64.9616 60.0832 64.8144 59.9106Z" fill="#F1ECE6"/>
<path d="M65.5347 59.8911C65.3875 59.7184 65.1214 59.9477 65.2686 60.1203C65.4158 60.293 65.6818 60.0637 65.5347 59.8911Z" fill="#F1ECE6"/>
<path d="M64.7324 60.6267C64.5852 60.4541 64.3192 60.6833 64.4663 60.856C64.6135 61.0287 64.8796 60.7994 64.7324 60.6267Z" fill="#F1ECE6"/>
<path d="M65.6777 60.9217C65.5305 60.749 65.2645 60.9783 65.4117 61.1509C65.5588 61.3236 65.8249 61.0943 65.6777 60.9217Z" fill="#F1ECE6"/>
<path d="M66.5049 60.2615C66.3577 60.0888 66.0916 60.3181 66.2388 60.4908C66.386 60.6634 66.652 60.4342 66.5049 60.2615Z" fill="#F1ECE6"/>
<path d="M66.4658 59.4125C66.3186 59.2399 66.0526 59.4691 66.1997 59.6418C66.3469 59.8116 66.613 59.5852 66.4658 59.4125Z" fill="#F1ECE6"/>
<path d="M65.0542 58.0877C64.907 57.915 64.6409 58.1443 64.7881 58.3169C64.9353 58.4868 65.2014 58.2603 65.0542 58.0877Z" fill="#F1ECE6"/>
<path d="M63.8393 58.2914C63.6922 58.1188 63.4261 58.3481 63.5733 58.5207C63.7205 58.6934 63.9865 58.4641 63.8393 58.2914Z" fill="#F1ECE6"/>
<path d="M63.3315 59.4236C63.1843 59.2509 62.9183 59.4802 63.0655 59.6529C63.2126 59.8255 63.4787 59.5963 63.3315 59.4236Z" fill="#F1ECE6"/>
<path d="M62.4511 59.8053C61.7803 59.1317 61.1745 58.2656 61.1236 57.2919C61.0783 56.5928 61.3472 55.6672 61.834 55.1577C62.8332 54.1133 62.9804 55.4691 63.0709 56.222C64.472 55.8059 64.2654 56.5361 63.6512 57.4362C64.2597 57.9316 65.375 58.3137 64.3899 59.16C63.8833 59.593 62.9181 59.8704 62.2841 59.6723" fill="#DFB0A2"/>
<path d="M63.7184 62.4635C63.3023 62.0333 62.9938 61.5125 62.7843 61.0002C62.572 60.536 61.9295 58.498 63.107 59.3811C63.3419 59.5481 63.5174 60.1822 63.8203 60.1567C64.1203 60.1312 64.409 59.6047 64.7911 59.5085C65.3968 59.4038 65.3459 59.7265 65.4082 60.2275C65.4959 61.0313 65.6035 60.6152 66.178 60.9096C67.5678 61.6116 64.3382 62.5371 63.7693 62.4692" fill="#B55759"/>
<path d="M64.58 59.9806C64.4526 60.3599 64.3253 60.7363 64.1611 61.0986C64.0677 61.3052 64.3734 61.4835 64.4668 61.2769C64.6451 60.8863 64.7838 60.4816 64.9197 60.074C64.9932 59.856 64.6508 59.7655 64.5772 59.9806H64.58Z" fill="#B55759"/>
<path d="M65.3982 61.1582C65.2284 61.2997 65.0246 61.396 64.8321 61.5092C64.6368 61.6252 64.8151 61.9309 65.0104 61.8149C65.2284 61.6847 65.4492 61.5714 65.6473 61.4101C65.8228 61.2658 65.5709 61.0167 65.3982 61.161V61.1582Z" fill="#B55759"/>
<path d="M63.0394 60.3573C63.0705 60.5582 63.0819 60.7649 63.1441 60.963C63.2121 61.1809 63.5545 61.0875 63.4838 60.8696C63.4215 60.6743 63.413 60.4677 63.379 60.2639C63.3423 60.0403 63.0026 60.1337 63.0366 60.3573H63.0394Z" fill="#B55759"/>
<path d="M62.8542 61.4927C62.6079 62.2682 62.591 63.3268 63.5278 63.3127C63.8788 63.307 64.5751 62.9447 64.7761 62.6277C65.0733 62.1777 64.561 62.3277 64.2383 62.2937C64.2496 62.1579 64.3459 61.7078 64.1675 61.6342C64.026 61.5889 63.7373 61.988 63.6297 62.0531C63.5109 61.9371 62.9646 60.4992 62.8542 61.4899" fill="#28748C"/>
<path d="M70.5138 70.7363H17.9998C17.2635 70.7363 16.6665 71.3333 16.6665 72.0697V76.0002C16.6665 76.7366 17.2635 77.3336 17.9998 77.3336H70.5138C71.2501 77.3336 71.8471 76.7366 71.8471 76.0002V72.0697C71.8471 71.3333 71.2501 70.7363 70.5138 70.7363Z" fill="#B67F6E"/>
</g>
<defs>
<clipPath id="clip0_215_1405">
<rect width="88" height="88" fill="white"/>
</clipPath>
</defs>
</svg>
