<svg width="89" height="88" viewBox="0 0 89 88" fill="none" xmlns="http://www.w3.org/2000/svg">
<path d="M73.2088 35.0684C73.2088 35.0212 73.2127 34.975 73.2127 34.9288C73.2127 26.1198 66.8418 18.0547 57.2633 18.0547C49.6512 18.0547 45.2378 23.5254 43.7323 28.6454C42.2268 23.5254 37.8125 18.0547 30.2014 18.0547C20.6219 18.0547 14.252 26.1208 14.252 34.9288C14.252 34.976 14.2549 35.0222 14.2559 35.0684C14.2048 36.9847 14.252 56.4866 43.7245 72.381V72.3849C43.7245 72.3849 43.7274 72.3829 43.7284 72.3829C43.7304 72.3829 43.7313 72.3839 43.7323 72.3849C43.7343 72.3849 43.7353 72.3829 43.7363 72.3829C43.7372 72.3829 43.7392 72.3839 43.7402 72.3849V72.381C73.2127 56.4856 73.2599 36.9847 73.2088 35.0684Z" fill="#DFB0A2"/>
<path d="M33.1094 65.6366C36.1371 67.9165 39.6474 70.1836 43.7236 72.3819V72.3859C43.7236 72.3859 43.7266 72.3839 43.7276 72.3839C43.7286 72.3839 43.7305 72.3849 43.7315 72.3859C43.7325 72.3859 43.7345 72.3839 43.7354 72.3839C43.7364 72.3839 43.7384 72.3849 43.7404 72.3859V72.3819C73.2129 56.4866 73.26 36.9856 73.2089 35.0693C73.2089 35.0222 73.2129 34.976 73.2129 34.9298C73.2129 33.8154 73.1097 32.7118 72.9122 31.6357C63.6226 54.0357 45.182 62.4693 33.1094 65.6376V65.6366Z" fill="#B55759"/>
<path d="M15.8829 36.9354C15.8829 36.9354 15.6766 20.1507 33.1089 19.9512C33.1089 19.9512 21.2456 22.8315 15.8829 36.9354Z" fill="#B55759"/>
<path d="M22.3832 45.7495C25.2888 51.5448 23.5223 56.6842 23.5223 56.6842C23.5223 56.6842 13.4338 56.7152 9.71892 48.1922C7.07892 42.1344 10.1379 34.778 10.1379 34.778C10.1379 34.778 12.3002 36.7584 15.4274 39.119C17.6518 40.7982 20.696 42.3843 22.3832 45.7495Z" fill="#AAC0B7"/>
<path d="M28.6713 61.7402C28.5947 61.7657 28.5063 61.751 28.4409 61.694C28.4033 61.6616 24.675 58.3894 22.6985 56.2786C17.7171 50.9575 12.1982 42.2289 10.1346 36.4071C10.0914 36.2844 10.1551 36.149 10.2785 36.1055C10.4083 36.0647 10.5367 36.126 10.5801 36.2494C12.6247 42.0192 18.0998 50.675 23.0436 55.9566C25.0042 58.0506 28.7148 61.3074 28.7524 61.3398C28.8502 61.4254 28.8605 61.5748 28.7742 61.6729C28.7456 61.7052 28.7099 61.7281 28.6716 61.7409L28.6713 61.7402Z" fill="#0E5267"/>
<path d="M20.38 53.3669L12.2186 50.0574C12.0976 50.0087 12.0397 49.8703 12.0887 49.75C12.1375 49.629 12.2751 49.5714 12.3961 49.6202L19.9482 52.6826L20.3854 45.3077C20.3932 45.1774 20.5044 45.0782 20.6353 45.0858C20.7656 45.0937 20.8651 45.2055 20.8572 45.3358L20.381 53.3674L20.38 53.3669Z" fill="#0E5267"/>
<path d="M15.0267 45.7112L9.0363 42.3938C8.92239 42.3308 8.88085 42.1871 8.94379 42.0732C9.00744 41.959 9.15047 41.9177 9.26462 41.9814L14.6176 44.946L15.0417 39.9705C15.0529 39.8408 15.1664 39.7439 15.2972 39.7555C15.4269 39.7667 15.5233 39.8812 15.5122 40.011L15.0262 45.7122L15.0267 45.7112Z" fill="#0E5267"/>
<path d="M79.8477 36.4566L80.9325 35.2077L79.9558 33.8731L81.4805 34.5181L82.4498 33.1797L82.3044 34.8275L83.8777 35.3345L82.2672 35.7073L82.2709 37.3588L81.4172 35.9422L79.8477 36.4566Z" fill="#AAC0B7"/>
<path d="M70.5137 57.1236L71.5985 55.8747L70.6218 54.5401L72.1466 55.185L73.1159 53.8467L72.9705 55.4945L74.5437 56.0015L72.9332 56.3743L72.9369 58.0258L72.0832 56.6092L70.5137 57.1236Z" fill="#28748C"/>
<path d="M63.8477 73.7896L64.9325 72.5408L63.9558 71.2061L65.4805 71.8511L66.4498 70.5127L66.3044 72.1605L67.8777 72.6675L66.2672 73.0403L66.2709 74.6918L65.4172 73.2752L63.8477 73.7896Z" fill="#AAC0B7"/>
<path d="M43.8477 15.7896L44.9325 14.5408L43.9558 13.2061L45.4805 13.8511L46.4498 12.5127L46.3044 14.1605L47.8777 14.6675L46.2672 15.0403L46.2709 16.6918L45.4172 15.2752L43.8477 15.7896Z" fill="#28748C"/>
<path d="M9.17969 17.7896L10.2645 16.5408L9.2878 15.2061L10.8126 15.8511L11.7819 14.5127L11.6365 16.1605L13.2097 16.6675L11.5992 17.0403L11.6029 18.6918L10.7492 17.2752L9.17969 17.7896Z" fill="#AAC0B7"/>
<path d="M11.8477 73.7896L12.9325 72.5408L11.9558 71.2061L13.4805 71.8511L14.4498 70.5127L14.3044 72.1605L15.8777 72.6675L14.2672 73.0403L14.2709 74.6918L13.4172 73.2752L11.8477 73.7896Z" fill="#AAC0B7"/>
<path d="M63.8477 12.7899C63.8477 13.3118 64.2689 13.7331 64.7909 13.7331C65.3128 13.7331 65.734 13.3118 65.734 12.7899C65.734 12.2679 65.3128 11.8467 64.7909 11.8467C64.2689 11.8467 63.8477 12.2679 63.8477 12.7899Z" fill="#B55759"/>
<path d="M27.1797 7.45589C27.1797 7.97782 27.601 8.39908 28.1229 8.39908C28.6448 8.39908 29.0661 7.97782 29.0661 7.45589C29.0661 6.93396 28.6448 6.5127 28.1229 6.5127C27.601 6.5127 27.1797 6.93396 27.1797 7.45589Z" fill="#B55759"/>
<path d="M22.525 67.5998C21.8027 67.3207 20.5814 66.4471 20.106 65.9106C20.106 65.9106 20.6258 67.9692 20.8385 69.2C21.0731 70.5585 20.4411 72.0444 19.7705 73.0552C21.1014 72.5291 22.5835 72.6088 23.7812 73.0692C24.9788 73.5296 26.704 75.234 26.704 75.234C26.704 75.234 26.1074 73.1833 25.8089 72.1578C25.3654 70.6327 25.1933 68.816 26.3254 67.3689C24.707 67.8374 23.9384 68.1467 22.5245 67.6L22.525 67.5998Z" fill="#B55759"/>
<path d="M81.3169 17.5184C81.1661 16.9181 81.1737 15.7178 81.3049 15.1601C81.3049 15.1601 80.2002 16.4485 79.4944 17.1547C78.7154 17.9341 77.4537 18.2064 76.4846 18.2343C77.4416 18.8609 78.0728 19.8655 78.3242 20.8599C78.5755 21.8542 78.2578 23.7665 78.2578 23.7665C78.2578 23.7665 79.3219 22.4316 79.854 21.764C80.6455 20.7713 81.7525 19.8215 83.2194 19.8938C82.1675 19.0529 81.6112 18.6935 81.3164 17.5182L81.3169 17.5184Z" fill="#28748C"/>
</svg>
