<svg width="126" height="114" viewBox="0 0 126 114" fill="none" xmlns="http://www.w3.org/2000/svg">
<path d="M103.639 17.447C101.411 8.5799 93.6979 1.04721 84.6039 0.0931109C75.51 -0.860986 64.5279 5.6242 62.9933 14.6381C61.4521 5.6242 50.4766 -0.860986 41.3827 0.0931109C32.2887 1.04721 24.5759 8.5799 22.3474 17.447C20.119 26.3141 22.9546 36.0352 28.7526 43.1009C37.9533 54.3165 62.9933 67.7406 62.9933 67.7406C62.9933 67.7406 88.0334 54.3232 97.234 43.1009C103.032 36.0285 105.868 26.3141 103.639 17.447Z" fill="#B55759"/>
<path d="M94.5653 40.085C94.3785 40.3385 94.1784 40.592 93.9849 40.8389C90.4154 45.3358 85.7716 48.852 81.0479 52.1079" stroke="white" stroke-width="0.667201" stroke-linecap="round" stroke-linejoin="round"/>
<path d="M99.6826 24.9863C99.8561 28.269 99.1288 31.5115 97.8145 34.534" stroke="white" stroke-width="0.667201" stroke-linecap="round" stroke-linejoin="round"/>
<path d="M122.021 30.0171C118.905 29.9237 117.937 37.2029 117.937 37.2029C117.937 37.2029 117.911 29.103 114.475 29.0363C111.039 28.9763 110.898 43.6013 110.898 43.6013C110.898 43.6013 110.318 35.7217 107.436 35.7217C104.553 35.7217 104.567 47.9314 104.567 47.9314C104.567 47.9314 103.766 47.0707 102.885 47.1642C99.4026 47.7246 100.203 66.4396 98.8955 70.4962L87.4463 80.9112C82.5491 84.2538 79.9803 87.6833 78.6459 90.4855C76.2507 95.8164 75.6502 104.67 75.6502 104.67L75.1765 109.981C75.0698 111.209 76.0372 112.27 77.2715 112.27H89.8616C90.8891 112.27 91.7698 111.522 91.9366 110.508L92.2969 108.306H92.3302L97.0073 102.248C97.0073 102.248 116.216 78.9363 117.183 77.0814C118.151 75.2266 125.203 57.786 125.81 53.9763C126.424 50.1732 125.423 29.9637 122.014 30.0104L122.021 30.0171Z" fill="#F8DAD1"/>
<path d="M117.937 37.2029L117.664 54.2966L112.186 63.4172" stroke="#B67F6E" stroke-linecap="round" stroke-linejoin="round"/>
<path d="M110.891 43.6079L109.991 55.444L103.552 69.2551" stroke="#B67F6E" stroke-linecap="round" stroke-linejoin="round"/>
<path d="M100.87 69.9489L103.539 60.7883L104.56 47.938" stroke="#B67F6E" stroke-linecap="round" stroke-linejoin="round"/>
<path d="M98.4417 73.4854C94.6386 76.5545 90.8889 79.4234 87.7798 80.7645" stroke="#B67F6E" stroke-linecap="round" stroke-linejoin="round"/>
<path d="M109.897 76.7344C114.688 71.3634 119.438 65.6722 117.544 63.5238C114.468 60.388 107.402 66.206 100.216 72.0506" stroke="#B67F6E" stroke-linecap="round" stroke-linejoin="round"/>
<path d="M101.851 86.5822C102.672 84.6941 105.801 81.2913 109.09 77.6284" stroke="#B67F6E" stroke-linecap="round" stroke-linejoin="round"/>
<path d="M3.95962 30.0171C7.07544 29.9237 8.04288 37.2029 8.04288 37.2029C8.04288 37.2029 8.06957 29.103 11.5057 29.0363C14.9417 28.9763 15.0819 43.6013 15.0819 43.6013C15.0819 43.6013 15.6623 35.7217 18.5446 35.7217C21.4269 35.7217 21.4136 47.9314 21.4136 47.9314C21.4136 47.9314 22.2142 47.0707 23.0949 47.1642C26.5777 47.7313 25.7771 66.4396 27.0848 70.4962L38.5339 80.9112C43.4312 84.2538 45.9999 87.6833 47.3343 90.4855C49.7296 95.8164 50.3301 104.67 50.3301 104.67L50.8038 109.981C50.9105 111.209 49.9431 112.27 48.7088 112.27H36.1187C35.0912 112.27 34.2105 111.522 34.0437 110.508L33.6834 108.306H33.65L28.973 102.248C28.973 102.248 9.76426 78.9363 8.79682 77.0814C7.82938 75.2266 0.777066 57.786 0.169913 53.9763C-0.443912 50.1732 0.556891 29.9637 3.96629 30.0104L3.95962 30.0171Z" fill="#F8DAD1"/>
<path d="M8.14307 43.4346L8.31655 54.2966L12.8735 61.5224" stroke="#B67F6E" stroke-linecap="round" stroke-linejoin="round"/>
<path d="M8.0498 37.2029L8.10986 41.2528" stroke="#B67F6E" stroke-linecap="round" stroke-linejoin="round"/>
<path d="M15.0889 43.6079L15.9896 55.444L19.9194 64.2511" stroke="#B67F6E" stroke-linecap="round" stroke-linejoin="round"/>
<path d="M24.8498 69.0549L22.4412 60.7883L21.4204 47.938" stroke="#B67F6E" stroke-linecap="round" stroke-linejoin="round"/>
<path d="M25.2637 88.137L26.3312 89.5981" stroke="#B67F6E" stroke-linecap="round" stroke-linejoin="round"/>
<path d="M38.2072 80.7643C28.7263 76.6744 18.2112 58.2596 12.8736 61.5222C7.52933 64.7782 24.1293 86.5823 24.1293 86.5823L24.4028 86.9493" stroke="#B67F6E" stroke-linecap="round" stroke-linejoin="round"/>
<path d="M42.9243 71.2635C42.9443 76.4076 44.2988 82.0855 47.4613 86.1354C50.6305 90.192 57.6628 91.5264 62.6534 92.7874C62.8002 89.2713 61.1723 84.5942 59.2841 81.6185C55.6078 75.8205 47.8816 76.0006 42.9243 71.2568V71.2635Z" fill="#5D738A"/>
<path d="M78.8598 66.9332C75.2903 68.2609 71.7408 69.8355 68.8718 72.3308C66.0029 74.8328 63.8612 78.3957 63.8345 82.1987C69.3522 84.2537 75.7573 81.5382 80.0608 77.5216C84.3642 73.5051 86.9997 68.0541 89.4617 62.7031C86.0923 64.4779 82.4294 65.6054 78.8598 66.9332Z" fill="#28748C"/>
<path d="M62.9938 67.7406C55.2075 67.5071 47.8216 64.0043 43.2646 57.6859C47.1811 57.9528 51.1643 58.2263 54.8473 59.6008C58.5302 60.9752 61.666 63.3104 62.9938 67C64.6418 63.3304 69.0053 61.9493 72.8016 60.6149C76.598 59.2805 80.6746 58.2664 83.6703 55.5842C79.9006 62.6966 71.0402 67.6672 62.9938 67.7339V67.7406Z" fill="#4A5D73"/>
<path d="M62.9939 67.2937C64.6486 74.8264 64.1882 82.1389 62.8271 89.6116C61.466 97.0842 60.4319 104.67 62.28 112.103" stroke="#0E5267" stroke-width="2" stroke-linecap="round" stroke-linejoin="round"/>
</svg>
