<svg width="89" height="88" viewBox="0 0 89 88" fill="none" xmlns="http://www.w3.org/2000/svg">
<path d="M50.5146 77.667H26.7549V79.3346H50.5146V77.667Z" fill="#B67F6E"/>
<path d="M46.4057 41.9004H42.2196H30.8457V76.643H46.4287V72.6869H46.4057V41.9004Z" fill="#F1ECE6"/>
<path d="M44.3729 34.6317C44.3729 37.8058 41.8083 40.3704 38.6342 40.3704C35.4601 40.3704 32.8955 37.8058 32.8955 34.6317C32.8955 25.811 39.3587 18.8877 40.5548 19.8078C40.7503 19.9573 40.7963 20.3138 40.6698 20.9003C38.5882 29.9396 44.3844 31.4576 44.3844 34.6317H44.3729Z" fill="#F1ECE6"/>
<path d="M56.4852 30.239C56.4852 33.4131 53.9206 35.9777 50.7465 35.9777C47.5724 35.9777 45.0078 33.4131 45.0078 30.239C45.0078 21.9012 50.781 15.2655 52.414 15.3345C52.7936 15.346 52.9546 15.714 52.7706 16.5076C50.689 25.5468 56.4852 27.0649 56.4852 30.239Z" fill="#F1ECE6"/>
<path d="M56.4852 30.239C56.4852 33.4131 53.9206 35.9777 50.7465 35.9777C47.5724 35.9777 45.0078 33.4131 45.0078 30.239C45.0078 21.9012 50.781 15.2655 52.414 15.3345C52.7936 15.346 52.9546 15.714 52.7706 16.5076C50.689 25.5468 56.4852 27.0649 56.4852 30.239Z" fill="#F1ECE6"/>
<path d="M47.0414 41.2911V72.0776H57.8747V37.335H44.5458C44.1433 38.163 43.5568 38.899 42.8438 39.451V41.2911H47.0414Z" fill="#F1ECE6"/>
<path d="M46.447 40.5546C48.1375 40.3361 48.2755 46.9488 46.2284 46.2933C45.3889 46.0288 44.3424 44.9247 43.4339 45.4538C42.6863 45.8908 42.5138 46.5808 42.3413 47.3858C42.0078 48.8924 42.0423 50.8819 40.9613 52.1125C39.7307 53.527 37.9827 52.8255 37.3272 51.2154C36.7521 49.7894 36.9132 48.0643 36.3496 46.5693C36.0621 45.8218 35.5676 45.3043 34.7971 45.0628C33.716 44.7292 33.4515 45.1548 32.7615 45.9368C31.692 47.1558 30.1739 47.0293 29.6564 45.2123C29.4379 44.4647 29.3574 40.3591 30.4844 40.5546C34.1531 41.2101 44.0204 40.8651 46.4355 40.5546H46.447Z" fill="#B67F6E"/>
<path d="M61.4174 73.043H46.7314V74.7105H61.4174V73.043Z" fill="#B67F6E"/>
<path d="M59.8623 50.5252C59.7703 48.8577 59.5633 47.1211 59.5633 45.4191C59.5633 43.3605 59.8508 41.3249 59.6668 39.2664C59.5978 38.4728 59.3793 37.0008 58.7928 36.3798C58.6318 36.2073 58.4708 36.1038 58.3213 36.0463C58.2178 36.0003 58.1028 35.9658 57.9763 35.9888C55.9407 36.2533 48.615 36.5293 44.1643 36.2188C43.7043 37.8173 42.5773 39.1284 41.0938 39.8184C41.1168 40.1864 41.1513 40.4739 41.1973 40.6349C41.7148 42.452 43.2213 42.567 44.3024 41.3594C44.9924 40.5774 45.2569 40.1519 46.3379 40.4854C47.0969 40.7269 47.603 41.2444 47.8905 41.992C48.454 43.487 48.293 45.2121 48.868 46.6381C49.5235 48.2482 51.2601 48.9497 52.5021 47.5351C53.5716 46.3046 53.5486 44.315 53.8822 42.8085C53.9857 42.36 54.0892 41.946 54.2847 41.5894C55.4577 41.0144 55.8832 42.6475 55.9407 43.924C56.0212 45.6721 56.1477 47.4086 56.0672 49.1107C55.9867 50.7667 55.7912 52.7103 55.9637 54.3088C56.1707 56.2409 57.7578 56.7239 59.2183 55.3439C60.4719 54.1593 59.9543 52.0778 59.8623 50.5137V50.5252Z" fill="#B67F6E"/>
<path d="M42.3495 32.9767C42.3495 35.3113 40.4634 37.1974 38.1288 37.1974C35.7943 37.1974 33.9082 35.3113 33.9082 32.9767C33.9082 26.4905 38.6694 21.3959 39.5434 22.0744C39.6814 22.1894 39.7274 22.4424 39.6239 22.8794C38.0943 29.5266 42.3495 30.6422 42.3495 32.9767Z" fill="#B55759"/>
<path d="M54.5741 28.2609C54.5741 30.5955 52.688 32.4816 50.3534 32.4816C48.0189 32.4816 46.1328 30.5955 46.1328 28.2609C46.1328 21.7747 50.894 16.6801 51.768 17.3586C51.906 17.4736 51.952 17.7266 51.8485 18.1636C50.3189 24.8108 54.5741 25.9264 54.5741 28.2609Z" fill="#B55759"/>
<path d="M32.8262 7.63912C33.6122 8.94316 34.3968 10.2457 35.1828 11.5498C35.4998 12.0767 36.2516 12.3179 36.7905 11.9711C37.319 11.6302 37.5512 10.926 37.2118 10.3633C36.4258 9.05929 35.6413 7.75673 34.8553 6.45268C34.5382 5.9257 33.7864 5.68453 33.2475 6.03138C32.7191 6.37228 32.4868 7.07641 32.8262 7.63912Z" fill="#AAC0B7"/>
<path d="M44.8924 4.27319C44.8611 6.15483 44.9594 8.03495 45.1856 9.90319C45.2601 10.5106 45.6724 11.109 46.3602 11.0777C46.9333 11.0524 47.6151 10.5567 47.5347 9.90319C47.3084 8.03495 47.2102 6.15483 47.2415 4.27319C47.2519 3.65838 46.6936 3.07035 46.0669 3.09864C45.4208 3.12692 44.9028 3.61521 44.8924 4.27319Z" fill="#AAC0B7"/>
<path d="M56.4929 6.13373C55.5089 7.52858 54.6053 8.97851 53.7865 10.4761C53.4918 11.015 53.6362 11.7816 54.2078 12.0838C54.7586 12.3741 55.4999 12.2386 55.8155 11.6625C56.6358 10.1649 57.5394 8.71502 58.5219 7.32017C58.8777 6.81552 58.6291 5.9923 58.1006 5.71244C57.4977 5.39387 56.8725 5.59633 56.4929 6.13373Z" fill="#AAC0B7"/>
</svg>
