<svg width="123" height="103" viewBox="0 0 123 103" fill="none" xmlns="http://www.w3.org/2000/svg">
<path d="M103.587 0H18V102.442H103.587V0Z" fill="#B67F6E"/>
<path d="M26.8715 9.26999L18 0H103.587L94.7118 9.26999H26.8715Z" fill="#7B4A3A"/>
<path d="M26.8715 93.1718L18 102.442H103.587L94.7118 93.1718H26.8715Z" fill="#7B4A3A"/>
<path d="M94.7187 9.271H26.875V93.1731H94.7187V9.271Z" fill="#E3EBE8"/>
<path d="M94.7187 87.4458V93.1726H26.875V91.2469C28.1041 87.0842 29.5207 82.8845 30.445 81.5985C32.6185 79.3246 35.0599 78.7854 38.8811 78.1658C39.5743 78.0285 40.2977 77.9247 41.0914 77.7974C41.7746 77.6668 42.4712 77.5295 43.1343 77.4089C43.6534 77.2984 44.1524 77.1678 44.6514 77.0774C44.6782 77.0406 44.7452 77.0405 44.782 77.0405C45.7733 76.7726 46.7244 76.4846 47.6119 76.1531C47.6487 76.1162 47.6755 76.1162 47.7124 76.1162C48.0741 75.9856 48.4324 75.8215 48.7673 75.6809C50.0801 75.0881 51.3393 74.4049 52.4847 73.5074C52.7894 73.2395 53.0473 72.9447 53.3186 72.6098H53.486C54.0487 72.5831 53.5798 72.5831 54.3367 72.6098C55.5858 72.6467 56.8819 72.7472 58.1679 72.8409C59.2697 72.9514 60.3682 72.9983 61.4801 73.0352C62.5819 72.9983 63.6904 72.9514 64.7922 72.8409C65.0132 72.8208 65.2276 72.8141 65.4486 72.794H65.4687C66.5236 72.7103 67.5886 72.6366 68.6234 72.6098C69.3836 72.5831 68.9114 72.5831 69.4741 72.6098H69.6415C69.9094 72.9414 70.1673 73.2395 70.4754 73.5074C71.6241 74.4049 72.88 75.0881 74.1928 75.6809C74.377 75.7646 74.5813 75.8483 74.7856 75.932H74.7956C74.943 76.0057 75.0903 76.0626 75.2477 76.1162C75.2846 76.1162 75.3113 76.1162 75.3415 76.1531C76.239 76.4846 77.1901 76.7726 78.1814 77.0405C78.2183 77.0405 78.2819 77.0406 78.312 77.0774C78.3589 77.0874 78.4125 77.0975 78.4594 77.1042C78.9048 77.1979 79.3569 77.3085 79.8291 77.4089C80.4956 77.5295 81.1888 77.6668 81.872 77.7974C82.6691 77.928 83.3891 78.0285 84.0823 78.1658C87.9035 78.7854 90.3449 79.3212 92.5184 81.5985C93.0007 82.1176 93.8781 84.5758 94.7187 87.4458Z" fill="#DFB0A2"/>
<path d="M78.4553 77.0869V77.107C77.9731 83.6643 75.4948 89.4112 71.8612 93.1754H51.3889C47.8088 89.5585 45.2636 84.1198 44.5234 77.8471C46.4926 77.0903 48.0198 76.5712 48.5489 76.4037C49.8818 76.0052 52.2127 74.6187 53.3681 72.6127C53.8202 71.8457 54.0982 70.9951 54.0714 70.0607C54.0513 69.4311 54.0345 68.7747 53.9977 68.0982C53.9709 67.6897 53.9508 67.2844 53.914 66.8759V66.8491C53.8771 66.2563 53.8303 65.6937 53.7834 65.1645C53.7733 65.0909 53.7733 65.044 53.7633 64.9703C53.6628 63.8417 53.559 62.9542 53.4853 62.6126L55.6119 62.5389L68.8772 62.0935C68.8203 62.4351 68.7466 63.3427 68.683 64.4981C68.6462 65.044 68.6194 65.6535 68.6093 66.273C68.6093 66.273 68.6194 66.2831 68.6093 66.2831C68.5993 66.33 68.5993 66.3836 68.5993 66.4304C68.5624 67.539 68.5423 68.7044 68.5624 69.7325C68.5624 69.8899 68.5825 70.0574 68.5993 70.2047C68.6093 70.2985 68.6261 70.3889 68.6562 70.4827C68.6763 70.6133 68.7031 70.7339 68.7399 70.8511C68.7667 70.9717 68.8036 71.0922 68.8605 71.2128C68.8873 71.3066 68.9241 71.397 68.971 71.4807C69.0547 71.695 69.1552 71.8893 69.2758 72.0835C69.3126 72.1572 69.3595 72.2208 69.4064 72.2979C69.4801 72.3983 69.5537 72.5122 69.6274 72.6127C69.6843 72.6863 69.7379 72.76 69.8016 72.8337C69.9757 73.0648 70.1699 73.2791 70.3843 73.4801C71.6703 74.746 73.3347 75.5598 74.3696 75.831C74.4801 75.8511 74.6107 75.888 74.7781 75.9315H74.7882C75.5082 76.1358 76.8311 76.5343 78.452 77.0869H78.4553Z" fill="#DFB0A2"/>
<path d="M70.3866 73.4804C61.0965 72.5427 56.9003 70.3893 53.9967 68.0986C53.9766 67.69 53.9498 67.2781 53.9197 66.8729C53.8761 66.27 53.8326 65.694 53.7891 65.1615L55.621 62.5359L68.8829 62.0872C68.826 62.4254 68.7523 63.333 68.6887 64.4951C68.6552 65.0878 68.6217 65.7509 68.6016 66.4274C68.5648 67.5393 68.5447 68.7014 68.5681 69.7262C68.6016 71.2098 69.3719 72.4824 70.3833 73.4771L70.3866 73.4804Z" fill="#654237"/>
<path d="M71.7226 24.3374C71.4949 18.0915 54.6997 17.117 48.3936 23.249C42.0875 29.381 46.0426 30.7574 43.35 32.0769C40.6574 33.3964 36.7592 33.9691 38.9361 41.0187C41.1129 48.0683 34.924 44.9169 36.0124 50.4193C37.1008 55.9217 41.287 53.8018 42.2583 55.004C43.2328 56.2063 40.845 61.8058 50.5135 62.0336C60.182 62.2613 73.0187 61.6518 74.4353 60.6571C75.8486 59.6625 81.6189 56.8359 81.1601 52.0603C80.7013 47.2846 84.3315 50.647 84.2947 45.9082C84.2579 41.1694 79.7903 38.1854 80.7013 35.3622C81.5418 32.7634 82.4427 30.4794 80.2793 26.9161C78.2163 23.5169 72.523 23.3226 71.7193 24.3374H71.7226Z" fill="#654237"/>
<path d="M60.9742 69.826C68.8128 69.826 75.1672 59.7501 75.1672 47.3208C75.1672 34.8916 68.8128 24.8157 60.9742 24.8157C53.1357 24.8157 46.7812 34.8916 46.7812 47.3208C46.7812 59.7501 53.1357 69.826 60.9742 69.826Z" fill="#DFB0A2"/>
<path d="M46.2718 55.5368C47.6645 55.5368 48.7936 53.5351 48.7936 51.0659C48.7936 48.5967 47.6645 46.595 46.2718 46.595C44.8791 46.595 43.75 48.5967 43.75 51.0659C43.75 53.5351 44.8791 55.5368 46.2718 55.5368Z" fill="#DFB0A2"/>
<path d="M75.553 55.5368C76.9458 55.5368 78.0748 53.5351 78.0748 51.0659C78.0748 48.5967 76.9458 46.595 75.553 46.595C74.1603 46.595 73.0312 48.5967 73.0312 51.0659C73.0312 53.5351 74.1603 55.5368 75.553 55.5368Z" fill="#DFB0A2"/>
<path d="M69.1987 31.0426C71.3755 32.7037 70.8028 41.7594 72.7519 42.1043C74.701 42.4492 74.9288 46.746 74.47 48.6951C76.7037 47.9516 78.194 47.2048 78.7098 46.401C79.2255 45.5973 75.0996 25.711 69.1953 31.0393L69.1987 31.0426Z" fill="#654237"/>
<path d="M43.0082 45.7139C43.4135 46.732 48.7383 49.9537 48.6245 49.2103C48.5106 48.4668 48.457 44.1667 48.6245 43.7648C48.7919 43.3629 52.2916 41.6449 53.092 38.6643C53.8958 35.6837 55.7277 38.1486 58.1356 38.2055C60.5435 38.2624 64.0398 36.3133 65.2421 33.4466C66.4444 30.5799 67.9883 30.4024 68.7385 30.8679C69.5054 30.7842 70.9454 30.5062 70.1149 28.6341C67.0171 21.6548 53.7551 22.8069 47.3586 32.0735C43.3029 37.951 42.5427 44.5686 43.0015 45.7139H43.0082Z" fill="#654237"/>
<path opacity="0.23" d="M28.2891 75.4762V11.4067H92.2814V25.8476L28.2891 75.4762Z" fill="white"/>
<path d="M116.118 6.53918C115.818 5.46027 115.775 3.28866 115.987 2.27368C115.987 2.27368 114.048 4.65567 112.805 5.96613C111.432 7.41223 109.162 7.9635 107.41 8.05917C109.171 9.14813 110.359 10.936 110.86 12.723C111.361 14.51 110.875 17.984 110.875 17.984C110.875 17.984 112.738 15.5197 113.67 14.2872C115.055 12.4548 117.014 10.685 119.671 10.7474C117.729 9.2753 116.705 8.65113 116.118 6.53873L116.118 6.53918Z" fill="#5D738A"/>
<path d="M7.8619 75.4104C6.89158 74.8012 5.41456 73.2231 4.91973 72.3409C4.91973 72.3409 4.86125 75.3132 4.67905 77.0594C4.47772 78.9866 2.92406 80.8134 1.50593 81.9797C3.71751 81.6833 5.90934 82.2611 7.51911 83.268C9.12888 84.275 11.0236 87.1457 11.0236 87.1457C11.0236 87.1457 10.9635 84.1599 10.9334 82.6667C10.8891 80.4461 11.3707 77.9137 13.6592 76.2981C11.0397 76.425 9.76017 76.6036 7.86093 75.4105L7.8619 75.4104Z" fill="#AAC0B7"/>
</svg>
