<svg width="123" height="104" viewBox="0 0 123 104" fill="none" xmlns="http://www.w3.org/2000/svg">
<path d="M61.7324 0.630127C37.7011 0.630127 18.1914 20.0352 18.1914 43.9618C18.1914 67.8884 37.6802 87.2935 61.7324 87.2935C85.7847 87.2935 105.274 67.8884 105.274 43.9618C105.274 20.0352 85.7847 0.630127 61.7324 0.630127ZM61.7324 67.3442C48.7538 67.3442 38.2245 56.8567 38.2245 43.9409C38.2245 31.0251 48.7538 20.5376 61.7324 20.5376C74.711 20.5376 85.2614 31.0042 85.2614 43.9409C85.2614 56.8776 74.7319 67.3442 61.7324 67.3442Z" fill="#34547A"/>
<path d="M22.2924 80.494C13.9447 82.1021 7.13409 84.1831 0.84375 86.9026L9.56983 92.5544L7.1341 104C13.2353 101.351 20.2824 98.1117 26.9038 96.4091L22.2924 80.4703V80.494Z" fill="#F1ECE6"/>
<path d="M26.9069 96.4327L15.8633 95.5341L25.1096 90.0479L26.9069 96.4327Z" fill="#B67F6E"/>
<path d="M101.158 80.4938C109.506 82.1018 116.317 84.1828 122.607 86.9023L113.881 92.5542L116.317 104C110.215 101.351 103.168 98.1115 96.5469 96.4088L101.158 80.4701V80.4938Z" fill="#F1ECE6"/>
<path d="M96.5469 96.4325L107.59 95.5339L98.3441 90.0476L96.5469 96.4325Z" fill="#B67F6E"/>
<path d="M107.784 95.6758C76.1903 83.4262 36.8403 86.4768 15.8646 95.5576L9.57422 78.4602C34.0498 67.8659 77.5856 64.4134 113.483 78.342L107.784 95.6758Z" fill="#F1ECE6"/>
<path d="M28.8989 64.6229C27.5383 61.6295 28.857 58.1127 31.8714 56.752C32.1226 56.6264 32.3947 56.5427 32.6459 56.4589C31.3899 56.0193 29.9665 56.0403 28.6477 56.6264C25.9682 57.8406 24.796 60.9806 26.0101 63.6391C26.8684 65.4812 28.6477 66.6325 30.5526 66.7371C29.8618 66.1719 29.2967 65.4603 28.8989 64.6229Z" fill="#B55759"/>
<path d="M33.5828 56.1661C36.1157 57.7989 36.7437 61.3366 34.9644 64.0998C34.8179 64.33 34.6503 64.5603 34.4619 64.7696C35.697 64.4137 36.8484 63.6183 37.6229 62.4042C39.2138 59.955 38.6486 56.7732 36.3878 55.3288C34.8178 54.324 32.8292 54.4077 31.2383 55.3916C32.0547 55.4544 32.8501 55.7055 33.5828 56.1661Z" fill="#B55759"/>
<path d="M30.9265 62.4249C31.4917 60.7712 33.4176 59.9129 35.2388 60.5409C35.3853 60.5828 35.5318 60.6456 35.6783 60.7293C35.3225 60.0804 34.6945 59.5571 33.899 59.2849C32.2872 58.7407 30.5707 59.4943 30.0683 60.9805C29.7124 62.0062 30.0682 63.1157 30.8218 63.8693C30.7381 63.4088 30.7799 62.9064 30.9265 62.4459V62.4249Z" fill="#B55759"/>
<path d="M30.9265 62.4249C31.4917 60.7712 33.4176 59.9129 35.2388 60.5409C35.3853 60.5828 35.5318 60.6456 35.6783 60.7293C35.3225 60.0804 34.6945 59.5571 33.899 59.2849C32.2872 58.7407 30.5707 59.4943 30.0683 60.9805C29.7124 62.0062 30.0682 63.1157 30.8218 63.8693C30.7381 63.4088 30.7799 62.9064 30.9265 62.4459V62.4249Z" fill="#B55759"/>
<path d="M34.3836 61.9646C33.8393 62.9275 32.5414 63.2206 31.4738 62.6135C31.3901 62.5507 31.3064 62.5089 31.2227 62.4461C31.3692 62.8857 31.6832 63.3044 32.1437 63.5556C33.0857 64.0998 34.237 63.8277 34.7394 62.9694C35.0743 62.3833 35.0116 61.6506 34.6348 61.0854C34.6348 61.3785 34.5511 61.6925 34.3836 61.9646Z" fill="#B55759"/>
<path d="M38.6077 61.546C38.3146 62.2577 37.8751 62.9485 37.268 63.5346C35.1747 65.628 32.0556 65.9001 30.2762 64.1417C30.1297 63.9952 30.0041 63.8277 29.8785 63.6602C29.8157 64.7697 30.1506 65.8164 30.9252 66.5909C32.5161 68.1609 35.3002 67.9097 37.1633 66.0466C38.4611 64.7488 38.9636 63.0113 38.6286 61.546H38.6077Z" fill="#B55759"/>
<path d="M30.0039 54.6589C31.5529 53.989 33.1647 53.7797 34.5882 53.9472C33.081 52.8377 31.0295 52.5028 29.1665 53.2982C27.1569 54.1774 25.9637 56.1033 25.9219 58.1338C26.7383 56.7103 28.1617 55.4334 29.9829 54.6379L30.0039 54.6589Z" fill="#B55759"/>
<path d="M28.0111 66.465C26.6295 65.4811 25.6456 64.2042 25.0804 62.9064C24.8711 64.7694 25.6456 66.6953 27.2784 67.8675C29.0577 69.1445 31.3394 69.1863 33.1188 68.1815C31.486 68.2024 29.6439 67.6372 28.0111 66.465Z" fill="#B55759"/>
<path d="M39.4017 61.9017C39.2761 63.5973 38.7109 65.0835 37.8945 66.2767C39.5901 65.4603 40.8252 63.8066 40.9717 61.797C41.1182 59.62 39.9669 57.6732 38.1667 56.6893C39.0459 58.0709 39.5273 59.913 39.4017 61.9017Z" fill="#B55759"/>
<path d="M27.2828 56.3965C25.4616 56.3546 24.2057 57.1292 23.5567 58.6782C22.6566 60.7925 23.9754 63.3463 26.4665 64.393C26.6549 64.4767 26.8432 64.5186 27.0316 64.5814C23.5567 60.8134 26.2571 57.2548 27.2619 56.3965H27.2828Z" fill="#B55759"/>
<path d="M37.2705 55.5591C38.045 56.229 38.5683 57.0873 38.8195 58.0083C39.2382 56.6058 38.8404 55.0149 37.6681 53.9891C36.0563 52.5657 33.5862 52.7332 32.1628 54.345C32.0581 54.4706 31.9744 54.5962 31.8906 54.7428C33.649 53.9892 35.7423 54.2403 37.2914 55.5591H37.2705Z" fill="#B55759"/>
<path d="M35.1147 67.8677C34.1518 68.098 33.2098 68.0142 32.3516 67.7212C33.2308 68.8306 34.6751 69.3958 36.1405 69.04C38.1291 68.5585 39.3642 66.5698 38.8827 64.5812C38.8408 64.4346 38.778 64.2881 38.7362 64.1416C38.3594 65.9209 36.9987 67.4072 35.1147 67.8468V67.8677Z" fill="#B55759"/>
<path d="M34.0428 38.3098C31.4052 40.6124 27.3861 40.3612 25.0834 37.7445C24.895 37.5143 24.7066 37.284 24.5601 37.0538C24.4973 38.4563 24.9578 39.9007 25.9626 41.052C28.035 43.3965 31.6146 43.6268 33.9591 41.5754C35.5919 40.1519 36.1989 37.9958 35.7175 36.0281C35.3616 36.8863 34.7964 37.6818 34.0637 38.3516L34.0428 38.3098Z" fill="#DFB0A2"/>
<path d="M23.9704 36.1536C24.8496 33.0764 28.2826 31.3599 31.6528 32.3228C31.9459 32.4065 32.218 32.5112 32.4901 32.6159C31.7575 31.4646 30.5852 30.5645 29.099 30.1458C26.0846 29.2875 23.0284 30.8156 22.2329 33.5579C21.6886 35.4628 22.4004 37.4515 23.8866 38.7703C23.6982 37.912 23.7192 37.0328 23.9704 36.1536Z" fill="#DFB0A2"/>
<path d="M31.1729 36.9284C29.3098 36.8656 27.8445 35.17 27.9073 33.1395C27.9073 32.972 27.9283 32.8046 27.9701 32.6371C27.4259 33.2023 27.07 33.9977 27.0491 34.8978C26.9863 36.6981 28.2841 38.2262 29.9587 38.2681C31.1101 38.3099 32.1358 37.6192 32.6801 36.5934C32.2196 36.8237 31.7171 36.9493 31.1938 36.9284H31.1729Z" fill="#DFB0A2"/>
<path d="M31.1729 36.9284C29.3098 36.8656 27.8445 35.17 27.9073 33.1395C27.9073 32.972 27.9283 32.8046 27.9701 32.6371C27.4259 33.2023 27.07 33.9977 27.0491 34.8978C26.9863 36.6981 28.2841 38.2262 29.9587 38.2681C31.1101 38.3099 32.1358 37.6192 32.6801 36.5934C32.2196 36.8237 31.7171 36.9493 31.1938 36.9284H31.1729Z" fill="#DFB0A2"/>
<path d="M29.644 33.5578C30.7953 33.8299 31.5071 35.0441 31.214 36.3001C31.1931 36.4047 31.1512 36.5094 31.1094 36.614C31.5071 36.321 31.842 35.8814 31.9676 35.3371C32.2188 34.2276 31.6117 33.1182 30.5651 32.8879C29.8534 32.7205 29.1207 33.0135 28.6602 33.5787C28.9742 33.495 29.3091 33.474 29.6231 33.5787L29.644 33.5578Z" fill="#DFB0A2"/>
<path d="M27.9062 29.4132C28.7226 29.497 29.5599 29.7272 30.3554 30.1459C33.1395 31.6112 34.3746 34.7093 33.1186 37.0538C33.0139 37.2632 32.8883 37.4306 32.7627 37.619C33.914 37.3469 34.8979 36.698 35.4421 35.6722C36.5516 33.5789 35.4422 30.8367 32.972 29.5179C31.2555 28.6177 29.3087 28.6387 27.9271 29.4342L27.9062 29.4132Z" fill="#DFB0A2"/>
<path d="M23.5118 40.2359C22.3396 38.8753 21.6488 37.3053 21.3976 35.7981C20.7068 37.6821 20.9999 39.8382 22.4024 41.471C23.9096 43.2294 26.2541 43.8574 28.3474 43.2713C26.6518 42.8945 24.8934 41.8478 23.5118 40.215V40.2359Z" fill="#DFB0A2"/>
<path d="M36.2189 38.6238C35.6327 40.3194 34.6279 41.7219 33.4766 42.7058C35.4443 42.329 37.1818 40.9683 37.8725 38.9587C38.6261 36.7608 37.9772 34.4372 36.3863 32.9509C36.9096 34.6047 36.9097 36.6352 36.2189 38.6448V38.6238Z" fill="#DFB0A2"/>
<path d="M28.0147 28.4922C29.7731 28.0944 31.4896 28.1991 32.9549 28.6806C31.5943 27.2152 29.5219 26.4617 27.4286 26.9431C25.1678 27.4455 23.535 29.2457 23.0745 31.36C24.2049 30.0412 25.9424 28.9736 28.0357 28.5131L28.0147 28.4922Z" fill="#DFB0A2"/>
<path d="M26.1303 42.4544C26.6327 44.3175 27.8259 45.3432 29.6052 45.5316C32.0335 45.7828 34.2524 43.6686 34.5454 40.8217C34.5664 40.5914 34.5454 40.403 34.5454 40.1727C31.7613 44.8618 27.2816 43.208 26.1094 42.4544H26.1303Z" fill="#DFB0A2"/>
<path d="M22.1933 32.616C22.6539 31.6321 23.3656 30.8366 24.2239 30.2924C22.6539 30.2924 21.1466 31.1925 20.4558 32.6997C19.5138 34.7721 20.4559 37.2213 22.5283 38.1633C22.6957 38.2261 22.8632 38.268 23.0097 38.3308C21.6909 36.7817 21.2932 34.5837 22.1933 32.616Z" fill="#DFB0A2"/>
<path d="M35.4427 31.0044C35.966 31.9045 36.1754 32.8884 36.1335 33.8513C36.9918 32.6372 37.1174 30.9835 36.3219 29.6228C35.2334 27.7388 32.8051 27.1108 30.9211 28.2203C30.7746 28.304 30.649 28.4087 30.5234 28.5134C32.4493 28.3459 34.396 29.2669 35.4427 31.0253V31.0044Z" fill="#DFB0A2"/>
<path d="M93.8003 64.6229C95.161 61.6295 93.8422 58.1127 90.8487 56.752C90.5975 56.6264 90.3254 56.5427 90.0742 56.4589C91.3302 56.0193 92.7537 56.0403 94.0725 56.6264C96.7519 57.8406 97.9242 60.9806 96.7101 63.6391C95.8518 65.4812 94.0725 66.6325 92.1675 66.7371C92.8583 66.1719 93.4235 65.4603 93.8213 64.6229H93.8003Z" fill="#DFB0A2"/>
<path d="M89.1149 56.1661C86.582 57.7989 85.954 61.3366 87.7333 64.0998C87.8799 64.33 88.0473 64.5603 88.2357 64.7696C87.0006 64.4137 85.8703 63.6183 85.0748 62.4042C83.4839 59.955 84.0282 56.7732 86.3099 55.3288C87.8799 54.324 89.8685 54.4077 91.4804 55.3916C90.664 55.4544 89.8476 55.7055 89.1359 56.1661H89.1149Z" fill="#DFB0A2"/>
<path d="M91.7713 62.4249C91.2061 60.7712 89.2803 59.9129 87.4591 60.5409C87.2916 60.5828 87.1661 60.6456 87.0195 60.7293C87.3963 60.0804 88.0034 59.5571 88.7989 59.2849C90.4107 58.7407 92.1482 59.4943 92.6506 60.9805C93.0064 62.0062 92.6506 63.1157 91.876 63.8693C91.9598 63.4088 91.9179 62.9064 91.7713 62.4459V62.4249Z" fill="#DFB0A2"/>
<path d="M91.7713 62.4249C91.2061 60.7712 89.2803 59.9129 87.4591 60.5409C87.2916 60.5828 87.1661 60.6456 87.0195 60.7293C87.3963 60.0804 88.0034 59.5571 88.7989 59.2849C90.4107 58.7407 92.1482 59.4943 92.6506 60.9805C93.0064 62.0062 92.6506 63.1157 91.876 63.8693C91.9598 63.4088 91.9179 62.9064 91.7713 62.4459V62.4249Z" fill="#DFB0A2"/>
<path d="M88.3202 61.9646C88.8854 62.9275 90.1833 63.2206 91.23 62.6135C91.3137 62.5507 91.3974 62.5089 91.4811 62.4461C91.3346 62.8857 91.0206 63.3044 90.5601 63.5556C89.6181 64.0998 88.4667 63.8277 87.9643 62.9694C87.6294 62.3833 87.6922 61.6506 88.069 61.0854C88.069 61.3785 88.1527 61.6925 88.3202 61.9646Z" fill="#DFB0A2"/>
<path d="M84.0878 61.546C84.3809 62.2577 84.8204 62.9485 85.4275 63.5346C87.5208 65.628 90.6608 65.9001 92.4192 64.1417C92.5657 63.9952 92.6913 63.8277 92.8169 63.6602C92.9006 64.7697 92.5448 65.8164 91.7702 66.5909C90.2002 68.1609 87.3952 67.9097 85.5322 66.0466C84.2343 64.7488 83.7319 63.0113 84.0878 61.546Z" fill="#DFB0A2"/>
<path d="M92.6898 54.6589C91.1199 53.989 89.5289 53.7797 88.1055 53.9472C89.6127 52.8377 91.6641 52.5028 93.5063 53.2982C95.5159 54.1774 96.709 56.1033 96.7509 58.1338C95.9345 56.7103 94.511 55.4334 92.6898 54.6379V54.6589Z" fill="#DFB0A2"/>
<path d="M94.6858 66.465C96.0674 65.4811 97.0513 64.2042 97.6165 62.9064C97.8258 64.7694 97.0513 66.6953 95.4185 67.8675C93.6392 69.1445 91.3574 69.1863 89.5781 68.1815C91.2109 68.2024 93.053 67.6372 94.6858 66.465Z" fill="#DFB0A2"/>
<path d="M83.2935 61.9017C83.4191 63.5973 83.9843 65.0835 84.8006 66.2767C83.1051 65.4603 81.87 63.8066 81.7235 61.797C81.5769 59.62 82.7283 57.6732 84.5285 56.6893C83.6493 58.0709 83.1679 59.913 83.3144 61.9017H83.2935Z" fill="#DFB0A2"/>
<path d="M95.3906 56.3965C97.2118 56.3546 98.4678 57.1292 99.1167 58.6782C100.017 60.7925 98.698 63.3463 96.207 64.393C96.0186 64.4767 95.8302 64.5186 95.6418 64.5814C99.1167 60.8134 96.4164 57.2548 95.4116 56.3965H95.3906Z" fill="#DFB0A2"/>
<path d="M85.4256 55.5591C84.6511 56.229 84.1487 57.0873 83.8766 58.0083C83.4579 56.6058 83.8556 55.0149 85.0279 53.9891C86.6397 52.5657 89.1099 52.7332 90.5333 54.345C90.638 54.4706 90.7217 54.5962 90.8055 54.7428C89.0471 53.9892 86.9538 54.2403 85.4047 55.5591H85.4256Z" fill="#DFB0A2"/>
<path d="M87.5869 67.8677C88.5498 68.098 89.4918 68.0142 90.3501 67.7212C89.4918 68.8306 88.0265 69.3958 86.5612 69.04C84.5725 68.5585 83.3375 66.5698 83.819 64.5812C83.8608 64.4346 83.9236 64.2881 83.9655 64.1416C84.3423 65.9209 85.7029 67.4072 87.5869 67.8468V67.8677Z" fill="#DFB0A2"/>
<path d="M88.6593 38.3098C91.2968 40.6124 95.316 40.3612 97.6187 37.7445C97.8071 37.5143 97.9955 37.284 98.142 37.0538C98.2048 38.4563 97.7442 39.9007 96.7394 41.052C94.667 43.3965 91.0875 43.6268 88.743 41.5754C87.1102 40.1519 86.5032 37.9958 86.9846 36.0281C87.3405 36.8863 87.9057 37.6818 88.6593 38.3516V38.3098Z" fill="#B55759"/>
<path d="M98.7517 36.1536C97.8725 33.0764 94.4185 31.3599 91.0483 32.3228C90.7552 32.4065 90.4831 32.5112 90.2109 32.6159C90.9436 31.4646 92.1158 30.5645 93.6021 30.1458C96.6165 29.2875 99.6727 30.8156 100.468 33.5579C101.012 35.4628 100.301 37.4515 98.8145 38.7703C99.0029 37.912 98.982 37.0328 98.7517 36.1536Z" fill="#B55759"/>
<path d="M91.5306 36.9284C93.3937 36.8656 94.859 35.17 94.7962 33.1395C94.7962 32.972 94.7753 32.8046 94.7334 32.6371C95.2777 33.2023 95.6335 33.9977 95.6545 34.8978C95.7173 36.6981 94.4194 38.2262 92.7448 38.2681C91.5935 38.3099 90.5677 37.6192 90.0234 36.5934C90.484 36.8237 90.9864 36.9493 91.5306 36.9284Z" fill="#B55759"/>
<path d="M91.5306 36.9284C93.3937 36.8656 94.859 35.17 94.7962 33.1395C94.7962 32.972 94.7753 32.8046 94.7334 32.6371C95.2777 33.2023 95.6335 33.9977 95.6545 34.8978C95.7173 36.6981 94.4194 38.2262 92.7448 38.2681C91.5935 38.3099 90.5677 37.6192 90.0234 36.5934C90.484 36.8237 90.9864 36.9493 91.5306 36.9284Z" fill="#B55759"/>
<path d="M93.0559 33.5578C91.9046 33.8299 91.1929 35.0441 91.4859 36.3001C91.5069 36.4047 91.5487 36.5094 91.5906 36.614C91.1928 36.321 90.8579 35.8814 90.7323 35.3371C90.4811 34.2276 91.0882 33.1182 92.1349 32.8879C92.8466 32.7205 93.5793 33.0135 94.0398 33.5787C93.7258 33.495 93.3908 33.474 93.0768 33.5787L93.0559 33.5578Z" fill="#B55759"/>
<path d="M94.7907 29.4132C93.9743 29.497 93.137 29.7272 92.3416 30.1459C89.5574 31.6112 88.3224 34.7093 89.5784 37.0538C89.683 37.2632 89.8086 37.4306 89.9342 37.619C88.7829 37.3469 87.799 36.698 87.2547 35.6722C86.1453 33.5789 87.2548 30.8367 89.7249 29.5179C91.4414 28.6177 93.3882 28.6387 94.7698 29.4342L94.7907 29.4132Z" fill="#B55759"/>
<path d="M99.1857 40.2359C100.358 38.8753 101.049 37.3053 101.321 35.7981C102.012 37.6821 101.698 39.8382 100.316 41.471C98.8089 43.2294 96.4644 43.8574 94.3711 43.2713C96.0667 42.8945 97.8251 41.8478 99.2067 40.215L99.1857 40.2359Z" fill="#B55759"/>
<path d="M86.5026 38.6238C87.0888 40.3194 88.0935 41.7219 89.2449 42.7058C87.2772 42.329 85.5397 40.9683 84.8489 38.9587C84.0953 36.7608 84.7442 34.4372 86.3142 32.9509C85.7909 34.6047 85.7909 36.6352 86.4817 38.6448L86.5026 38.6238Z" fill="#B55759"/>
<path d="M94.6825 28.4922C92.9241 28.0944 91.2075 28.1991 89.7422 28.6806C91.1028 27.2152 93.1753 26.4617 95.2686 26.9431C97.5503 27.4455 99.1831 29.2457 99.6436 31.36C98.5132 30.0412 96.7758 28.9736 94.6825 28.5131V28.4922Z" fill="#B55759"/>
<path d="M96.5729 42.4544C96.0705 44.3175 94.8773 45.3432 93.0979 45.5316C90.6697 45.7828 88.4508 43.6686 88.1577 40.8217C88.1368 40.5914 88.1577 40.403 88.1577 40.1727C90.9419 44.8618 95.4216 43.208 96.5938 42.4544H96.5729Z" fill="#B55759"/>
<path d="M100.507 32.616C100.047 31.6321 99.3348 30.8366 98.4766 30.2924C100.047 30.2924 101.554 31.1925 102.245 32.6997C103.187 34.7721 102.245 37.2213 100.172 38.1633C100.026 38.2261 99.8581 38.268 99.6907 38.3308C101.009 36.7817 101.407 34.5837 100.507 32.616Z" fill="#B55759"/>
<path d="M87.2544 31.0044C86.7311 31.9045 86.5218 32.8884 86.5637 33.8513C85.7054 32.6372 85.5798 30.9835 86.3753 29.6228C87.4638 27.7388 89.892 27.1108 91.776 28.2203C91.9225 28.304 92.0481 28.4087 92.1737 28.5134C90.2479 28.3459 88.3011 29.2669 87.2544 31.0253V31.0044Z" fill="#B55759"/>
<path d="M48.946 12.3524C49.7415 15.7645 47.6063 19.1557 44.1942 19.9302C43.9011 19.993 43.6081 20.0349 43.3359 20.0558C44.5501 20.7885 46.0363 21.0606 47.5226 20.7257C50.5788 20.0139 52.4837 16.9995 51.772 13.9642C51.2905 11.85 49.6577 10.3009 47.69 9.77759C48.2761 10.5102 48.7367 11.3685 48.946 12.3314V12.3524Z" fill="#B55759"/>
<path d="M42.2483 20.1816C39.9457 17.9627 40.0713 14.1319 42.4996 11.6199C42.7089 11.4106 42.9182 11.2222 43.1485 11.0338C41.7878 11.1385 40.4272 11.7246 39.3596 12.834C37.1825 15.0739 37.0778 18.486 39.1293 20.4746C40.5527 21.8562 42.646 22.1703 44.53 21.5004C43.6927 21.2492 42.8972 20.8305 42.2483 20.1816Z" fill="#B55759"/>
<path d="M46.3717 14.2367C45.4297 15.8486 43.2317 16.3301 41.4733 15.3043C41.3268 15.2206 41.1803 15.1159 41.0547 15.0112C41.3059 15.7648 41.8292 16.4347 42.6037 16.8952C44.1737 17.7953 46.1205 17.3767 46.9578 15.9532C47.5439 14.9485 47.4183 13.7343 46.7694 12.7714C46.7694 13.2738 46.6229 13.7762 46.3508 14.2367H46.3717Z" fill="#B55759"/>
<path d="M46.3717 14.2367C45.4297 15.8486 43.2317 16.3301 41.4733 15.3043C41.3268 15.2206 41.1803 15.1159 41.0547 15.0112C41.3059 15.7648 41.8292 16.4347 42.6037 16.8952C44.1737 17.7953 46.1205 17.3767 46.9578 15.9532C47.5439 14.9485 47.4183 13.7343 46.7694 12.7714C46.7694 13.2738 46.6229 13.7762 46.3508 14.2367H46.3717Z" fill="#B55759"/>
<path d="M42.6509 13.9647C43.4254 13.0855 44.8489 13.0436 45.8328 13.9019C45.9165 13.9647 45.9793 14.0484 46.063 14.1321C46.0002 13.6297 45.749 13.1483 45.3303 12.7715C44.4721 12.0179 43.1952 12.0388 42.5044 12.8343C42.0229 13.3785 41.9392 14.1531 42.2322 14.823C42.295 14.509 42.4625 14.2159 42.6718 13.9647H42.6509Z" fill="#B55759"/>
<path d="M38.1694 13.5249C38.6299 12.855 39.2369 12.227 39.9905 11.7456C42.6072 10.0081 45.9356 10.3849 47.4009 12.5829C47.5265 12.7713 47.6312 12.9597 47.7149 13.169C48.0289 12.0386 47.9033 10.8664 47.2544 9.90343C45.9356 7.93571 42.9631 7.60081 40.6395 9.14987C39.0276 10.2175 38.1275 11.934 38.1694 13.5249Z" fill="#B55759"/>
<path d="M45.6654 22.5049C43.8861 22.8817 42.1905 22.7561 40.7461 22.2747C42.0858 23.7609 44.1373 24.5354 46.2515 24.0749C48.5123 23.5934 50.187 21.8351 50.6685 19.7208C49.5171 21.0396 47.7587 22.0653 45.6864 22.5049H45.6654Z" fill="#B55759"/>
<path d="M50.2463 10.6149C51.4814 11.9337 52.235 13.4618 52.549 14.9481C53.156 13.0431 52.7793 10.887 51.3139 9.31703C49.7439 7.62144 47.3785 7.09813 45.2852 7.76799C47.0017 8.08199 48.8019 9.06582 50.2463 10.6149Z" fill="#B55759"/>
<path d="M37.3926 13.0014C37.8741 11.2639 38.7952 9.81949 39.8837 8.77283C37.9369 9.25429 36.3041 10.7196 35.7179 12.792C35.0899 15.0319 35.8854 17.2926 37.5601 18.7161C36.9321 17.1042 36.8274 15.0737 37.3926 13.0223V13.0014Z" fill="#B55759"/>
<path d="M48.8633 21.2698C50.7473 21.7094 52.2335 21.1442 53.2383 19.6789C54.6199 17.6693 53.8035 14.7177 51.4171 13.1059C51.2287 12.9803 51.0404 12.8965 50.852 12.7919C53.6779 17.46 50.0983 20.5999 48.8633 21.2698Z" fill="#B55759"/>
<path d="M38.2942 20.0559C37.6244 19.1976 37.2685 18.1928 37.2057 17.1671C36.473 18.5487 36.5358 20.2861 37.5616 21.6049C38.9432 23.4261 41.5598 23.7611 43.381 22.3795C43.5275 22.2748 43.6322 22.1492 43.7578 22.0236C41.7691 22.4423 39.634 21.7515 38.3152 20.035L38.2942 20.0559Z" fill="#B55759"/>
<path d="M43.1488 7.66347C44.1954 7.64254 45.1583 7.9147 45.9956 8.4171C45.3258 7.07737 43.9232 6.17723 42.3323 6.24003C40.1553 6.32376 38.4387 8.12402 38.5225 10.3011C38.5225 10.4685 38.5643 10.6151 38.5853 10.7826C39.3598 9.02417 41.0764 7.7472 43.1488 7.66347Z" fill="#B55759"/>
<path d="M71.2813 10.6572C70.4859 14.0693 72.621 17.4605 76.0331 18.235C76.3262 18.2978 76.6193 18.3397 76.8914 18.3606C75.6773 19.0933 74.191 19.3654 72.7048 19.0305C69.6485 18.3188 67.7645 15.3043 68.4553 12.269C68.9368 10.1548 70.5695 8.60573 72.5373 8.0824C71.9511 8.81506 71.4907 9.67332 71.2813 10.6362V10.6572Z" fill="#DFB0A2"/>
<path d="M77.9775 18.4654C80.2802 16.2465 80.1755 12.4157 77.7263 9.90375C77.517 9.69442 77.2867 9.50603 77.0774 9.31763C78.4381 9.42229 79.7987 10.0085 80.8663 11.1179C83.0434 13.3578 83.148 16.7699 81.0965 18.7585C79.6731 20.1401 77.5798 20.4541 75.6958 19.7842C76.5331 19.533 77.3286 19.1144 77.9775 18.4654Z" fill="#DFB0A2"/>
<path d="M73.8534 12.541C74.7954 14.1529 76.9724 14.6343 78.7517 13.6086C78.8983 13.5248 79.0448 13.4202 79.1704 13.3156C78.9192 14.0691 78.3959 14.739 77.6214 15.1995C76.0514 16.0997 74.1046 15.681 73.2673 14.2576C72.6811 13.2528 72.8067 12.0386 73.4556 11.0757C73.4556 11.5781 73.6022 12.0805 73.8743 12.541H73.8534Z" fill="#DFB0A2"/>
<path d="M73.8534 12.541C74.7954 14.1529 76.9724 14.6343 78.7517 13.6086C78.8983 13.5248 79.0448 13.4202 79.1704 13.3156C78.9192 14.0691 78.3959 14.739 77.6214 15.1995C76.0514 16.0997 74.1046 15.681 73.2673 14.2576C72.6811 13.2528 72.8067 12.0386 73.4556 11.0757C73.4556 11.5781 73.6022 12.0805 73.8743 12.541H73.8534Z" fill="#DFB0A2"/>
<path d="M77.5803 12.2689C76.8058 11.3897 75.3824 11.3478 74.3985 12.2061C74.3148 12.2689 74.2519 12.3526 74.1682 12.4363C74.231 11.9339 74.4822 11.4525 74.9009 11.0757C75.7591 10.3221 77.0361 10.343 77.7269 11.1385C78.2083 11.6827 78.2921 12.4573 77.999 13.1272C77.9362 12.8132 77.7688 12.5201 77.5594 12.2689H77.5803Z" fill="#DFB0A2"/>
<path d="M82.0619 11.8083C81.6014 11.1385 80.9943 10.5105 80.2407 10.029C77.6241 8.29156 74.2957 8.66834 72.8304 10.8663C72.7048 11.0547 72.6001 11.2431 72.5164 11.4525C72.2024 10.3221 72.328 9.14981 72.9769 8.18688C74.2957 6.21916 77.2682 5.88426 79.5918 7.43332C81.2245 8.50091 82.1038 10.2174 82.0619 11.8083Z" fill="#DFB0A2"/>
<path d="M74.566 20.8098C76.3453 21.1866 78.0409 21.061 79.4853 20.5795C78.1456 22.0658 76.0941 22.8403 73.9799 22.4007C71.6981 21.9192 70.0445 20.1609 69.563 18.0466C70.7143 19.3654 72.4727 20.3911 74.5451 20.8307L74.566 20.8098Z" fill="#DFB0A2"/>
<path d="M69.9831 8.91968C68.7481 10.2385 67.9945 11.7666 67.6805 13.2529C67.0735 11.3479 67.4502 9.19182 68.9156 7.62183C70.4856 5.92625 72.872 5.40294 74.9443 6.0728C73.2278 6.3868 71.4275 7.37063 69.9831 8.91968Z" fill="#DFB0A2"/>
<path d="M82.8314 11.2852C82.3499 9.54779 81.4289 8.10342 80.3403 7.05676C82.2871 7.53823 83.9408 9.00351 84.506 11.0759C85.134 13.3158 84.3385 15.5766 82.6639 17C83.2919 15.3882 83.3966 13.3577 82.8314 11.3062V11.2852Z" fill="#DFB0A2"/>
<path d="M71.3639 19.5537C69.48 19.9933 68.0146 19.428 66.9889 17.9627C65.6073 15.9531 66.4237 13.0015 68.8101 11.3897C68.9985 11.2641 69.1869 11.1803 69.3753 11.0757C66.5493 15.7438 70.1289 18.8838 71.3639 19.5537Z" fill="#DFB0A2"/>
<path d="M81.9521 18.3397C82.6219 17.4815 82.9569 16.4767 83.0406 15.4509C83.7733 16.8325 83.7105 18.57 82.6847 19.8888C81.3031 21.7099 78.6865 22.0449 76.8653 20.6633C76.7188 20.5587 76.6141 20.433 76.4885 20.3074C78.4772 20.7261 80.6333 20.0353 81.9312 18.3188L81.9521 18.3397Z" fill="#DFB0A2"/>
<path d="M77.0777 5.96817C76.031 5.9263 75.068 6.21938 74.2307 6.70084C74.9006 5.36112 76.3031 4.48191 77.894 4.52377C80.0711 4.58657 81.7876 6.40776 81.7039 8.58482C81.7039 8.75228 81.662 8.89884 81.6411 9.0663C80.8666 7.28698 79.15 6.03101 77.0777 5.94728V5.96817Z" fill="#DFB0A2"/>
</svg>
