<svg width="109" height="110" viewBox="0 0 109 110" fill="none" xmlns="http://www.w3.org/2000/svg">
<g filter="url(#filter0_d_2_1338)">
<path d="M71.3906 72.0696C74.0861 70.8358 77.7516 70.2379 81.7559 72.6946C81.7436 72.7116 81.7318 72.7305 81.7178 72.7493C81.5917 72.9187 81.3973 73.1589 81.1289 73.4348C80.592 73.9868 79.7583 74.6819 78.5771 75.2454C76.2739 76.344 72.6117 76.9592 67.1807 74.97C67.1935 74.9573 67.2069 74.9443 67.2207 74.9309C67.4247 74.7322 67.7268 74.453 68.1152 74.134C68.8929 73.4954 70.0146 72.6995 71.3906 72.0696Z" fill="#AAC0B7" stroke="#AAC0B7" stroke-width="0.510359"/>
<path d="M68.998 38.8916C68.9631 39.2987 68.8962 39.8854 68.7695 40.5977C68.5161 42.0228 68.0229 43.9477 67.0664 45.9502C65.1872 49.8843 61.5172 54.12 54.3193 55.459C54.3374 55.3508 54.3594 55.2191 54.3877 55.0664C54.4761 54.5895 54.6169 53.9068 54.8262 53.0879C55.245 51.449 55.9366 49.2683 57.0273 47.0938C59.181 42.8003 62.8575 38.5899 69.0225 38.5244C69.0168 38.6219 69.0106 38.7452 68.998 38.8916Z" fill="#AAC0B7" stroke="#AAC0B7" stroke-width="0.510359"/>
<path d="M31.7324 72.2441C35.5452 69.4139 38.7997 69.3946 41.1104 70.0771C42.3046 70.4299 43.2558 70.9733 43.9082 71.4287C44.2339 71.656 44.4843 71.8607 44.6523 72.0078C44.681 72.0329 44.7066 72.0576 44.7305 72.0791C42.5914 74.4637 39.3565 74.5257 36.5508 73.9326C35.1213 73.6304 33.8262 73.1627 32.8877 72.7695C32.4189 72.5731 32.0394 72.3955 31.7783 72.2676C31.7625 72.2598 31.7474 72.2515 31.7324 72.2441Z" fill="#AAC0B7" stroke="#AAC0B7" stroke-width="0.510359"/>
<path d="M57.5681 21.5469C57.5681 21.5469 46.2433 71.2048 63.473 87.0004" stroke="#AAC0B7" stroke-width="1.34224" stroke-miterlimit="10"/>
<path d="M42.8301 0.466797C43.9852 0.279867 45.3455 0.209286 46.7051 0.286133C48.0656 0.363046 49.4154 0.586642 50.5527 0.982422C51.6233 1.35499 52.4798 1.87058 52.9932 2.53418L53.0918 2.66895C53.5364 3.32013 53.912 4.25358 54.2334 5.33105C54.5537 6.4048 54.8145 7.60435 55.0352 8.77637C55.2558 9.94843 55.4359 11.0859 55.5957 12.042C55.7538 12.9876 55.8948 13.7745 56.04 14.2158L56.5283 14.0664C56.4481 13.7811 56.3838 13.1727 56.3955 12.3477C56.4071 11.5299 56.4927 10.5196 56.7002 9.43945C57.0903 7.40854 57.9052 5.15668 59.4414 3.46582L59.7588 3.13574C61.8535 1.06818 65.0658 0.461323 67.9688 0.725586C69.4159 0.857348 70.7709 1.20406 71.8486 1.68262C72.8675 2.13505 73.6064 2.69053 73.9658 3.26172L74.0322 3.37598C74.7429 4.69888 75.2332 6.89273 75.0488 9.24902C74.8763 11.4534 74.1157 13.7766 72.4189 15.6484L72.0664 16.0166C71.6832 16.3975 71.0391 16.7686 70.2266 17.1143C69.4197 17.4575 68.47 17.7667 67.498 18.0342C65.5538 18.5692 63.5396 18.932 62.4365 19.0684L62.4229 19.5723C62.9177 19.6619 63.6344 19.7479 64.4375 19.8486C65.2455 19.95 66.1501 20.0679 67.0342 20.2236C67.9195 20.3796 68.7771 20.5712 69.4922 20.8193C70.1408 21.0444 70.6417 21.3065 70.9482 21.6035L71.0371 21.707C72.7193 23.6691 74.0239 26.7271 74.4141 29.4199C74.6091 30.7662 74.5717 31.9982 74.2578 32.9453C73.9469 33.8832 73.3723 34.527 72.4824 34.7627C71.4781 35.0286 70.4082 35.4232 69.3516 35.7861C68.2876 36.1516 67.2313 36.4874 66.2256 36.6543C65.2202 36.8211 64.2852 36.8154 63.458 36.5137C62.6376 36.2144 61.8975 35.6147 61.292 34.5469C60.036 32.3318 58.8418 29.6986 57.9609 27.6152C57.5209 26.5745 57.1594 25.6728 56.9082 25.0312C56.7826 24.7105 56.6848 24.4546 56.6182 24.2793C56.5849 24.1917 56.5591 24.1237 56.542 24.0781C56.5337 24.0559 56.5277 24.0388 56.5234 24.0273C56.5213 24.0216 56.5196 24.0166 56.5186 24.0137C56.5181 24.0124 56.5178 24.0114 56.5176 24.0107L56.5166 24.0098L56.0293 24.1592L56.0303 24.1611L56.04 24.2051C56.047 24.2374 56.0576 24.2866 56.0693 24.3506C56.0928 24.4788 56.1223 24.6677 56.1475 24.9053C56.1979 25.381 56.2289 26.0512 56.1504 26.8242C56.0032 28.2733 55.4727 30.0778 53.9707 31.6543L53.6572 31.9658C52.7908 32.783 51.4631 33.5328 49.9287 34.1338C48.3979 34.7333 46.6789 35.1782 45.0439 35.3965C43.4053 35.6153 41.8692 35.6041 40.6973 35.3057C39.5216 35.0062 38.7753 34.4383 38.5762 33.5889C38.1141 31.6179 37.6823 29.5798 37.6797 27.6689C37.6772 25.7627 38.1027 24.007 39.333 22.5811C39.9356 21.8826 40.9419 21.2872 42.1396 20.7891C43.3316 20.2933 44.6857 19.9046 45.9551 19.6035C47.2231 19.3027 48.4009 19.0915 49.2402 18.9492C49.6572 18.8785 49.9976 18.8233 50.2168 18.7842C50.3246 18.765 50.4145 18.7477 50.4727 18.7324C50.4877 18.7285 50.5048 18.7237 50.5215 18.7178C50.5323 18.7139 50.5667 18.702 50.6006 18.6777C50.6152 18.6673 50.6594 18.6336 50.6875 18.5713C50.7259 18.486 50.715 18.3877 50.6611 18.3135C50.6218 18.2595 50.5728 18.2359 50.5566 18.2285L50.5039 18.2109C50.2796 18.1567 47.5354 17.7353 44.6934 16.7617C43.2752 16.2759 41.854 15.6583 40.7344 14.8936C39.6807 14.1737 38.9255 13.3452 38.6602 12.4014L38.6133 12.2109C38.1538 9.99649 38.0264 7.636 38.2881 5.63965C38.5519 3.62716 39.2019 2.05107 40.2314 1.31934C40.7424 0.956245 41.6653 0.655294 42.8301 0.466797Z" fill="#DFB0A2" stroke="#DFB0A2" stroke-width="0.510359"/>
<path d="M57.0166 14.5428C57.2911 14.267 57.5838 14.16 57.8887 14.244C58.1742 14.3228 58.3428 14.5586 58.3936 14.955C58.4449 15.3563 58.3619 15.8706 58.1797 16.371C57.9978 16.8705 57.7281 17.3247 57.4365 17.6132C57.1386 17.9079 56.883 17.9748 56.6797 17.8876C56.45 17.7888 56.2852 17.534 56.2236 17.1229C56.163 16.7179 56.2139 16.2162 56.3594 15.7362C56.5052 15.2552 56.7382 14.8227 57.0166 14.5428Z" fill="#B55759" stroke="#DFB0A2" stroke-width="0.510359"/>
<path d="M59.5488 16.7773C59.8316 16.6202 60.0582 16.6226 60.2402 16.7695C60.468 16.9535 60.5547 17.1789 60.5488 17.4199C60.5427 17.671 60.4341 17.9524 60.2412 18.2158C59.8469 18.7542 59.1854 19.1129 58.6162 19.0049C58.5003 18.9829 58.4444 18.9354 58.4121 18.8857C58.3754 18.8292 58.3495 18.7383 58.3555 18.6025C58.3676 18.3267 58.5063 17.9549 58.7363 17.5977C58.9651 17.2423 59.261 16.9374 59.5488 16.7773Z" fill="#B55759" stroke="#DFB0A2" stroke-width="0.510359"/>
<path d="M53.9473 15.4326V15.4336C54.2195 15.5115 54.4489 15.7223 54.623 16.0332C54.797 16.3439 54.9034 16.7352 54.9346 17.125C54.9658 17.5164 54.9194 17.8844 54.8105 18.1504C54.701 18.4177 54.5522 18.5359 54.3936 18.5527C54.332 18.5592 54.2597 18.5404 54.1709 18.4697C54.0793 18.3967 53.983 18.2769 53.8906 18.1113C53.7061 17.7808 53.5651 17.319 53.501 16.8564C53.4362 16.3893 53.4546 15.9609 53.5537 15.6875C53.6027 15.5525 53.6628 15.4807 53.7148 15.4473C53.7584 15.4194 53.8259 15.3985 53.9473 15.4326Z" fill="#B55759" stroke="#DFB0A2" stroke-width="0.510359"/>
<path d="M56.5088 19.0957C56.8419 19.2213 57.0104 19.6132 56.9463 20.0322C56.9154 20.2337 56.8319 20.4113 56.7139 20.5312C56.6007 20.6462 56.4486 20.7161 56.2471 20.7041C56.0844 20.6944 55.9828 20.6099 55.9189 20.4541C55.8494 20.2846 55.8346 20.0431 55.8828 19.7939C55.9311 19.5447 56.0347 19.3266 56.1582 19.1973C56.2725 19.0778 56.383 19.0483 56.5088 19.0957Z" fill="#B55759" stroke="#DFB0A2" stroke-width="0.510359"/>
<path d="M76.4159 49.6777C76.4159 49.6777 71.4195 78.6253 58.4717 80.3146" stroke="#AAC0B7" stroke-width="1.34224" stroke-miterlimit="10"/>
<path d="M72.7236 46.2825C73.4218 46.2183 74.3287 46.1405 75.1338 46.2561C75.9448 46.3726 76.5687 46.6722 76.8223 47.2893C76.9562 47.6154 77.0263 48.1559 77.0439 48.8157C77.0613 49.466 77.0272 50.2 76.9746 50.8928C76.9221 51.5848 76.8505 52.2316 76.792 52.7053C76.7627 52.9421 76.7374 53.1358 76.7188 53.2698C76.7094 53.3367 76.7014 53.3888 76.6963 53.4241C76.6937 53.4417 76.6918 53.4552 76.6904 53.4641C76.6898 53.4684 76.6898 53.4717 76.6895 53.4739C76.6893 53.475 76.6886 53.4763 76.6885 53.4768V53.4778L77.1855 53.5891L77.1914 53.5715C77.196 53.5579 77.2035 53.5366 77.2139 53.509C77.2348 53.4534 77.2676 53.371 77.3154 53.2698C77.4113 53.0666 77.5651 52.7875 77.7949 52.4895C78.2533 51.8952 79.0137 51.226 80.2275 50.926C80.8061 50.7831 81.5042 50.8556 82.2441 51.0715C82.9807 51.2866 83.7365 51.6369 84.418 52.0217C85.0987 52.4061 85.6982 52.8208 86.1221 53.1604C86.3346 53.3306 86.4987 53.4786 86.6055 53.5911C86.6498 53.6378 86.6788 53.6759 86.6982 53.7024C86.6965 53.7092 86.6955 53.717 86.6934 53.7249C86.6812 53.7701 86.663 53.8287 86.6396 53.8997C86.593 54.0415 86.5254 54.2272 86.4365 54.4417C86.2585 54.8713 85.9991 55.4118 85.6621 55.9446C85.0201 56.9596 84.1404 57.8814 83.0605 58.0667L82.8418 58.094C81.5452 58.1924 80.5141 58.1558 79.8096 58.095C79.4576 58.0646 79.1872 58.0278 79.0059 57.9993C78.9154 57.985 78.8468 57.9727 78.8018 57.9641C78.7985 57.9635 78.795 57.9627 78.792 57.9622L78.7354 57.9504C78.7322 57.9499 78.7295 57.9498 78.7275 57.9495C78.7265 57.9493 78.7253 57.9496 78.7246 57.9495L78.7236 57.9485L78.626 58.4495H78.627L78.6279 58.4504L78.6475 58.4543C78.6608 58.4571 78.6828 58.4613 78.708 58.4661C78.7207 58.4688 78.7351 58.4722 78.751 58.4758C78.8263 58.4932 78.936 58.5208 79.0684 58.5627C79.3338 58.6469 79.6876 58.7859 80.0439 59.0042C80.7534 59.4387 81.4612 60.1778 81.5293 61.4348C81.5993 62.727 81.0239 64.3432 80.1787 65.6282C79.7582 66.2674 79.28 66.8111 78.7988 67.1838C78.3132 67.5599 77.8524 67.7411 77.459 67.7141C76.521 67.6496 75.4138 67.4067 74.4385 66.9065C73.5258 66.4384 72.7408 65.7515 72.3018 64.7864L72.2178 64.5891C71.8112 63.5453 72.1515 62.2174 72.6396 61.0999C72.8798 60.55 73.1482 60.0688 73.3564 59.7249C73.4604 59.5532 73.5489 59.4161 73.6113 59.3225C73.6425 59.2759 73.667 59.24 73.6836 59.2161C73.6919 59.2041 73.699 59.1956 73.7031 59.1897C73.7051 59.1868 73.7061 59.1842 73.707 59.1829L73.709 59.1809L73.999 58.7776H73.3857L73.3115 58.8518H73.3105L73.3096 58.8538C73.3082 58.8552 73.3056 58.8568 73.3027 58.8596C73.2966 58.8657 73.2868 58.875 73.2744 58.887C73.2496 58.911 73.213 58.9471 73.165 58.9924C73.069 59.0831 72.9283 59.2125 72.7529 59.3674C72.4016 59.6777 71.9106 60.088 71.3516 60.4885C70.7915 60.8898 70.1693 61.2775 69.5547 61.5461C69.0134 61.7828 68.497 61.9183 68.0439 61.9065L67.8535 61.8928C66.8093 61.7605 65.7485 61.0421 65 60.1848C64.6282 59.759 64.3444 59.3104 64.1816 58.9036C64.0159 58.4892 63.9907 58.156 64.0742 57.9329C64.1942 57.6124 64.3202 57.1343 64.4678 56.6428C64.6188 56.1398 64.7981 55.6 65.0322 55.1125C65.2674 54.6231 65.5493 54.2054 65.8955 53.9309C66.1909 53.6967 66.539 53.5614 66.9678 53.5813L67.1572 53.5999C68.3279 53.7667 69.6758 54.0517 70.7344 54.2961C71.2629 54.4182 71.7183 54.5296 72.041 54.6106C72.2022 54.6511 72.3302 54.6846 72.418 54.7073C72.4617 54.7186 72.4958 54.7267 72.5186 54.7327C72.5299 54.7356 72.5392 54.738 72.5449 54.7395C72.5475 54.7402 72.5494 54.7411 72.5508 54.7415H72.5527V54.7424L72.7109 54.2571H72.71C72.7089 54.2567 72.7073 54.256 72.7051 54.2551C72.7004 54.2533 72.6932 54.2503 72.6836 54.2463C72.6641 54.2383 72.6344 54.2259 72.5967 54.2092C72.5209 54.1758 72.4111 54.1253 72.2793 54.0579C72.015 53.9228 71.6634 53.7216 71.3125 53.4573C70.6003 52.9208 69.9446 52.1654 69.9287 51.2141C69.9119 50.2011 70.3014 48.981 70.8721 47.9954C71.1563 47.5046 71.4793 47.083 71.8076 46.7795C72.0984 46.5108 72.3755 46.3504 72.6201 46.2981L72.7236 46.2825Z" fill="#DFB0A2" stroke="#DFB0A2" stroke-width="0.510359"/>
<path d="M75.29 53.592C75.6076 53.6011 75.8267 53.7911 75.96 54.1106C76.0795 54.3974 76.1153 54.7643 76.0713 55.1067L76.0479 55.2512C76.0018 55.479 75.9229 55.6687 75.8262 55.7971C75.7552 55.8912 75.6819 55.9441 75.6084 55.967L75.5342 55.9807H75.5312C75.4093 55.9885 75.2486 55.9061 75.084 55.6624C74.9257 55.428 74.8045 55.0976 74.7529 54.759C74.7009 54.4171 74.7251 54.1026 74.8213 53.8889C74.868 53.7853 74.9283 53.7121 74.998 53.6653C75.066 53.6197 75.1586 53.589 75.29 53.592Z" fill="#B55759" stroke="#DFB0A2" stroke-width="0.510359"/>
<path d="M77.3076 54.8997C77.4435 54.7196 77.5698 54.6804 77.6934 54.718C78.0556 54.8283 78.268 55.2548 78.2207 55.7571C78.1772 56.2193 77.9251 56.598 77.5244 56.6868L77.4424 56.7004C77.3426 56.7121 77.2766 56.6919 77.2295 56.6614C77.1791 56.6286 77.1294 56.5708 77.0879 56.4778C77.0024 56.2861 76.9752 55.9946 77.0186 55.6829C77.0618 55.3725 77.1688 55.0836 77.3076 54.8997Z" fill="#B55759" stroke="#DFB0A2" stroke-width="0.510359"/>
<path d="M73.7607 56.0033C74.1024 55.8282 74.4804 55.9937 74.7373 56.3461C74.8616 56.5166 74.9329 56.7042 74.9434 56.8597C74.9535 57.0106 74.9085 57.1084 74.8271 57.1674C74.7551 57.2195 74.6245 57.2382 74.4258 57.1654C74.2334 57.0948 74.026 56.9528 73.8623 56.7787C73.6952 56.6009 73.6015 56.4197 73.5859 56.2836C73.5788 56.2206 73.5887 56.1732 73.6094 56.1351C73.6302 56.0969 73.6719 56.0488 73.7607 56.0033Z" fill="#B55759" stroke="#DFB0A2" stroke-width="0.510359"/>
<path d="M76.373 56.6985C76.4893 56.6826 76.5854 56.7251 76.6729 56.8372C76.7668 56.9578 76.8374 57.1486 76.8623 57.3704C76.8869 57.5901 76.8642 57.8155 76.7969 57.9944C76.7294 58.1735 76.6286 58.2808 76.5137 58.3245C76.4672 58.3421 76.4369 58.338 76.4121 58.3284C76.3818 58.3165 76.3395 58.2878 76.292 58.2258C76.1944 58.0984 76.1135 57.8824 76.0791 57.6321C76.045 57.3836 76.062 57.1369 76.126 56.9573C76.1895 56.7789 76.2784 56.7114 76.373 56.6985Z" fill="#B55759" stroke="#DFB0A2" stroke-width="0.510359"/>
<path d="M36.1641 51.4629C36.1641 51.4629 40.4766 77.0421 56.8387 76.8941" stroke="#AAC0B7" stroke-width="1.34224" stroke-miterlimit="10"/>
<path d="M44.8643 38.6631C45.2219 38.6626 45.526 38.6959 45.7646 38.7627C46.0048 38.8299 46.1575 38.925 46.2432 39.0322C46.7653 39.6862 47.5288 40.7079 48.001 41.9102C48.4425 43.0346 48.6219 44.2975 48.1299 45.5615L48.0225 45.8145C47.3884 47.1846 45.898 48.5293 44.4883 49.54C43.7888 50.0416 43.1195 50.4534 42.6064 50.7373C42.4708 50.8124 42.3466 50.8777 42.2363 50.9336C42.1232 50.9572 42.0232 50.982 41.9385 51.0078C41.81 51.0469 41.6983 51.0914 41.625 51.1377C41.606 51.1497 41.5806 51.1676 41.5566 51.1914C41.541 51.207 41.4823 51.2661 41.4727 51.3623C41.467 51.42 41.4805 51.4813 41.5156 51.5342C41.548 51.583 41.5896 51.6104 41.6182 51.625C41.6673 51.65 41.7145 51.6546 41.7383 51.6562V51.6572L41.7412 51.6562L41.7422 51.6572V51.6562C41.7895 51.6592 41.8324 51.6523 41.8584 51.6465C41.8896 51.6395 41.9228 51.6292 41.9551 51.6182C42.0199 51.596 42.0982 51.5637 42.1855 51.5244C42.2489 51.4959 42.3182 51.4606 42.3945 51.4229C42.5999 51.3831 42.8587 51.3489 43.1631 51.3389C44.1297 51.3071 45.5449 51.5063 47.1406 52.4395C48.7079 53.3559 49.7795 55.0963 50.293 56.7969C50.5488 57.6444 50.6624 58.4687 50.6328 59.1572C50.6065 59.7677 50.4696 60.2387 50.2549 60.5352L50.1582 60.6514C49.5277 61.3034 48.2752 61.9977 46.8838 62.4678C45.492 62.938 44.024 63.1629 42.9707 62.9326C42.4657 62.8222 41.8789 62.4884 41.2695 62.0234C40.665 61.5621 40.0597 60.988 39.5195 60.4248C38.9801 59.8624 38.5089 59.3149 38.1729 58.9072C38.005 58.7036 37.8712 58.5351 37.7793 58.418C37.7334 58.3594 37.6976 58.3132 37.6738 58.2822C37.662 58.2669 37.6534 58.2549 37.6475 58.2471C37.6445 58.2432 37.6421 58.2402 37.6406 58.2383C37.6399 58.2374 37.639 58.2368 37.6387 58.2363V58.2354L37.1924 58.4697L37.1934 58.4717C37.1938 58.4731 37.1944 58.4757 37.1953 58.4785C37.1973 58.4847 37.2002 58.4942 37.2041 58.5068C37.2121 58.5328 37.2238 58.5721 37.2383 58.623C37.2673 58.7252 37.3075 58.8751 37.3496 59.0625C37.4341 59.4383 37.5275 59.9642 37.5645 60.5605C37.6387 61.7608 37.4811 63.2082 36.6064 64.3252C36.1821 64.867 35.3652 65.379 34.3281 65.8057C33.2993 66.2289 32.0863 66.5557 30.9043 66.7441C29.7203 66.9329 28.5825 66.9804 27.7031 66.8574C27.2631 66.7959 26.9004 66.6936 26.6318 66.5537C26.3642 66.4143 26.2082 66.2474 26.1406 66.0635C25.76 65.0275 25.3247 63.5408 25.1191 61.9883C24.9129 60.4304 24.9414 58.8359 25.458 57.5664C25.7036 56.9631 26.2192 56.4083 26.8848 55.9121C27.5475 55.418 28.3393 54.9977 29.1055 54.6553C29.8705 54.3133 30.6034 54.052 31.1455 53.877C31.4161 53.7896 31.6385 53.7236 31.793 53.6797C31.8702 53.6577 31.9311 53.6418 31.9717 53.6309C31.9744 53.6301 31.9769 53.6286 31.9795 53.6279L32.0664 53.6309L32.8066 52.8906L31.9238 53.1152C31.9174 53.115 31.91 53.1146 31.9023 53.1143C31.856 53.1121 31.7873 53.1091 31.6992 53.1035C31.5228 53.0923 31.2679 53.0727 30.958 53.04C30.3376 52.9746 29.4979 52.8561 28.6172 52.6445C27.7347 52.4326 26.8205 52.1291 26.0469 51.6982C25.3205 51.2936 24.7351 50.7868 24.4043 50.1543L24.3418 50.0254L24.2178 49.7393C23.6133 48.265 23.2454 46.1857 23.1963 44.3389C23.1701 43.3555 23.2348 42.4524 23.3955 41.7529C23.4759 41.4033 23.578 41.1131 23.6992 40.8916C23.8207 40.6697 23.9522 40.5313 24.084 40.4609L24.085 40.4619C24.4252 40.2827 24.9866 40.142 25.6963 40.0645C26.3996 39.9876 27.2264 39.975 28.082 40.0381C29.6954 40.1571 31.3723 40.5409 32.5166 41.2324L32.7383 41.375V41.376C33.8523 42.1361 34.5205 43.7161 34.9062 45.1699C35.0966 45.8874 35.2138 46.5565 35.2832 47.0459C35.3178 47.2901 35.3405 47.4895 35.3545 47.627C35.3614 47.6953 35.3661 47.7484 35.3691 47.7842C35.3707 47.8021 35.3724 47.8163 35.373 47.8252C35.3734 47.8296 35.3729 47.8329 35.373 47.835L35.374 47.8369V47.8379L35.8838 47.8164L35.8828 47.8154V47.7539C35.8828 47.7122 35.8829 47.6505 35.8838 47.5713C35.8855 47.4123 35.89 47.1827 35.9014 46.9033C35.9242 46.3439 35.9744 45.5851 36.083 44.7861C36.1918 43.9858 36.3587 43.1538 36.6113 42.4434C36.8668 41.7253 37.1972 41.17 37.6084 40.8779L37.6074 40.877C38.523 40.2283 40.4697 39.4601 42.332 39.0186C43.2598 38.7986 44.1494 38.6641 44.8643 38.6631Z" fill="#DFB0A2" stroke="#DFB0A2" stroke-width="0.510359"/>
<path d="M37.3701 48.7871C37.6579 48.7624 37.8798 48.8827 38.043 49.0996C38.2124 49.325 38.317 49.6571 38.3262 50.0244C38.3449 50.77 37.9812 51.515 37.2373 51.7109C37.0521 51.7597 36.9132 51.75 36.8096 51.7129C36.7063 51.6758 36.6169 51.6046 36.542 51.4971C36.3863 51.2734 36.3067 50.9076 36.3271 50.4883C36.3475 50.0739 36.4646 49.6474 36.6572 49.3242C36.8508 48.9995 37.0972 48.8126 37.3711 48.7881L37.3701 48.7871Z" fill="#B55759" stroke="#DFB0A2" stroke-width="0.510359"/>
<path d="M34.0498 50.1719C34.1814 50.1461 34.3167 50.1956 34.4512 50.3438C34.5881 50.4947 34.6989 50.7262 34.7539 50.9805C34.8091 51.2357 34.8013 51.483 34.7344 51.6641C34.6795 51.8126 34.59 51.9104 34.4531 51.9521L34.3916 51.9668C34.2153 51.9957 34.0715 51.9329 33.9492 51.7949C33.82 51.6491 33.7235 51.4238 33.6826 51.1709C33.6419 50.9186 33.6609 50.6679 33.7334 50.4805C33.8045 50.2967 33.9141 50.1986 34.0498 50.1719Z" fill="#B55759" stroke="#DFB0A2" stroke-width="0.510359"/>
<path d="M38.5449 52.2419C38.7652 52.1147 38.9631 52.0958 39.1289 52.1775C39.3028 52.2633 39.3862 52.4076 39.4014 52.5984C39.4173 52.8008 39.3523 53.0521 39.2148 53.2937C39.0782 53.5337 38.8827 53.7418 38.666 53.866C38.4524 53.9884 38.2288 54.0249 38.0107 53.9519C37.9052 53.9166 37.8426 53.8654 37.8037 53.8113C37.7637 53.7556 37.7376 53.681 37.7314 53.5837C37.7189 53.3821 37.7964 53.1161 37.9531 52.8542C38.1083 52.5949 38.3229 52.3703 38.5449 52.2419Z" fill="#B55759" stroke="#DFB0A2" stroke-width="0.510359"/>
<path d="M35.9346 52.6201C36.046 52.6717 36.1291 52.7811 36.168 52.957C36.2072 53.1349 36.1936 53.3571 36.127 53.5732C36.0601 53.7898 35.9473 53.9782 35.8115 54.0977C35.6811 54.2124 35.5343 54.2618 35.3691 54.2305H35.3701C35.2717 54.2117 35.2116 54.1745 35.1729 54.1348C35.1331 54.0939 35.1021 54.0356 35.085 53.9551C35.0492 53.7869 35.082 53.551 35.1816 53.3066C35.2803 53.0649 35.4303 52.8502 35.5859 52.7217C35.7438 52.5915 35.8572 52.5843 35.9346 52.6201Z" fill="#B55759" stroke="#DFB0A2" stroke-width="0.510359"/>
<path d="M18.7998 87.1523H91.2002C97.6331 87.1524 102.848 92.3669 102.848 98.7998C102.848 99.9309 101.931 100.848 100.8 100.848H9.2002C8.0691 100.848 7.15234 99.9309 7.15234 98.7998C7.15245 92.3669 12.3669 87.1524 18.7998 87.1523Z" fill="#AAC0B7" stroke="#AAC0B7" stroke-width="2.30392"/>
<path d="M85.4062 20.4473L85.3867 20.6689L85.5996 20.7383L86.9961 21.1875L85.5664 21.5186L85.3496 21.5693V21.792L85.3525 23.2588L84.5938 21.999L84.4785 21.8086L84.2676 21.8779L82.874 22.334L83.8379 21.2256L83.9844 21.0566L83.8525 20.877L82.9844 19.6914L84.3408 20.2646L84.5449 20.3516L84.6758 20.1719L85.5352 18.9844L85.4062 20.4473Z" fill="#AAC0B7" stroke="#AAC0B7" stroke-width="0.559207"/>
<path d="M97.4062 68.4473L97.3867 68.6689L97.5996 68.7383L98.9961 69.1875L97.5664 69.5186L97.3496 69.5693V69.792L97.3525 71.2588L96.5938 69.999L96.4785 69.8086L96.2676 69.8779L94.874 70.334L95.8379 69.2256L95.9844 69.0566L95.8525 68.877L94.9844 67.6914L96.3408 68.2646L96.5449 68.3516L96.6758 68.1719L97.5352 66.9844L97.4062 68.4473Z" fill="#AAC0B7" stroke="#AAC0B7" stroke-width="0.559207"/>
<path d="M90.4062 40.4473L90.3867 40.6689L90.5996 40.7383L91.9961 41.1875L90.5664 41.5186L90.3496 41.5693V41.792L90.3525 43.2588L89.5938 41.999L89.4785 41.8086L89.2676 41.8779L87.874 42.334L88.8379 41.2256L88.9844 41.0566L88.8525 40.877L87.9844 39.6914L89.3408 40.2646L89.5449 40.3516L89.6758 40.1719L90.5352 38.9844L90.4062 40.4473Z" fill="#AAC0B7" stroke="#AAC0B7" stroke-width="0.559207"/>
<path d="M23.4062 19.4473L23.3867 19.6689L23.5996 19.7383L24.9961 20.1875L23.5664 20.5186L23.3496 20.5693V20.792L23.3525 22.2588L22.5938 20.999L22.4785 20.8086L22.2676 20.8779L20.874 21.334L21.8379 20.2256L21.9844 20.0566L21.8525 19.877L20.9844 18.6914L22.3408 19.2646L22.5449 19.3516L22.6758 19.1719L23.5352 17.9844L23.4062 19.4473Z" fill="#AAC0B7" stroke="#AAC0B7" stroke-width="0.559207"/>
<path d="M7.40625 14.4473L7.38672 14.6689L7.59961 14.7383L8.99609 15.1875L7.56641 15.5186L7.34961 15.5693V15.792L7.35254 17.2588L6.59375 15.999L6.47852 15.8086L6.26758 15.8779L4.87402 16.334L5.83789 15.2256L5.98438 15.0566L5.85254 14.877L4.98438 13.6914L6.34082 14.2646L6.54492 14.3516L6.67578 14.1719L7.53516 12.9844L7.40625 14.4473Z" fill="#AAC0B7" stroke="#AAC0B7" stroke-width="0.559207"/>
<path d="M9.40625 69.4473L9.38672 69.6689L9.59961 69.7383L10.9961 70.1875L9.56641 70.5186L9.34961 70.5693V70.792L9.35254 72.2588L8.59375 70.999L8.47852 70.8086L8.26758 70.8779L6.87402 71.334L7.83789 70.2256L7.98438 70.0566L7.85254 69.877L6.98438 68.6914L8.34082 69.2646L8.54492 69.3516L8.67578 69.1719L9.53516 67.9844L9.40625 69.4473Z" fill="#AAC0B7" stroke="#AAC0B7" stroke-width="0.559207"/>
<path d="M85.415 3.2793C86.0434 3.27943 86.5498 3.78665 86.5498 4.41504C86.5497 5.04331 86.0433 5.54967 85.415 5.5498C84.7867 5.5498 84.2794 5.04339 84.2793 4.41504C84.2793 3.78657 84.7866 3.2793 85.415 3.2793Z" fill="#B55759" stroke="#B55759" stroke-width="0.559207"/>
<path d="M26.415 0.279297C27.0434 0.27943 27.5498 0.786653 27.5498 1.41504C27.5497 2.04331 27.0433 2.54967 26.415 2.5498C25.7867 2.5498 25.2794 2.04339 25.2793 1.41504C25.2793 0.78657 25.7866 0.279297 26.415 0.279297Z" fill="#B55759" stroke="#B55759" stroke-width="0.559207"/>
<path d="M8.8403 31.5731C9.21056 31.9265 9.71365 32.3287 10.241 32.7C10.8299 33.1146 11.4577 33.4966 11.9745 33.7318L11.9629 33.7369L12.218 33.8354C13.2939 34.2513 14.1311 34.3438 15.0077 34.2401C15.7978 34.1466 16.6201 33.8928 17.6707 33.5848C16.2587 35.611 16.4072 38.0519 16.9564 40.1625L17.0769 40.5983C17.3007 41.3674 17.6359 42.5211 17.9155 43.4823C18.0553 43.9627 18.1815 44.395 18.2724 44.7074C18.2829 44.7433 18.2927 44.7781 18.3022 44.8107C18.262 44.773 18.2189 44.7314 18.1719 44.6879C17.9003 44.4365 17.5195 44.094 17.082 43.7298C16.2104 43.0043 15.1011 42.1814 14.1837 41.8287C12.4583 41.1655 10.344 41.0222 8.40237 41.6919C9.31251 40.2293 10.1224 38.2061 9.87033 36.3067L9.84102 36.1103C9.68088 35.1837 9.40505 33.9475 9.17024 32.9447C9.05279 32.4431 8.94577 31.9992 8.86764 31.6806C8.85842 31.643 8.84867 31.6071 8.8403 31.5731Z" fill="#B55759" stroke="#B55759" stroke-width="0.226004"/>
<path d="M101.004 20.3529C100.951 20.7465 100.923 21.2301 100.923 21.7146C100.924 22.2701 100.962 22.8364 101.041 23.2779L101.027 23.2698L101.093 23.5345C101.318 24.4323 101.646 25.0248 102.121 25.5525C102.537 26.0155 103.068 26.4281 103.73 26.953C101.776 26.9903 100.266 28.2066 99.151 29.526L98.9214 29.8051C98.5223 30.3058 97.9235 31.0572 97.4247 31.683C97.1754 31.9957 96.9506 32.2768 96.7885 32.4802L96.7867 32.4814C96.7892 32.4624 96.7928 32.4429 96.7955 32.4229C96.8344 32.1293 96.8825 31.7218 96.9187 31.2676C96.9907 30.3642 97.0176 29.2579 96.8242 28.4925C96.4656 27.0742 95.6004 25.6408 94.2924 24.6781C95.6102 24.5923 97.2076 24.2094 98.3171 23.2576L98.5498 23.0418C99.0817 22.5095 99.7631 21.7597 100.31 21.144C100.583 20.8359 100.824 20.5607 100.996 20.3628C100.999 20.3595 101.001 20.3561 101.004 20.3529Z" fill="#57789F" stroke="#57789F" stroke-width="0.226004"/>
</g>
<defs>
<filter id="filter0_d_2_1338" x="0" y="0" width="108.058" height="110" filterUnits="userSpaceOnUse" color-interpolation-filters="sRGB">
<feFlood flood-opacity="0" result="BackgroundImageFix"/>
<feColorMatrix in="SourceAlpha" type="matrix" values="0 0 0 0 0 0 0 0 0 0 0 0 0 0 0 0 0 0 127 0" result="hardAlpha"/>
<feOffset dy="4"/>
<feGaussianBlur stdDeviation="2"/>
<feComposite in2="hardAlpha" operator="out"/>
<feColorMatrix type="matrix" values="0 0 0 0 0 0 0 0 0 0 0 0 0 0 0 0 0 0 0.25 0"/>
<feBlend mode="normal" in2="BackgroundImageFix" result="effect1_dropShadow_2_1338"/>
<feBlend mode="normal" in="SourceGraphic" in2="effect1_dropShadow_2_1338" result="shape"/>
</filter>
</defs>
</svg>
