<svg width="89" height="88" viewBox="0 0 89 88" fill="none" xmlns="http://www.w3.org/2000/svg">
<path d="M14.1944 60.8537L15.6213 54.3615C16.2291 51.5974 18.208 49.3357 20.8669 48.3673L32.0819 44.2815C32.8782 43.9914 33.7706 44.2394 34.3033 44.8984C35.1252 45.9162 34.7536 47.4365 33.5555 47.961L30.1698 49.4419L51.7907 43.3909C52.2978 43.2491 52.8415 43.3763 53.2332 43.7278C54.0899 44.4975 53.8291 45.9006 52.7527 46.3107L39.8646 51.2139L55.667 45.2801C56.3379 45.0284 57.0912 45.141 57.6587 45.5785C58.9172 46.5487 58.6581 48.5165 57.1909 49.1279L42.6992 55.1707L58.0962 48.8277C58.8046 48.5358 59.6155 48.6511 60.2151 49.1279C61.4498 50.111 61.2081 52.0514 59.7702 52.7021L45.7801 59.0313L59.6055 53.1671C60.3304 52.8596 61.1697 53.017 61.7344 53.5662C62.6772 54.4842 62.463 56.0521 61.3088 56.6846L33.2919 72.0238L25.3635 83.3198C24.9539 83.9033 24.1578 84.0614 23.5563 83.6787L7.78302 73.6408C7.16599 73.2481 6.98045 72.4317 7.36716 71.8109L14.1935 60.8528L14.1944 60.8537Z" fill="#DFB0A2"/>
<path d="M23.3605 58.4355C23.4337 58.4355 23.506 58.408 23.5618 58.3531C26.6152 55.3757 27.428 52.2307 27.5809 51.5095L33.2721 48.7051C33.4149 48.6346 33.4744 48.4616 33.4039 48.3179C33.3334 48.1742 33.1605 48.1156 33.0168 48.1861L27.1964 51.0537C27.1132 51.0949 27.0546 51.1736 27.039 51.2651C27.0335 51.2999 26.4175 54.7597 23.1582 57.9385C23.0438 58.0501 23.042 58.2332 23.1527 58.3476C23.2095 58.4053 23.2845 58.4345 23.3596 58.4345L23.3605 58.4355Z" fill="#654237"/>
<path d="M39.8651 51.5028C39.8999 51.5028 39.9347 51.4964 39.9694 51.4835L52.9866 46.4577C53.1358 46.4001 53.21 46.2325 53.1523 46.0843C53.0947 45.9351 52.9271 45.8619 52.7789 45.9186L39.7617 50.9445C39.6125 51.0021 39.5383 51.1696 39.596 51.3179C39.6399 51.4323 39.7498 51.5028 39.866 51.5028H39.8651Z" fill="#654237"/>
<path d="M42.7002 55.4595C42.7386 55.4595 42.778 55.4512 42.8155 55.4348L57.2679 49.1275C57.4143 49.0635 57.4811 48.8932 57.4171 48.7468C57.353 48.6003 57.1828 48.5335 57.0363 48.5976L42.5839 54.9048C42.4375 54.9689 42.3707 55.1391 42.4347 55.2856C42.4823 55.3945 42.5885 55.4595 42.7002 55.4595Z" fill="#654237"/>
<path d="M45.6307 59.5159C45.67 59.5159 45.7103 59.5077 45.7487 59.4903L59.3371 53.3981C59.4826 53.3331 59.5476 53.162 59.4826 53.0164C59.4167 52.8709 59.2465 52.8059 59.1009 52.8709L45.5126 58.9631C45.3671 59.028 45.3021 59.1992 45.367 59.3448C45.4156 59.4518 45.5208 59.5159 45.6307 59.5159Z" fill="#654237"/>
<path d="M47.2504 61.6595C47.3099 61.6595 47.3712 61.6412 47.4225 61.6027C47.5506 61.5076 47.5772 61.3263 47.482 61.1982L38.3154 48.8656C38.2202 48.7375 38.039 48.7109 37.9108 48.8061C37.7827 48.9013 37.7561 49.0825 37.8513 49.2107L47.0179 61.5432C47.0747 61.6192 47.1616 61.6595 47.2504 61.6595Z" fill="#654237"/>
<path d="M26.1497 64.1267C26.2046 64.1267 26.2605 64.1112 26.3099 64.0782C30.7637 61.109 37.0627 61.8852 37.1267 61.8934C37.2851 61.9127 37.4297 61.8019 37.4508 61.6445C37.4709 61.4861 37.3602 61.3415 37.2018 61.3205C36.9364 61.2857 30.6273 60.5059 25.9895 63.5977C25.8568 63.6865 25.8211 63.8659 25.909 63.9986C25.9648 64.0819 26.0564 64.1277 26.1497 64.1277V64.1267Z" fill="#654237"/>
<path d="M62.002 33.9439L63.0868 32.695L62.1101 31.3604L63.6348 32.0054L64.6041 30.667L64.4587 32.3148L66.032 32.8218L64.4215 33.1946L64.4252 34.8461L63.5715 33.4295L62.002 33.9439Z" fill="#AAC0B7"/>
<path d="M64.668 21.9439L65.7528 20.695L64.7761 19.3604L66.3009 20.0054L67.2701 18.667L67.1247 20.3148L68.698 20.8218L67.0875 21.1946L67.0912 22.8461L66.2375 21.4295L64.668 21.9439Z" fill="#28748C"/>
<path d="M75.3359 37.9439L76.4208 36.695L75.4441 35.3604L76.9688 36.0054L77.9381 34.667L77.7927 36.3148L79.366 36.8218L77.7554 37.1946L77.7592 38.8461L76.9054 37.4295L75.3359 37.9439Z" fill="#AAC0B7"/>
<path d="M78.668 9.27695L79.7528 8.02806L78.7761 6.69342L80.3009 7.33837L81.2701 6L81.1247 7.6478L82.698 8.15481L81.0875 8.52761L81.0912 10.1791L80.2375 8.76248L78.668 9.27695Z" fill="#AAC0B7"/>
<path d="M43.3359 23.9439L44.4208 22.695L43.4441 21.3604L44.9688 22.0054L45.9381 20.667L45.7927 22.3148L47.366 22.8218L45.7554 23.1946L45.7592 24.8461L44.9054 23.4295L43.3359 23.9439Z" fill="#28748C"/>
<path d="M51.3359 14.61L52.4208 13.3611L51.4441 12.0264L52.9688 12.6714L53.9381 11.333L53.7927 12.9808L55.366 13.4878L53.7554 13.8606L53.7592 15.5121L52.9054 14.0955L51.3359 14.61Z" fill="#AAC0B7"/>
<path d="M54.5352 19.616C54.5352 20.138 54.9564 20.5592 55.4784 20.5592C56.0003 20.5592 56.4215 20.138 56.4215 19.616C56.4215 19.0941 56.0003 18.6729 55.4784 18.6729C54.9564 18.6729 54.5352 19.0941 54.5352 19.616Z" fill="#B55759"/>
<path d="M68.668 10.2762C68.668 10.7981 69.0892 11.2194 69.6112 11.2194C70.1331 11.2194 70.5544 10.7981 70.5544 10.2762C70.5544 9.75428 70.1331 9.33301 69.6112 9.33301C69.0892 9.33301 68.668 9.75428 68.668 10.2762Z" fill="#B55759"/>
<path d="M76.668 15.6102C76.668 16.1321 77.0892 16.5534 77.6112 16.5534C78.1331 16.5534 78.5544 16.1321 78.5544 15.6102C78.5544 15.0883 78.1331 14.667 77.6112 14.667C77.0892 14.667 76.668 15.0883 76.668 15.6102Z" fill="#B55759"/>
<path d="M75.3359 25.6102C75.3359 26.1321 75.7572 26.5534 76.2791 26.5534C76.8011 26.5534 77.2223 26.1321 77.2223 25.6102C77.2223 25.0883 76.8011 24.667 76.2791 24.667C75.7572 24.667 75.3359 25.0883 75.3359 25.6102Z" fill="#B55759"/>
<path d="M53.3359 33.6102C53.3359 34.1321 53.7572 34.5534 54.2791 34.5534C54.8011 34.5534 55.2223 34.1321 55.2223 33.6102C55.2223 33.0883 54.8011 32.667 54.2791 32.667C53.7572 32.667 53.3359 33.0883 53.3359 33.6102Z" fill="#B55759"/>
<path d="M47.4555 33.7122C47.2125 32.977 47.1121 31.4787 47.2248 30.7709C47.2248 30.7709 45.9643 32.4794 45.1484 33.4252C44.2477 34.4689 42.6985 34.924 41.4918 35.0476C42.7432 35.7418 43.6226 36.9375 44.0273 38.1551C44.4319 39.3728 44.2104 41.7877 44.2104 41.7877C44.2104 41.7877 45.4159 40.0249 46.0188 39.1432C46.9155 37.8323 48.2098 36.5459 50.0466 36.5018C48.6572 35.5489 47.9302 35.1514 47.4549 33.7119L47.4555 33.7122Z" fill="#B55759"/>
<path d="M70.1463 42.2461C70.237 41.6338 70.7038 40.5279 71.0386 40.063C71.0386 40.063 69.5247 40.83 68.6022 41.212C67.5841 41.6335 66.3143 41.4018 65.4084 41.0563C66.0524 42.0017 66.2506 43.1715 66.1019 44.1863C65.9533 45.2011 64.9272 46.8458 64.9272 46.8458C64.9272 46.8458 66.4215 46.0203 67.1688 45.6075C68.2802 44.9937 69.6666 44.5404 70.9939 45.169C70.3443 43.9893 69.9681 43.4443 70.146 42.2457L70.1463 42.2461Z" fill="#28748C"/>
</svg>
