<svg width="89" height="88" viewBox="0 0 89 88" fill="none" xmlns="http://www.w3.org/2000/svg">
<path d="M72.6578 36.1894C70.4657 37.6657 67.7964 38.1429 65.4888 37.6769C64.6313 37.5091 63.785 37.1885 62.8605 36.8493C63.0767 36.6964 63.2967 36.5398 63.5129 36.3795C64.5866 35.5929 65.6714 34.7355 66.6184 33.7252C67.5727 32.7186 68.3743 31.5443 68.8664 30.273C69.3622 29.0055 69.5523 27.6186 69.2876 26.3548H69.2802C69.1944 27.6447 68.6688 28.8079 67.9493 29.7734C67.2186 30.7427 66.3015 31.5107 65.2912 32.1184C63.2557 33.3486 60.8809 34.0048 58.3943 34.9629C55.93 35.9061 53.354 37.0357 50.9382 38.8997C50.6586 39.1159 50.3865 39.3433 50.1143 39.5782C50.2112 39.2762 50.3193 38.9743 50.4349 38.676C50.6549 38.0795 50.9047 37.4868 51.188 36.8977L51.2924 36.6778L51.3781 36.51C51.4378 36.3945 51.5049 36.2789 51.5757 36.1596C51.7136 35.921 51.8814 35.6712 52.0566 35.4177C52.7799 34.4037 53.7305 33.3785 54.6923 32.3085C55.6579 31.2348 56.6906 30.15 57.6412 28.8936C58.1147 28.2636 58.577 27.5963 58.9759 26.8395C59.3449 26.1013 59.6245 25.3855 59.8631 24.625C60.3366 23.1189 60.5715 21.5531 60.5416 20.0246C60.5118 18.4924 60.2285 17.0049 59.7401 15.6218C59.7066 17.0906 59.55 18.5222 59.166 19.8643C58.8081 21.2101 58.234 22.4553 57.5406 23.5923C57.1939 24.1553 56.78 24.7108 56.3923 25.2066C56.1463 25.5123 55.8629 25.8143 55.561 26.1088C55.5535 25.5235 55.5237 24.9456 55.4678 24.3752C55.3373 23.1487 55.1136 21.952 54.8228 20.7851C54.5283 19.6183 54.1779 18.4775 53.7342 17.3777C53.8796 18.552 53.9244 19.7301 53.9095 20.8932C53.8908 22.0564 53.8013 23.2121 53.6261 24.3305C53.4397 25.4489 53.1601 26.53 52.7873 27.5329C52.5673 28.0772 52.3101 28.5917 52.0268 29.0688C50.8115 30.0158 49.57 31.0074 48.3435 32.2638C48.0564 32.5658 47.7656 32.8789 47.486 33.2293C47.3481 33.4008 47.2102 33.5872 47.076 33.7774L46.8746 34.0682L46.7106 34.3179C46.267 34.9778 45.8494 35.6675 45.4617 36.3833C45.1374 36.9947 44.8354 37.6322 44.567 38.292C44.306 37.3861 44.0339 36.4765 43.7356 35.5631C43.1764 33.8668 42.5762 32.1557 41.7709 30.4669C41.6591 30.232 41.5398 29.9971 41.4205 29.7623C41.4391 29.6877 41.4652 29.6169 41.4839 29.5423C41.6777 28.7333 41.7001 27.8684 41.5473 27.0706C41.3981 26.2728 41.0962 25.5533 40.7383 24.9195C40.3766 24.2858 39.9591 23.7303 39.5229 23.2121C38.6543 22.1794 37.7111 21.3033 36.8574 20.3713C36.4324 19.9053 36.026 19.4319 35.7017 18.9025C35.3736 18.3805 35.1574 17.7803 35.1909 17.1317H35.1872C35.0083 17.7505 35.0903 18.4551 35.314 19.0814C35.5302 19.7152 35.8433 20.3042 36.1677 20.8746C36.8238 22.0079 37.5508 23.0779 38.1137 24.1665C38.4343 24.7741 38.6916 25.3893 38.8482 25.9858C38.7438 25.8739 38.6431 25.7621 38.5387 25.654C38.3598 25.475 38.1696 25.3035 37.9832 25.132C37.7819 24.968 37.5918 24.8002 37.383 24.6511C37.1705 24.502 36.9692 24.3454 36.7418 24.2149L36.41 24.0136C36.2982 23.9465 36.2087 23.9018 36.108 23.8459C35.3289 23.4134 34.5124 23.0145 33.6699 22.6641C32.8236 22.3211 31.9289 22.0378 31.0454 21.8476C30.1655 21.6575 29.3528 21.5457 28.6296 21.3369C27.9063 21.1318 27.2055 20.7926 26.5307 20.39C25.8708 19.9836 25.2632 19.4729 24.7338 18.8689C24.2081 18.265 23.7608 17.5753 23.3842 16.8371C23.1941 16.4681 23.0226 16.0878 22.8548 15.7001C22.6871 15.3124 22.538 14.9172 22.3329 14.5332L22.2211 14.5854C22.4634 15.3795 22.6051 16.2257 22.8735 17.0422C23.1344 17.8623 23.4774 18.6751 23.9434 19.4356C24.4057 20.1961 24.9836 20.9082 25.6658 21.5196C26.348 22.1123 27.1011 22.6492 27.9511 23.0592C28.5998 23.3724 29.2447 23.5961 29.8375 23.8198C28.8719 24.0695 27.8952 24.3007 26.9072 24.4312C25.8485 24.584 24.7711 24.6809 23.6936 24.6586C23.1568 24.6399 22.6125 24.6138 22.0757 24.5355C21.5388 24.4647 20.9983 24.3603 20.4875 24.1814L20.4614 24.2298C20.9424 24.5094 21.4643 24.7145 21.9937 24.8897C22.523 25.0687 23.0673 25.2029 23.6154 25.3222C24.7151 25.5533 25.841 25.6651 26.9706 25.7099C28.1039 25.7695 29.2335 25.7099 30.3669 25.6316C30.9298 25.5831 31.4927 25.5123 32.0594 25.4526L32.7864 25.3408C33.3157 25.6987 33.8339 26.0752 34.3409 26.489C34.4155 26.5487 34.5087 26.6158 34.5646 26.6717L34.7436 26.8469C34.8666 26.955 34.9673 27.093 35.0791 27.2123C35.1872 27.3353 35.2841 27.477 35.3885 27.6075C35.4817 27.7491 35.5787 27.8871 35.6719 28.0287C36.3876 29.1956 36.8462 30.6085 37.1705 32.0923C37.4911 33.5835 37.685 35.1567 37.8043 36.7635C37.849 37.3563 37.8826 37.9565 37.9124 38.5567C37.7186 38.3964 37.5247 38.2324 37.3271 38.0795C34.9934 36.2863 32.2607 35.1157 29.4572 34.6833L28.9353 34.6013L28.4059 34.5565C28.0555 34.5267 27.705 34.4969 27.3583 34.4932C26.6686 34.4782 26.0013 34.5081 25.3526 34.5491C24.0553 34.6311 22.825 34.7653 21.6171 34.7765C20.413 34.7951 19.2312 34.6646 18.0867 34.2732C16.9608 33.8818 15.8834 33.207 15.1602 32.1519C15.6187 33.3412 16.5805 34.344 17.7027 35.0524C18.8286 35.7644 20.1296 36.223 21.4233 36.5026C22.7169 36.7934 24.0068 36.9462 25.2221 37.1512C25.2743 37.1587 25.3265 37.1699 25.3787 37.1811C25.252 37.3526 25.1289 37.5278 24.9985 37.6955C24.3982 38.4598 23.7757 39.1644 23.0748 39.7497C22.3665 40.3499 21.5463 40.8495 20.6441 41.185C19.7419 41.5168 18.7465 41.6734 17.7288 41.5429L17.7213 41.5653C18.6571 41.9977 19.7419 42.1729 20.8268 42.117C21.9154 42.0611 23.004 41.7964 24.0366 41.3639C24.5548 41.1552 25.0618 40.8681 25.5278 40.581C25.9976 40.2903 26.4412 39.9771 26.8774 39.6602C27.5335 39.1756 28.1561 38.6611 28.7675 38.1317C30.7546 38.9743 32.4881 40.3014 33.7817 41.9008C33.7817 41.9045 33.7892 41.9082 33.7929 41.9157C34.4304 42.7023 34.7175 43.7163 34.6429 44.7229L32.5105 74.0701H55.2739L53.4099 48.4211C53.4099 48.4211 53.3279 45.3082 55.2888 43.3622C56.2469 42.0424 57.5592 40.8122 59.0318 39.6416C59.1063 39.6229 59.207 39.5931 59.2778 39.5745L60.262 39.705C60.3888 39.7236 60.4559 39.7236 60.5267 39.7236L60.7504 39.7311L61.2127 39.7534C62.4653 39.8243 63.8857 40.033 65.3732 39.9175C68.3146 39.6863 70.9653 38.2846 72.6951 36.2565L72.6466 36.2006L72.6578 36.1894Z" fill="#B67F6E"/>
<path d="M73.8386 27.7012C74.8452 26.8773 75.341 25.5501 75.3932 24.249C74.7222 24.6367 73.9654 24.8567 73.2272 25.0916C72.4891 25.3264 71.7435 25.5948 71.1209 26.0571C70.4983 26.5231 70.0099 27.2203 69.9727 27.9957C71.024 28.7637 72.8321 28.5214 73.8386 27.6975V27.7012Z" fill="#28748C"/>
<path d="M63.8898 32.5433C64.4005 31.6486 64.2775 30.4966 63.7928 29.587C63.3082 28.6773 62.5141 27.9765 61.6902 27.3613C61.6268 28.0473 61.5672 28.737 61.6306 29.4192C61.6939 30.1052 61.8952 30.7911 62.3053 31.3392C62.6819 31.8387 63.3716 32.1929 63.8898 32.5433Z" fill="#28748C"/>
<path d="M73.7439 39.8614C72.7149 39.1233 71.2051 38.8325 69.9748 39.1419C69.9338 40.0963 70.4818 41.0134 71.2535 41.5726C72.029 42.1318 72.9983 42.363 73.9526 42.3928C74.907 42.4226 75.8539 42.266 76.7971 42.1057C75.675 41.5204 74.7728 40.5921 73.7439 39.8577V39.8614Z" fill="#28748C"/>
<path d="M67.2162 34.9221C66.8173 35.8057 66.8285 36.9502 67.5032 37.6436C68.3383 37.2782 69.0727 36.3201 69.2181 35.4179C69.3673 34.5195 69.2107 33.5987 69.0578 32.7002C68.3458 33.3563 67.6151 34.0386 67.2162 34.9221Z" fill="#28748C"/>
<path d="M57.796 30.3848C57.4419 31.0782 57.084 31.7902 56.987 32.5657C56.8901 33.3374 57.1063 34.1986 57.7215 34.6757C58.2881 34.1464 58.7914 33.3001 58.6647 32.5358C58.5379 31.7716 58.1651 31.0707 57.796 30.3885V30.3848Z" fill="#28748C"/>
<path d="M65.8516 17.5191C67.19 16.7809 68.1667 15.4202 68.4389 13.9141C66.9178 13.9513 65.3632 13.9923 63.9503 14.559C62.5411 15.1257 61.2848 16.3373 61.1133 17.8472C62.5299 18.4175 64.517 18.2572 65.8516 17.5191Z" fill="#28748C"/>
<path d="M63.9205 23.514C65.0314 23.4544 66.0902 23.0555 67.1266 22.664C66.1461 22.1384 65.1433 21.6053 64.051 21.3965C62.9586 21.1877 61.7507 21.6575 60.9082 22.3882C61.6203 23.2419 62.8095 23.5737 63.9167 23.514H63.9205Z" fill="#28748C"/>
<path d="M57.298 17.743C56.4666 16.975 55.4041 16.509 54.3379 16.125C54.7219 17.1204 55.1133 18.127 55.7359 18.9919C56.3585 19.8568 57.5105 20.5651 58.558 20.759C58.6997 19.6368 58.1293 18.511 57.298 17.743Z" fill="#28748C"/>
<path d="M51.7844 23.6073C51.1208 22.3808 50.0061 21.4749 48.9175 20.6025C48.6715 21.9036 48.4254 23.2457 48.7088 24.5356C48.9884 25.8293 50.3342 27.3317 51.639 27.5367C52.5412 26.4742 52.4443 24.8301 51.7844 23.6036V23.6073Z" fill="#28748C"/>
<path d="M47.352 27.8165C46.6288 27.1342 45.7825 26.5788 44.8691 26.1836C45.1003 26.8733 45.2121 27.5965 45.3873 28.3011C45.5626 29.0057 45.8161 29.7141 46.2783 30.2733C46.7406 30.8325 47.654 31.4066 48.381 31.3395C48.7351 30.7765 48.7351 30.0421 48.504 29.4195C48.2728 28.797 47.8329 28.2713 47.352 27.8165Z" fill="#28748C"/>
<path d="M41.1472 16.4716C41.3895 15.3085 41.1472 13.9664 41.8853 13.0381C40.3904 13.4258 39.0296 14.3056 38.0678 15.5098C37.1022 16.7139 36.9196 18.0709 36.8711 19.6106C37.8367 19.7038 38.8283 19.4317 39.6112 18.8576C40.3904 18.2834 40.9496 17.4185 41.1509 16.4679L41.1472 16.4716Z" fill="#28748C"/>
<path d="M41.9266 20.439C40.8567 20.7298 40.1111 21.7215 39.7793 22.7765C40.8231 23.0748 41.9714 22.9928 42.9593 22.5417C43.9473 22.0906 44.7674 21.2816 45.2297 20.3011C44.1262 20.2266 42.9966 20.152 41.9266 20.439Z" fill="#28748C"/>
<path d="M32.5684 17.3998C31.6588 17.2134 30.7193 17.2917 29.791 17.3737C30.3577 18.1044 30.9654 18.8425 31.7855 19.2638C32.6057 19.6888 34.123 19.659 34.809 19.0439C34.3653 18.2274 33.4743 17.5862 32.5647 17.3998H32.5684Z" fill="#28748C"/>
<path d="M26.9544 11.8044C27.0066 11.1594 26.973 10.3914 27.4875 10C26.3616 10.6487 25.2134 11.3123 24.3634 12.2927C23.5134 13.2732 22.9952 14.6414 23.3531 15.8866C25.1649 15.3796 26.8015 13.6796 26.9544 11.8044Z" fill="#28748C"/>
<path d="M22.7627 25.5234C21.9836 26.243 21.5213 27.298 21.5176 28.3567C21.5176 29.4192 21.9687 30.4743 22.7441 31.2012C23.1169 30.6159 23.4897 30.0232 23.7432 29.3782C23.9967 28.7296 24.1198 28.0175 23.9744 27.3353C23.8327 26.6791 23.2437 25.9932 22.7627 25.5234Z" fill="#28748C"/>
<path d="M20.3242 20.5732C20.4659 21.4232 20.615 22.2881 21.0325 23.0449C21.4464 23.798 22.576 24.3274 23.4371 24.3796C23.6832 23.5147 23.2731 22.5715 22.6281 21.9452C21.9869 21.3151 21.1444 20.9386 20.3242 20.577V20.5732Z" fill="#28748C"/>
<path d="M18.1721 17.0493C19.3203 17.8434 21.3521 18.1678 22.5675 17.4818C21.9374 16.2814 20.7258 14.9915 19.4434 14.5553C18.1609 14.1191 16.7927 14.0147 15.4395 13.9141C16.2186 15.0698 17.0239 16.2515 18.1721 17.0456V17.0493Z" fill="#28748C"/>
<path d="M26.3696 16.6394C25.9669 17.508 25.8551 18.5071 26.0452 19.4429C26.8952 19.0738 27.8533 18.1641 27.9689 17.2433C28.0248 16.7922 27.9652 16.3337 27.9614 15.8751C27.9614 15.4203 28.0248 14.9394 28.2932 14.5703C27.4544 15.0326 26.7685 15.767 26.3696 16.6357V16.6394Z" fill="#28748C"/>
<path d="M20.1079 45.1002C19.9215 46.0732 20.0967 47.1133 20.5962 47.9707C21.5394 47.5197 22.2627 46.6324 22.5162 45.6184C22.7697 44.6043 22.5497 43.4822 21.9272 42.6396C21.1443 43.2473 20.2943 44.1271 20.1079 45.1002Z" fill="#28748C"/>
<path d="M19.7469 38.6836C19.1057 38.2064 18.293 38.0275 17.4989 37.9604C17.4542 37.9566 17.3983 37.9529 17.3647 37.9865C17.32 38.0275 17.3274 38.0946 17.3386 38.1505C17.4915 38.8775 17.8904 39.5522 18.457 40.0332C19.0237 40.5141 19.8961 40.7266 20.6379 40.7639C20.8131 39.9847 20.3844 39.1608 19.7432 38.6873L19.7469 38.6836Z" fill="#28748C"/>
<path d="M25.071 41.0916C24.9182 41.4122 24.8921 41.7887 24.9965 42.128C25.1568 42.6424 25.593 43.0264 26.0701 43.2725C26.8717 43.6863 27.8 43.7758 28.7021 43.8578C28.4039 43.0898 28.0907 42.2957 27.5166 41.703C26.9425 41.1102 25.8353 40.7747 25.0748 41.0916H25.071Z" fill="#28748C"/>
<path d="M27.5526 28.8895C27.258 29.4189 26.9598 29.952 26.7659 30.5261C26.5721 31.1002 26.4826 31.7265 26.6168 32.3155C26.8107 33.1842 27.4183 33.9671 28.2721 34.2131C29.0326 33.5756 29.2078 32.4423 28.9655 31.4805C28.7232 30.5186 28.1304 29.691 27.5526 28.8857V28.8895Z" fill="#28748C"/>
<path d="M18.955 31.3283C19.1153 30.3702 18.8841 29.3488 18.3286 28.5547C17.7881 29.3189 17.2363 30.1056 16.9754 31.004C16.7181 31.9062 16.8039 32.9612 17.4339 33.6584C18.2205 33.088 18.7947 32.2865 18.955 31.3283Z" fill="#28748C"/>
<path d="M13.0206 34.4415C12.0775 35.1275 11.5257 36.2422 11.2461 37.3755C12.316 37.2898 13.4084 37.2003 14.3851 36.7529C15.3619 36.3093 16.1783 35.3549 16.2864 34.2887C15.3469 33.599 13.9638 33.7556 13.0206 34.4415Z" fill="#28748C"/>
<path d="M64.4521 41.2671C64.1389 40.7153 63.1883 40.4581 62.5583 40.3984C62.0587 40.9092 61.8909 41.6921 62.055 42.3892C62.219 43.0864 62.6775 43.6903 63.2517 44.1153C63.8258 44.5403 64.508 44.8013 65.2052 44.9653C65.0486 44.3539 65.0225 43.7164 64.9516 43.0864C64.8808 42.4563 64.7652 41.8188 64.4521 41.2671Z" fill="#28748C"/>
<path d="M36.354 60.0684L35.9141 65.6045" stroke="#654237" stroke-width="0.372804" stroke-linecap="round" stroke-linejoin="round"/>
<path d="M36.857 53.7383L36.6035 56.9407" stroke="#654237" stroke-width="0.372804" stroke-linecap="round" stroke-linejoin="round"/>
<path d="M37.6416 43.8584L37.0078 51.8178" stroke="#654237" stroke-width="0.372804" stroke-linecap="round" stroke-linejoin="round"/>
<path d="M51.3184 60.5938L51.7434 68.1132" stroke="#654237" stroke-width="0.372804" stroke-linecap="round" stroke-linejoin="round"/>
<path d="M51.0078 55.0615L51.2129 58.7113" stroke="#654237" stroke-width="0.372804" stroke-linecap="round" stroke-linejoin="round"/>
<path d="M50.3535 43.3965L50.827 51.8293" stroke="#654237" stroke-width="0.372804" stroke-linecap="round" stroke-linejoin="round"/>
<path d="M44.7832 67.5361L44.8689 70.5409" stroke="#654237" stroke-width="0.372804" stroke-linecap="round" stroke-linejoin="round"/>
<path d="M44.4004 54.376L44.7061 64.8704" stroke="#654237" stroke-width="0.372804" stroke-linecap="round" stroke-linejoin="round"/>
<path d="M44.2402 48.6084L44.3595 52.8621" stroke="#654237" stroke-width="0.372804" stroke-linecap="round" stroke-linejoin="round"/>
<path d="M56.6523 50.7629C57.6701 50.789 58.7997 50.1888 59.344 49.3276C59.8883 48.4702 60.0821 47.4338 60.1455 46.416C59.2135 46.8186 58.2778 47.2697 57.5657 47.9967C56.8574 48.7237 56.41 49.7787 56.6523 50.7629Z" fill="#28748C"/>
<path d="M26.5969 49.8231C26.5745 50.7103 26.8653 51.6051 27.4096 52.3097C27.9539 53.0143 28.8897 53.6033 29.7583 53.8046C30.2094 52.9136 29.941 51.7691 29.2699 51.0272C28.5989 50.2891 27.596 49.9163 26.6006 49.8193L26.5969 49.8231Z" fill="#28748C"/>
<path d="M19.7595 60.9292C18.8834 61.5107 18.231 62.5471 18.4025 63.5873C19.4538 63.5947 20.561 63.3971 21.3439 62.6925C22.1231 61.9879 22.6301 60.9851 22.727 59.9375C21.6943 60.1276 20.6319 60.3476 19.7595 60.9292Z" fill="#28748C"/>
<path d="M71.0654 61.7384C70.5136 60.963 69.5481 60.4299 68.6757 60.4634C68.1687 60.8996 68.1351 61.7198 68.4558 62.3051C68.7726 62.8941 69.3617 63.2893 69.9619 63.5801C70.5621 63.8708 71.2071 64.0871 71.7737 64.4375C71.8744 63.4906 71.6171 62.5101 71.0654 61.7347V61.7384Z" fill="#28748C"/>
<path d="M22.6345 55.3188L20.9234 54.8751L20.1069 56.4446L20.0025 54.6813L18.2578 54.3905L19.9056 53.7418L19.6409 51.9971L20.7631 53.3615L22.3437 52.5712L21.3931 54.0587L22.6345 55.3188Z" fill="#DFB0A2"/>
<path d="M67.4673 52.2351L66.1326 51.1092L64.7383 52.1605L65.3945 50.5463L63.9629 49.5434L65.7039 49.6702L66.2146 48L66.6322 49.6925L68.3806 49.659L66.8969 50.5835L67.4673 52.2351Z" fill="#DFB0A2"/>
<path d="M74.375 32.0445L75.4599 30.7956L74.4831 29.461L76.0079 30.1059L76.9772 28.7676L76.8318 30.4154L78.405 30.9224L76.7945 31.2952L76.7982 32.9467L75.9445 31.5301L74.375 32.0445Z" fill="#DFB0A2"/>
<path d="M12.6016 23.4063L14.4059 22.4407L13.8691 20.4648L15.3454 21.8852L17.0566 20.7631L16.1618 22.6047L17.7574 23.8872L15.7331 23.6039L15.0062 25.5201L14.6483 23.5032L12.6016 23.4063Z" fill="#DFB0A2"/>
<path d="M45.6995 15.9652L46.6464 14.4927L45.4199 13.24L47.1125 13.6837L47.9252 12.1328L48.0258 13.8813L49.7519 14.1721L48.1227 14.8095L48.3763 16.5431L47.269 15.1861L45.6995 15.9652Z" fill="#DFB0A2"/>
<path d="M59.7129 56.4774C59.7129 56.9993 60.1342 57.4206 60.6561 57.4206C61.178 57.4206 61.5993 56.9993 61.5993 56.4774C61.5993 55.9554 61.178 55.5342 60.6561 55.5342C60.1342 55.5342 59.7129 55.9554 59.7129 56.4774Z" fill="#B55759"/>
<path d="M69.2012 21.617C69.2012 22.1389 69.6224 22.5602 70.1444 22.5602C70.6663 22.5602 71.0876 22.1389 71.0876 21.617C71.0876 21.0951 70.6663 20.6738 70.1444 20.6738C69.6224 20.6738 69.2012 21.0951 69.2012 21.617Z" fill="#B55759"/>
<path d="M32.8651 14.8171C33.386 14.8171 33.8083 14.3948 33.8083 13.8739C33.8083 13.3529 33.386 12.9307 32.8651 12.9307C32.3442 12.9307 31.9219 13.3529 31.9219 13.8739C31.9219 14.3948 32.3442 14.8171 32.8651 14.8171Z" fill="#B55759"/>
<path d="M15.6406 45.4393C15.6406 45.9612 16.0619 46.3825 16.5838 46.3825C17.1057 46.3825 17.527 45.9612 17.527 45.4393C17.527 44.9174 17.1057 44.4961 16.5838 44.4961C16.0619 44.4961 15.6406 44.9174 15.6406 45.4393Z" fill="#B55759"/>
<path d="M68.468 67.333H20.2013C15.4885 67.333 11.668 71.1535 11.668 75.8663C11.668 77.0445 12.6231 77.9997 13.8013 77.9997H74.868C76.0462 77.9997 77.0013 77.0445 77.0013 75.8663C77.0013 71.1535 73.1808 67.333 68.468 67.333Z" fill="#AAC0B7"/>
</svg>
