<svg width="108" height="108" viewBox="0 0 108 108" fill="none" xmlns="http://www.w3.org/2000/svg">
<rect width="108" height="108" fill="white"/>
<path d="M86.5608 10.6364H21.9518C17.7941 10.6364 14.4236 14.0068 14.4236 18.1645V82.7736C14.4236 86.9313 17.7941 90.3018 21.9518 90.3018H86.5608C90.7185 90.3018 94.089 86.9313 94.089 82.7736V18.1645C94.089 14.0068 90.7185 10.6364 86.5608 10.6364Z" fill="#477762"/>
<path d="M84.5214 17.4812H23.9862C22.4853 17.4812 21.2686 18.6979 21.2686 20.1988V80.7341C21.2686 82.235 22.4853 83.4517 23.9862 83.4517H84.5214C86.0223 83.4517 87.239 82.235 87.239 80.7341V20.1988C87.239 18.6979 86.0223 17.4812 84.5214 17.4812Z" fill="#AAC0B7"/>
<path d="M22.9395 90.3018L24.979 96.6927H34.3973L36.3247 90.3018H22.9395Z" fill="#38594B"/>
<path d="M85.5674 90.3018L83.5332 96.6927H74.1096L72.1875 90.3018H85.5674Z" fill="#38594B"/>
<path d="M87.5858 25.7247H86.8971C85.6675 25.7247 84.6707 26.7215 84.6707 27.9512V39.0459C84.6707 40.2755 85.6675 41.2723 86.8971 41.2723H87.5858C88.8155 41.2723 89.8123 40.2755 89.8123 39.0459V27.9512C89.8123 26.7215 88.8155 25.7247 87.5858 25.7247Z" fill="#38594B"/>
<path d="M87.5858 59.6656H86.8971C85.6675 59.6656 84.6707 60.6625 84.6707 61.8921V72.9868C84.6707 74.2164 85.6675 75.2132 86.8971 75.2132H87.5858C88.8155 75.2132 89.8123 74.2164 89.8123 72.9868V61.8921C89.8123 60.6625 88.8155 59.6656 87.5858 59.6656Z" fill="#38594B"/>
<path d="M54.2536 72.8428C66.6117 72.8428 76.6299 62.8246 76.6299 50.4665C76.6299 38.1083 66.6117 28.0901 54.2536 28.0901C41.8954 28.0901 31.8772 38.1083 31.8772 50.4665C31.8772 62.8246 41.8954 72.8428 54.2536 72.8428Z" fill="#F8F6F4"/>
<path d="M68.3009 53.7596C70.1209 45.9997 65.3058 38.2337 57.5459 36.4137C49.7861 34.5936 42.0201 39.4088 40.2 47.1686C38.38 54.9284 43.1951 62.6944 50.955 64.5145C58.7148 66.3345 66.4808 61.5194 68.3009 53.7596Z" fill="#38594B"/>
<path d="M54.2534 34.1448L52.011 30.6156H56.4959L54.2534 34.1448Z" fill="#38594B"/>
<path d="M54.7659 38.9713H53.7461V41.3045H54.7659V38.9713Z" fill="#F8F6F4"/>
<path d="M47.9068 40.8659L47.0818 41.4653L48.4532 43.3529L49.2782 42.7535L47.9068 40.8659Z" fill="#F8F6F4"/>
<path d="M43.477 46.4276L43.1619 47.3975L45.3809 48.1185L45.696 47.1486L43.477 46.4276Z" fill="#F8F6F4"/>
<path d="M45.3773 52.8194L43.1582 53.54L43.4732 54.51L45.6923 53.7893L45.3773 52.8194Z" fill="#F8F6F4"/>
<path d="M48.4577 57.5912L47.0859 59.4785L47.9109 60.0781L49.2826 58.1907L48.4577 57.5912Z" fill="#F8F6F4"/>
<path d="M54.7659 59.6339H53.7461V61.9671H54.7659V59.6339Z" fill="#F8F6F4"/>
<path d="M60.0557 57.5861L59.2307 58.1855L60.6021 60.0731L61.4272 59.4737L60.0557 57.5861Z" fill="#F8F6F4"/>
<path d="M63.1318 52.8175L62.8167 53.7874L65.0357 54.5084L65.3508 53.5385L63.1318 52.8175Z" fill="#F8F6F4"/>
<path d="M65.0341 46.4316L62.8149 47.1522L63.1299 48.1221L65.349 47.4015L65.0341 46.4316Z" fill="#F8F6F4"/>
<path d="M60.599 40.8653L59.2273 42.7527L60.0522 43.3522L61.424 41.4649L60.599 40.8653Z" fill="#F8F6F4"/>
</svg>
