<svg width="89" height="88" viewBox="0 0 89 88" fill="none" xmlns="http://www.w3.org/2000/svg">
<path d="M45.682 51.4169C43.4044 54.097 40.6618 57.5846 34.6931 61.326C30.1134 64.1971 25.9317 65.5975 23.1997 66.0819C16.2234 67.3193 11.3953 65.7754 5.10073 68.5919C4.86646 68.6968 3.13759 69.4832 3.25121 70.0452C3.51807 71.3636 13.6359 70.0152 14.0841 71.8947C14.2251 72.4865 13.2888 72.9058 13.4236 73.6121C13.6623 74.8662 16.9676 75.3982 19.3685 75.4616C28.4418 75.6994 35.7439 69.5229 36.4106 70.4415C36.8474 71.043 33.4504 73.3223 34.0326 75.1974C34.7046 77.3613 40.1933 77.4265 41.5628 77.4433C43.5286 77.467 48.377 77.2891 55.17 74.1405C59.7912 71.9986 63.2542 69.4357 63.7571 70.0452C64.2072 70.5903 61.5307 72.7648 62.1718 74.1405C62.8095 75.5092 66.3658 75.3084 68.6452 74.8011C69.2194 74.6734 76.2925 72.9824 79.4781 66.6103C82.9226 59.7186 89.5422 39.7851 84.6577 29.3283C78.9734 17.1575 56.1186 5.85074 44.7572 30.3807C43.3754 33.3638 59.6071 35.0319 45.682 51.4169Z" fill="#57789F"/>
<path d="M45.9789 32.307C48.1094 29.2359 51.0572 29.9264 52.676 31.0493C53.4519 31.5883 54.1529 32.9843 56.8806 32.6056C57.6882 32.4937 58.3346 31.901 58.834 31.2352C59.0251 30.9806 59.4919 29.9334 59.6443 29.5679C60.4581 27.6171 61.3133 25.7923 62.9523 24.3796C64.7824 22.8031 66.9816 21.9981 69.3842 21.8704C73.329 21.6617 77.5257 23.4152 80.8231 25.4488C81.8923 26.1085 82.8734 26.8386 83.7727 27.6286C76.9083 16.1589 55.5991 6.92975 44.7565 30.3395C44.2589 31.4131 45.8345 32.5131 45.978 32.3061L45.9789 32.307Z" fill="#34547A"/>
<path d="M68.108 39.5589C67.6324 38.022 65.7326 34.2886 68.669 34.0869C70.7633 33.9416 72.531 35.2407 73.7199 36.3328C73.7966 36.4041 73.867 36.479 73.9445 36.5512C73.8882 36.1399 73.9014 35.7286 74.0581 35.3446C74.2942 34.7616 75.0366 34.4559 75.8178 34.6717C76.8042 34.9447 77.5308 35.7092 78.1157 36.3134C82.4691 40.8051 83.0424 46.4294 81.4096 51.6689C80.9472 53.1538 80.3131 54.6096 79.5988 56.0399C79.538 56.1615 79.3037 56.1465 79.2905 56.0117C79.1875 54.924 79.2624 53.8337 79.2756 52.7442C78.9065 54.2379 78.1553 55.67 77.0878 56.9858C76.3921 57.8463 75.5281 58.6002 74.6174 59.3409C73.7455 60.0507 72.885 60.7677 71.8916 61.3886C70.766 62.0914 68.4752 63.0479 67.7328 61.5462C67.1233 60.3176 67.8059 58.8767 67.9952 57.5926C66.4487 59.1075 62.5197 63.3667 60.7671 60.3837C60.295 59.5778 61.0172 58.3641 61.307 57.5873C61.8574 56.1157 62.348 54.607 62.7144 53.1045C63.4251 50.1901 63.3009 46.9675 62.2132 44.0946C61.6716 46.1529 61.9746 48.5211 59.7772 50.0932C59.7005 50.1479 59.5887 50.1346 59.5279 50.073C58.5212 49.0249 58.8031 47.4792 58.7467 46.2709C58.7115 45.5126 58.5397 44.7499 58.412 43.9969C58.257 43.0668 58.0456 42.128 57.5815 41.2508C57.0073 42.7357 58.412 44.7349 56.5123 45.849C56.448 45.8869 56.3564 45.901 56.2912 45.8517C55.1754 45.0115 55.503 44.1087 55.3744 42.9638C55.1842 41.2736 55.2423 39.8953 54.7896 38.4439C52.1007 29.8163 63.9906 34.2181 68.1071 39.5589H68.108Z" fill="#34547A"/>
<path d="M38.0028 35.424C39.4893 35.424 40.6943 34.219 40.6943 32.7325C40.6943 31.246 39.4893 30.041 38.0028 30.041C36.5163 30.041 35.3113 31.246 35.3113 32.7325C35.3113 34.219 36.5163 35.424 38.0028 35.424Z" fill="#D1E1EC"/>
<path d="M63.0571 15.2764C58.8886 10.9618 54.5669 11.9746 51.4685 12.7188C48.7673 10.1136 45.4989 11.4673 44.5292 11.9878C44.5512 11.9728 44.5706 11.9605 44.5961 11.9438C41.9408 10.7918 39.4069 10.8191 34.3225 11.3625C12.1704 12.7126 7.67432 31.6809 7.67432 34.929C7.67432 38.4677 10.4389 41.3371 13.8482 41.3371C16.7326 41.3371 19.1555 39.2842 19.8327 36.509C20.3171 36.6816 20.8341 36.7785 21.3731 36.7785C21.7527 36.7785 22.1209 36.7274 22.4749 36.6402C23.0906 37.9314 24.4046 38.8262 25.9309 38.8262C26.8997 38.8262 27.7822 38.4633 28.4568 37.8706C28.4674 37.9375 28.4771 38.0036 28.4903 38.0679C28.972 40.5515 31.675 40.6458 33.2048 39.5801C33.7993 39.1661 34.3013 38.5708 34.6933 37.8847C35.8056 37.4294 36.7542 36.6737 37.4323 35.7225C37.4799 35.7542 37.5257 35.7868 37.5741 35.8167C37.5767 35.7428 37.5838 35.6679 37.5891 35.593C38.2954 37.5165 39.687 38.8253 41.2899 38.8253C43.0875 38.8253 44.6199 37.1775 45.2171 34.8629C45.4733 34.4349 45.1757 28.2997 51.0845 25.7668C51.4103 27.4895 52.7913 28.7401 54.4462 28.7841C59.3562 28.9162 58.1673 23.5658 60.4994 20.7695C62.9945 17.7777 67.1401 17.2545 70.6216 17.6209C71.6547 17.7301 72.6491 17.9653 73.6011 18.3088C69.3393 15.6728 66.8873 15.5953 63.0579 15.2756L63.0571 15.2764Z" fill="#D1E1EC"/>
<path d="M63.9166 16.0405C61.758 16.6614 59.9032 17.6901 58.014 18.8817C56.2499 19.9941 54.2515 21.4473 52.0814 21.472C51.2994 21.4808 50.5578 21.25 49.8092 21.0668C49.788 21.0615 49.6409 21.0034 49.559 20.9752C49.552 20.977 49.5432 20.9796 49.5353 20.9814C49.5441 20.9867 49.5555 20.9928 49.5696 20.9999C49.7616 21.0985 49.3389 21.0704 49.4287 21.0087C49.2763 21.0475 49.0861 21.0959 49.0288 21.1144C49.0024 21.1232 48.9857 21.1276 48.9725 21.1311C48.9425 21.1505 48.8941 21.1796 48.8148 21.2254C48.6792 21.3029 48.5436 21.3795 48.4097 21.4614C48.2811 21.5407 47.7668 21.8921 47.7958 21.8639C47.2022 22.3183 46.657 22.8538 46.1304 23.3814C45.1008 24.4145 44.1567 25.5251 43.2064 26.6313C42.1301 27.8837 41.0785 29.1836 39.7125 30.1357C38.8265 30.7531 37.7591 31.1785 36.6722 31.2287C36.1905 31.2507 35.655 31.2295 35.1882 31.1036C35.0297 31.0604 34.4317 30.8949 34.0882 30.7002C33.8592 30.7689 33.6241 30.827 33.5245 30.8649C32.3831 31.3035 31.1307 31.5563 29.9144 31.2718C29.1112 31.0833 28.3749 30.6808 27.7804 30.1225C26.9164 30.7011 26.0128 31.2163 25.0238 31.6082C23.3398 32.2758 21.5317 32.2133 20.0829 31.4074C19.233 31.7712 18.3584 32.0583 17.409 32.1411C15.4784 32.3102 13.5408 31.4198 12.5403 29.7191C10.3755 26.0412 13.0829 22.5782 15.474 20.1544C18.6446 16.9397 21.5951 14.2095 31.8133 11.6025C11.8296 14.1716 7.67432 31.8082 7.67432 34.9295C7.67432 38.4682 10.4389 41.3376 13.8482 41.3376C16.7326 41.3376 19.1555 39.2847 19.8327 36.5095C20.3171 36.6821 20.8341 36.779 21.3731 36.779C21.7527 36.779 22.1209 36.7279 22.4749 36.6407C23.0906 37.9319 24.4046 38.8267 25.9309 38.8267C26.8997 38.8267 27.7822 38.4638 28.4568 37.8711C28.4674 37.938 28.4771 38.0041 28.4903 38.0684C28.972 40.552 31.675 40.6463 33.2048 39.5806C33.7993 39.1666 34.3013 38.5713 34.6933 37.8852C35.8056 37.4299 36.7542 36.6742 37.4323 35.723C37.4799 35.7547 37.5257 35.7873 37.5741 35.8172C37.5767 35.7433 37.5838 35.6684 37.5891 35.5935C38.2954 37.517 39.687 38.8258 41.2899 38.8258C43.0875 38.8258 44.6199 37.178 45.2171 34.8634C45.4733 34.4354 45.1757 28.3002 51.0845 25.7673C51.4103 27.49 52.7913 28.7406 54.4462 28.7846C59.3562 28.9167 58.1673 23.5663 60.4994 20.77C62.9945 17.7782 67.1401 17.255 70.6216 17.6214C71.6547 17.7306 72.6491 17.9658 73.6011 18.3093C70.538 16.4148 68.4083 15.8432 66.0322 15.5526C65.3249 15.6803 64.6203 15.838 63.9184 16.0396L63.9166 16.0405Z" fill="#84A5CB"/>
<path d="M63.2736 66.5499C62.9372 66.5191 62.636 66.4601 62.4176 66.357C61.9658 66.1439 61.6161 65.8392 61.1943 65.6023C60.524 65.2271 60.022 65.1822 59.2205 65.2887C57.5551 65.5115 56.0411 65.944 54.2964 66.0479C53.5346 66.0946 52.6829 66.1413 51.8947 65.9449C51.4323 65.8304 50.3358 65.5336 50.2125 65.2174C50.0663 64.8484 48.7787 64.9778 48.4792 65.0606C48.1067 65.1637 47.5791 65.3733 47.1167 65.3116C46.7829 65.2667 45.963 65.1443 46.0968 64.8422C46.2263 64.5472 46.5962 64.3217 46.9274 64.1068C47.4179 63.7888 48.0353 63.4718 48.2493 63.0376C48.2969 62.9425 48.082 62.8456 47.9402 62.8887C46.7028 63.2815 45.5173 63.7166 44.2235 64.0539C43.0055 64.371 41.1163 64.895 39.6041 64.4837C39.0035 64.3199 42.1265 62.8879 42.426 62.7399C43.3093 62.3066 44.065 61.7993 44.0271 61.0419C44.0227 60.9582 43.8853 60.9106 43.7585 60.9124C42.6321 60.9371 41.5972 61.1493 40.484 61.2022C39.6948 61.2391 39.7221 61.0348 40.1167 60.7301C40.6495 60.3188 41.2837 59.9559 41.8887 59.5816C43.0434 58.8647 46.6077 53.2025 48.5699 53.6667C49.1107 54.1704 48.8509 55.0159 48.7857 55.4942C48.6888 56.2067 48.2731 57.1535 48.8324 57.8897C49.2613 58.4543 50.4511 58.2121 50.9082 57.9303C51.8947 57.3217 52.2161 56.3969 52.6679 55.5981C52.7578 55.4378 54.1449 53.3531 54.9173 54.0885C55.4475 54.5941 55.0547 55.4087 54.9006 55.8843C54.6099 56.7668 54.2022 57.6264 53.7688 58.4763C53.5134 58.9766 53.2431 59.475 52.9735 59.9727C52.2707 60.7873 51.5344 61.6161 51.161 62.5285C50.8713 63.2358 50.6546 64.2627 51.8621 64.895C52.9788 65.479 54.4285 65.5591 55.6651 65.3689C58.87 64.8739 60.9943 63.4506 63.662 62.4836C63.3371 63.3811 62.2828 64.5789 63.4084 65.4296C64.4802 66.2399 66.9753 65.4631 67.9221 65.2007C70.1618 64.5824 73.2981 63.2604 75.3097 62.4413C77.6251 61.4981 81.4571 57.9408 83.2908 56.699C81.3717 62.2564 72.2861 65.0254 69.7725 65.6146C67.6509 66.1113 65.5345 66.3826 63.2772 66.5517L63.2736 66.5499Z" fill="#34547A"/>
<path d="M21.2207 40.48C21.2207 40.9529 20.8367 41.3369 20.3638 41.3369C19.8908 41.3369 19.5068 40.9529 19.5068 40.48C19.5068 40.007 19.8908 39.623 20.3638 39.623C20.8367 39.623 21.2207 40.007 21.2207 40.48Z" fill="#D1E1EC"/>
<path d="M22.0997 39.1362C22.0997 39.278 21.9852 39.3925 21.8435 39.3925C21.7017 39.3925 21.5872 39.278 21.5872 39.1362C21.5872 38.9944 21.7017 38.8799 21.8435 38.8799C21.9852 38.8799 22.0997 38.9944 22.0997 39.1362Z" fill="#D1E1EC"/>
<path d="M18.3698 41.5931C18.3698 41.7349 18.2544 41.8503 18.1126 41.8503C17.9708 41.8503 17.8555 41.7349 17.8555 41.5931C17.8555 41.4513 17.9708 41.3359 18.1126 41.3359C18.2544 41.3359 18.3698 41.4513 18.3698 41.5931Z" fill="#D1E1EC"/>
<path d="M22.0997 41.9926C22.0997 42.1344 21.9852 42.2489 21.8435 42.2489C21.7017 42.2489 21.5872 42.1344 21.5872 41.9926C21.5872 41.8508 21.7017 41.7363 21.8435 41.7363C21.9852 41.7363 22.0997 41.8508 22.0997 41.9926Z" fill="#D1E1EC"/>
<path d="M27.9124 39.5573C28.0768 39.5573 28.2101 39.424 28.2101 39.2596C28.2101 39.0952 28.0768 38.9619 27.9124 38.9619C27.748 38.9619 27.6147 39.0952 27.6147 39.2596C27.6147 39.424 27.748 39.5573 27.9124 39.5573Z" fill="#D1E1EC"/>
<path d="M8.10308 40.4791C8.33948 40.4791 8.53111 40.2875 8.53111 40.0511C8.53111 39.8147 8.33948 39.623 8.10308 39.623C7.86669 39.623 7.67505 39.8147 7.67505 40.0511C7.67505 40.2875 7.86669 40.4791 8.10308 40.4791Z" fill="#D1E1EC"/>
<path d="M7.44803 38.1168C7.57303 38.1168 7.67437 38.0154 7.67437 37.8904C7.67437 37.7654 7.57303 37.6641 7.44803 37.6641C7.32302 37.6641 7.22168 37.7654 7.22168 37.8904C7.22168 38.0154 7.32302 38.1168 7.44803 38.1168Z" fill="#D1E1EC"/>
<path d="M11.8885 42.1329C11.8885 42.6683 11.4543 43.1017 10.9197 43.1017C10.3851 43.1017 9.95093 42.6683 9.95093 42.1329C9.95093 41.5974 10.3851 41.1641 10.9197 41.1641C11.4543 41.1641 11.8885 41.5974 11.8885 42.1329Z" fill="#D1E1EC"/>
<path d="M38.2284 41.7374C38.2284 42.2728 37.7942 42.7062 37.2596 42.7062C36.725 42.7062 36.2908 42.2728 36.2908 41.7374C36.2908 41.2019 36.725 40.7686 37.2596 40.7686C37.7942 40.7686 38.2284 41.2019 38.2284 41.7374Z" fill="#D1E1EC"/>
<path d="M35.3116 43.3545C35.3116 43.89 34.8783 44.3233 34.3428 44.3233C33.8073 44.3233 33.374 43.89 33.374 43.3545C33.374 42.8191 33.8082 42.3857 34.3428 42.3857C34.8774 42.3857 35.3116 42.8191 35.3116 43.3545Z" fill="#D1E1EC"/>
<path d="M15.599 43.6241C15.599 44.0099 15.2864 44.3234 14.8997 44.3234C14.5131 44.3234 14.2004 44.0107 14.2004 43.6241C14.2004 43.2375 14.5131 42.9248 14.8997 42.9248C15.2864 42.9248 15.599 43.2375 15.599 43.6241Z" fill="#D1E1EC"/>
<path d="M37.7273 37.7567C37.7273 38.0148 37.5177 38.2244 37.2597 38.2244C37.0016 38.2244 36.792 38.0148 36.792 37.7567C36.792 37.4987 37.0016 37.2891 37.2597 37.2891C37.5177 37.2891 37.7273 37.4987 37.7273 37.7567Z" fill="#D1E1EC"/>
<path d="M47.6901 35.1311C47.6901 35.5811 47.3255 35.9458 46.8755 35.9458C46.4254 35.9458 46.0608 35.5811 46.0608 35.1311C46.0608 34.681 46.4254 34.3164 46.8755 34.3164C47.3255 34.3164 47.6901 34.681 47.6901 35.1311Z" fill="#D1E1EC"/>
<path d="M45.6997 39.9843C46.1856 39.9843 46.5795 39.5904 46.5795 39.1045C46.5795 38.6185 46.1856 38.2246 45.6997 38.2246C45.2137 38.2246 44.8198 38.6185 44.8198 39.1045C44.8198 39.5904 45.2137 39.9843 45.6997 39.9843Z" fill="#D1E1EC"/>
<path d="M42.8109 40.112C43.0098 40.112 43.1711 39.9508 43.1711 39.7518C43.1711 39.5529 43.0098 39.3916 42.8109 39.3916C42.612 39.3916 42.4507 39.5529 42.4507 39.7518C42.4507 39.9508 42.612 40.112 42.8109 40.112Z" fill="#D1E1EC"/>
<path d="M37.5124 44.9325C37.5124 45.1315 37.3513 45.2927 37.1522 45.2927C36.9532 45.2927 36.792 45.1315 36.792 44.9325C36.792 44.7334 36.9532 44.5723 37.1522 44.5723C37.3513 44.5723 37.5124 44.7334 37.5124 44.9325Z" fill="#D1E1EC"/>
<path d="M48.274 37.2277C48.274 37.425 48.1137 37.5853 47.9164 37.5853C47.7191 37.5853 47.5588 37.425 47.5588 37.2277C47.5588 37.0304 47.7191 36.8701 47.9164 36.8701C48.1137 36.8701 48.274 37.0304 48.274 37.2277Z" fill="#D1E1EC"/>
<path d="M51.5431 28.4935C51.5431 28.9973 51.1345 29.4059 50.6307 29.4059C50.1269 29.4059 49.7183 28.9973 49.7183 28.4935C49.7183 27.9897 50.1269 27.5811 50.6307 27.5811C51.1345 27.5811 51.5431 27.9897 51.5431 28.4935Z" fill="#D1E1EC"/>
<path d="M53.3604 30.2264C53.3604 30.4606 53.1711 30.65 52.9368 30.65C52.7025 30.65 52.5132 30.4606 52.5132 30.2264C52.5132 29.9921 52.7025 29.8027 52.9368 29.8027C53.1711 29.8027 53.3604 29.9921 53.3604 30.2264Z" fill="#D1E1EC"/>
<path d="M56.44 30.8535C56.44 31.0711 56.263 31.2481 56.0454 31.2481C55.8279 31.2481 55.6509 31.0711 55.6509 30.8535C55.6509 30.636 55.8279 30.459 56.0454 30.459C56.263 30.459 56.44 30.636 56.44 30.8535Z" fill="#D1E1EC"/>
<path d="M59.6512 29.3881C59.6512 29.8822 59.2504 30.282 58.7572 30.282C58.264 30.282 57.8633 29.8822 57.8633 29.3881C57.8633 28.894 58.2631 28.4941 58.7572 28.4941C59.2513 28.4941 59.6512 28.894 59.6512 29.3881Z" fill="#D1E1EC"/>
<path d="M58.2922 31.4495C58.2922 31.6415 58.1371 31.7966 57.9452 31.7966C57.7532 31.7966 57.5981 31.6415 57.5981 31.4495C57.5981 31.2575 57.7532 31.1025 57.9452 31.1025C58.1371 31.1025 58.2922 31.2575 58.2922 31.4495Z" fill="#D1E1EC"/>
<path d="M49.2506 30.467C49.2506 30.6 49.1432 30.7074 49.0102 30.7074C48.8772 30.7074 48.7698 30.6 48.7698 30.467C48.7698 30.334 48.8772 30.2266 49.0102 30.2266C49.1432 30.2266 49.2506 30.334 49.2506 30.467Z" fill="#D1E1EC"/>
</svg>
