<svg width="24" height="25" viewBox="0 0 24 25" fill="none" xmlns="http://www.w3.org/2000/svg">
<g id="uil--arrow-right 1">
<path id="Vector" d="M6.08 12.1202C6.12759 11.9974 6.19896 11.8853 6.29 11.7902L11.29 6.79019C11.3832 6.69695 11.4939 6.62299 11.6158 6.57253C11.7376 6.52207 11.8681 6.49609 12 6.49609C12.2663 6.49609 12.5217 6.60188 12.71 6.79019C12.8032 6.88342 12.8772 6.99411 12.9277 7.11594C12.9781 7.23776 13.0041 7.36833 13.0041 7.50019C13.0041 7.76649 12.8983 8.02188 12.71 8.21019L9.41 11.5002H17C17.2652 11.5002 17.5196 11.6055 17.7071 11.7931C17.8946 11.9806 18 12.235 18 12.5002C18 12.7654 17.8946 13.0198 17.7071 13.2073C17.5196 13.3948 17.2652 13.5002 17 13.5002H9.41L12.71 16.7902C12.8037 16.8831 12.8781 16.9937 12.9289 17.1156C12.9797 17.2375 13.0058 17.3682 13.0058 17.5002C13.0058 17.6322 12.9797 17.7629 12.9289 17.8848C12.8781 18.0066 12.8037 18.1172 12.71 18.2102C12.617 18.3039 12.5064 18.3783 12.3846 18.4291C12.2627 18.4798 12.132 18.506 12 18.506C11.868 18.506 11.7373 18.4798 11.6154 18.4291C11.4936 18.3783 11.383 18.3039 11.29 18.2102L6.29 13.2102C6.19896 13.1151 6.12759 13.0029 6.08 12.8802C5.97998 12.6367 5.97998 12.3636 6.08 12.1202Z" fill="#34547A"/>
</g>
</svg>
