<svg width="72" height="73" viewBox="0 0 72 73" fill="none" xmlns="http://www.w3.org/2000/svg">
<rect width="72" height="72" transform="translate(0 0.5)" fill="white"/>
<path d="M52.7433 47.5317L51.4708 41.7419C50.9287 39.2767 49.164 37.2597 46.7927 36.3961L36.7909 32.7522C36.0807 32.4935 35.2849 32.7147 34.8098 33.3024C34.0768 34.2101 34.4082 35.5659 35.4767 36.0337L38.4961 37.3544L19.2141 31.958C18.7619 31.8315 18.277 31.9449 17.9276 32.2584C17.1636 32.9449 17.3963 34.1962 18.3562 34.5619L29.8501 38.9347L15.7572 33.6428C15.1588 33.4183 14.487 33.5187 13.981 33.9089C12.8586 34.7741 13.0896 36.5291 14.3981 37.0744L27.3221 42.4634L13.5908 36.8067C12.959 36.5463 12.2358 36.6491 11.7011 37.0744C10.6 37.9511 10.8155 39.6816 12.0978 40.262L24.5746 45.9065L12.2447 40.6766C11.5983 40.4024 10.8497 40.5428 10.3461 41.0325C9.50533 41.8512 9.69634 43.2495 10.7257 43.8136L35.7118 57.4935L43.4354 68.4977L59.4547 58.3032L52.7441 47.5309L52.7433 47.5317Z" fill="#DFB0A2"/>
<path d="M44.5694 45.3752C44.5041 45.3752 44.4396 45.3508 44.3898 45.3018C41.6667 42.6464 40.9419 39.8417 40.8055 39.1985L35.7299 36.6975C35.6026 36.6346 35.5495 36.4803 35.6124 36.3521C35.6753 36.224 35.8295 36.1718 35.9577 36.2346L41.1484 38.792C41.2226 38.8287 41.2749 38.8989 41.2888 38.9806C41.2937 39.0116 41.843 42.0971 44.7498 44.932C44.8518 45.0316 44.8534 45.1948 44.7547 45.2969C44.704 45.3483 44.6371 45.3744 44.5702 45.3744L44.5694 45.3752Z" fill="#B67F6E"/>
<path d="M29.8497 39.1915C29.8187 39.1915 29.7877 39.1858 29.7567 39.1744L18.1476 34.6922C18.0146 34.6408 17.9484 34.4914 17.9999 34.3592C18.0513 34.2261 18.2007 34.1608 18.3329 34.2114L29.9419 38.6936C30.075 38.745 30.1411 38.8944 30.0897 39.0266C30.0505 39.1287 29.9525 39.1915 29.8489 39.1915H29.8497Z" fill="#B67F6E"/>
<path d="M27.3204 42.7214C27.2861 42.7214 27.251 42.714 27.2175 42.6993L14.3286 37.0744C14.198 37.0173 14.1384 36.8654 14.1955 36.7348C14.2527 36.6042 14.4045 36.5446 14.5351 36.6018L27.424 42.2267C27.5547 42.2839 27.6142 42.4357 27.5571 42.5663C27.5147 42.6634 27.42 42.7214 27.3204 42.7214Z" fill="#B67F6E"/>
<path d="M24.708 46.3383C24.6729 46.3383 24.637 46.3309 24.6027 46.3154L12.4843 40.8823C12.3545 40.8243 12.2966 40.6717 12.3545 40.5419C12.4133 40.4121 12.5651 40.3542 12.6949 40.4121L24.8133 45.8452C24.9431 45.9032 25.001 46.0559 24.9431 46.1856C24.8998 46.2811 24.8059 46.3383 24.708 46.3383Z" fill="#B67F6E"/>
<path d="M23.2633 48.2502C23.2102 48.2502 23.1556 48.2338 23.1098 48.1996C22.9956 48.1147 22.9719 47.9531 23.0568 47.8388L31.2318 36.8403C31.3167 36.726 31.4783 36.7023 31.5925 36.7872C31.7068 36.8721 31.7305 37.0337 31.6456 37.148L23.4706 48.1465C23.42 48.2142 23.3425 48.2502 23.2633 48.2502Z" fill="#B67F6E"/>
<path d="M42.0826 50.4497C42.0336 50.4497 41.9838 50.4358 41.9397 50.4064C37.9677 47.7584 32.3502 48.4506 32.293 48.458C32.1518 48.4751 32.0228 48.3763 32.0041 48.2359C31.9861 48.0947 32.0849 47.9657 32.2261 47.947C32.4628 47.9159 38.0894 47.2205 42.2254 49.9779C42.3438 50.057 42.3756 50.217 42.2973 50.3354C42.2475 50.4097 42.1658 50.4505 42.0826 50.4505V50.4497Z" fill="#B67F6E"/>
<path d="M32.8924 29.6248C34.6979 29.7093 36.2313 28.3143 36.3159 26.5075L36.5167 22.2174C36.541 21.6973 36.9824 21.2954 37.5026 21.3197L41.7926 21.5205C43.5982 21.6051 45.1315 20.21 45.2161 18.4032C45.3007 16.5965 43.9056 15.0644 42.0988 14.9798L33.5965 14.5818C31.791 14.4973 30.2577 15.8923 30.1731 17.6991L29.7751 26.2014C29.6906 28.0069 31.0856 29.5402 32.8924 29.6248Z" fill="#477762"/>
<path d="M24.7889 20.7244L33.2911 21.1224C35.0967 21.2069 36.63 19.8119 36.7146 18.0051L37.1126 9.50285C37.1971 7.69731 35.802 6.16396 33.9953 6.07939C32.1885 5.99482 30.6564 7.38994 30.5718 9.19668L30.371 13.4868C30.3467 14.0069 29.9053 14.4088 29.3851 14.3845L25.0951 14.1837C23.2895 14.0991 21.7562 15.4942 21.6716 17.301C21.587 19.1077 22.9821 20.6399 24.7889 20.7244Z" fill="#B55759"/>
</svg>
