<svg width="18" height="18" viewBox="0 0 18 18" fill="none" xmlns="http://www.w3.org/2000/svg">
<path d="M14.0328 5.4074C13.9631 5.3371 13.8802 5.2813 13.7888 5.24323C13.6974 5.20515 13.5993 5.18555 13.5003 5.18555C13.4013 5.18555 13.3033 5.20515 13.2119 5.24323C13.1205 5.2813 13.0376 5.3371 12.9678 5.4074L7.38033 11.0024L5.03283 8.6474C4.96044 8.57747 4.87498 8.52248 4.78134 8.48558C4.6877 8.44868 4.58771 8.43058 4.48707 8.43232C4.38643 8.43406 4.28713 8.45561 4.19482 8.49573C4.10251 8.53585 4.01901 8.59375 3.94908 8.66615C3.87915 8.73854 3.82416 8.82399 3.78726 8.91763C3.75036 9.01128 3.73226 9.11127 3.734 9.2119C3.73574 9.31254 3.75729 9.41185 3.79741 9.50416C3.83753 9.59646 3.89544 9.67997 3.96783 9.7499L6.84783 12.6299C6.91755 12.7002 7.0005 12.756 7.0919 12.7941C7.18329 12.8321 7.28132 12.8517 7.38033 12.8517C7.47934 12.8517 7.57737 12.8321 7.66876 12.7941C7.76016 12.756 7.84311 12.7002 7.91283 12.6299L14.0328 6.5099C14.109 6.43966 14.1697 6.35443 14.2113 6.25955C14.2528 6.16468 14.2743 6.06222 14.2743 5.95865C14.2743 5.85507 14.2528 5.75262 14.2113 5.65774C14.1697 5.56287 14.109 5.47763 14.0328 5.4074Z" fill="#FDFDFD"/>
</svg>
