<svg width="124" height="27" viewBox="0 0 124 27" fill="none" xmlns="http://www.w3.org/2000/svg">
<path d="M8.316 9.254C8.25 9.362 8.181 9.443 8.109 9.497C8.037 9.545 7.947 9.569 7.839 9.569C7.725 9.569 7.596 9.521 7.452 9.425C7.314 9.329 7.14 9.224 6.93 9.11C6.726 8.99 6.483 8.882 6.201 8.786C5.919 8.684 5.583 8.633 5.193 8.633C4.833 8.633 4.515 8.678 4.239 8.768C3.969 8.858 3.741 8.984 3.555 9.146C3.369 9.308 3.228 9.5 3.132 9.722C3.042 9.938 2.997 10.175 2.997 10.433C2.997 10.763 3.084 11.039 3.258 11.261C3.432 11.477 3.66 11.663 3.942 11.819C4.23 11.975 4.557 12.113 4.923 12.233C5.289 12.347 5.661 12.47 6.039 12.602C6.423 12.734 6.798 12.884 7.164 13.052C7.53 13.22 7.854 13.433 8.136 13.691C8.424 13.949 8.655 14.264 8.829 14.636C9.003 15.008 9.09 15.461 9.09 15.995C9.09 16.571 8.991 17.111 8.793 17.615C8.595 18.119 8.307 18.56 7.929 18.938C7.557 19.31 7.095 19.604 6.543 19.82C5.997 20.036 5.373 20.144 4.671 20.144C4.257 20.144 3.852 20.102 3.456 20.018C3.066 19.94 2.691 19.829 2.331 19.685C1.977 19.535 1.644 19.355 1.332 19.145C1.02 18.935 0.741 18.701 0.495 18.443L1.107 17.435C1.161 17.351 1.23 17.285 1.314 17.237C1.398 17.189 1.491 17.165 1.593 17.165C1.731 17.165 1.884 17.231 2.052 17.363C2.22 17.489 2.421 17.63 2.655 17.786C2.895 17.936 3.183 18.077 3.519 18.209C3.855 18.335 4.257 18.398 4.725 18.398C5.487 18.398 6.075 18.212 6.489 17.84C6.909 17.468 7.119 16.955 7.119 16.301C7.119 15.935 7.032 15.638 6.858 15.41C6.684 15.176 6.453 14.981 6.165 14.825C5.883 14.669 5.559 14.537 5.193 14.429C4.827 14.321 4.455 14.207 4.077 14.087C3.699 13.961 3.327 13.817 2.961 13.655C2.595 13.487 2.268 13.271 1.98 13.007C1.698 12.737 1.47 12.407 1.296 12.017C1.122 11.621 1.035 11.129 1.035 10.541C1.035 10.073 1.125 9.62 1.305 9.182C1.491 8.744 1.758 8.357 2.106 8.021C2.46 7.679 2.895 7.406 3.411 7.202C3.927 6.998 4.515 6.896 5.175 6.896C5.919 6.896 6.6 7.013 7.218 7.247C7.842 7.481 8.379 7.814 8.829 8.246L8.316 9.254ZM17.459 12.62C17.399 12.698 17.342 12.758 17.288 12.8C17.234 12.842 17.156 12.863 17.054 12.863C16.952 12.863 16.844 12.827 16.73 12.755C16.622 12.683 16.49 12.605 16.334 12.521C16.184 12.431 16.001 12.35 15.785 12.278C15.569 12.206 15.299 12.17 14.975 12.17C14.555 12.17 14.186 12.245 13.868 12.395C13.556 12.545 13.292 12.761 13.076 13.043C12.866 13.319 12.707 13.658 12.599 14.06C12.497 14.456 12.446 14.903 12.446 15.401C12.446 15.917 12.503 16.376 12.617 16.778C12.731 17.18 12.893 17.519 13.103 17.795C13.319 18.071 13.577 18.281 13.877 18.425C14.183 18.569 14.525 18.641 14.903 18.641C15.275 18.641 15.578 18.596 15.812 18.506C16.046 18.416 16.241 18.317 16.397 18.209C16.553 18.101 16.685 18.002 16.793 17.912C16.907 17.822 17.027 17.777 17.153 17.777C17.309 17.777 17.429 17.837 17.513 17.957L18.062 18.668C17.84 18.938 17.594 19.166 17.324 19.352C17.054 19.538 16.769 19.691 16.469 19.811C16.169 19.925 15.857 20.006 15.533 20.054C15.209 20.108 14.882 20.135 14.552 20.135C13.982 20.135 13.448 20.03 12.95 19.82C12.458 19.604 12.026 19.295 11.654 18.893C11.288 18.485 10.997 17.99 10.781 17.408C10.571 16.82 10.466 16.151 10.466 15.401C10.466 14.723 10.562 14.096 10.754 13.52C10.946 12.938 11.225 12.437 11.591 12.017C11.963 11.597 12.422 11.27 12.968 11.036C13.514 10.796 14.144 10.676 14.858 10.676C15.524 10.676 16.109 10.784 16.613 11C17.123 11.216 17.576 11.522 17.972 11.918L17.459 12.62ZM21.4455 12.521C21.7335 11.939 22.0815 11.483 22.4895 11.153C22.8975 10.817 23.3865 10.649 23.9565 10.649C24.1545 10.649 24.3405 10.673 24.5145 10.721C24.6885 10.763 24.8445 10.829 24.9825 10.919L24.8475 12.377C24.8235 12.479 24.7845 12.551 24.7305 12.593C24.6825 12.629 24.6165 12.647 24.5325 12.647C24.4425 12.647 24.3135 12.632 24.1455 12.602C23.9775 12.566 23.8005 12.548 23.6145 12.548C23.3445 12.548 23.1045 12.587 22.8945 12.665C22.6905 12.743 22.5045 12.857 22.3365 13.007C22.1745 13.157 22.0305 13.34 21.9045 13.556C21.7785 13.772 21.6615 14.018 21.5535 14.294V20H19.6185V10.82H20.7435C20.9475 10.82 21.0885 10.859 21.1665 10.937C21.2445 11.009 21.2985 11.138 21.3285 11.324L21.4455 12.521ZM29.9156 10.676C30.5936 10.676 31.2056 10.787 31.7516 11.009C32.3036 11.231 32.7716 11.546 33.1556 11.954C33.5456 12.362 33.8456 12.857 34.0556 13.439C34.2656 14.021 34.3706 14.675 34.3706 15.401C34.3706 16.127 34.2656 16.781 34.0556 17.363C33.8456 17.945 33.5456 18.443 33.1556 18.857C32.7716 19.265 32.3036 19.58 31.7516 19.802C31.2056 20.024 30.5936 20.135 29.9156 20.135C29.2316 20.135 28.6136 20.024 28.0616 19.802C27.5156 19.58 27.0476 19.265 26.6576 18.857C26.2676 18.443 25.9676 17.945 25.7576 17.363C25.5476 16.781 25.4426 16.127 25.4426 15.401C25.4426 14.675 25.5476 14.021 25.7576 13.439C25.9676 12.857 26.2676 12.362 26.6576 11.954C27.0476 11.546 27.5156 11.231 28.0616 11.009C28.6136 10.787 29.2316 10.676 29.9156 10.676ZM29.9156 18.623C30.7436 18.623 31.3586 18.347 31.7606 17.795C32.1686 17.237 32.3726 16.442 32.3726 15.41C32.3726 14.378 32.1686 13.583 31.7606 13.025C31.3586 12.461 30.7436 12.179 29.9156 12.179C29.0756 12.179 28.4516 12.461 28.0436 13.025C27.6356 13.583 27.4316 14.378 27.4316 15.41C27.4316 16.442 27.6356 17.237 28.0436 17.795C28.4516 18.347 29.0756 18.623 29.9156 18.623ZM38.2008 6.68V20H36.2658V6.68H38.2008ZM42.5602 6.68V20H40.6252V6.68H42.5602ZM55.29 13.079C55.02 12.731 54.723 12.488 54.399 12.35C54.075 12.212 53.724 12.143 53.346 12.143C52.59 12.143 51.999 12.422 51.573 12.98C51.147 13.532 50.934 14.351 50.934 15.437C50.934 16.001 50.982 16.484 51.078 16.886C51.174 17.282 51.312 17.606 51.492 17.858C51.672 18.11 51.891 18.293 52.149 18.407C52.407 18.521 52.698 18.578 53.022 18.578C53.514 18.578 53.937 18.473 54.291 18.263C54.651 18.047 54.984 17.744 55.29 17.354V13.079ZM57.225 6.68V20H56.055C55.797 20 55.632 19.877 55.56 19.631L55.389 18.632C55.005 19.082 54.567 19.445 54.075 19.721C53.589 19.997 53.022 20.135 52.374 20.135C51.858 20.135 51.39 20.033 50.97 19.829C50.55 19.619 50.19 19.316 49.89 18.92C49.59 18.524 49.356 18.035 49.188 17.453C49.026 16.865 48.945 16.193 48.945 15.437C48.945 14.753 49.035 14.12 49.215 13.538C49.401 12.956 49.665 12.452 50.007 12.026C50.349 11.594 50.763 11.258 51.249 11.018C51.741 10.772 52.29 10.649 52.896 10.649C53.436 10.649 53.895 10.736 54.273 10.91C54.651 11.078 54.99 11.315 55.29 11.621V6.68H57.225ZM63.5601 10.676C64.2381 10.676 64.8501 10.787 65.3961 11.009C65.9481 11.231 66.4161 11.546 66.8001 11.954C67.1901 12.362 67.4901 12.857 67.7001 13.439C67.9101 14.021 68.0151 14.675 68.0151 15.401C68.0151 16.127 67.9101 16.781 67.7001 17.363C67.4901 17.945 67.1901 18.443 66.8001 18.857C66.4161 19.265 65.9481 19.58 65.3961 19.802C64.8501 20.024 64.2381 20.135 63.5601 20.135C62.8761 20.135 62.2581 20.024 61.7061 19.802C61.1601 19.58 60.6921 19.265 60.3021 18.857C59.9121 18.443 59.6121 17.945 59.4021 17.363C59.1921 16.781 59.0871 16.127 59.0871 15.401C59.0871 14.675 59.1921 14.021 59.4021 13.439C59.6121 12.857 59.9121 12.362 60.3021 11.954C60.6921 11.546 61.1601 11.231 61.7061 11.009C62.2581 10.787 62.8761 10.676 63.5601 10.676ZM63.5601 18.623C64.3881 18.623 65.0031 18.347 65.4051 17.795C65.8131 17.237 66.0171 16.442 66.0171 15.41C66.0171 14.378 65.8131 13.583 65.4051 13.025C65.0031 12.461 64.3881 12.179 63.5601 12.179C62.7201 12.179 62.0961 12.461 61.6881 13.025C61.2801 13.583 61.0761 14.378 61.0761 15.41C61.0761 16.442 61.2801 17.237 61.6881 17.795C62.0961 18.347 62.7201 18.623 63.5601 18.623ZM82.6307 10.82L79.6877 20H78.1487C77.9687 20 77.8427 19.883 77.7707 19.649L75.9437 13.934C75.8957 13.772 75.8507 13.61 75.8087 13.448C75.7727 13.286 75.7397 13.127 75.7097 12.971C75.6437 13.295 75.5627 13.619 75.4667 13.943L73.6127 19.649C73.5467 19.883 73.4057 20 73.1897 20H71.7227L68.7797 10.82H70.3097C70.4597 10.82 70.5827 10.859 70.6787 10.937C70.7807 11.009 70.8467 11.096 70.8767 11.198L72.4067 16.544C72.4667 16.79 72.5177 17.03 72.5597 17.264C72.6077 17.492 72.6497 17.72 72.6857 17.948C72.7457 17.72 72.8087 17.492 72.8747 17.264C72.9407 17.03 73.0097 16.79 73.0817 16.544L74.8007 11.171C74.8307 11.063 74.8907 10.976 74.9807 10.91C75.0767 10.838 75.1907 10.802 75.3227 10.802H76.1687C76.3067 10.802 76.4237 10.838 76.5197 10.91C76.6157 10.976 76.6787 11.063 76.7087 11.171L78.3827 16.544C78.4547 16.79 78.5207 17.03 78.5807 17.264C78.6467 17.498 78.7067 17.732 78.7607 17.966C78.8027 17.738 78.8477 17.507 78.8957 17.273C78.9437 17.039 79.0007 16.796 79.0667 16.544L80.6237 11.198C80.6597 11.09 80.7257 11 80.8217 10.928C80.9177 10.856 81.0347 10.82 81.1727 10.82H82.6307ZM85.8513 12.035C86.0493 11.831 86.2533 11.648 86.4633 11.486C86.6793 11.318 86.9073 11.174 87.1473 11.054C87.3873 10.934 87.6423 10.841 87.9123 10.775C88.1823 10.709 88.4763 10.676 88.7943 10.676C89.2983 10.676 89.7393 10.76 90.1173 10.928C90.5013 11.096 90.8223 11.333 91.0803 11.639C91.3443 11.945 91.5423 12.314 91.6743 12.746C91.8063 13.172 91.8723 13.643 91.8723 14.159V20H89.9463V14.159C89.9463 13.541 89.8023 13.061 89.5143 12.719C89.2323 12.377 88.8003 12.206 88.2183 12.206C87.7863 12.206 87.3843 12.305 87.0123 12.503C86.6463 12.701 86.3013 12.971 85.9773 13.313V20H84.0423V10.82H85.2123C85.4763 10.82 85.6443 10.943 85.7163 11.189L85.8513 12.035Z" fill="#FDFDFD"/>
<path d="M112.38 19.42C112.503 19.3724 112.615 19.301 112.71 19.21L117.71 14.21C117.803 14.1168 117.877 14.0061 117.928 13.8842C117.978 13.7624 118.004 13.6319 118.004 13.5C118.004 13.2337 117.898 12.9783 117.71 12.79C117.617 12.6968 117.506 12.6228 117.384 12.5723C117.262 12.5219 117.132 12.4959 117 12.4959C116.734 12.4959 116.478 12.6017 116.29 12.79L113 16.09L113 8.5C113 8.23478 112.895 7.98043 112.707 7.79289C112.52 7.60536 112.265 7.5 112 7.5C111.735 7.5 111.48 7.60536 111.293 7.79289C111.105 7.98043 111 8.23478 111 8.5L111 16.09L107.71 12.79C107.617 12.6963 107.506 12.6219 107.385 12.5711C107.263 12.5203 107.132 12.4942 107 12.4942C106.868 12.4942 106.737 12.5203 106.615 12.5711C106.494 12.6219 106.383 12.6963 106.29 12.79C106.196 12.883 106.122 12.9936 106.071 13.1154C106.02 13.2373 105.994 13.368 105.994 13.5C105.994 13.632 106.02 13.7627 106.071 13.8846C106.122 14.0064 106.196 14.117 106.29 14.21L111.29 19.21C111.385 19.301 111.497 19.3724 111.62 19.42C111.864 19.52 112.137 19.52 112.38 19.42Z" fill="#FDFDFD"/>
</svg>
