<svg width="24" height="25" viewBox="0 0 24 25" fill="none" xmlns="http://www.w3.org/2000/svg">
<path d="M16.29 9.21019C16.383 9.30391 16.4936 9.37831 16.6154 9.42908C16.7373 9.47985 16.868 9.50598 17 9.50598C17.132 9.50598 17.2627 9.47985 17.3846 9.42908C17.5064 9.37831 17.617 9.30391 17.71 9.21019L21.71 5.21019C21.8983 5.02188 22.0041 4.76649 22.0041 4.50019C22.0041 4.23388 21.8983 3.97849 21.71 3.79019C21.5217 3.60188 21.2663 3.49609 21 3.49609C20.7337 3.49609 20.4783 3.60188 20.29 3.79019L17 7.09019L15.71 5.79019C15.6168 5.69695 15.5061 5.62299 15.3842 5.57253C15.2624 5.52207 15.1319 5.49609 15 5.49609C14.7337 5.49609 14.4783 5.60188 14.29 5.79019C14.1968 5.88342 14.1228 5.99411 14.0723 6.11594C14.0219 6.23776 13.9959 6.36833 13.9959 6.50019C13.9959 6.76649 14.1017 7.02188 14.29 7.21019L16.29 9.21019ZM21 8.50019C20.7348 8.50019 20.4804 8.60554 20.2929 8.79308C20.1054 8.98062 20 9.23497 20 9.50019V18.5002C20 18.7654 19.8946 19.0198 19.7071 19.2073C19.5196 19.3948 19.2652 19.5002 19 19.5002H5C4.73478 19.5002 4.48043 19.3948 4.29289 19.2073C4.10536 19.0198 4 18.7654 4 18.5002V8.91019L9.88 14.8002C10.4412 15.3568 11.1995 15.6695 11.99 15.6702C12.8004 15.666 13.5764 15.3427 14.15 14.7702L15.87 13.0502C16.0583 12.8619 16.1641 12.6065 16.1641 12.3402C16.1641 12.0739 16.0583 11.8185 15.87 11.6302C15.6817 11.4419 15.4263 11.3361 15.16 11.3361C14.8937 11.3361 14.6383 11.4419 14.45 11.6302L12.7 13.3802C12.5131 13.5634 12.2618 13.666 12 13.666C11.7382 13.666 11.4869 13.5634 11.3 13.3802L5.41 7.50019H11C11.2652 7.50019 11.5196 7.39483 11.7071 7.20729C11.8946 7.01976 12 6.7654 12 6.50019C12 6.23497 11.8946 5.98062 11.7071 5.79308C11.5196 5.60554 11.2652 5.50019 11 5.50019H5C4.20435 5.50019 3.44129 5.81626 2.87868 6.37887C2.31607 6.94147 2 7.70454 2 8.50019V18.5002C2 19.2958 2.31607 20.0589 2.87868 20.6215C3.44129 21.1841 4.20435 21.5002 5 21.5002H19C19.7956 21.5002 20.5587 21.1841 21.1213 20.6215C21.6839 20.0589 22 19.2958 22 18.5002V9.50019C22 9.23497 21.8946 8.98062 21.7071 8.79308C21.5196 8.60554 21.2652 8.50019 21 8.50019Z" fill="#0E5267"/>
</svg>
