<svg width="16" height="17" viewBox="0 0 16 17" fill="none" xmlns="http://www.w3.org/2000/svg">
<path d="M4.05333 8.24647C4.08506 8.16463 4.13264 8.08987 4.19333 8.02647L7.52667 4.69313C7.58883 4.63097 7.66262 4.58167 7.74383 4.54803C7.82505 4.51438 7.91209 4.49707 8 4.49707C8.17753 4.49707 8.3478 4.5676 8.47333 4.69313C8.53549 4.75529 8.5848 4.82908 8.61844 4.9103C8.65208 4.99151 8.66939 5.07856 8.66939 5.16646C8.66939 5.344 8.59887 5.51426 8.47333 5.6398L6.27333 7.83313H11.3333C11.5101 7.83313 11.6797 7.90337 11.8047 8.02839C11.9298 8.15342 12 8.32299 12 8.4998C12 8.67661 11.9298 8.84618 11.8047 8.9712C11.6797 9.09623 11.5101 9.16647 11.3333 9.16647H6.27333L8.47333 11.3598C8.53582 11.4218 8.58541 11.4955 8.61926 11.5767C8.65311 11.658 8.67053 11.7451 8.67053 11.8331C8.67053 11.9211 8.65311 12.0083 8.61926 12.0895C8.58541 12.1708 8.53582 12.2445 8.47333 12.3065C8.41136 12.369 8.33762 12.4185 8.25638 12.4524C8.17514 12.4862 8.08801 12.5037 8 12.5037C7.91199 12.5037 7.82485 12.4862 7.74362 12.4524C7.66238 12.4185 7.58864 12.369 7.52667 12.3065L4.19333 8.97313C4.13264 8.90973 4.08506 8.83497 4.05333 8.75313C3.98665 8.59082 3.98665 8.40877 4.05333 8.24647Z" fill="#0E5267"/>
</svg>
