<svg width="132" height="132" viewBox="0 0 132 132" fill="none" xmlns="http://www.w3.org/2000/svg">
<path d="M94.8874 81.7217L95.0366 74.7894C95.0797 72.7862 94.2259 70.8705 92.7077 69.5633L82.5653 60.8329C81.106 59.5759 78.5359 59.6749 78.5359 59.6749L76.7138 46.8283C76.6889 46.6533 76.6327 46.4842 76.5478 46.3293L69.9018 34.2043C69.0838 32.7693 67.3633 32.0361 65.8006 32.5699C64.0284 33.174 63.5951 35.038 64.1633 36.7944L67.976 49.1738L66.6501 60.1126L60.0536 64.9398L58.2498 48.1177C57.9872 46.3857 56.7503 45.199 54.9537 45.3324C53.3193 45.4544 52.0293 46.7818 51.837 48.409C51.2013 53.7672 50.547 64.4462 50.1739 71.1216C49.9586 74.9659 50.468 78.813 51.6748 82.4679L54.8102 91.9645L37.2138 113.02C36.5883 113.769 36.8541 114.908 37.7462 115.302L64.1613 126.979C64.8027 127.262 65.5551 127.052 65.9566 126.477L92.8497 87.9782C94.134 86.14 94.8443 83.9631 94.8931 81.7203L94.8874 81.7217Z" fill="#DFB0A2"/>
<path d="M70.4822 67.3764C70.4262 67.3764 70.3688 67.365 70.3128 67.3434L67.3826 66.1596C67.1502 66.0663 67.0382 65.8023 67.1315 65.5698C67.2248 65.3388 67.4902 65.2269 67.7213 65.3187L70.6515 66.5026C70.884 66.5958 70.9959 66.8599 70.9026 67.0923C70.8309 67.2688 70.6615 67.3764 70.4822 67.3764Z" fill="#654237"/>
<path d="M52.5014 26.0265C55.7459 37.4718 58.9114 48.9386 64.1763 59.6592C69.5373 70.5736 76.5514 80.7475 85.2516 89.2712C90.0473 93.9692 95.3595 98.1565 101.099 101.645C102.349 102.404 103.489 100.445 102.243 99.689C92.1839 93.5732 83.5354 85.2791 76.5715 75.8141C69.609 66.3519 64.2408 55.7805 60.4425 44.6768C58.2743 38.3385 56.5136 31.8683 54.6869 25.4253C54.2894 24.0248 52.1025 24.6203 52.5028 26.028L52.5014 26.0265Z" fill="#AAC0B7"/>
<path d="M37.0634 16.4249C40.2089 21.519 43.5294 26.5026 47.0192 31.3672C47.289 31.7431 47.7568 31.9139 48.1815 31.6714C48.5518 31.4604 48.7527 30.8807 48.4858 30.509C44.9959 25.6445 41.6754 20.6609 38.53 15.5668C37.956 14.6383 36.4866 15.4907 37.0634 16.4249Z" fill="#AAC0B7"/>
<path d="M51.4419 7.37635C52.1479 13.9557 53.3963 20.4647 55.1986 26.8316C55.4957 27.882 57.1359 27.4357 56.8374 26.3796C55.0767 20.1605 53.8311 13.8021 53.1409 7.37635C53.0921 6.92004 52.7851 6.52686 52.2914 6.52686C51.8695 6.52686 51.3931 6.91717 51.4419 7.37635Z" fill="#AAC0B7"/>
<path d="M36.8224 16.9207C37.9589 16.9207 38.8802 15.9994 38.8802 14.8629C38.8802 13.7265 37.9589 12.8052 36.8224 12.8052C35.686 12.8052 34.7646 13.7265 34.7646 14.8629C34.7646 15.9994 35.686 16.9207 36.8224 16.9207Z" fill="#B55759"/>
<path d="M53.6261 7.75086C54.3781 6.99882 54.3781 5.77953 53.6261 5.02749C52.874 4.27544 51.6547 4.27544 50.9027 5.02748C50.1507 5.77952 50.1507 6.99881 50.9027 7.75085C51.6547 8.50289 52.874 8.5029 53.6261 7.75086Z" fill="#B55759"/>
<path d="M66.2833 16.4494C66.2273 16.1437 66.1685 15.8381 66.1054 15.5353C65.3563 11.889 63.8339 7.10056 59.4199 6.77338C56.2659 6.53949 54.828 8.73498 54.1622 12.0684C53.4978 15.4018 55.1709 21.8405 55.1709 21.8405C54.7103 20.0669 53.8522 18.3005 53.1677 16.6058C51.872 13.3972 50.3322 9.21856 46.5368 8.19687C43.7027 7.43347 40.7352 8.67041 40.3048 11.6135C39.7767 15.2282 40.5056 17.979 41.7784 21.0613C43.2048 24.5167 45.7849 27.6679 45.7849 27.6679C45.7849 27.6679 42.6638 24.8281 39.7666 22.7158C37.5209 21.0785 33.8674 19.2074 31.4911 21.6497C29.7089 23.4821 29.6602 26.6563 30.4006 28.9508C33.3222 38.0025 43.7831 44.3063 53.0802 42.1826C58.9349 40.8452 64.006 36.6278 65.7797 30.8062C67.1931 26.1684 67.1443 21.1919 66.279 16.4479L66.2833 16.4494Z" fill="#B55759"/>
<path d="M77.2443 60.8931L71.5504 66.0274C70.3924 67.0706 69.7065 68.5386 69.6491 70.0969L69.3363 78.4341C69.2961 79.4902 69.7868 80.4961 70.6435 81.116L81.2508 88.7888C82.9024 89.9841 85.2357 89.3269 86.0235 87.4471L89.0555 80.2005L92.6573 77.2804L77.2458 60.8945L77.2443 60.8931Z" fill="#DFB0A2"/>
<path d="M83.0983 89.8436C82.3478 89.8436 81.6102 89.6083 80.9846 89.1562L70.3773 81.4835C69.3958 80.7732 68.8376 79.6281 68.8835 78.417L69.1963 70.0798C69.2595 68.4095 70.0071 66.811 71.2483 65.6917L76.9423 60.556C77.1288 60.3881 77.4144 60.4039 77.5823 60.589C77.7502 60.7755 77.7358 61.0611 77.5493 61.229L71.8553 66.3647C70.7949 67.3204 70.1563 68.6879 70.1032 70.1143L69.7904 78.4514C69.756 79.3583 70.175 80.2178 70.9097 80.7488L81.5169 88.4215C82.1914 88.9094 83.038 89.0601 83.8387 88.8348C84.6394 88.6095 85.2837 88.0398 85.6052 87.2721L88.6372 80.0256C88.6659 79.9567 88.7118 79.8964 88.7692 79.8491L92.371 76.9289C92.5647 76.7711 92.8503 76.8012 93.0081 76.9949C93.166 77.1901 93.1358 77.4742 92.9421 77.632L89.4293 80.4804L86.4403 87.6223C86.0112 88.6468 85.1531 89.4074 84.0826 89.7073C83.7569 89.7991 83.4255 89.8436 83.0969 89.8436H83.0983Z" fill="#654237"/>
<path d="M68.0513 85.2204C67.8059 85.2204 67.605 85.0252 67.5993 84.7784C67.341 74.4323 61.3816 67.1771 61.3213 67.1054C61.1606 66.9131 61.1864 66.6276 61.3787 66.4668C61.571 66.3061 61.8565 66.332 62.0172 66.5242C62.0789 66.5989 68.2393 74.0822 68.5062 84.7555C68.5119 85.0051 68.3153 85.2132 68.0642 85.219C68.0599 85.219 68.057 85.219 68.0527 85.219L68.0513 85.2204Z" fill="#654237"/>
<path d="M74.1616 83.5744C74.1401 83.5744 74.12 83.5744 74.0985 83.5701C73.8502 83.5357 73.678 83.3061 73.7124 83.0578L75.2894 71.8364C75.3038 71.7316 75.3555 71.6355 75.4329 71.5637C77.5065 69.6768 84.2953 63.5079 84.5923 63.3084C84.8004 63.1692 85.0816 63.2252 85.2208 63.4347C85.3572 63.6399 85.3055 63.9154 85.1046 64.0574C84.7674 64.3172 79.6259 68.9765 76.1648 72.1248L74.6107 83.1841C74.5791 83.4108 74.3854 83.5744 74.163 83.5744H74.1616Z" fill="#654237"/>
<path d="M79.363 87.912C79.3214 87.912 79.2798 87.9062 79.2382 87.8948C78.9971 87.8259 78.8579 87.5748 78.9268 87.3337L82.2903 75.5971C82.3133 75.5168 82.3578 75.445 82.4181 75.3891L90.3247 68.0693C90.5084 67.8985 90.7939 67.91 90.9647 68.0937C91.134 68.2774 91.124 68.5644 90.9403 68.7337L83.1269 75.9673L79.7978 87.5834C79.7404 87.7828 79.5596 87.912 79.363 87.912Z" fill="#654237"/>
<path d="M102.928 30.5225C102.351 28.4991 102.173 24.232 102.493 22.1579C102.493 22.1579 99.2232 27.5233 97.1145 30.5364C94.787 33.8614 90.8505 35.7317 87.7961 36.525C90.9225 38.0644 93.084 41.1793 94.045 44.5297C95.006 47.88 94.3251 54.8971 94.3251 54.8971C94.3251 54.8971 97.459 49.3955 99.0263 46.644C101.357 42.5528 104.692 38.3877 109.334 37.5936C105.872 35.3614 104.055 34.4839 102.927 30.5219L102.928 30.5225Z" fill="#B55759"/>
<path d="M20.2449 64.4958C20.2133 62.4687 19.7183 57.9228 18.845 56.0983C18.845 56.0983 23.2887 60.6594 26.0726 62.855C29.1445 65.2768 32.1522 64.8135 35.1889 64.6957C32.7342 66.9854 31.6628 71.1155 31.7087 74.4742C31.7545 77.8328 33.5042 84.0402 33.5042 84.0402C33.5042 84.0402 28.8843 78.3389 26.6722 76.2366C23.3838 73.1093 20.8062 72.2438 16.3042 72.8023C18.875 69.7794 20.3054 68.4655 20.2435 64.4964L20.2449 64.4958Z" fill="#AAC0B7"/>
</svg>
