<svg width="157" height="81" viewBox="0 0 157 81" fill="none" xmlns="http://www.w3.org/2000/svg">
<path d="M143.038 80.8988L139.405 80.6821C139.451 79.8941 139.464 79.093 139.464 78.2985C139.464 77.944 139.464 77.5763 139.451 77.2217C138.865 44.2528 111.505 17.4495 78.4653 17.4495C45.425 17.4495 18.0648 44.2528 17.479 77.1954C17.4659 77.5763 17.4659 77.944 17.4659 78.2985C17.4659 79.0996 17.479 79.8941 17.5251 80.6821L13.892 80.8988C13.8394 80.0386 13.8262 79.1718 13.8262 78.2985C13.8262 77.9046 13.8262 77.4975 13.8393 77.1035C14.458 42.2172 43.4505 13.8184 78.4583 13.8184C95.5253 13.8184 111.617 20.3912 123.78 32.322C135.923 44.2396 142.782 60.1495 143.078 77.1298C143.091 77.4975 143.091 77.9046 143.091 78.2985C143.097 79.1718 143.084 80.0386 143.038 80.8988Z" fill="white"/>
<path d="M156.012 80.8731L152.378 80.7155C152.411 79.921 152.425 79.1133 152.425 78.3057C152.425 77.9511 152.425 77.5834 152.411 77.2288C151.819 37.129 118.647 4.52777 78.4659 4.52777C38.2842 4.52777 5.11239 37.1159 4.51999 77.1894C4.50689 77.5768 4.50689 77.9445 4.50689 78.2991C4.50689 79.1068 4.51999 79.9144 4.55289 80.7089L0.919788 80.8665C0.880288 80.0195 0.867188 79.1527 0.867188 78.2925C0.867188 77.8986 0.867187 77.4915 0.880287 77.0975C1.18309 56.6963 9.38389 37.5361 23.9822 23.1692C38.5936 8.7958 57.9373 0.876953 78.4589 0.876953C98.9879 0.876953 118.338 8.7958 132.943 23.1692C147.534 37.5295 155.742 56.6897 156.038 77.1238C156.051 77.4849 156.051 77.892 156.051 78.286C156.058 79.1593 156.044 80.0195 156.012 80.8731Z" fill="white"/>
<path d="M131.072 80.8731L127.439 80.7156C127.471 79.921 127.498 79.1134 127.498 78.3058C127.498 77.9512 127.498 77.5835 127.485 77.2289C126.905 50.8524 104.916 29.4072 78.4643 29.4072C52.0255 29.4072 30.0426 50.8524 29.4568 77.2092C29.4436 77.5835 29.4436 77.9512 29.4436 78.3058C29.4436 79.1134 29.47 79.921 29.5029 80.7156L25.8698 80.8731C25.8303 80.0261 25.8105 79.1659 25.8105 78.2992C25.8105 77.9052 25.8105 77.4981 25.8237 77.1041C26.4489 48.8038 50.0642 25.7695 78.4643 25.7695C106.871 25.7695 130.492 48.8038 131.118 77.1238C131.131 77.4981 131.131 77.9052 131.131 78.2992C131.131 79.1594 131.105 80.0195 131.072 80.8731Z" fill="white"/>
<path d="M116.513 78.3023C116.513 79.1362 116.487 79.9701 116.428 80.7909H40.5075C40.4483 79.9701 40.4219 79.1362 40.4219 78.3023C40.4219 77.928 40.4219 77.5406 40.4351 77.1663C41.0406 56.7389 57.8306 40.3496 78.4709 40.3496C99.1109 40.3496 115.895 56.7389 116.507 77.1663C116.513 77.5406 116.513 77.928 116.513 78.3023Z" fill="white"/>
</svg>
